<svg width="48" height="48" viewBox="0 0 48 48" fill="none" xmlns="http://www.w3.org/2000/svg">
<g clip-path="url(#clip0_73_440)">
<mask id="path-1-inside-1_73_440" fill="white">
<path fill-rule="evenodd" clip-rule="evenodd" d="M28.9849 39.5717C36.0434 42.1408 43.8327 38.5438 46.3827 31.5376C48.9328 24.5314 45.278 16.7691 38.2195 14.2C32.3214 12.0533 25.9132 14.2119 22.4777 19.0673C21.4753 17.8518 20.1454 16.88 18.5582 16.3023C13.8133 14.5753 8.56575 17.0248 6.83738 21.7735C5.11764 26.4984 7.53005 31.7193 12.2283 33.4725L12.2282 33.4728L28.9849 39.5717Z"/>
</mask>
<path fill-rule="evenodd" clip-rule="evenodd" d="M28.9849 39.5717C36.0434 42.1408 43.8327 38.5438 46.3827 31.5376C48.9328 24.5314 45.278 16.7691 38.2195 14.2C32.3214 12.0533 25.9132 14.2119 22.4777 19.0673C21.4753 17.8518 20.1454 16.88 18.5582 16.3023C13.8133 14.5753 8.56575 17.0248 6.83738 21.7735C5.11764 26.4984 7.53005 31.7193 12.2283 33.4725L12.2282 33.4728L28.9849 39.5717Z" fill="white"/>
<path fill-rule="evenodd" clip-rule="evenodd" d="M28.9849 39.5717C36.0434 42.1408 43.8327 38.5438 46.3827 31.5376C48.9328 24.5314 45.278 16.7691 38.2195 14.2C32.3214 12.0533 25.9132 14.2119 22.4777 19.0673C21.4753 17.8518 20.1454 16.88 18.5582 16.3023C13.8133 14.5753 8.56575 17.0248 6.83738 21.7735C5.11764 26.4984 7.53005 31.7193 12.2283 33.4725L12.2282 33.4728L28.9849 39.5717Z" fill="black" fill-opacity="0.15"/>
<path d="M28.9849 39.5717L30.011 36.7527L30.011 36.7527L28.9849 39.5717ZM22.4777 19.0673L24.9267 20.8L22.6601 24.0034L20.1633 20.9761L22.4777 19.0673ZM12.2283 33.4725L13.2772 30.6618L16.0652 31.7022L15.0474 34.4986L12.2283 33.4725ZM12.2282 33.4728L11.2022 36.2919L8.38309 35.2658L9.40915 32.4468L12.2282 33.4728ZM30.011 36.7527C35.5323 38.7623 41.5874 35.9411 43.5636 30.5116L49.2018 32.5637C46.0779 41.1465 36.5545 45.5194 27.9589 42.3908L30.011 36.7527ZM43.5636 30.5116C45.5398 25.082 42.7148 19.0287 37.1934 17.0191L39.2455 11.381C47.8411 14.5095 52.3257 23.9808 49.2018 32.5637L43.5636 30.5116ZM37.1934 17.0191C32.5859 15.3421 27.5932 17.0314 24.9267 20.8L20.0288 17.3345C24.2332 11.3924 32.057 8.76457 39.2455 11.381L37.1934 17.0191ZM20.1633 20.9761C19.4921 20.1622 18.6027 19.511 17.5321 19.1214L19.5843 13.4832C21.6881 14.2489 23.4585 15.5415 24.7921 17.1584L20.1633 20.9761ZM17.5321 19.1214C14.3463 17.9618 10.8189 19.6057 9.65646 22.7995L4.0183 20.7474C6.31257 14.444 13.2803 11.1888 19.5843 13.4832L17.5321 19.1214ZM9.65646 22.7995C8.49985 25.9773 10.1232 29.4849 13.2772 30.6618L11.1795 36.2832C4.93695 33.9537 1.73543 27.0195 4.0183 20.7474L9.65646 22.7995ZM9.40915 32.4468L9.40926 32.4465L15.0474 34.4986L15.0473 34.4989L9.40915 32.4468ZM27.9589 42.3908L11.2022 36.2919L13.2543 30.6537L30.011 36.7527L27.9589 42.3908Z" fill="black" mask="url(#path-1-inside-1_73_440)"/>
<mask id="path-3-inside-2_73_440" fill="white">
<path fill-rule="evenodd" clip-rule="evenodd" d="M31.3573 48.352H13.6007C6.08926 48.352 0 42.3078 0 34.852C0 27.3961 6.08926 21.352 13.6007 21.352C19.8773 21.352 25.1608 25.5721 26.7285 31.3097C28.0861 30.5104 29.6682 30.052 31.3573 30.052C36.4067 30.052 40.5 34.1486 40.5 39.202C40.5 44.2302 36.4474 48.3111 31.4328 48.3517V48.352L31.3573 48.352Z"/>
</mask>
<path fill-rule="evenodd" clip-rule="evenodd" d="M31.3573 48.352H13.6007C6.08926 48.352 0 42.3078 0 34.852C0 27.3961 6.08926 21.352 13.6007 21.352C19.8773 21.352 25.1608 25.5721 26.7285 31.3097C28.0861 30.5104 29.6682 30.052 31.3573 30.052C36.4067 30.052 40.5 34.1486 40.5 39.202C40.5 44.2302 36.4474 48.3111 31.4328 48.3517V48.352L31.3573 48.352Z" fill="white"/>
<path d="M31.3573 48.352L31.3574 45.352H31.3573V48.352ZM26.7285 31.3097L23.8345 32.1004L24.8688 35.8857L28.2504 33.8949L26.7285 31.3097ZM31.4328 48.3517L31.4085 45.3518L28.4328 45.3759V48.3517H31.4328ZM31.4328 48.352L31.4328 51.352L34.4328 51.3521V48.352H31.4328ZM13.6007 51.352H31.3573V45.352H13.6007V51.352ZM13.6007 45.352C7.72505 45.352 3 40.63 3 34.852H-3C-3 43.9857 4.45348 51.352 13.6007 51.352V45.352ZM3 34.852C3 29.074 7.72505 24.352 13.6007 24.352V18.352C4.45348 18.352 -3 25.7183 -3 34.852H3ZM13.6007 24.352C18.504 24.352 22.6178 27.647 23.8345 32.1004L29.6224 30.519C27.7039 23.4972 21.2506 18.352 13.6007 18.352V24.352ZM28.2504 33.8949C29.1596 33.3597 30.218 33.052 31.3573 33.052V27.052C29.1184 27.052 27.0127 27.6611 25.2065 28.7244L28.2504 33.8949ZM31.3573 33.052C34.7475 33.052 37.5 35.8032 37.5 39.202H43.5C43.5 32.494 38.0658 27.052 31.3573 27.052V33.052ZM37.5 39.202C37.5 42.5837 34.7749 45.3245 31.4085 45.3518L31.4571 51.3516C38.1199 51.2976 43.5 45.8766 43.5 39.202H37.5ZM34.4328 48.352V48.3517H28.4328V48.352H34.4328ZM31.3572 51.352L31.4328 51.352L31.4329 45.352L31.3574 45.352L31.3572 51.352Z" fill="black" mask="url(#path-3-inside-2_73_440)"/>
</g>
<defs>
<clipPath id="clip0_73_440">
<rect width="48" height="48" fill="white"/>
</clipPath>
</defs>
</svg>
