<svg width="96" height="96" viewBox="0 0 96 96" fill="none" xmlns="http://www.w3.org/2000/svg">
<g clip-path="url(#clip0_73_411)">
<mask id="path-1-inside-1_73_411" fill="white">
<path fill-rule="evenodd" clip-rule="evenodd" d="M57.9699 78.4399C72.0868 83.5781 87.6654 76.3841 92.7655 62.3717C97.8656 48.3593 90.5559 32.8347 76.439 27.6965C64.6429 23.4031 51.8264 27.7202 44.9555 37.431C42.9506 35.0001 40.2908 33.0564 37.1164 31.901C27.6267 28.447 17.1315 33.3461 13.6748 42.8434C10.2353 52.2933 15.0601 62.735 24.4567 66.2415L24.4565 66.2421L57.9699 78.4399Z"/>
</mask>
<path fill-rule="evenodd" clip-rule="evenodd" d="M57.9699 78.4399C72.0868 83.5781 87.6654 76.3841 92.7655 62.3717C97.8656 48.3593 90.5559 32.8347 76.439 27.6965C64.6429 23.4031 51.8264 27.7202 44.9555 37.431C42.9506 35.0001 40.2908 33.0564 37.1164 31.901C27.6267 28.447 17.1315 33.3461 13.6748 42.8434C10.2353 52.2933 15.0601 62.735 24.4567 66.2415L24.4565 66.2421L57.9699 78.4399Z" fill="white"/>
<path fill-rule="evenodd" clip-rule="evenodd" d="M57.9699 78.4399C72.0868 83.5781 87.6654 76.3841 92.7655 62.3717C97.8656 48.3593 90.5559 32.8347 76.439 27.6965C64.6429 23.4031 51.8264 27.7202 44.9555 37.431C42.9506 35.0001 40.2908 33.0564 37.1164 31.901C27.6267 28.447 17.1315 33.3461 13.6748 42.8434C10.2353 52.2933 15.0601 62.735 24.4567 66.2415L24.4565 66.2421L57.9699 78.4399Z" fill="black" fill-opacity="0.15"/>
<path d="M57.9699 78.44L59.338 74.6812L59.338 74.6812L57.9699 78.44ZM44.9555 37.431L48.2208 39.7414L45.1987 44.0125L41.8696 39.9761L44.9555 37.431ZM24.4567 66.2415L25.8552 62.494L29.5725 63.8812L28.2155 67.6096L24.4567 66.2415ZM24.4565 66.2421L23.0884 70.0009L19.3297 68.6328L20.6977 64.874L24.4565 66.2421ZM59.338 74.6812C71.4054 79.0734 84.6718 72.9138 89.0067 61.0037L96.5242 63.7398C90.659 79.8544 72.7683 88.0829 56.6018 82.1987L59.338 74.6812ZM89.0067 61.0037C93.3417 49.0935 87.1384 35.8475 75.0709 31.4553L77.8071 23.9378C93.9735 29.8219 102.389 47.6252 96.5242 63.7398L89.0067 61.0037ZM75.0709 31.4553C64.9955 27.7882 54.0665 31.4796 48.2208 39.7414L41.6902 35.1206C49.5864 23.9609 64.2904 19.0181 77.8071 23.9378L75.0709 31.4553ZM41.8696 39.9761C40.3063 38.0806 38.2339 36.5645 35.7484 35.6598L38.4845 28.1423C42.3478 29.5484 45.5949 31.9197 48.0414 34.8859L41.8696 39.9761ZM35.7484 35.6598C28.3374 32.9624 20.1358 36.7873 17.4336 44.2115L9.91604 41.4754C14.1273 29.905 26.9161 23.9317 38.4845 28.1423L35.7484 35.6598ZM17.4336 44.2115C14.7449 51.5985 18.5176 59.7558 25.8552 62.494L23.0582 69.9891C11.6027 65.7142 5.72572 52.9882 9.91604 41.4754L17.4336 44.2115ZM20.6977 64.874L20.6979 64.8734L28.2155 67.6096L28.2153 67.6102L20.6977 64.874ZM56.6018 82.1987L23.0884 70.0009L25.8246 62.4833L59.338 74.6812L56.6018 82.1987Z" fill="black" mask="url(#path-1-inside-1_73_411)"/>
<mask id="path-3-inside-2_73_411" fill="white">
<path fill-rule="evenodd" clip-rule="evenodd" d="M62.7146 96.0002H27.2015C12.1785 96.0002 0 83.9119 0 69.0002C0 54.0886 12.1785 42.0002 27.2015 42.0002C39.7546 42.0002 50.3216 50.4405 53.4569 61.9156C56.1723 60.317 59.3364 59.4002 62.7146 59.4002C72.8133 59.4002 81 67.5934 81 77.7002C81 87.7566 72.8949 95.9184 62.8657 95.9996V96.0002L62.7146 96.0002Z"/>
</mask>
<path fill-rule="evenodd" clip-rule="evenodd" d="M62.7146 96.0002H27.2015C12.1785 96.0002 0 83.9119 0 69.0002C0 54.0886 12.1785 42.0002 27.2015 42.0002C39.7546 42.0002 50.3216 50.4405 53.4569 61.9156C56.1723 60.317 59.3364 59.4002 62.7146 59.4002C72.8133 59.4002 81 67.5934 81 77.7002C81 87.7566 72.8949 95.9184 62.8657 95.9996V96.0002L62.7146 96.0002Z" fill="white"/>
<path d="M62.7146 96.0002L62.7147 92.0002H62.7146V96.0002ZM53.4569 61.9156L49.5983 62.9698L50.9774 68.017L55.4862 65.3626L53.4569 61.9156ZM62.8657 95.9996L62.8333 91.9998L58.8657 92.0319V95.9996H62.8657ZM62.8657 96.0002L62.8656 100L66.8657 100V96.0002H62.8657ZM27.2015 100H62.7146V92.0002H27.2015V100ZM27.2015 92.0002C14.3596 92.0002 4 81.6748 4 69.0002H-4C-4 86.1491 9.99747 100 27.2015 100V92.0002ZM4 69.0002C4 56.3257 14.3596 46.0002 27.2015 46.0002V38.0002C9.99747 38.0002 -4 51.8514 -4 69.0002H4ZM27.2015 46.0002C37.9235 46.0002 46.9309 53.207 49.5983 62.9698L57.3155 60.8613C53.7124 47.674 41.5856 38.0002 27.2015 38.0002V46.0002ZM55.4862 65.3626C57.6035 64.1161 60.0695 63.4002 62.7146 63.4002V55.4002C58.6034 55.4002 54.741 56.5179 51.4276 58.4685L55.4862 65.3626ZM62.7146 63.4002C70.6012 63.4002 77 69.7996 77 77.7002H85C85 65.3873 75.0255 55.4002 62.7146 55.4002V63.4002ZM77 77.7002C77 85.5613 70.6648 91.9363 62.8333 91.9998L62.8981 99.9995C75.1249 99.9005 85 89.9519 85 77.7002H77ZM66.8657 96.0002V95.9996H58.8657V96.0002H66.8657ZM62.7145 100L62.8656 100L62.8658 92.0002L62.7147 92.0002L62.7145 100Z" fill="black" mask="url(#path-3-inside-2_73_411)"/>
</g>
<defs>
<clipPath id="clip0_73_411">
<rect width="96" height="96" fill="white"/>
</clipPath>
</defs>
</svg>
