<svg width="48" height="48" viewBox="0 0 48 48" fill="none" xmlns="http://www.w3.org/2000/svg">
<mask id="path-1-inside-1_73_487" fill="white">
<path fill-rule="evenodd" clip-rule="evenodd" d="M35.3573 38.0001H17.6007C10.0893 38.0001 4 31.9559 4 24.5001C4 17.0442 10.0893 11.0001 17.6007 11.0001C23.8773 11.0001 29.1608 15.2202 30.7285 20.9577C32.0861 20.1585 33.6682 19.7001 35.3573 19.7001C40.4067 19.7001 44.5 23.7967 44.5 28.8501C44.5 33.8782 40.4474 37.9591 35.4328 37.9998V38.0001L35.3573 38.0001Z"/>
</mask>
<path fill-rule="evenodd" clip-rule="evenodd" d="M35.3573 38.0001H17.6007C10.0893 38.0001 4 31.9559 4 24.5001C4 17.0442 10.0893 11.0001 17.6007 11.0001C23.8773 11.0001 29.1608 15.2202 30.7285 20.9577C32.0861 20.1585 33.6682 19.7001 35.3573 19.7001C40.4067 19.7001 44.5 23.7967 44.5 28.8501C44.5 33.8782 40.4474 37.9591 35.4328 37.9998V38.0001L35.3573 38.0001Z" fill="white"/>
<path d="M35.3573 38.0001L35.3574 35.0001H35.3573V38.0001ZM30.7285 20.9577L27.8345 21.7484L28.8688 25.5338L32.2504 23.543L30.7285 20.9577ZM35.4328 37.9998L35.4085 34.9999L32.4328 35.024V37.9998H35.4328ZM35.4328 38.0001L35.4328 41.0001L38.4328 41.0001V38.0001H35.4328ZM17.6007 41.0001H35.3573V35.0001H17.6007V41.0001ZM17.6007 35.0001C11.725 35.0001 7 30.2781 7 24.5001H1C1 33.6337 8.45348 41.0001 17.6007 41.0001V35.0001ZM7 24.5001C7 18.7221 11.725 14.0001 17.6007 14.0001V8.00006C8.45348 8.00006 1 15.3664 1 24.5001H7ZM17.6007 14.0001C22.504 14.0001 26.6178 17.2951 27.8345 21.7484L33.6224 20.167C31.7039 13.1453 25.2506 8.00006 17.6007 8.00006V14.0001ZM32.2504 23.543C33.1596 23.0078 34.218 22.7001 35.3573 22.7001V16.7001C33.1184 16.7001 31.0127 17.3091 29.2065 18.3725L32.2504 23.543ZM35.3573 22.7001C38.7475 22.7001 41.5 25.4513 41.5 28.8501H47.5C47.5 22.1421 42.0658 16.7001 35.3573 16.7001V22.7001ZM41.5 28.8501C41.5 32.2318 38.7749 34.9726 35.4085 34.9999L35.4571 40.9997C42.1199 40.9457 47.5 35.5247 47.5 28.8501H41.5ZM38.4328 38.0001V37.9998H32.4328V38.0001H38.4328ZM35.3572 41.0001L35.4328 41.0001L35.4329 35.0001L35.3574 35.0001L35.3572 41.0001Z" fill="black" mask="url(#path-1-inside-1_73_487)"/>
<mask id="path-3-inside-2_73_487" fill="white">
<path fill-rule="evenodd" clip-rule="evenodd" d="M0 34C0 32.8954 0.895431 32 2 32H12C13.1046 32 14 32.8954 14 34C14 35.1046 13.1046 36 12 36H2C0.89543 36 0 35.1046 0 34ZM15 34C15 32.8954 15.8954 32 17 32H20C21.1046 32 22 32.8954 22 34C22 35.1046 21.1046 36 20 36H17C15.8954 36 15 35.1046 15 34ZM25 32C23.8954 32 23 32.8954 23 34C23 35.1046 23.8954 36 25 36H46C47.1046 36 48 35.1046 48 34C48 32.8954 47.1046 32 46 32H25ZM22 38C23.1046 38 24 38.8954 24 40C24 41.1046 23.1046 42 22 42H2C0.895431 42 0 41.1046 0 40C0 38.8954 0.89543 38 2 38H22ZM32 40C32 38.8954 31.1046 38 30 38H27C25.8954 38 25 38.8954 25 40C25 41.1046 25.8954 42 27 42H30C31.1046 42 32 41.1046 32 40ZM48 40C48 38.8954 47.1046 38 46 38H35C33.8954 38 33 38.8954 33 40C33 41.1046 33.8954 42 35 42H46C47.1046 42 48 41.1046 48 40ZM2 44C0.895431 44 0 44.8954 0 46C0 47.1046 0.895431 48 2 48H10C11.1046 48 12 47.1046 12 46C12 44.8954 11.1046 44 10 44H2ZM15 44C13.8954 44 13 44.8954 13 46C13 47.1046 13.8954 48 15 48H17C18.1046 48 19 47.1046 19 46C19 44.8954 18.1046 44 17 44H15ZM20 46C20 44.8954 20.8954 44 22 44H46C47.1046 44 48 44.8954 48 46C48 47.1046 47.1046 48 46 48H22C20.8954 48 20 47.1046 20 46Z"/>
</mask>
<path fill-rule="evenodd" clip-rule="evenodd" d="M0 34C0 32.8954 0.895431 32 2 32H12C13.1046 32 14 32.8954 14 34C14 35.1046 13.1046 36 12 36H2C0.89543 36 0 35.1046 0 34ZM15 34C15 32.8954 15.8954 32 17 32H20C21.1046 32 22 32.8954 22 34C22 35.1046 21.1046 36 20 36H17C15.8954 36 15 35.1046 15 34ZM25 32C23.8954 32 23 32.8954 23 34C23 35.1046 23.8954 36 25 36H46C47.1046 36 48 35.1046 48 34C48 32.8954 47.1046 32 46 32H25ZM22 38C23.1046 38 24 38.8954 24 40C24 41.1046 23.1046 42 22 42H2C0.895431 42 0 41.1046 0 40C0 38.8954 0.89543 38 2 38H22ZM32 40C32 38.8954 31.1046 38 30 38H27C25.8954 38 25 38.8954 25 40C25 41.1046 25.8954 42 27 42H30C31.1046 42 32 41.1046 32 40ZM48 40C48 38.8954 47.1046 38 46 38H35C33.8954 38 33 38.8954 33 40C33 41.1046 33.8954 42 35 42H46C47.1046 42 48 41.1046 48 40ZM2 44C0.895431 44 0 44.8954 0 46C0 47.1046 0.895431 48 2 48H10C11.1046 48 12 47.1046 12 46C12 44.8954 11.1046 44 10 44H2ZM15 44C13.8954 44 13 44.8954 13 46C13 47.1046 13.8954 48 15 48H17C18.1046 48 19 47.1046 19 46C19 44.8954 18.1046 44 17 44H15ZM20 46C20 44.8954 20.8954 44 22 44H46C47.1046 44 48 44.8954 48 46C48 47.1046 47.1046 48 46 48H22C20.8954 48 20 47.1046 20 46Z" fill="white"/>
<path fill-rule="evenodd" clip-rule="evenodd" d="M0 34C0 32.8954 0.895431 32 2 32H12C13.1046 32 14 32.8954 14 34C14 35.1046 13.1046 36 12 36H2C0.89543 36 0 35.1046 0 34ZM15 34C15 32.8954 15.8954 32 17 32H20C21.1046 32 22 32.8954 22 34C22 35.1046 21.1046 36 20 36H17C15.8954 36 15 35.1046 15 34ZM25 32C23.8954 32 23 32.8954 23 34C23 35.1046 23.8954 36 25 36H46C47.1046 36 48 35.1046 48 34C48 32.8954 47.1046 32 46 32H25ZM22 38C23.1046 38 24 38.8954 24 40C24 41.1046 23.1046 42 22 42H2C0.895431 42 0 41.1046 0 40C0 38.8954 0.89543 38 2 38H22ZM32 40C32 38.8954 31.1046 38 30 38H27C25.8954 38 25 38.8954 25 40C25 41.1046 25.8954 42 27 42H30C31.1046 42 32 41.1046 32 40ZM48 40C48 38.8954 47.1046 38 46 38H35C33.8954 38 33 38.8954 33 40C33 41.1046 33.8954 42 35 42H46C47.1046 42 48 41.1046 48 40ZM2 44C0.895431 44 0 44.8954 0 46C0 47.1046 0.895431 48 2 48H10C11.1046 48 12 47.1046 12 46C12 44.8954 11.1046 44 10 44H2ZM15 44C13.8954 44 13 44.8954 13 46C13 47.1046 13.8954 48 15 48H17C18.1046 48 19 47.1046 19 46C19 44.8954 18.1046 44 17 44H15ZM20 46C20 44.8954 20.8954 44 22 44H46C47.1046 44 48 44.8954 48 46C48 47.1046 47.1046 48 46 48H22C20.8954 48 20 47.1046 20 46Z" fill="black" fill-opacity="0.1"/>
<path d="M2 30.5C0.0670036 30.5 -1.5 32.067 -1.5 34H1.5C1.5 33.7239 1.72386 33.5 2 33.5V30.5ZM12 30.5H2V33.5H12V30.5ZM15.5 34C15.5 32.067 13.933 30.5 12 30.5V33.5C12.2761 33.5 12.5 33.7239 12.5 34H15.5ZM12 37.5C13.933 37.5 15.5 35.933 15.5 34H12.5C12.5 34.2761 12.2761 34.5 12 34.5V37.5ZM2 37.5H12V34.5H2V37.5ZM-1.5 34C-1.5 35.933 0.0670031 37.5 2 37.5V34.5C1.72386 34.5 1.5 34.2761 1.5 34H-1.5ZM17 30.5C15.067 30.5 13.5 32.067 13.5 34H16.5C16.5 33.7239 16.7239 33.5 17 33.5V30.5ZM20 30.5H17V33.5H20V30.5ZM23.5 34C23.5 32.067 21.933 30.5 20 30.5V33.5C20.2761 33.5 20.5 33.7239 20.5 34H23.5ZM20 37.5C21.933 37.5 23.5 35.933 23.5 34H20.5C20.5 34.2761 20.2761 34.5 20 34.5V37.5ZM17 37.5H20V34.5H17V37.5ZM13.5 34C13.5 35.933 15.067 37.5 17 37.5V34.5C16.7239 34.5 16.5 34.2761 16.5 34H13.5ZM24.5 34C24.5 33.7239 24.7239 33.5 25 33.5V30.5C23.067 30.5 21.5 32.067 21.5 34H24.5ZM25 34.5C24.7239 34.5 24.5 34.2761 24.5 34H21.5C21.5 35.933 23.067 37.5 25 37.5V34.5ZM46 34.5H25V37.5H46V34.5ZM46.5 34C46.5 34.2761 46.2761 34.5 46 34.5V37.5C47.933 37.5 49.5 35.933 49.5 34H46.5ZM46 33.5C46.2761 33.5 46.5 33.7239 46.5 34H49.5C49.5 32.067 47.933 30.5 46 30.5V33.5ZM25 33.5H46V30.5H25V33.5ZM25.5 40C25.5 38.067 23.933 36.5 22 36.5V39.5C22.2761 39.5 22.5 39.7239 22.5 40H25.5ZM22 43.5C23.933 43.5 25.5 41.933 25.5 40H22.5C22.5 40.2761 22.2761 40.5 22 40.5V43.5ZM2 43.5H22V40.5H2V43.5ZM-1.5 40C-1.5 41.933 0.0670034 43.5 2 43.5V40.5C1.72386 40.5 1.5 40.2761 1.5 40H-1.5ZM2 36.5C0.0670024 36.5 -1.5 38.067 -1.5 40H1.5C1.5 39.7239 1.72386 39.5 2 39.5V36.5ZM22 36.5H2V39.5H22V36.5ZM30 39.5C30.2761 39.5 30.5 39.7239 30.5 40H33.5C33.5 38.067 31.933 36.5 30 36.5V39.5ZM27 39.5H30V36.5H27V39.5ZM26.5 40C26.5 39.7239 26.7239 39.5 27 39.5V36.5C25.067 36.5 23.5 38.067 23.5 40H26.5ZM27 40.5C26.7239 40.5 26.5 40.2761 26.5 40H23.5C23.5 41.933 25.067 43.5 27 43.5V40.5ZM30 40.5H27V43.5H30V40.5ZM30.5 40C30.5 40.2761 30.2761 40.5 30 40.5V43.5C31.933 43.5 33.5 41.933 33.5 40H30.5ZM46 39.5C46.2761 39.5 46.5 39.7239 46.5 40H49.5C49.5 38.067 47.933 36.5 46 36.5V39.5ZM35 39.5H46V36.5H35V39.5ZM34.5 40C34.5 39.7239 34.7239 39.5 35 39.5V36.5C33.067 36.5 31.5 38.067 31.5 40H34.5ZM35 40.5C34.7239 40.5 34.5 40.2761 34.5 40H31.5C31.5 41.933 33.067 43.5 35 43.5V40.5ZM46 40.5H35V43.5H46V40.5ZM46.5 40C46.5 40.2761 46.2761 40.5 46 40.5V43.5C47.933 43.5 49.5 41.933 49.5 40H46.5ZM1.5 46C1.5 45.7239 1.72386 45.5 2 45.5V42.5C0.0670034 42.5 -1.5 44.067 -1.5 46H1.5ZM2 46.5C1.72386 46.5 1.5 46.2761 1.5 46H-1.5C-1.5 47.933 0.0670038 49.5 2 49.5V46.5ZM10 46.5H2V49.5H10V46.5ZM10.5 46C10.5 46.2761 10.2761 46.5 10 46.5V49.5C11.933 49.5 13.5 47.933 13.5 46H10.5ZM10 45.5C10.2761 45.5 10.5 45.7239 10.5 46H13.5C13.5 44.067 11.933 42.5 10 42.5V45.5ZM2 45.5H10V42.5H2V45.5ZM14.5 46C14.5 45.7239 14.7239 45.5 15 45.5V42.5C13.067 42.5 11.5 44.067 11.5 46H14.5ZM15 46.5C14.7239 46.5 14.5 46.2761 14.5 46H11.5C11.5 47.933 13.067 49.5 15 49.5V46.5ZM17 46.5H15V49.5H17V46.5ZM17.5 46C17.5 46.2761 17.2761 46.5 17 46.5V49.5C18.933 49.5 20.5 47.933 20.5 46H17.5ZM17 45.5C17.2761 45.5 17.5 45.7239 17.5 46H20.5C20.5 44.067 18.933 42.5 17 42.5V45.5ZM15 45.5H17V42.5H15V45.5ZM22 42.5C20.067 42.5 18.5 44.067 18.5 46H21.5C21.5 45.7239 21.7239 45.5 22 45.5V42.5ZM46 42.5H22V45.5H46V42.5ZM49.5 46C49.5 44.067 47.933 42.5 46 42.5V45.5C46.2761 45.5 46.5 45.7239 46.5 46H49.5ZM46 49.5C47.933 49.5 49.5 47.933 49.5 46H46.5C46.5 46.2761 46.2761 46.5 46 46.5V49.5ZM22 49.5H46V46.5H22V49.5ZM18.5 46C18.5 47.933 20.067 49.5 22 49.5V46.5C21.7239 46.5 21.5 46.2761 21.5 46H18.5Z" fill="black" mask="url(#path-3-inside-2_73_487)"/>
</svg>
