<svg width="96" height="96" viewBox="0 0 96 96" fill="none" xmlns="http://www.w3.org/2000/svg">
<mask id="path-1-inside-1_73_457" fill="white">
<path fill-rule="evenodd" clip-rule="evenodd" d="M69.7146 75H34.2015C19.1785 75 7 62.9117 7 48C7 33.0883 19.1785 21 34.2015 21C46.7546 21 57.3216 29.4402 60.4569 40.9153C63.1723 39.3168 66.3364 38.4 69.7146 38.4C79.8133 38.4 88 46.5932 88 56.7C88 66.7564 79.8949 74.9181 69.8657 74.9994V75L69.7146 75Z"/>
</mask>
<path fill-rule="evenodd" clip-rule="evenodd" d="M69.7146 75H34.2015C19.1785 75 7 62.9117 7 48C7 33.0883 19.1785 21 34.2015 21C46.7546 21 57.3216 29.4402 60.4569 40.9153C63.1723 39.3168 66.3364 38.4 69.7146 38.4C79.8133 38.4 88 46.5932 88 56.7C88 66.7564 79.8949 74.9181 69.8657 74.9994V75L69.7146 75Z" fill="white"/>
<path d="M69.7146 75L69.7147 71H69.7146V75ZM60.4569 40.9153L56.5983 41.9696L57.9774 47.0167L62.4862 44.3624L60.4569 40.9153ZM69.8657 74.9994L69.8333 70.9995L65.8657 71.0317V74.9994H69.8657ZM69.8657 75L69.8656 79L73.8657 79.0001V75H69.8657ZM34.2015 79H69.7146V71H34.2015V79ZM34.2015 71C21.3596 71 11 60.6746 11 48H3C3 65.1488 16.9975 79 34.2015 79V71ZM11 48C11 35.3254 21.3596 25 34.2015 25V17C16.9975 17 3 30.8512 3 48H11ZM34.2015 25C44.9235 25 53.9309 32.2067 56.5983 41.9696L64.3155 39.8611C60.7124 26.6737 48.5856 17 34.2015 17V25ZM62.4862 44.3624C64.6035 43.1159 67.0695 42.4 69.7146 42.4V34.4C65.6034 34.4 61.741 35.5177 58.4276 37.4683L62.4862 44.3624ZM69.7146 42.4C77.6012 42.4 84 48.7993 84 56.7H92C92 44.3871 82.0255 34.4 69.7146 34.4V42.4ZM84 56.7C84 64.561 77.6648 70.9361 69.8333 70.9995L69.8981 78.9993C82.1249 78.9002 92 68.9517 92 56.7H84ZM73.8657 75V74.9994H65.8657V75H73.8657ZM69.7145 79L69.8656 79L69.8658 71L69.7147 71L69.7145 79Z" fill="black" mask="url(#path-1-inside-1_73_457)"/>
<mask id="path-3-inside-2_73_457" fill="white">
<path fill-rule="evenodd" clip-rule="evenodd" d="M0 68C0 65.7909 1.79086 64 4 64H24C26.2091 64 28 65.7909 28 68C28 70.2091 26.2091 72 24 72H4C1.79086 72 0 70.2091 0 68ZM30 68C30 65.7909 31.7909 64 34 64H40C42.2091 64 44 65.7909 44 68C44 70.2091 42.2091 72 40 72H34C31.7909 72 30 70.2091 30 68ZM50 64C47.7909 64 46 65.7909 46 68C46 70.2091 47.7909 72 50 72H92C94.2091 72 96 70.2091 96 68C96 65.7909 94.2091 64 92 64H50ZM44 76C46.2091 76 48 77.7909 48 80C48 82.2091 46.2091 84 44 84H4C1.79086 84 0 82.2091 0 80C0 77.7909 1.79086 76 4 76H44ZM64 80C64 77.7909 62.2091 76 60 76H54C51.7909 76 50 77.7909 50 80C50 82.2091 51.7909 84 54 84H60C62.2091 84 64 82.2091 64 80ZM96 80C96 77.7909 94.2091 76 92 76H70C67.7909 76 66 77.7909 66 80C66 82.2091 67.7909 84 70 84H92C94.2091 84 96 82.2091 96 80ZM4 88C1.79086 88 0 89.7909 0 92C0 94.2091 1.79086 96 4 96H20C22.2091 96 24 94.2091 24 92C24 89.7909 22.2091 88 20 88H4ZM30 88C27.7909 88 26 89.7909 26 92C26 94.2091 27.7909 96 30 96H34C36.2091 96 38 94.2091 38 92C38 89.7909 36.2091 88 34 88H30ZM40 92C40 89.7909 41.7909 88 44 88H92C94.2091 88 96 89.7909 96 92C96 94.2091 94.2091 96 92 96H44C41.7909 96 40 94.2091 40 92Z"/>
</mask>
<path fill-rule="evenodd" clip-rule="evenodd" d="M0 68C0 65.7909 1.79086 64 4 64H24C26.2091 64 28 65.7909 28 68C28 70.2091 26.2091 72 24 72H4C1.79086 72 0 70.2091 0 68ZM30 68C30 65.7909 31.7909 64 34 64H40C42.2091 64 44 65.7909 44 68C44 70.2091 42.2091 72 40 72H34C31.7909 72 30 70.2091 30 68ZM50 64C47.7909 64 46 65.7909 46 68C46 70.2091 47.7909 72 50 72H92C94.2091 72 96 70.2091 96 68C96 65.7909 94.2091 64 92 64H50ZM44 76C46.2091 76 48 77.7909 48 80C48 82.2091 46.2091 84 44 84H4C1.79086 84 0 82.2091 0 80C0 77.7909 1.79086 76 4 76H44ZM64 80C64 77.7909 62.2091 76 60 76H54C51.7909 76 50 77.7909 50 80C50 82.2091 51.7909 84 54 84H60C62.2091 84 64 82.2091 64 80ZM96 80C96 77.7909 94.2091 76 92 76H70C67.7909 76 66 77.7909 66 80C66 82.2091 67.7909 84 70 84H92C94.2091 84 96 82.2091 96 80ZM4 88C1.79086 88 0 89.7909 0 92C0 94.2091 1.79086 96 4 96H20C22.2091 96 24 94.2091 24 92C24 89.7909 22.2091 88 20 88H4ZM30 88C27.7909 88 26 89.7909 26 92C26 94.2091 27.7909 96 30 96H34C36.2091 96 38 94.2091 38 92C38 89.7909 36.2091 88 34 88H30ZM40 92C40 89.7909 41.7909 88 44 88H92C94.2091 88 96 89.7909 96 92C96 94.2091 94.2091 96 92 96H44C41.7909 96 40 94.2091 40 92Z" fill="white"/>
<path fill-rule="evenodd" clip-rule="evenodd" d="M0 68C0 65.7909 1.79086 64 4 64H24C26.2091 64 28 65.7909 28 68C28 70.2091 26.2091 72 24 72H4C1.79086 72 0 70.2091 0 68ZM30 68C30 65.7909 31.7909 64 34 64H40C42.2091 64 44 65.7909 44 68C44 70.2091 42.2091 72 40 72H34C31.7909 72 30 70.2091 30 68ZM50 64C47.7909 64 46 65.7909 46 68C46 70.2091 47.7909 72 50 72H92C94.2091 72 96 70.2091 96 68C96 65.7909 94.2091 64 92 64H50ZM44 76C46.2091 76 48 77.7909 48 80C48 82.2091 46.2091 84 44 84H4C1.79086 84 0 82.2091 0 80C0 77.7909 1.79086 76 4 76H44ZM64 80C64 77.7909 62.2091 76 60 76H54C51.7909 76 50 77.7909 50 80C50 82.2091 51.7909 84 54 84H60C62.2091 84 64 82.2091 64 80ZM96 80C96 77.7909 94.2091 76 92 76H70C67.7909 76 66 77.7909 66 80C66 82.2091 67.7909 84 70 84H92C94.2091 84 96 82.2091 96 80ZM4 88C1.79086 88 0 89.7909 0 92C0 94.2091 1.79086 96 4 96H20C22.2091 96 24 94.2091 24 92C24 89.7909 22.2091 88 20 88H4ZM30 88C27.7909 88 26 89.7909 26 92C26 94.2091 27.7909 96 30 96H34C36.2091 96 38 94.2091 38 92C38 89.7909 36.2091 88 34 88H30ZM40 92C40 89.7909 41.7909 88 44 88H92C94.2091 88 96 89.7909 96 92C96 94.2091 94.2091 96 92 96H44C41.7909 96 40 94.2091 40 92Z" fill="black" fill-opacity="0.1"/>
<path d="M4 61C0.134007 61 -3 64.134 -3 68H3C3 67.4477 3.44772 67 4 67V61ZM24 61H4V67H24V61ZM31 68C31 64.134 27.866 61 24 61V67C24.5523 67 25 67.4477 25 68H31ZM24 75C27.866 75 31 71.866 31 68H25C25 68.5523 24.5523 69 24 69V75ZM4 75H24V69H4V75ZM-3 68C-3 71.866 0.134006 75 4 75V69C3.44772 69 3 68.5523 3 68H-3ZM34 61C30.134 61 27 64.134 27 68H33C33 67.4477 33.4477 67 34 67V61ZM40 61H34V67H40V61ZM47 68C47 64.134 43.866 61 40 61V67C40.5523 67 41 67.4477 41 68H47ZM40 75C43.866 75 47 71.866 47 68H41C41 68.5523 40.5523 69 40 69V75ZM34 75H40V69H34V75ZM27 68C27 71.866 30.134 75 34 75V69C33.4477 69 33 68.5523 33 68H27ZM49 68C49 67.4477 49.4477 67 50 67V61C46.134 61 43 64.134 43 68H49ZM50 69C49.4477 69 49 68.5523 49 68H43C43 71.866 46.134 75 50 75V69ZM92 69H50V75H92V69ZM93 68C93 68.5523 92.5523 69 92 69V75C95.866 75 99 71.866 99 68H93ZM92 67C92.5523 67 93 67.4477 93 68H99C99 64.134 95.866 61 92 61V67ZM50 67H92V61H50V67ZM51 80C51 76.134 47.866 73 44 73V79C44.5523 79 45 79.4477 45 80H51ZM44 87C47.866 87 51 83.866 51 80H45C45 80.5523 44.5523 81 44 81V87ZM4 87H44V81H4V87ZM-3 80C-3 83.866 0.134007 87 4 87V81C3.44772 81 3 80.5523 3 80H-3ZM4 73C0.134005 73 -3 76.134 -3 80H3C3 79.4477 3.44772 79 4 79V73ZM44 73H4V79H44V73ZM60 79C60.5523 79 61 79.4477 61 80H67C67 76.134 63.866 73 60 73V79ZM54 79H60V73H54V79ZM53 80C53 79.4477 53.4477 79 54 79V73C50.134 73 47 76.134 47 80H53ZM54 81C53.4477 81 53 80.5523 53 80H47C47 83.866 50.134 87 54 87V81ZM60 81H54V87H60V81ZM61 80C61 80.5523 60.5523 81 60 81V87C63.866 87 67 83.866 67 80H61ZM92 79C92.5523 79 93 79.4477 93 80H99C99 76.134 95.866 73 92 73V79ZM70 79H92V73H70V79ZM69 80C69 79.4477 69.4477 79 70 79V73C66.134 73 63 76.134 63 80H69ZM70 81C69.4477 81 69 80.5523 69 80H63C63 83.866 66.134 87 70 87V81ZM92 81H70V87H92V81ZM93 80C93 80.5523 92.5523 81 92 81V87C95.866 87 99 83.866 99 80H93ZM3 92C3 91.4477 3.44772 91 4 91V85C0.134007 85 -3 88.134 -3 92H3ZM4 93C3.44772 93 3 92.5523 3 92H-3C-3 95.866 0.134008 99 4 99V93ZM20 93H4V99H20V93ZM21 92C21 92.5523 20.5523 93 20 93V99C23.866 99 27 95.866 27 92H21ZM20 91C20.5523 91 21 91.4477 21 92H27C27 88.134 23.866 85 20 85V91ZM4 91H20V85H4V91ZM29 92C29 91.4477 29.4477 91 30 91V85C26.134 85 23 88.134 23 92H29ZM30 93C29.4477 93 29 92.5523 29 92H23C23 95.866 26.134 99 30 99V93ZM34 93H30V99H34V93ZM35 92C35 92.5523 34.5523 93 34 93V99C37.866 99 41 95.866 41 92H35ZM34 91C34.5523 91 35 91.4477 35 92H41C41 88.134 37.866 85 34 85V91ZM30 91H34V85H30V91ZM44 85C40.134 85 37 88.134 37 92H43C43 91.4477 43.4477 91 44 91V85ZM92 85H44V91H92V85ZM99 92C99 88.134 95.866 85 92 85V91C92.5523 91 93 91.4477 93 92H99ZM92 99C95.866 99 99 95.866 99 92H93C93 92.5523 92.5523 93 92 93V99ZM44 99H92V93H44V99ZM37 92C37 95.866 40.134 99 44 99V93C43.4477 93 43 92.5523 43 92H37Z" fill="black" mask="url(#path-3-inside-2_73_457)"/>
</svg>
