<svg width="49" height="48" viewBox="0 0 49 48" fill="none" xmlns="http://www.w3.org/2000/svg">
<g clip-path="url(#clip0_97_866)">
<rect x="-1.0231" y="0.274136" width="2.50341" height="15.5308" rx="1.25171" transform="matrix(-0.865329 -0.501203 -0.498797 0.866719 13.4229 33.4967)" fill="#148FCC"/>
<rect x="-1.0231" y="0.274136" width="2.50341" height="15.5308" rx="1.25171" transform="matrix(-0.865329 -0.501203 -0.498797 0.866719 13.4229 33.4967)" fill="black" fill-opacity="0.1"/>
<rect x="-1.0231" y="0.274136" width="2.50341" height="15.5308" rx="1.25171" transform="matrix(-0.865329 -0.501203 -0.498797 0.866719 13.4229 33.4967)" stroke="black" stroke-width="1.5"/>
<path d="M38.6863 34.0772L32.1882 45.3683C31.8434 45.9675 32.0488 46.7341 32.647 47.0805C33.2452 47.427 34.0097 47.2222 34.3545 46.623L40.8526 35.3319C41.1974 34.7328 40.992 33.9662 40.3938 33.6197C39.7956 33.2732 39.0311 33.478 38.6863 34.0772Z" fill="#148FCC"/>
<path d="M38.6863 34.0772L32.1882 45.3683C31.8434 45.9675 32.0488 46.7341 32.647 47.0805C33.2452 47.427 34.0097 47.2222 34.3545 46.623L40.8526 35.3319C41.1974 34.7328 40.992 33.9662 40.3938 33.6197C39.7956 33.2732 39.0311 33.478 38.6863 34.0772Z" fill="black" fill-opacity="0.1"/>
<path d="M38.6863 34.0772L32.1882 45.3683C31.8434 45.9675 32.0488 46.7341 32.647 47.0805C33.2452 47.427 34.0097 47.2222 34.3545 46.623L40.8526 35.3319C41.1974 34.7328 40.992 33.9662 40.3938 33.6197C39.7956 33.2732 39.0311 33.478 38.6863 34.0772Z" stroke="black" stroke-width="1.5"/>
<rect x="-1.0231" y="0.274136" width="2.50341" height="15.5308" rx="1.25171" transform="matrix(-0.865329 -0.501203 -0.498797 0.866719 19.7283 33.4967)" fill="#148FCC"/>
<rect x="-1.0231" y="0.274136" width="2.50341" height="15.5308" rx="1.25171" transform="matrix(-0.865329 -0.501203 -0.498797 0.866719 19.7283 33.4967)" fill="black" fill-opacity="0.4"/>
<rect x="-1.0231" y="0.274136" width="2.50341" height="15.5308" rx="1.25171" transform="matrix(-0.865329 -0.501203 -0.498797 0.866719 19.7283 33.4967)" stroke="black" stroke-width="1.5"/>
<rect x="-1.0231" y="0.274136" width="2.50341" height="15.5308" rx="1.25171" transform="matrix(-0.865329 -0.501203 -0.498797 0.866719 26.7283 33.4967)" fill="#148FCC"/>
<rect x="-1.0231" y="0.274136" width="2.50341" height="15.5308" rx="1.25171" transform="matrix(-0.865329 -0.501203 -0.498797 0.866719 26.7283 33.4967)" fill="black" fill-opacity="0.1"/>
<rect x="-1.0231" y="0.274136" width="2.50341" height="15.5308" rx="1.25171" transform="matrix(-0.865329 -0.501203 -0.498797 0.866719 26.7283 33.4967)" stroke="black" stroke-width="1.5"/>
<rect x="-1.0231" y="0.274136" width="2.50341" height="15.5308" rx="1.25171" transform="matrix(-0.865329 -0.501203 -0.498797 0.866719 33.7283 33.4967)" fill="#148FCC"/>
<rect x="-1.0231" y="0.274136" width="2.50341" height="15.5308" rx="1.25171" transform="matrix(-0.865329 -0.501203 -0.498797 0.866719 33.7283 33.4967)" fill="black" fill-opacity="0.4"/>
<rect x="-1.0231" y="0.274136" width="2.50341" height="15.5308" rx="1.25171" transform="matrix(-0.865329 -0.501203 -0.498797 0.866719 33.7283 33.4967)" stroke="black" stroke-width="1.5"/>
<mask id="path-6-inside-1_97_866" fill="white">
<path fill-rule="evenodd" clip-rule="evenodd" d="M37.6642 32H16.6194C7.7169 32 0.5 24.8366 0.5 16C0.5 7.16345 7.7169 0 16.6194 0C24.0583 0 30.3202 5.00162 32.1782 11.8017C33.7873 10.8544 35.6623 10.3111 37.6642 10.3111C43.6487 10.3111 48.5 15.1663 48.5 21.1556C48.5 27.1149 43.697 31.9515 37.7537 31.9996V32H37.6642Z"/>
</mask>
<path fill-rule="evenodd" clip-rule="evenodd" d="M37.6642 32H16.6194C7.7169 32 0.5 24.8366 0.5 16C0.5 7.16345 7.7169 0 16.6194 0C24.0583 0 30.3202 5.00162 32.1782 11.8017C33.7873 10.8544 35.6623 10.3111 37.6642 10.3111C43.6487 10.3111 48.5 15.1663 48.5 21.1556C48.5 27.1149 43.697 31.9515 37.7537 31.9996V32H37.6642Z" fill="#A2A2C1"/>
<path d="M32.1782 11.8017L29.2843 12.5924L30.3185 16.3777L33.7001 14.387L32.1782 11.8017ZM37.7537 31.9996L37.7294 28.9997L34.7537 29.0238V31.9996H37.7537ZM37.7537 32V35H40.7537V32H37.7537ZM16.6194 35H37.6642V29H16.6194V35ZM16.6194 29C9.35269 29 3.5 23.1587 3.5 16H-2.5C-2.5 26.5144 6.08112 35 16.6194 35V29ZM3.5 16C3.5 8.84129 9.35269 3 16.6194 3V-3C6.08112 -3 -2.5 5.4856 -2.5 16H3.5ZM16.6194 3C22.685 3 27.7772 7.0765 29.2843 12.5924L35.0721 11.011C32.8633 2.92674 25.4316 -3 16.6194 -3V3ZM33.7001 14.387C34.8607 13.7037 36.2122 13.3111 37.6642 13.3111V7.31111C35.1125 7.31111 32.7138 8.00508 30.6562 9.21641L33.7001 14.387ZM37.6642 13.3111C41.9895 13.3111 45.5 16.8209 45.5 21.1556H51.5C51.5 13.5117 45.3078 7.31111 37.6642 7.31111V13.3111ZM45.5 21.1556C45.5 25.4684 42.0245 28.965 37.7294 28.9997L37.778 34.9995C45.3695 34.9381 51.5 28.7614 51.5 21.1556H45.5ZM40.7537 32V31.9996H34.7537V32H40.7537ZM37.6642 35H37.7537V29H37.6642V35Z" fill="black" mask="url(#path-6-inside-1_97_866)"/>
<mask id="path-8-inside-2_97_866" fill="white">
<path fill-rule="evenodd" clip-rule="evenodd" d="M36.5942 36C36.5973 37.1046 37.4952 38.0001 38.5998 38.0001C39.7043 38.0001 40.5973 37.1046 40.5942 36L40.5844 32.4586L43.6466 34.2153C44.6047 34.7649 45.8291 34.435 46.3814 33.4784C46.9337 32.5218 46.6047 31.3008 45.6466 30.7512L42.5748 28.989L45.6273 27.2153C46.5823 26.6603 46.9088 25.435 46.3566 24.4784C45.8043 23.5218 44.5823 23.1962 43.6273 23.7512L40.5651 25.5305L40.5553 22C40.5522 20.8954 39.6543 20 38.5497 20C37.4452 20 36.5522 20.8954 36.5553 22L36.5651 25.5416L33.5028 23.7848C32.5446 23.2352 31.3202 23.5651 30.7679 24.5217C30.2156 25.4783 30.5446 26.6993 31.5027 27.249L34.5748 29.0112L31.5223 30.7849C30.5673 31.3398 30.2408 32.5652 30.7931 33.5217C31.3453 34.4783 32.5673 34.8039 33.5223 34.249L36.5844 32.4698L36.5942 36Z"/>
</mask>
<path fill-rule="evenodd" clip-rule="evenodd" d="M36.5942 36C36.5973 37.1046 37.4952 38.0001 38.5998 38.0001C39.7043 38.0001 40.5973 37.1046 40.5942 36L40.5844 32.4586L43.6466 34.2153C44.6047 34.7649 45.8291 34.435 46.3814 33.4784C46.9337 32.5218 46.6047 31.3008 45.6466 30.7512L42.5748 28.989L45.6273 27.2153C46.5823 26.6603 46.9088 25.435 46.3566 24.4784C45.8043 23.5218 44.5823 23.1962 43.6273 23.7512L40.5651 25.5305L40.5553 22C40.5522 20.8954 39.6543 20 38.5497 20C37.4452 20 36.5522 20.8954 36.5553 22L36.5651 25.5416L33.5028 23.7848C32.5446 23.2352 31.3202 23.5651 30.7679 24.5217C30.2156 25.4783 30.5446 26.6993 31.5027 27.249L34.5748 29.0112L31.5223 30.7849C30.5673 31.3398 30.2408 32.5652 30.7931 33.5217C31.3453 34.4783 32.5673 34.8039 33.5223 34.249L36.5844 32.4698L36.5942 36Z" fill="#148FCC"/>
<path fill-rule="evenodd" clip-rule="evenodd" d="M36.5942 36C36.5973 37.1046 37.4952 38.0001 38.5998 38.0001C39.7043 38.0001 40.5973 37.1046 40.5942 36L40.5844 32.4586L43.6466 34.2153C44.6047 34.7649 45.8291 34.435 46.3814 33.4784C46.9337 32.5218 46.6047 31.3008 45.6466 30.7512L42.5748 28.989L45.6273 27.2153C46.5823 26.6603 46.9088 25.435 46.3566 24.4784C45.8043 23.5218 44.5823 23.1962 43.6273 23.7512L40.5651 25.5305L40.5553 22C40.5522 20.8954 39.6543 20 38.5497 20C37.4452 20 36.5522 20.8954 36.5553 22L36.5651 25.5416L33.5028 23.7848C32.5446 23.2352 31.3202 23.5651 30.7679 24.5217C30.2156 25.4783 30.5446 26.6993 31.5027 27.249L34.5748 29.0112L31.5223 30.7849C30.5673 31.3398 30.2408 32.5652 30.7931 33.5217C31.3453 34.4783 32.5673 34.8039 33.5223 34.249L36.5844 32.4698L36.5942 36Z" fill="white" fill-opacity="0.5"/>
<path d="M36.5942 36L35.0942 36.0042L35.0942 36.0042L36.5942 36ZM40.5942 36L42.0942 35.9959L42.0942 35.9959L40.5942 36ZM40.5844 32.4586L41.3308 31.1575L39.0772 29.8647L39.0844 32.4628L40.5844 32.4586ZM43.6466 34.2153L42.9002 35.5164L42.9002 35.5164L43.6466 34.2153ZM46.3814 33.4784L47.6805 34.2284L47.6805 34.2284L46.3814 33.4784ZM45.6466 30.7512L46.393 29.45L46.393 29.45L45.6466 30.7512ZM42.5748 28.989L41.8211 27.692L39.5748 28.9973L41.8284 30.2901L42.5748 28.989ZM45.6273 27.2153L46.3809 28.5122L46.3809 28.5122L45.6273 27.2153ZM46.3566 24.4784L47.6556 23.7284L47.6556 23.7284L46.3566 24.4784ZM43.6273 23.7512L44.3809 25.0481L44.3809 25.0481L43.6273 23.7512ZM40.5651 25.5305L39.0651 25.5346L39.0723 28.1327L41.3187 26.8274L40.5651 25.5305ZM40.5553 22L42.0553 21.9958L42.0553 21.9958L40.5553 22ZM36.5553 22L35.0553 22.0042L35.0553 22.0042L36.5553 22ZM36.5651 25.5416L35.8187 26.8427L38.0723 28.1355L38.0651 25.5374L36.5651 25.5416ZM33.5028 23.7848L34.2491 22.4837L34.2491 22.4837L33.5028 23.7848ZM30.7679 24.5217L32.067 25.2717L32.067 25.2717L30.7679 24.5217ZM31.5027 27.249L32.2491 25.9478L32.2491 25.9478L31.5027 27.249ZM34.5748 29.0112L35.3284 30.3082L37.5747 29.0029L35.3211 27.7101L34.5748 29.0112ZM31.5223 30.7849L30.7687 29.4879L30.7687 29.4879L31.5223 30.7849ZM30.7931 33.5217L32.0921 32.7717L32.0921 32.7717L30.7931 33.5217ZM33.5223 34.249L32.7687 32.952L33.5223 34.249ZM36.5844 32.4698L38.0844 32.4656L38.0772 29.8675L35.8308 31.1728L36.5844 32.4698ZM38.5998 36.5001C38.322 36.5001 38.0949 36.2737 38.0942 35.9959L35.0942 36.0042C35.0996 37.9356 36.6684 39.5001 38.5998 39.5001V36.5001ZM39.0942 36.0042C39.095 36.2787 38.8743 36.5001 38.5998 36.5001V39.5001C40.5344 39.5001 42.0996 37.9305 42.0942 35.9959L39.0942 36.0042ZM39.0844 32.4628L39.0942 36.0042L42.0942 35.9959L42.0844 32.4545L39.0844 32.4628ZM39.838 33.7598L42.9002 35.5164L44.393 32.9142L41.3308 31.1575L39.838 33.7598ZM42.9002 35.5164C44.5755 36.4774 46.7148 35.901 47.6805 34.2284L45.0824 32.7284C44.9435 32.969 44.6339 33.0524 44.393 32.9142L42.9002 35.5164ZM47.6805 34.2284C48.6478 32.553 48.0711 30.4127 46.393 29.45L44.9002 32.0523C45.1383 32.1889 45.2196 32.4907 45.0824 32.7284L47.6805 34.2284ZM46.393 29.45L43.3211 27.6879L41.8284 30.2901L44.9002 32.0523L46.393 29.45ZM44.8737 25.9183L41.8211 27.692L43.3284 30.2859L46.3809 28.5122L44.8737 25.9183ZM45.0575 25.2284C45.1964 25.469 45.1139 25.7788 44.8737 25.9183L46.3809 28.5122C48.0508 27.5419 48.6213 25.401 47.6556 23.7284L45.0575 25.2284ZM44.3809 25.0481C44.6182 24.9102 44.9203 24.9907 45.0575 25.2284L47.6556 23.7284C46.6883 22.053 44.5464 21.4822 42.8737 22.4542L44.3809 25.0481ZM41.3187 26.8274L44.3809 25.0481L42.8737 22.4542L39.8115 24.2335L41.3187 26.8274ZM39.0553 22.0042L39.0651 25.5346L42.0651 25.5263L42.0553 21.9958L39.0553 22.0042ZM38.5497 21.5C38.8275 21.5 39.0545 21.7264 39.0553 22.0042L42.0553 21.9958C42.0499 20.0645 40.4811 18.5 38.5497 18.5V21.5ZM38.0553 21.9958C38.0545 21.7213 38.2752 21.5 38.5497 21.5V18.5C36.6151 18.5 35.0499 20.0695 35.0553 22.0042L38.0553 21.9958ZM38.0651 25.5374L38.0553 21.9958L35.0553 22.0042L35.0651 25.5457L38.0651 25.5374ZM37.3115 24.2404L34.2491 22.4837L32.7564 25.0859L35.8187 26.8427L37.3115 24.2404ZM34.2491 22.4837C32.5739 21.5227 30.4346 22.0991 29.4689 23.7717L32.067 25.2717C32.2058 25.0311 32.5154 24.9477 32.7564 25.0859L34.2491 22.4837ZM29.4689 23.7717C28.5016 25.4471 29.0782 27.5874 30.7564 28.5501L32.2491 25.9478C32.011 25.8112 31.9297 25.5094 32.067 25.2717L29.4689 23.7717ZM30.7564 28.5501L33.8284 30.3123L35.3211 27.7101L32.2491 25.9478L30.7564 28.5501ZM32.2759 32.0818L35.3284 30.3082L33.8212 27.7143L30.7687 29.4879L32.2759 32.0818ZM32.0921 32.7717C31.9532 32.5312 32.0358 32.2214 32.2759 32.0818L30.7687 29.4879C29.0988 30.4582 28.5283 32.5991 29.494 34.2717L32.0921 32.7717ZM32.7687 32.952C32.5314 33.09 32.2294 33.0095 32.0921 32.7717L29.494 34.2717C30.4613 35.9472 32.6032 36.5179 34.276 35.5459L32.7687 32.952ZM35.8308 31.1728L32.7687 32.952L34.276 35.5459L37.338 33.7667L35.8308 31.1728ZM38.0942 35.9959L38.0844 32.4656L35.0844 32.4739L35.0942 36.0042L38.0942 35.9959Z" fill="black" mask="url(#path-8-inside-2_97_866)"/>
</g>
<defs>
<clipPath id="clip0_97_866">
<rect width="48" height="48" fill="white" transform="translate(0.5)"/>
</clipPath>
</defs>
</svg>
