<svg width="97" height="96" viewBox="0 0 97 96" fill="none" xmlns="http://www.w3.org/2000/svg">
<g clip-path="url(#clip0_97_855)">
<rect x="1.36362" y="-0.367411" width="6.00643" height="32.06" rx="3.00322" transform="matrix(0.866025 0.5 0.497592 -0.867411 5.8953 92.1563)" fill="#148FCC"/>
<rect x="1.36362" y="-0.367411" width="6.00643" height="32.06" rx="3.00322" transform="matrix(0.866025 0.5 0.497592 -0.867411 5.8953 92.1563)" fill="black" fill-opacity="0.1"/>
<rect x="1.36362" y="-0.367411" width="6.00643" height="32.06" rx="3.00322" transform="matrix(0.866025 0.5 0.497592 -0.867411 5.8953 92.1563)" stroke="black" stroke-width="2"/>
<rect x="1.36362" y="-0.367411" width="6.00643" height="32.06" rx="3.00322" transform="matrix(0.866025 0.5 0.497592 -0.867411 19.8655 92.1563)" fill="#148FCC"/>
<rect x="1.36362" y="-0.367411" width="6.00643" height="32.06" rx="3.00322" transform="matrix(0.866025 0.5 0.497592 -0.867411 19.8655 92.1563)" fill="black" fill-opacity="0.4"/>
<rect x="1.36362" y="-0.367411" width="6.00643" height="32.06" rx="3.00322" transform="matrix(0.866025 0.5 0.497592 -0.867411 19.8655 92.1563)" stroke="black" stroke-width="2"/>
<path d="M66.5597 93.5552L79.5238 70.956C80.3491 69.5173 79.8537 67.6787 78.4173 66.8494C76.9809 66.0201 75.1474 66.5141 74.322 67.9528L61.358 90.552C60.5327 91.9907 61.0281 93.8293 62.4645 94.6586C63.9009 95.4879 65.7344 94.9939 66.5597 93.5552Z" fill="#148FCC"/>
<path d="M66.5597 93.5552L79.5238 70.956C80.3491 69.5173 79.8537 67.6787 78.4173 66.8494C76.9809 66.0201 75.1474 66.5141 74.322 67.9528L61.358 90.552C60.5327 91.9907 61.0281 93.8293 62.4645 94.6586C63.9009 95.4879 65.7344 94.9939 66.5597 93.5552Z" fill="black" fill-opacity="0.1"/>
<path d="M66.5597 93.5552L79.5238 70.956C80.3491 69.5173 79.8537 67.6787 78.4173 66.8494C76.9809 66.0201 75.1474 66.5141 74.322 67.9528L61.358 90.552C60.5327 91.9907 61.0281 93.8293 62.4645 94.6586C63.9009 95.4879 65.7344 94.9939 66.5597 93.5552Z" stroke="black" stroke-width="2"/>
<rect x="1.36362" y="-0.367411" width="6.00643" height="32.06" rx="3.00322" transform="matrix(0.866025 0.5 0.497592 -0.867411 32.8655 92.1565)" fill="#148FCC"/>
<rect x="1.36362" y="-0.367411" width="6.00643" height="32.06" rx="3.00322" transform="matrix(0.866025 0.5 0.497592 -0.867411 32.8655 92.1565)" fill="black" fill-opacity="0.1"/>
<rect x="1.36362" y="-0.367411" width="6.00643" height="32.06" rx="3.00322" transform="matrix(0.866025 0.5 0.497592 -0.867411 32.8655 92.1565)" stroke="black" stroke-width="2"/>
<rect x="1.36362" y="-0.367411" width="6.00643" height="32.06" rx="3.00322" transform="matrix(0.866025 0.5 0.497592 -0.867411 45.8655 92.1565)" fill="#148FCC"/>
<rect x="1.36362" y="-0.367411" width="6.00643" height="32.06" rx="3.00322" transform="matrix(0.866025 0.5 0.497592 -0.867411 45.8655 92.1565)" fill="black" fill-opacity="0.4"/>
<rect x="1.36362" y="-0.367411" width="6.00643" height="32.06" rx="3.00322" transform="matrix(0.866025 0.5 0.497592 -0.867411 45.8655 92.1565)" stroke="black" stroke-width="2"/>
<mask id="path-6-inside-1_97_855" fill="white">
<path fill-rule="evenodd" clip-rule="evenodd" d="M74.8284 64H32.7388C14.9338 64 0.5 49.6731 0.5 32C0.5 14.3269 14.9338 0 32.7388 0C47.6165 0 60.1405 10.0032 63.8564 23.6034C67.0746 21.7088 70.8247 20.6222 74.8284 20.6222C86.7973 20.6222 96.5 30.3327 96.5 42.3111C96.5 54.2298 86.8939 63.903 75.0075 63.9993V64L74.8284 64Z"/>
</mask>
<path fill-rule="evenodd" clip-rule="evenodd" d="M74.8284 64H32.7388C14.9338 64 0.5 49.6731 0.5 32C0.5 14.3269 14.9338 0 32.7388 0C47.6165 0 60.1405 10.0032 63.8564 23.6034C67.0746 21.7088 70.8247 20.6222 74.8284 20.6222C86.7973 20.6222 96.5 30.3327 96.5 42.3111C96.5 54.2298 86.8939 63.903 75.0075 63.9993V64L74.8284 64Z" fill="#A2A2C1"/>
<path d="M74.8284 64L74.8286 60H74.8284V64ZM63.8564 23.6034L59.9978 24.6576L61.3768 29.7048L65.8856 27.0504L63.8564 23.6034ZM75.0075 63.9993L74.9751 59.9994L71.0075 60.0316V63.9993H75.0075ZM75.0075 64L75.0073 68L79.0075 68.0002V64H75.0075ZM32.7388 68H74.8284V60H32.7388V68ZM32.7388 60C17.1149 60 4.5 47.436 4.5 32H-3.5C-3.5 51.9102 12.7528 68 32.7388 68V60ZM4.5 32C4.5 16.564 17.1149 4 32.7388 4V-4C12.7528 -4 -3.5 12.0898 -3.5 32H4.5ZM32.7388 4C45.7855 4 56.7497 12.7698 59.9978 24.6576L67.7149 22.5491C63.5312 7.23674 49.4476 -4 32.7388 -4V4ZM65.8856 27.0504C68.5058 25.5079 71.5578 24.6222 74.8284 24.6222V16.6222C70.0916 16.6222 65.6433 17.9097 61.8271 20.1563L65.8856 27.0504ZM74.8284 24.6222C84.5852 24.6222 92.5 32.5388 92.5 42.3111H100.5C100.5 28.1265 89.0095 16.6222 74.8284 16.6222V24.6222ZM92.5 42.3111C92.5 52.0345 84.6639 59.9209 74.9751 59.9994L75.0399 67.9992C89.1239 67.8851 100.5 56.4251 100.5 42.3111H92.5ZM79.0075 64V63.9993H71.0075V64H79.0075ZM74.8282 68L75.0073 68L75.0077 60L74.8286 60L74.8282 68Z" fill="black" mask="url(#path-6-inside-1_97_855)"/>
<mask id="path-8-inside-2_97_855" fill="white">
<path fill-rule="evenodd" clip-rule="evenodd" d="M76.1883 68.9999C76.1944 71.209 77.9903 72.9999 80.1994 72.9999C82.4085 72.9999 84.1944 71.209 84.1883 68.9999L84.1686 61.9171L90.293 65.4304C92.2092 66.5296 94.6581 65.8698 95.7626 63.9567C96.8672 62.0435 96.2092 59.6014 94.293 58.5022L88.1493 54.9779L94.2544 51.4305C96.1645 50.3206 96.8175 47.8699 95.7129 45.9568C94.6083 44.0436 92.1645 43.3924 90.2544 44.5023L84.1301 48.0608L84.1105 41C84.1044 38.7909 82.3085 37 80.0994 37C77.8902 37 76.1044 38.7909 76.1105 41L76.1302 48.0831L70.0055 44.5696C68.0892 43.4704 65.6404 44.1302 64.5358 46.0433C63.4313 47.9565 64.0892 50.3986 66.0055 51.4978L72.1495 55.0223L66.0446 58.5696C64.1346 59.6795 63.4815 62.1301 64.5861 64.0433C65.6907 65.9565 68.1346 66.6077 70.0446 65.4978L76.1687 61.9394L76.1883 68.9999Z"/>
</mask>
<path fill-rule="evenodd" clip-rule="evenodd" d="M76.1883 68.9999C76.1944 71.209 77.9903 72.9999 80.1994 72.9999C82.4085 72.9999 84.1944 71.209 84.1883 68.9999L84.1686 61.9171L90.293 65.4304C92.2092 66.5296 94.6581 65.8698 95.7626 63.9567C96.8672 62.0435 96.2092 59.6014 94.293 58.5022L88.1493 54.9779L94.2544 51.4305C96.1645 50.3206 96.8175 47.8699 95.7129 45.9568C94.6083 44.0436 92.1645 43.3924 90.2544 44.5023L84.1301 48.0608L84.1105 41C84.1044 38.7909 82.3085 37 80.0994 37C77.8902 37 76.1044 38.7909 76.1105 41L76.1302 48.0831L70.0055 44.5696C68.0892 43.4704 65.6404 44.1302 64.5358 46.0433C63.4313 47.9565 64.0892 50.3986 66.0055 51.4978L72.1495 55.0223L66.0446 58.5696C64.1346 59.6795 63.4815 62.1301 64.5861 64.0433C65.6907 65.9565 68.1346 66.6077 70.0446 65.4978L76.1687 61.9394L76.1883 68.9999Z" fill="#148FCC"/>
<path fill-rule="evenodd" clip-rule="evenodd" d="M76.1883 68.9999C76.1944 71.209 77.9903 72.9999 80.1994 72.9999C82.4085 72.9999 84.1944 71.209 84.1883 68.9999L84.1686 61.9171L90.293 65.4304C92.2092 66.5296 94.6581 65.8698 95.7626 63.9567C96.8672 62.0435 96.2092 59.6014 94.293 58.5022L88.1493 54.9779L94.2544 51.4305C96.1645 50.3206 96.8175 47.8699 95.7129 45.9568C94.6083 44.0436 92.1645 43.3924 90.2544 44.5023L84.1301 48.0608L84.1105 41C84.1044 38.7909 82.3085 37 80.0994 37C77.8902 37 76.1044 38.7909 76.1105 41L76.1302 48.0831L70.0055 44.5696C68.0892 43.4704 65.6404 44.1302 64.5358 46.0433C63.4313 47.9565 64.0892 50.3986 66.0055 51.4978L72.1495 55.0223L66.0446 58.5696C64.1346 59.6795 63.4815 62.1301 64.5861 64.0433C65.6907 65.9565 68.1346 66.6077 70.0446 65.4978L76.1687 61.9394L76.1883 68.9999Z" fill="white" fill-opacity="0.5"/>
<path d="M76.1883 68.9999L74.1883 69.0054L74.1883 69.0054L76.1883 68.9999ZM84.1883 68.9999L82.1883 69.0054L82.1883 69.0054L84.1883 68.9999ZM84.1686 61.9171L85.1638 60.1823L82.159 58.4586L82.1686 61.9227L84.1686 61.9171ZM90.293 65.4304L89.2978 67.1652L89.2978 67.1652L90.293 65.4304ZM95.7626 63.9567L97.4947 64.9567L97.4947 64.9567L95.7626 63.9567ZM94.293 58.5022L95.2882 56.7674L95.2882 56.7674L94.293 58.5022ZM88.1493 54.9779L87.1445 53.2486L84.1494 54.989L87.1542 56.7127L88.1493 54.9779ZM94.2544 51.4305L93.2496 49.7012L93.2496 49.7012L94.2544 51.4305ZM95.7129 45.9568L93.9809 46.9568L93.9809 46.9568L95.7129 45.9568ZM90.2544 44.5023L89.2496 42.773L89.2496 42.773L90.2544 44.5023ZM84.1301 48.0608L82.1301 48.0664L82.1397 51.5305L85.1349 49.7901L84.1301 48.0608ZM84.1105 41L86.1105 40.9944L86.1105 40.9944L84.1105 41ZM76.1105 41L74.1105 41.0055L74.1105 41.0055L76.1105 41ZM76.1302 48.0831L75.135 49.8179L78.1398 51.5416L78.1302 48.0775L76.1302 48.0831ZM70.0055 44.5696L69.0103 46.3044L69.0103 46.3044L70.0055 44.5696ZM64.5358 46.0433L66.2679 47.0433L66.2679 47.0433L64.5358 46.0433ZM66.0055 51.4978L67.0007 49.763L67.0007 49.763L66.0055 51.4978ZM72.1495 55.0223L73.1543 56.7516L76.1494 55.0112L73.1446 53.2875L72.1495 55.0223ZM66.0446 58.5696L65.0398 56.8403L65.0398 56.8403L66.0446 58.5696ZM64.5861 64.0433L66.3182 63.0433L64.5861 64.0433ZM70.0446 65.4978L69.0398 63.7685L69.0398 63.7685L70.0446 65.4978ZM76.1687 61.9394L78.1687 61.9338L78.159 58.4697L75.1639 60.2101L76.1687 61.9394ZM80.1994 70.9999C79.0927 70.9999 78.1914 70.1011 78.1883 68.9943L74.1883 69.0054C74.1975 72.317 76.8879 74.9999 80.1994 74.9999V70.9999ZM82.1883 69.0054C82.1914 70.1078 81.3018 70.9999 80.1994 70.9999V74.9999C83.5153 74.9999 86.1975 72.3102 86.1883 68.9943L82.1883 69.0054ZM82.1686 61.9227L82.1883 69.0054L86.1883 68.9943L86.1686 61.9116L82.1686 61.9227ZM83.1734 63.652L89.2978 67.1652L91.2882 63.6956L85.1638 60.1823L83.1734 63.652ZM89.2978 67.1652C92.1703 68.813 95.8389 67.8245 97.4947 64.9567L94.0306 62.9567C93.4772 63.9151 92.2482 64.2463 91.2882 63.6956L89.2978 67.1652ZM97.4947 64.9567C99.1526 62.085 98.1644 58.4173 95.2882 56.7674L93.2978 60.237C94.254 60.7856 94.5818 62.002 94.0306 62.9567L97.4947 64.9567ZM95.2882 56.7674L89.1445 53.2431L87.1542 56.7127L93.2978 60.237L95.2882 56.7674ZM93.2496 49.7012L87.1445 53.2486L89.1541 56.7071L95.2592 53.1597L93.2496 49.7012ZM93.9809 46.9568C94.5342 47.9152 94.2065 49.1452 93.2496 49.7012L95.2592 53.1597C98.1224 51.496 99.1007 47.8246 97.445 44.9568L93.9809 46.9568ZM91.2592 46.2315C92.2123 45.6777 93.4297 46.0021 93.9809 46.9568L97.445 44.9568C95.787 42.0851 92.1166 41.1071 89.2496 42.773L91.2592 46.2315ZM85.1349 49.7901L91.2592 46.2315L89.2496 42.773L83.1253 46.3316L85.1349 49.7901ZM82.1105 41.0055L82.1301 48.0664L86.1301 48.0553L86.1105 40.9944L82.1105 41.0055ZM80.0994 39C81.2061 39 82.1074 39.8988 82.1105 41.0055L86.1105 40.9944C86.1013 37.6829 83.4109 35 80.0994 35V39ZM78.1105 40.9944C78.1074 39.892 78.997 39 80.0994 39V35C76.7835 35 74.1013 37.6897 74.1105 41.0055L78.1105 40.9944ZM78.1302 48.0775L78.1105 40.9944L74.1105 41.0055L74.1302 48.0886L78.1302 48.0775ZM77.1254 46.3482L71.0007 42.8348L69.0103 46.3044L75.135 49.8179L77.1254 46.3482ZM71.0007 42.8348C68.1282 41.187 64.4595 42.1755 62.8038 45.0433L66.2679 47.0433C66.8212 46.0849 68.0503 45.7537 69.0103 46.3044L71.0007 42.8348ZM62.8038 45.0433C61.1458 47.915 62.1341 51.5827 65.0103 53.2326L67.0007 49.763C66.0444 49.2144 65.7167 47.998 66.2679 47.0433L62.8038 45.0433ZM65.0103 53.2326L71.1543 56.7571L73.1446 53.2875L67.0007 49.763L65.0103 53.2326ZM67.0495 60.2989L73.1543 56.7516L71.1447 53.2931L65.0398 56.8403L67.0495 60.2989ZM66.3182 63.0433C65.7648 62.0848 66.0925 60.8549 67.0495 60.2989L65.0398 56.8403C62.1766 58.5041 61.1983 62.1754 62.8541 65.0433L66.3182 63.0433ZM69.0398 63.7685C68.0867 64.3224 66.8694 63.998 66.3182 63.0433L62.8541 65.0433C64.512 67.9149 68.1824 68.893 71.0495 67.2271L69.0398 63.7685ZM75.1639 60.2101L69.0398 63.7685L71.0495 67.2271L77.1735 63.6686L75.1639 60.2101ZM78.1883 68.9943L78.1687 61.9338L74.1687 61.9449L74.1883 69.0054L78.1883 68.9943Z" fill="black" mask="url(#path-8-inside-2_97_855)"/>
</g>
<defs>
<clipPath id="clip0_97_855">
<rect width="96" height="96" fill="white" transform="translate(0.5)"/>
</clipPath>
</defs>
</svg>
