<svg width="96" height="96" viewBox="0 0 96 96" fill="none" xmlns="http://www.w3.org/2000/svg">
<mask id="path-1-inside-1_111_1092" fill="white">
<path fill-rule="evenodd" clip-rule="evenodd" d="M64.4611 67.9387C62.5495 66.8314 61.8931 64.3817 62.995 62.467C64.0969 60.5523 66.5399 59.8977 68.4515 61.0049C70.0435 61.927 70.7649 63.7803 70.3252 65.4801C70.8947 65.5278 71.4631 65.6992 71.9909 66.0049C73.9026 67.1121 74.559 69.5619 73.457 71.4766C72.3551 73.3913 69.9122 74.0459 68.0005 72.9387C66.4085 72.0165 65.6871 70.1633 66.1268 68.4634C65.5574 68.4158 64.989 68.2444 64.4611 67.9387ZM20.4613 72.9387C18.5497 71.8314 17.8933 69.3817 18.9952 67.467C20.0971 65.5523 22.54 64.8977 24.4517 66.0049C26.3633 67.1121 27.0197 69.5619 25.9178 71.4766C24.8159 73.3913 22.3729 74.0459 20.4613 72.9387ZM12.4614 86.9387C10.5498 85.8314 9.89338 83.3817 10.9953 81.467C12.0972 79.5523 14.5402 78.8977 16.4518 80.0049C18.3634 81.1121 19.0198 83.5619 17.9179 85.4766C16.816 87.3913 14.3731 88.0459 12.4614 86.9387ZM36.0005 72.9387C34.0889 71.8314 33.4325 69.3817 34.5344 67.467C35.6363 65.5523 38.0793 64.8977 39.9909 66.0049C41.9026 67.1121 42.559 69.5619 41.4571 71.4766C40.3551 73.3913 37.9122 74.0459 36.0005 72.9387ZM28.0007 86.9387C26.089 85.8314 25.4326 83.3817 26.5345 81.467C27.6365 79.5523 30.0794 78.8977 31.991 80.0049C33.9027 81.1121 34.5591 83.5619 33.4572 85.4766C32.3553 87.3913 29.9123 88.0459 28.0007 86.9387ZM50.5344 67.467C49.4325 69.3817 50.0889 71.8314 52.0005 72.9387C53.9122 74.0459 56.3551 73.3913 57.4571 71.4766C58.559 69.5619 57.9026 67.1121 55.9909 66.0049C54.0793 64.8977 51.6363 65.5523 50.5344 67.467ZM42.5345 81.467C41.4326 83.3817 42.089 85.8314 44.0007 86.9387C45.9123 88.0459 48.3553 87.3913 49.4572 85.4766C50.5591 83.5619 49.9027 81.1121 47.991 80.0049C46.0794 78.8977 43.6365 79.5523 42.5345 81.467ZM60.0007 86.9387C58.089 85.8314 57.4326 83.3817 58.5345 81.467C59.6365 79.5523 62.0794 78.8977 63.991 80.0049C65.9027 81.1121 66.5591 83.5619 65.4572 85.4766C64.3553 87.3913 61.9123 88.0459 60.0007 86.9387Z"/>
</mask>
<path fill-rule="evenodd" clip-rule="evenodd" d="M64.4611 67.9387C62.5495 66.8314 61.8931 64.3817 62.995 62.467C64.0969 60.5523 66.5399 59.8977 68.4515 61.0049C70.0435 61.927 70.7649 63.7803 70.3252 65.4801C70.8947 65.5278 71.4631 65.6992 71.9909 66.0049C73.9026 67.1121 74.559 69.5619 73.457 71.4766C72.3551 73.3913 69.9122 74.0459 68.0005 72.9387C66.4085 72.0165 65.6871 70.1633 66.1268 68.4634C65.5574 68.4158 64.989 68.2444 64.4611 67.9387ZM20.4613 72.9387C18.5497 71.8314 17.8933 69.3817 18.9952 67.467C20.0971 65.5523 22.54 64.8977 24.4517 66.0049C26.3633 67.1121 27.0197 69.5619 25.9178 71.4766C24.8159 73.3913 22.3729 74.0459 20.4613 72.9387ZM12.4614 86.9387C10.5498 85.8314 9.89338 83.3817 10.9953 81.467C12.0972 79.5523 14.5402 78.8977 16.4518 80.0049C18.3634 81.1121 19.0198 83.5619 17.9179 85.4766C16.816 87.3913 14.3731 88.0459 12.4614 86.9387ZM36.0005 72.9387C34.0889 71.8314 33.4325 69.3817 34.5344 67.467C35.6363 65.5523 38.0793 64.8977 39.9909 66.0049C41.9026 67.1121 42.559 69.5619 41.4571 71.4766C40.3551 73.3913 37.9122 74.0459 36.0005 72.9387ZM28.0007 86.9387C26.089 85.8314 25.4326 83.3817 26.5345 81.467C27.6365 79.5523 30.0794 78.8977 31.991 80.0049C33.9027 81.1121 34.5591 83.5619 33.4572 85.4766C32.3553 87.3913 29.9123 88.0459 28.0007 86.9387ZM50.5344 67.467C49.4325 69.3817 50.0889 71.8314 52.0005 72.9387C53.9122 74.0459 56.3551 73.3913 57.4571 71.4766C58.559 69.5619 57.9026 67.1121 55.9909 66.0049C54.0793 64.8977 51.6363 65.5523 50.5344 67.467ZM42.5345 81.467C41.4326 83.3817 42.089 85.8314 44.0007 86.9387C45.9123 88.0459 48.3553 87.3913 49.4572 85.4766C50.5591 83.5619 49.9027 81.1121 47.991 80.0049C46.0794 78.8977 43.6365 79.5523 42.5345 81.467ZM60.0007 86.9387C58.089 85.8314 57.4326 83.3817 58.5345 81.467C59.6365 79.5523 62.0794 78.8977 63.991 80.0049C65.9027 81.1121 66.5591 83.5619 65.4572 85.4766C64.3553 87.3913 61.9123 88.0459 60.0007 86.9387Z" fill="white"/>
<path d="M62.995 62.467L61.2615 61.4694L62.995 62.467ZM64.4611 67.9387L65.4635 66.208L65.4635 66.208L64.4611 67.9387ZM68.4515 61.0049L67.4491 62.7356L67.4491 62.7356L68.4515 61.0049ZM70.3252 65.4801L68.3889 64.9792L67.7949 67.2755L70.1585 67.4732L70.3252 65.4801ZM71.9909 66.0049L70.9885 67.7356L70.9885 67.7356L71.9909 66.0049ZM68.0005 72.9387L69.0029 71.208L69.0029 71.208L68.0005 72.9387ZM66.1268 68.4634L68.0631 68.9643L68.6571 66.6681L66.2935 66.4704L66.1268 68.4634ZM18.9952 67.467L20.7286 68.4646L20.7286 68.4646L18.9952 67.467ZM20.4613 72.9387L19.4589 74.6693L19.4589 74.6693L20.4613 72.9387ZM24.4517 66.0049L25.4541 64.2742L25.4541 64.2742L24.4517 66.0049ZM25.9178 71.4766L24.1844 70.479L24.1844 70.479L25.9178 71.4766ZM10.9953 81.467L9.26185 80.4694L9.26185 80.4694L10.9953 81.467ZM12.4614 86.9387L11.459 88.6693L11.459 88.6693L12.4614 86.9387ZM17.9179 85.4766L16.1845 84.479L16.1845 84.479L17.9179 85.4766ZM34.5344 67.467L32.801 66.4694L32.801 66.4694L34.5344 67.467ZM36.0005 72.9387L37.003 71.208L37.003 71.208L36.0005 72.9387ZM41.4571 71.4766L43.1905 72.4742L43.1905 72.4742L41.4571 71.4766ZM26.5345 81.467L24.8011 80.4694L24.8011 80.4694L26.5345 81.467ZM28.0007 86.9387L26.9983 88.6693L26.9983 88.6693L28.0007 86.9387ZM31.991 80.0049L32.9935 78.2742L32.9935 78.2742L31.991 80.0049ZM57.4571 71.4766L59.1905 72.4742L59.1905 72.4742L57.4571 71.4766ZM44.0007 86.9387L42.9983 88.6693L42.9983 88.6693L44.0007 86.9387ZM42.5345 81.467L40.8011 80.4694L40.8011 80.4694L42.5345 81.467ZM49.4572 85.4766L51.1906 86.4742L51.1906 86.4742L49.4572 85.4766ZM47.991 80.0049L48.9935 78.2742L48.9935 78.2742L47.991 80.0049ZM58.5345 81.467L56.8011 80.4694L56.8011 80.4694L58.5345 81.467ZM60.0007 86.9387L58.9983 88.6693L58.9983 88.6693L60.0007 86.9387ZM63.991 80.0049L64.9934 78.2742L64.9934 78.2742L63.991 80.0049ZM61.2615 61.4694C59.6097 64.3395 60.5931 68.0096 63.4587 69.6693L65.4635 66.208C64.5058 65.6533 64.1764 64.4238 64.7284 63.4646L61.2615 61.4694ZM69.4539 59.2743C66.5846 57.6123 62.9155 58.5954 61.2615 61.4694L64.7284 63.4646C65.2783 62.5091 66.4951 62.183 67.4491 62.7356L69.4539 59.2743ZM72.2615 65.981C72.92 63.4354 71.8434 60.6583 69.4539 59.2743L67.4491 62.7356C68.2436 63.1957 68.6099 64.1252 68.3889 64.9792L72.2615 65.981ZM72.9933 64.2742C72.2047 63.8174 71.3501 63.5589 70.4919 63.4871L70.1585 67.4732C70.4393 67.4967 70.7214 67.5809 70.9885 67.7356L72.9933 64.2742ZM75.1905 72.4742C76.8423 69.604 75.8589 65.934 72.9933 64.2742L70.9885 67.7356C71.9462 68.2903 72.2756 69.5198 71.7236 70.479L75.1905 72.4742ZM66.9981 74.6693C69.8675 76.3312 73.5365 75.3481 75.1905 72.4742L71.7236 70.479C71.1737 71.4345 69.9569 71.7605 69.0029 71.208L66.9981 74.6693ZM64.1906 67.9625C63.532 70.5082 64.6086 73.2853 66.9981 74.6693L69.0029 71.208C68.2085 70.7478 67.8421 69.8184 68.0631 68.9643L64.1906 67.9625ZM63.4587 69.6693C64.2474 70.1261 65.102 70.3847 65.9601 70.4565L66.2935 66.4704C66.0127 66.4469 65.7306 66.3627 65.4635 66.208L63.4587 69.6693ZM17.2617 66.4694C15.6099 69.3395 16.5933 73.0096 19.4589 74.6693L21.4637 71.208C20.506 70.6533 20.1766 69.4238 20.7286 68.4646L17.2617 66.4694ZM25.4541 64.2742C22.5848 62.6123 18.9157 63.5954 17.2617 66.4694L20.7286 68.4646C21.2785 67.5091 22.4953 67.183 23.4493 67.7356L25.4541 64.2742ZM27.6512 72.4742C29.303 69.604 28.3197 65.934 25.4541 64.2742L23.4493 67.7356C24.407 68.2903 24.7364 69.5198 24.1844 70.479L27.6512 72.4742ZM19.4589 74.6693C22.3282 76.3312 25.9973 75.3481 27.6512 72.4742L24.1844 70.479C23.6345 71.4345 22.4176 71.7605 21.4637 71.208L19.4589 74.6693ZM9.26185 80.4694C7.61007 83.3395 8.59344 87.0096 11.459 88.6693L13.4638 85.208C12.5061 84.6533 12.1767 83.4238 12.7287 82.4646L9.26185 80.4694ZM17.4542 78.2742C14.5849 76.6123 10.9158 77.5954 9.26185 80.4694L12.7287 82.4646C13.2786 81.5091 14.4955 81.183 15.4494 81.7356L17.4542 78.2742ZM19.6514 86.4742C21.3032 83.604 20.3198 79.934 17.4542 78.2742L15.4494 81.7356C16.4071 82.2903 16.7365 83.5198 16.1845 84.479L19.6514 86.4742ZM11.459 88.6693C14.3283 90.3312 17.9974 89.3481 19.6514 86.4742L16.1845 84.479C15.6346 85.4345 14.4178 85.7605 13.4638 85.208L11.459 88.6693ZM32.801 66.4694C31.1492 69.3395 32.1326 73.0096 34.9981 74.6693L37.003 71.208C36.0453 70.6533 35.7158 69.4238 36.2679 68.4646L32.801 66.4694ZM40.9933 64.2742C38.124 62.6123 34.4549 63.5954 32.801 66.4694L36.2679 68.4646C36.8177 67.5091 38.0346 67.183 38.9885 67.7356L40.9933 64.2742ZM43.1905 72.4742C44.8423 69.604 43.8589 65.934 40.9933 64.2742L38.9885 67.7356C39.9462 68.2903 40.2757 69.5198 39.7236 70.479L43.1905 72.4742ZM34.9981 74.6693C37.8675 76.3312 41.5365 75.3481 43.1905 72.4742L39.7236 70.479C39.1737 71.4345 37.9569 71.7605 37.003 71.208L34.9981 74.6693ZM24.8011 80.4694C23.1493 83.3395 24.1327 87.0096 26.9983 88.6693L29.0031 85.208C28.0454 84.6533 27.7159 83.4238 28.268 82.4646L24.8011 80.4694ZM32.9935 78.2742C30.1241 76.6123 26.4551 77.5954 24.8011 80.4694L28.268 82.4646C28.8178 81.5091 30.0347 81.183 30.9886 81.7356L32.9935 78.2742ZM35.1906 86.4742C36.8424 83.604 35.859 79.934 32.9935 78.2742L30.9886 81.7356C31.9463 82.2903 32.2758 83.5198 31.7237 84.479L35.1906 86.4742ZM26.9983 88.6693C29.8676 90.3312 33.5367 89.3481 35.1906 86.4742L31.7237 84.479C31.1739 85.4345 29.957 85.7605 29.0031 85.208L26.9983 88.6693ZM53.003 71.208C52.0453 70.6533 51.7158 69.4238 52.2679 68.4646L48.801 66.4694C47.1492 69.3395 48.1326 73.0096 50.9981 74.6693L53.003 71.208ZM55.7236 70.479C55.1737 71.4345 53.9569 71.7605 53.003 71.208L50.9981 74.6693C53.8675 76.3312 57.5365 75.3481 59.1905 72.4742L55.7236 70.479ZM54.9885 67.7356C55.9462 68.2903 56.2757 69.5198 55.7236 70.479L59.1905 72.4742C60.8423 69.604 59.8589 65.934 56.9933 64.2742L54.9885 67.7356ZM52.2679 68.4646C52.8177 67.5091 54.0346 67.183 54.9885 67.7356L56.9933 64.2742C54.124 62.6123 50.4549 63.5954 48.801 66.4694L52.2679 68.4646ZM45.0031 85.208C44.0454 84.6533 43.7159 83.4238 44.268 82.4646L40.8011 80.4694C39.1493 83.3395 40.1327 87.0096 42.9983 88.6693L45.0031 85.208ZM47.7237 84.479C47.1739 85.4345 45.957 85.7605 45.0031 85.208L42.9983 88.6693C45.8676 90.3312 49.5367 89.3481 51.1906 86.4742L47.7237 84.479ZM46.9886 81.7356C47.9463 82.2903 48.2758 83.5198 47.7237 84.479L51.1906 86.4742C52.8424 83.604 51.859 79.934 48.9935 78.2742L46.9886 81.7356ZM44.268 82.4646C44.8178 81.5091 46.0347 81.183 46.9886 81.7356L48.9935 78.2742C46.1241 76.6123 42.4551 77.5954 40.8011 80.4694L44.268 82.4646ZM56.8011 80.4694C55.1493 83.3395 56.1327 87.0096 58.9983 88.6693L61.0031 85.208C60.0454 84.6533 59.7159 83.4238 60.268 82.4646L56.8011 80.4694ZM64.9934 78.2742C62.1241 76.6123 58.4551 77.5954 56.8011 80.4694L60.268 82.4646C60.8178 81.5091 62.0347 81.183 62.9886 81.7356L64.9934 78.2742ZM67.1906 86.4742C68.8424 83.604 67.859 79.934 64.9934 78.2742L62.9886 81.7356C63.9463 82.2903 64.2758 83.5198 63.7237 84.479L67.1906 86.4742ZM58.9983 88.6693C61.8676 90.3312 65.5367 89.3481 67.1906 86.4742L63.7237 84.479C63.1739 85.4345 61.957 85.7605 61.0031 85.208L58.9983 88.6693Z" fill="black" mask="url(#path-1-inside-1_111_1092)"/>
<mask id="path-3-inside-2_111_1092" fill="white">
<path fill-rule="evenodd" clip-rule="evenodd" d="M74.3284 64H32.2388C14.4338 64 0 49.6731 0 32C0 14.3269 14.4338 0 32.2388 0C47.1165 0 59.6405 10.0032 63.3564 23.6034C66.5746 21.7088 70.3247 20.6222 74.3284 20.6222C86.2973 20.6222 96 30.3327 96 42.3111C96 54.2298 86.3939 63.903 74.5075 63.9993V64L74.3284 64Z"/>
</mask>
<path fill-rule="evenodd" clip-rule="evenodd" d="M74.3284 64H32.2388C14.4338 64 0 49.6731 0 32C0 14.3269 14.4338 0 32.2388 0C47.1165 0 59.6405 10.0032 63.3564 23.6034C66.5746 21.7088 70.3247 20.6222 74.3284 20.6222C86.2973 20.6222 96 30.3327 96 42.3111C96 54.2298 86.3939 63.903 74.5075 63.9993V64L74.3284 64Z" fill="white"/>
<path d="M74.3284 64L74.3286 60H74.3284V64ZM63.3564 23.6034L59.4978 24.6576L60.8768 29.7048L65.3856 27.0504L63.3564 23.6034ZM74.5075 63.9993L74.4751 59.9994L70.5075 60.0316V63.9993H74.5075ZM74.5075 64L74.5073 68L78.5075 68.0002V64H74.5075ZM32.2388 68H74.3284V60H32.2388V68ZM32.2388 60C16.6149 60 4 47.436 4 32H-4C-4 51.9102 12.2528 68 32.2388 68V60ZM4 32C4 16.564 16.6149 4 32.2388 4V-4C12.2528 -4 -4 12.0898 -4 32H4ZM32.2388 4C45.2855 4 56.2497 12.7698 59.4978 24.6576L67.2149 22.5491C63.0312 7.23674 48.9476 -4 32.2388 -4V4ZM65.3856 27.0504C68.0058 25.5079 71.0578 24.6222 74.3284 24.6222V16.6222C69.5916 16.6222 65.1433 17.9097 61.3271 20.1563L65.3856 27.0504ZM74.3284 24.6222C84.0852 24.6222 92 32.5388 92 42.3111H100C100 28.1265 88.5095 16.6222 74.3284 16.6222V24.6222ZM92 42.3111C92 52.0345 84.1639 59.9209 74.4751 59.9994L74.5399 67.9992C88.6239 67.8851 100 56.4251 100 42.3111H92ZM78.5075 64V63.9993H70.5075V64H78.5075ZM74.3282 68L74.5073 68L74.5077 60L74.3286 60L74.3282 68Z" fill="black" mask="url(#path-3-inside-2_111_1092)"/>
<mask id="path-5-inside-3_111_1092" fill="white">
<path fill-rule="evenodd" clip-rule="evenodd" d="M71.1883 74.9999C71.1944 77.209 72.9903 78.9999 75.1994 78.9999C77.4085 78.9999 79.1944 77.209 79.1883 74.9999L79.1686 67.9171L85.293 71.4304C87.2092 72.5296 89.6581 71.8698 90.7626 69.9567C91.8672 68.0435 91.2092 65.6014 89.293 64.5022L83.1493 60.9779L89.2544 57.4305C91.1645 56.3206 91.8175 53.8699 90.7129 51.9568C89.6083 50.0436 87.1645 49.3924 85.2544 50.5023L79.1301 54.0608L79.1105 47C79.1044 44.7909 77.3085 43 75.0994 43C72.8902 43 71.1044 44.7909 71.1105 47L71.1302 54.0831L65.0055 50.5696C63.0892 49.4704 60.6404 50.1302 59.5358 52.0433C58.4313 53.9565 59.0892 56.3986 61.0055 57.4978L67.1495 61.0223L61.0446 64.5696C59.1346 65.6795 58.4815 68.1301 59.5861 70.0433C60.6907 71.9565 63.1346 72.6077 65.0446 71.4978L71.1687 67.9394L71.1883 74.9999Z"/>
</mask>
<path fill-rule="evenodd" clip-rule="evenodd" d="M71.1883 74.9999C71.1944 77.209 72.9903 78.9999 75.1994 78.9999C77.4085 78.9999 79.1944 77.209 79.1883 74.9999L79.1686 67.9171L85.293 71.4304C87.2092 72.5296 89.6581 71.8698 90.7626 69.9567C91.8672 68.0435 91.2092 65.6014 89.293 64.5022L83.1493 60.9779L89.2544 57.4305C91.1645 56.3206 91.8175 53.8699 90.7129 51.9568C89.6083 50.0436 87.1645 49.3924 85.2544 50.5023L79.1301 54.0608L79.1105 47C79.1044 44.7909 77.3085 43 75.0994 43C72.8902 43 71.1044 44.7909 71.1105 47L71.1302 54.0831L65.0055 50.5696C63.0892 49.4704 60.6404 50.1302 59.5358 52.0433C58.4313 53.9565 59.0892 56.3986 61.0055 57.4978L67.1495 61.0223L61.0446 64.5696C59.1346 65.6795 58.4815 68.1301 59.5861 70.0433C60.6907 71.9565 63.1346 72.6077 65.0446 71.4978L71.1687 67.9394L71.1883 74.9999Z" fill="#148FCC"/>
<path fill-rule="evenodd" clip-rule="evenodd" d="M71.1883 74.9999C71.1944 77.209 72.9903 78.9999 75.1994 78.9999C77.4085 78.9999 79.1944 77.209 79.1883 74.9999L79.1686 67.9171L85.293 71.4304C87.2092 72.5296 89.6581 71.8698 90.7626 69.9567C91.8672 68.0435 91.2092 65.6014 89.293 64.5022L83.1493 60.9779L89.2544 57.4305C91.1645 56.3206 91.8175 53.8699 90.7129 51.9568C89.6083 50.0436 87.1645 49.3924 85.2544 50.5023L79.1301 54.0608L79.1105 47C79.1044 44.7909 77.3085 43 75.0994 43C72.8902 43 71.1044 44.7909 71.1105 47L71.1302 54.0831L65.0055 50.5696C63.0892 49.4704 60.6404 50.1302 59.5358 52.0433C58.4313 53.9565 59.0892 56.3986 61.0055 57.4978L67.1495 61.0223L61.0446 64.5696C59.1346 65.6795 58.4815 68.1301 59.5861 70.0433C60.6907 71.9565 63.1346 72.6077 65.0446 71.4978L71.1687 67.9394L71.1883 74.9999Z" fill="white" fill-opacity="0.5"/>
<path d="M71.1883 74.9999L69.1883 75.0054L69.1883 75.0054L71.1883 74.9999ZM79.1883 74.9999L77.1883 75.0054L77.1883 75.0054L79.1883 74.9999ZM79.1686 67.9171L80.1638 66.1823L77.159 64.4586L77.1686 67.9227L79.1686 67.9171ZM85.293 71.4304L84.2978 73.1652L84.2978 73.1652L85.293 71.4304ZM90.7626 69.9567L92.4947 70.9567L92.4947 70.9567L90.7626 69.9567ZM89.293 64.5022L90.2882 62.7674L90.2882 62.7674L89.293 64.5022ZM83.1493 60.9779L82.1445 59.2486L79.1494 60.989L82.1542 62.7127L83.1493 60.9779ZM89.2544 57.4305L88.2496 55.7012L88.2496 55.7012L89.2544 57.4305ZM90.7129 51.9568L88.9809 52.9568L88.9809 52.9568L90.7129 51.9568ZM85.2544 50.5023L84.2496 48.773L84.2496 48.773L85.2544 50.5023ZM79.1301 54.0608L77.1301 54.0664L77.1397 57.5305L80.1349 55.7901L79.1301 54.0608ZM79.1105 47L81.1105 46.9944L81.1105 46.9944L79.1105 47ZM71.1105 47L69.1105 47.0055L69.1105 47.0055L71.1105 47ZM71.1302 54.0831L70.135 55.8179L73.1398 57.5416L73.1302 54.0775L71.1302 54.0831ZM65.0055 50.5696L64.0103 52.3044L64.0103 52.3044L65.0055 50.5696ZM59.5358 52.0433L61.2679 53.0433L61.2679 53.0433L59.5358 52.0433ZM61.0055 57.4978L62.0007 55.763L62.0007 55.763L61.0055 57.4978ZM67.1495 61.0223L68.1543 62.7516L71.1494 61.0112L68.1446 59.2875L67.1495 61.0223ZM61.0446 64.5696L60.0398 62.8403L60.0398 62.8403L61.0446 64.5696ZM59.5861 70.0433L61.3182 69.0433L59.5861 70.0433ZM65.0446 71.4978L64.0398 69.7685L64.0398 69.7685L65.0446 71.4978ZM71.1687 67.9394L73.1687 67.9338L73.159 64.4697L70.1639 66.2101L71.1687 67.9394ZM75.1994 76.9999C74.0927 76.9999 73.1914 76.1011 73.1883 74.9943L69.1883 75.0054C69.1975 78.317 71.8879 80.9999 75.1994 80.9999V76.9999ZM77.1883 75.0054C77.1914 76.1078 76.3018 76.9999 75.1994 76.9999V80.9999C78.5153 80.9999 81.1975 78.3102 81.1883 74.9943L77.1883 75.0054ZM77.1686 67.9227L77.1883 75.0054L81.1883 74.9943L81.1686 67.9116L77.1686 67.9227ZM78.1734 69.652L84.2978 73.1652L86.2882 69.6956L80.1638 66.1823L78.1734 69.652ZM84.2978 73.1652C87.1703 74.813 90.8389 73.8245 92.4947 70.9567L89.0306 68.9567C88.4772 69.9151 87.2482 70.2463 86.2882 69.6956L84.2978 73.1652ZM92.4947 70.9567C94.1526 68.085 93.1644 64.4173 90.2882 62.7674L88.2978 66.237C89.254 66.7856 89.5818 68.002 89.0306 68.9567L92.4947 70.9567ZM90.2882 62.7674L84.1445 59.2431L82.1542 62.7127L88.2978 66.237L90.2882 62.7674ZM88.2496 55.7012L82.1445 59.2486L84.1541 62.7071L90.2592 59.1597L88.2496 55.7012ZM88.9809 52.9568C89.5342 53.9152 89.2065 55.1452 88.2496 55.7012L90.2592 59.1597C93.1224 57.496 94.1007 53.8246 92.445 50.9568L88.9809 52.9568ZM86.2592 52.2315C87.2123 51.6777 88.4297 52.0021 88.9809 52.9568L92.445 50.9568C90.787 48.0851 87.1166 47.1071 84.2496 48.773L86.2592 52.2315ZM80.1349 55.7901L86.2592 52.2315L84.2496 48.773L78.1253 52.3316L80.1349 55.7901ZM77.1105 47.0055L77.1301 54.0664L81.1301 54.0553L81.1105 46.9944L77.1105 47.0055ZM75.0994 45C76.2061 45 77.1074 45.8988 77.1105 47.0055L81.1105 46.9944C81.1013 43.6829 78.4109 41 75.0994 41V45ZM73.1105 46.9944C73.1074 45.892 73.997 45 75.0994 45V41C71.7835 41 69.1013 43.6897 69.1105 47.0055L73.1105 46.9944ZM73.1302 54.0775L73.1105 46.9944L69.1105 47.0055L69.1302 54.0886L73.1302 54.0775ZM72.1254 52.3482L66.0007 48.8348L64.0103 52.3044L70.135 55.8179L72.1254 52.3482ZM66.0007 48.8348C63.1282 47.187 59.4595 48.1755 57.8038 51.0433L61.2679 53.0433C61.8212 52.0849 63.0503 51.7537 64.0103 52.3044L66.0007 48.8348ZM57.8038 51.0433C56.1458 53.915 57.1341 57.5827 60.0103 59.2326L62.0007 55.763C61.0444 55.2144 60.7167 53.998 61.2679 53.0433L57.8038 51.0433ZM60.0103 59.2326L66.1543 62.7571L68.1446 59.2875L62.0007 55.763L60.0103 59.2326ZM62.0495 66.2989L68.1543 62.7516L66.1447 59.2931L60.0398 62.8403L62.0495 66.2989ZM61.3182 69.0433C60.7648 68.0848 61.0925 66.8549 62.0495 66.2989L60.0398 62.8403C57.1766 64.5041 56.1983 68.1754 57.8541 71.0433L61.3182 69.0433ZM64.0398 69.7685C63.0867 70.3224 61.8694 69.998 61.3182 69.0433L57.8541 71.0433C59.512 73.9149 63.1824 74.893 66.0495 73.2271L64.0398 69.7685ZM70.1639 66.2101L64.0398 69.7685L66.0495 73.2271L72.1735 69.6686L70.1639 66.2101ZM73.1883 74.9943L73.1687 67.9338L69.1687 67.9449L69.1883 75.0054L73.1883 74.9943Z" fill="black" mask="url(#path-5-inside-3_111_1092)"/>
</svg>
