<svg width="48" height="48" viewBox="0 0 48 48" fill="none" xmlns="http://www.w3.org/2000/svg">
<mask id="path-1-inside-1_111_1109" fill="white">
<path fill-rule="evenodd" clip-rule="evenodd" d="M8.73182 36.4693C7.776 35.9157 7.44652 34.69 7.99748 33.7327C8.54843 32.7753 9.77119 32.4488 10.727 33.0024C11.6828 33.556 12.0123 34.7816 11.4614 35.739C10.9104 36.6963 9.68764 37.0229 8.73182 36.4693ZM5.73188 42.4698C4.77606 41.9161 4.44658 40.6905 4.99754 39.7332C5.54849 38.7758 6.77125 38.4493 7.72707 39.0029C8.68289 39.5565 9.01237 40.7821 8.46141 41.7395C7.91046 42.6968 6.6877 43.0234 5.73188 42.4698Z"/>
</mask>
<path fill-rule="evenodd" clip-rule="evenodd" d="M8.73182 36.4693C7.776 35.9157 7.44652 34.69 7.99748 33.7327C8.54843 32.7753 9.77119 32.4488 10.727 33.0024C11.6828 33.556 12.0123 34.7816 11.4614 35.739C10.9104 36.6963 9.68764 37.0229 8.73182 36.4693ZM5.73188 42.4698C4.77606 41.9161 4.44658 40.6905 4.99754 39.7332C5.54849 38.7758 6.77125 38.4493 7.72707 39.0029C8.68289 39.5565 9.01237 40.7821 8.46141 41.7395C7.91046 42.6968 6.6877 43.0234 5.73188 42.4698Z" fill="white"/>
<path d="M7.99748 33.7327L7.13076 33.2339L7.13076 33.2339L7.99748 33.7327ZM8.73182 36.4693L8.23062 37.3346L8.23062 37.3346L8.73182 36.4693ZM10.727 33.0024L11.2282 32.1371L11.2282 32.1371L10.727 33.0024ZM11.4614 35.739L12.3281 36.2378L12.3281 36.2378L11.4614 35.739ZM4.99754 39.7332L4.13082 39.2344L4.13082 39.2344L4.99754 39.7332ZM5.73188 42.4698L5.23067 43.3351L5.23068 43.3351L5.73188 42.4698ZM7.72707 39.0029L8.22827 38.1376L8.22827 38.1376L7.72707 39.0029ZM7.13076 33.2339C6.30439 34.6698 6.79866 36.5052 8.23062 37.3346L9.23302 35.6039C8.75335 35.3261 8.58865 34.7103 8.86419 34.2315L7.13076 33.2339ZM11.2282 32.1371C9.79438 31.3066 7.95822 31.7961 7.13076 33.2339L8.86419 34.2315C9.13865 33.7546 9.748 33.591 10.2258 33.8677L11.2282 32.1371ZM12.3281 36.2378C13.1544 34.8019 12.6602 32.9665 11.2282 32.1371L10.2258 33.8677C10.7055 34.1456 10.8702 34.7614 10.5946 35.2402L12.3281 36.2378ZM8.23062 37.3346C9.66444 38.1651 11.5006 37.6756 12.3281 36.2378L10.5946 35.2402C10.3202 35.7171 9.71083 35.8807 9.23302 35.6039L8.23062 37.3346ZM4.13082 39.2344C3.30445 40.6703 3.79872 42.5057 5.23067 43.3351L6.23308 41.6044C5.75341 41.3266 5.58871 40.7108 5.86425 40.232L4.13082 39.2344ZM8.22827 38.1376C6.79444 37.3071 4.95828 37.7966 4.13082 39.2344L5.86425 40.232C6.13871 39.7551 6.74806 39.5915 7.22587 39.8682L8.22827 38.1376ZM9.32813 42.2383C10.1545 40.8024 9.66023 38.967 8.22827 38.1376L7.22587 39.8682C7.70554 40.146 7.87023 40.7619 7.59469 41.2407L9.32813 42.2383ZM5.23068 43.3351C6.6645 44.1656 8.50067 43.6761 9.32813 42.2383L7.59469 41.2407C7.32024 41.7176 6.71089 41.8812 6.23308 41.6044L5.23068 43.3351Z" fill="black" mask="url(#path-1-inside-1_111_1109)"/>
<mask id="path-3-inside-2_111_1109" fill="white">
<path fill-rule="evenodd" clip-rule="evenodd" d="M17.0012 36.4693C16.0454 35.9157 15.7159 34.69 16.2669 33.7327C16.8178 32.7753 18.0406 32.4488 18.9964 33.0024C19.9522 33.556 20.2817 34.7816 19.7308 35.739C19.1798 36.6963 17.957 37.0229 17.0012 36.4693ZM14.0013 42.4698C13.0455 41.9161 12.716 40.6905 13.2669 39.7332C13.8179 38.7758 15.0407 38.4493 15.9965 39.0029C16.9523 39.5565 17.2818 40.7821 16.7308 41.7395C16.1799 42.6968 14.9571 43.0234 14.0013 42.4698Z"/>
</mask>
<path fill-rule="evenodd" clip-rule="evenodd" d="M17.0012 36.4693C16.0454 35.9157 15.7159 34.69 16.2669 33.7327C16.8178 32.7753 18.0406 32.4488 18.9964 33.0024C19.9522 33.556 20.2817 34.7816 19.7308 35.739C19.1798 36.6963 17.957 37.0229 17.0012 36.4693ZM14.0013 42.4698C13.0455 41.9161 12.716 40.6905 13.2669 39.7332C13.8179 38.7758 15.0407 38.4493 15.9965 39.0029C16.9523 39.5565 17.2818 40.7821 16.7308 41.7395C16.1799 42.6968 14.9571 43.0234 14.0013 42.4698Z" fill="white"/>
<path d="M16.2669 33.7327L15.4002 33.2339L15.4002 33.2339L16.2669 33.7327ZM17.0012 36.4693L16.5 37.3346L16.5 37.3346L17.0012 36.4693ZM18.9964 33.0024L19.4976 32.1371L19.4976 32.1371L18.9964 33.0024ZM19.7308 35.739L20.5975 36.2378L20.5975 36.2378L19.7308 35.739ZM13.2669 39.7332L12.4002 39.2344L12.4002 39.2344L13.2669 39.7332ZM14.0013 42.4698L13.5001 43.3351L13.5001 43.3351L14.0013 42.4698ZM15.9965 39.0029L16.4977 38.1376L16.4977 38.1376L15.9965 39.0029ZM15.4002 33.2339C14.5738 34.6698 15.0681 36.5052 16.5 37.3346L17.5024 35.6039C17.0228 35.3261 16.8581 34.7103 17.1336 34.2315L15.4002 33.2339ZM19.4976 32.1371C18.0638 31.3066 16.2276 31.7961 15.4002 33.2339L17.1336 34.2315C17.4081 33.7546 18.0174 33.591 18.4952 33.8677L19.4976 32.1371ZM20.5975 36.2378C21.4239 34.8019 20.9296 32.9665 19.4976 32.1371L18.4952 33.8677C18.9749 34.1456 19.1396 34.7614 18.864 35.2402L20.5975 36.2378ZM16.5 37.3346C17.9339 38.1651 19.77 37.6756 20.5975 36.2378L18.864 35.2402C18.5896 35.7171 17.9802 35.8807 17.5024 35.6039L16.5 37.3346ZM12.4002 39.2344C11.5739 40.6703 12.0681 42.5057 13.5001 43.3351L14.5025 41.6044C14.0228 41.3266 13.8581 40.7108 14.1337 40.232L12.4002 39.2344ZM16.4977 38.1376C15.0639 37.3071 13.2277 37.7966 12.4002 39.2344L14.1337 40.232C14.4081 39.7551 15.0175 39.5915 15.4953 39.8682L16.4977 38.1376ZM17.5975 42.2383C18.4239 40.8024 17.9296 38.967 16.4977 38.1376L15.4953 39.8682C15.975 40.146 16.1396 40.7619 15.8641 41.2407L17.5975 42.2383ZM13.5001 43.3351C14.9339 44.1656 16.7701 43.6761 17.5975 42.2383L15.8641 41.2407C15.5896 41.7176 14.9803 41.8812 14.5025 41.6044L13.5001 43.3351Z" fill="black" mask="url(#path-3-inside-2_111_1109)"/>
<mask id="path-5-inside-3_111_1109" fill="white">
<path fill-rule="evenodd" clip-rule="evenodd" d="M25.0012 36.4693C24.0454 35.9157 23.7159 34.69 24.2669 33.7327C24.8178 32.7753 26.0406 32.4488 26.9964 33.0024C27.9522 33.556 28.2817 34.7816 27.7308 35.739C27.1798 36.6963 25.957 37.0229 25.0012 36.4693ZM22.0013 42.4698C21.0455 41.9161 20.716 40.6905 21.2669 39.7332C21.8179 38.7758 23.0407 38.4493 23.9965 39.0029C24.9523 39.5565 25.2818 40.7821 24.7308 41.7395C24.1799 42.6968 22.9571 43.0234 22.0013 42.4698Z"/>
</mask>
<path fill-rule="evenodd" clip-rule="evenodd" d="M25.0012 36.4693C24.0454 35.9157 23.7159 34.69 24.2669 33.7327C24.8178 32.7753 26.0406 32.4488 26.9964 33.0024C27.9522 33.556 28.2817 34.7816 27.7308 35.739C27.1798 36.6963 25.957 37.0229 25.0012 36.4693ZM22.0013 42.4698C21.0455 41.9161 20.716 40.6905 21.2669 39.7332C21.8179 38.7758 23.0407 38.4493 23.9965 39.0029C24.9523 39.5565 25.2818 40.7821 24.7308 41.7395C24.1799 42.6968 22.9571 43.0234 22.0013 42.4698Z" fill="white"/>
<path d="M24.2669 33.7327L23.4002 33.2339L23.4002 33.2339L24.2669 33.7327ZM25.0012 36.4693L24.5 37.3346L24.5 37.3346L25.0012 36.4693ZM26.9964 33.0024L27.4976 32.1371L27.4976 32.1371L26.9964 33.0024ZM27.7308 35.739L28.5975 36.2378L28.5975 36.2378L27.7308 35.739ZM21.2669 39.7332L20.4002 39.2344L20.4002 39.2344L21.2669 39.7332ZM22.0013 42.4698L21.5001 43.3351L21.5001 43.3351L22.0013 42.4698ZM23.9965 39.0029L24.4977 38.1376L24.4977 38.1376L23.9965 39.0029ZM23.4002 33.2339C22.5738 34.6698 23.0681 36.5052 24.5 37.3346L25.5024 35.6039C25.0228 35.3261 24.8581 34.7103 25.1336 34.2315L23.4002 33.2339ZM27.4976 32.1371C26.0638 31.3066 24.2276 31.7961 23.4002 33.2339L25.1336 34.2315C25.4081 33.7546 26.0174 33.591 26.4952 33.8677L27.4976 32.1371ZM28.5975 36.2378C29.4239 34.8019 28.9296 32.9665 27.4976 32.1371L26.4952 33.8677C26.9749 34.1456 27.1396 34.7614 26.864 35.2402L28.5975 36.2378ZM24.5 37.3346C25.9339 38.1651 27.77 37.6756 28.5975 36.2378L26.864 35.2402C26.5896 35.7171 25.9802 35.8807 25.5024 35.6039L24.5 37.3346ZM20.4002 39.2344C19.5739 40.6703 20.0681 42.5057 21.5001 43.3351L22.5025 41.6044C22.0228 41.3266 21.8581 40.7108 22.1337 40.232L20.4002 39.2344ZM24.4977 38.1376C23.0639 37.3071 21.2277 37.7966 20.4002 39.2344L22.1337 40.232C22.4081 39.7551 23.0175 39.5915 23.4953 39.8682L24.4977 38.1376ZM25.5975 42.2383C26.4239 40.8024 25.9296 38.967 24.4977 38.1376L23.4953 39.8682C23.975 40.146 24.1396 40.7619 23.8641 41.2407L25.5975 42.2383ZM21.5001 43.3351C22.9339 44.1656 24.7701 43.6761 25.5975 42.2383L23.8641 41.2407C23.5896 41.7176 22.9803 41.8812 22.5025 41.6044L21.5001 43.3351Z" fill="black" mask="url(#path-5-inside-3_111_1109)"/>
<mask id="path-7-inside-4_111_1109" fill="white">
<path fill-rule="evenodd" clip-rule="evenodd" d="M33.0012 36.4693C32.0454 35.9157 31.7159 34.69 32.2669 33.7327C32.8178 32.7753 34.0406 32.4488 34.9964 33.0024C35.9522 33.556 36.2817 34.7816 35.7308 35.739C35.1798 36.6963 33.957 37.0229 33.0012 36.4693ZM30.0013 42.4698C29.0455 41.9161 28.716 40.6905 29.2669 39.7332C29.8179 38.7758 31.0407 38.4493 31.9965 39.0029C32.9523 39.5565 33.2818 40.7821 32.7308 41.7395C32.1799 42.6968 30.9571 43.0234 30.0013 42.4698Z"/>
</mask>
<path fill-rule="evenodd" clip-rule="evenodd" d="M33.0012 36.4693C32.0454 35.9157 31.7159 34.69 32.2669 33.7327C32.8178 32.7753 34.0406 32.4488 34.9964 33.0024C35.9522 33.556 36.2817 34.7816 35.7308 35.739C35.1798 36.6963 33.957 37.0229 33.0012 36.4693ZM30.0013 42.4698C29.0455 41.9161 28.716 40.6905 29.2669 39.7332C29.8179 38.7758 31.0407 38.4493 31.9965 39.0029C32.9523 39.5565 33.2818 40.7821 32.7308 41.7395C32.1799 42.6968 30.9571 43.0234 30.0013 42.4698Z" fill="white"/>
<path d="M32.2669 33.7327L31.4002 33.2339L31.4002 33.2339L32.2669 33.7327ZM33.0012 36.4693L32.5 37.3346L32.5 37.3346L33.0012 36.4693ZM34.9964 33.0024L35.4976 32.1371L35.4976 32.1371L34.9964 33.0024ZM35.7308 35.739L36.5975 36.2378L36.5975 36.2378L35.7308 35.739ZM29.2669 39.7332L28.4002 39.2344L28.4002 39.2344L29.2669 39.7332ZM30.0013 42.4698L29.5001 43.3351L29.5001 43.3351L30.0013 42.4698ZM31.9965 39.0029L32.4977 38.1376L32.4977 38.1376L31.9965 39.0029ZM31.4002 33.2339C30.5738 34.6698 31.0681 36.5052 32.5 37.3346L33.5024 35.6039C33.0228 35.3261 32.8581 34.7103 33.1336 34.2315L31.4002 33.2339ZM35.4976 32.1371C34.0638 31.3066 32.2276 31.7961 31.4002 33.2339L33.1336 34.2315C33.4081 33.7546 34.0174 33.591 34.4952 33.8677L35.4976 32.1371ZM36.5975 36.2378C37.4239 34.8019 36.9296 32.9665 35.4976 32.1371L34.4952 33.8677C34.9749 34.1456 35.1396 34.7614 34.864 35.2402L36.5975 36.2378ZM32.5 37.3346C33.9339 38.1651 35.77 37.6756 36.5975 36.2378L34.864 35.2402C34.5896 35.7171 33.9802 35.8807 33.5024 35.6039L32.5 37.3346ZM28.4002 39.2344C27.5739 40.6703 28.0681 42.5057 29.5001 43.3351L30.5025 41.6044C30.0228 41.3266 29.8581 40.7108 30.1337 40.232L28.4002 39.2344ZM32.4977 38.1376C31.0639 37.3071 29.2277 37.7966 28.4002 39.2344L30.1337 40.232C30.4081 39.7551 31.0175 39.5915 31.4953 39.8682L32.4977 38.1376ZM33.5975 42.2383C34.4239 40.8024 33.9296 38.967 32.4977 38.1376L31.4953 39.8682C31.975 40.146 32.1396 40.7619 31.8641 41.2407L33.5975 42.2383ZM29.5001 43.3351C30.9339 44.1656 32.7701 43.6761 33.5975 42.2383L31.8641 41.2407C31.5896 41.7176 30.9803 41.8812 30.5025 41.6044L29.5001 43.3351Z" fill="black" mask="url(#path-7-inside-4_111_1109)"/>
<mask id="path-9-inside-5_111_1109" fill="white">
<path fill-rule="evenodd" clip-rule="evenodd" d="M37.1642 32H16.1194C7.2169 32 0 24.8366 0 16C0 7.16345 7.2169 0 16.1194 0C23.5583 0 29.8202 5.00162 31.6782 11.8017C33.2873 10.8544 35.1623 10.3111 37.1642 10.3111C43.1487 10.3111 48 15.1663 48 21.1556C48 27.1149 43.197 31.9515 37.2537 31.9996V32H37.1642Z"/>
</mask>
<path fill-rule="evenodd" clip-rule="evenodd" d="M37.1642 32H16.1194C7.2169 32 0 24.8366 0 16C0 7.16345 7.2169 0 16.1194 0C23.5583 0 29.8202 5.00162 31.6782 11.8017C33.2873 10.8544 35.1623 10.3111 37.1642 10.3111C43.1487 10.3111 48 15.1663 48 21.1556C48 27.1149 43.197 31.9515 37.2537 31.9996V32H37.1642Z" fill="white"/>
<path d="M31.6782 11.8017L28.7843 12.5924L29.8185 16.3777L33.2001 14.387L31.6782 11.8017ZM37.2537 31.9996L37.2294 28.9997L34.2537 29.0238V31.9996H37.2537ZM37.2537 32V35H40.2537V32H37.2537ZM16.1194 35H37.1642V29H16.1194V35ZM16.1194 29C8.85269 29 3 23.1587 3 16H-3C-3 26.5144 5.58112 35 16.1194 35V29ZM3 16C3 8.84129 8.85269 3 16.1194 3V-3C5.58112 -3 -3 5.4856 -3 16H3ZM16.1194 3C22.185 3 27.2772 7.0765 28.7843 12.5924L34.5721 11.011C32.3633 2.92674 24.9316 -3 16.1194 -3V3ZM33.2001 14.387C34.3607 13.7037 35.7122 13.3111 37.1642 13.3111V7.31111C34.6125 7.31111 32.2138 8.00508 30.1562 9.21641L33.2001 14.387ZM37.1642 13.3111C41.4895 13.3111 45 16.8209 45 21.1556H51C51 13.5117 44.8078 7.31111 37.1642 7.31111V13.3111ZM45 21.1556C45 25.4684 41.5245 28.965 37.2294 28.9997L37.278 34.9995C44.8695 34.9381 51 28.7614 51 21.1556H45ZM40.2537 32V31.9996H34.2537V32H40.2537ZM37.1642 35H37.2537V29H37.1642V35Z" fill="black" mask="url(#path-9-inside-5_111_1109)"/>
<mask id="path-11-inside-6_111_1109" fill="white">
<path fill-rule="evenodd" clip-rule="evenodd" d="M35.0942 37C35.0973 38.1046 35.9952 39.0001 37.0998 39.0001C38.2043 39.0001 39.0973 38.1046 39.0942 37L39.0844 33.4586L42.1466 35.2153C43.1047 35.7649 44.3291 35.435 44.8814 34.4784C45.4337 33.5218 45.1047 32.3008 44.1466 31.7512L41.0748 29.989L44.1273 28.2153C45.0823 27.6603 45.4088 26.435 44.8566 25.4784C44.3043 24.5218 43.0823 24.1962 42.1273 24.7512L39.0651 26.5305L39.0553 23C39.0522 21.8954 38.1543 21 37.0497 21C35.9452 21 35.0522 21.8954 35.0553 23L35.0651 26.5416L32.0028 24.7848C31.0446 24.2352 29.8202 24.5651 29.2679 25.5217C28.7156 26.4783 29.0446 27.6993 30.0027 28.249L33.0748 30.0112L30.0223 31.7849C29.0673 32.3398 28.7408 33.5652 29.2931 34.5217C29.8453 35.4783 31.0673 35.8039 32.0223 35.249L35.0844 33.4698L35.0942 37Z"/>
</mask>
<path fill-rule="evenodd" clip-rule="evenodd" d="M35.0942 37C35.0973 38.1046 35.9952 39.0001 37.0998 39.0001C38.2043 39.0001 39.0973 38.1046 39.0942 37L39.0844 33.4586L42.1466 35.2153C43.1047 35.7649 44.3291 35.435 44.8814 34.4784C45.4337 33.5218 45.1047 32.3008 44.1466 31.7512L41.0748 29.989L44.1273 28.2153C45.0823 27.6603 45.4088 26.435 44.8566 25.4784C44.3043 24.5218 43.0823 24.1962 42.1273 24.7512L39.0651 26.5305L39.0553 23C39.0522 21.8954 38.1543 21 37.0497 21C35.9452 21 35.0522 21.8954 35.0553 23L35.0651 26.5416L32.0028 24.7848C31.0446 24.2352 29.8202 24.5651 29.2679 25.5217C28.7156 26.4783 29.0446 27.6993 30.0027 28.249L33.0748 30.0112L30.0223 31.7849C29.0673 32.3398 28.7408 33.5652 29.2931 34.5217C29.8453 35.4783 31.0673 35.8039 32.0223 35.249L35.0844 33.4698L35.0942 37Z" fill="#148FCC"/>
<path fill-rule="evenodd" clip-rule="evenodd" d="M35.0942 37C35.0973 38.1046 35.9952 39.0001 37.0998 39.0001C38.2043 39.0001 39.0973 38.1046 39.0942 37L39.0844 33.4586L42.1466 35.2153C43.1047 35.7649 44.3291 35.435 44.8814 34.4784C45.4337 33.5218 45.1047 32.3008 44.1466 31.7512L41.0748 29.989L44.1273 28.2153C45.0823 27.6603 45.4088 26.435 44.8566 25.4784C44.3043 24.5218 43.0823 24.1962 42.1273 24.7512L39.0651 26.5305L39.0553 23C39.0522 21.8954 38.1543 21 37.0497 21C35.9452 21 35.0522 21.8954 35.0553 23L35.0651 26.5416L32.0028 24.7848C31.0446 24.2352 29.8202 24.5651 29.2679 25.5217C28.7156 26.4783 29.0446 27.6993 30.0027 28.249L33.0748 30.0112L30.0223 31.7849C29.0673 32.3398 28.7408 33.5652 29.2931 34.5217C29.8453 35.4783 31.0673 35.8039 32.0223 35.249L35.0844 33.4698L35.0942 37Z" fill="white" fill-opacity="0.5"/>
<path d="M35.0942 37L33.5942 37.0042L33.5942 37.0042L35.0942 37ZM39.0942 37L40.5942 36.9959L40.5942 36.9959L39.0942 37ZM39.0844 33.4586L39.8308 32.1575L37.5772 30.8647L37.5844 33.4628L39.0844 33.4586ZM42.1466 35.2153L41.4002 36.5164L41.4002 36.5164L42.1466 35.2153ZM44.8814 34.4784L46.1805 35.2284L46.1805 35.2284L44.8814 34.4784ZM44.1466 31.7512L44.893 30.45L44.893 30.45L44.1466 31.7512ZM41.0748 29.989L40.3211 28.692L38.0748 29.9973L40.3284 31.2901L41.0748 29.989ZM44.1273 28.2153L44.8809 29.5122L44.8809 29.5122L44.1273 28.2153ZM44.8566 25.4784L46.1556 24.7284L46.1556 24.7284L44.8566 25.4784ZM42.1273 24.7512L42.8809 26.0481L42.8809 26.0481L42.1273 24.7512ZM39.0651 26.5305L37.5651 26.5346L37.5723 29.1327L39.8187 27.8274L39.0651 26.5305ZM39.0553 23L40.5553 22.9958L40.5553 22.9958L39.0553 23ZM35.0553 23L33.5553 23.0042L33.5553 23.0042L35.0553 23ZM35.0651 26.5416L34.3187 27.8427L36.5723 29.1355L36.5651 26.5374L35.0651 26.5416ZM32.0028 24.7848L32.7491 23.4837L32.7491 23.4837L32.0028 24.7848ZM29.2679 25.5217L30.567 26.2717L30.567 26.2717L29.2679 25.5217ZM30.0027 28.249L30.7491 26.9478L30.7491 26.9478L30.0027 28.249ZM33.0748 30.0112L33.8284 31.3082L36.0747 30.0029L33.8211 28.7101L33.0748 30.0112ZM30.0223 31.7849L29.2687 30.4879L29.2687 30.4879L30.0223 31.7849ZM29.2931 34.5217L30.5921 33.7717L30.5921 33.7717L29.2931 34.5217ZM32.0223 35.249L31.2687 33.952L32.0223 35.249ZM35.0844 33.4698L36.5844 33.4656L36.5772 30.8675L34.3308 32.1728L35.0844 33.4698ZM37.0998 37.5001C36.822 37.5001 36.5949 37.2737 36.5942 36.9959L33.5942 37.0042C33.5996 38.9356 35.1684 40.5001 37.0998 40.5001V37.5001ZM37.5942 37.0042C37.595 37.2787 37.3743 37.5001 37.0998 37.5001V40.5001C39.0344 40.5001 40.5996 38.9305 40.5942 36.9959L37.5942 37.0042ZM37.5844 33.4628L37.5942 37.0042L40.5942 36.9959L40.5844 33.4545L37.5844 33.4628ZM38.338 34.7598L41.4002 36.5164L42.893 33.9142L39.8308 32.1575L38.338 34.7598ZM41.4002 36.5164C43.0755 37.4774 45.2148 36.901 46.1805 35.2284L43.5824 33.7284C43.4435 33.969 43.1339 34.0524 42.893 33.9142L41.4002 36.5164ZM46.1805 35.2284C47.1478 33.553 46.5711 31.4127 44.893 30.45L43.4002 33.0523C43.6383 33.1889 43.7196 33.4907 43.5824 33.7284L46.1805 35.2284ZM44.893 30.45L41.8211 28.6879L40.3284 31.2901L43.4002 33.0523L44.893 30.45ZM43.3737 26.9183L40.3211 28.692L41.8284 31.2859L44.8809 29.5122L43.3737 26.9183ZM43.5575 26.2284C43.6964 26.469 43.6139 26.7788 43.3737 26.9183L44.8809 29.5122C46.5508 28.5419 47.1213 26.401 46.1556 24.7284L43.5575 26.2284ZM42.8809 26.0481C43.1182 25.9102 43.4203 25.9907 43.5575 26.2284L46.1556 24.7284C45.1883 23.053 43.0464 22.4822 41.3737 23.4542L42.8809 26.0481ZM39.8187 27.8274L42.8809 26.0481L41.3737 23.4542L38.3115 25.2335L39.8187 27.8274ZM37.5553 23.0042L37.5651 26.5346L40.5651 26.5263L40.5553 22.9958L37.5553 23.0042ZM37.0497 22.5C37.3275 22.5 37.5545 22.7264 37.5553 23.0042L40.5553 22.9958C40.5499 21.0645 38.9811 19.5 37.0497 19.5V22.5ZM36.5553 22.9958C36.5545 22.7213 36.7752 22.5 37.0497 22.5V19.5C35.1151 19.5 33.5499 21.0695 33.5553 23.0042L36.5553 22.9958ZM36.5651 26.5374L36.5553 22.9958L33.5553 23.0042L33.5651 26.5457L36.5651 26.5374ZM35.8115 25.2404L32.7491 23.4837L31.2564 26.0859L34.3187 27.8427L35.8115 25.2404ZM32.7491 23.4837C31.0739 22.5227 28.9346 23.0991 27.9689 24.7717L30.567 26.2717C30.7058 26.0311 31.0154 25.9477 31.2564 26.0859L32.7491 23.4837ZM27.9689 24.7717C27.0016 26.4471 27.5782 28.5874 29.2564 29.5501L30.7491 26.9478C30.511 26.8112 30.4297 26.5094 30.567 26.2717L27.9689 24.7717ZM29.2564 29.5501L32.3284 31.3123L33.8211 28.7101L30.7491 26.9478L29.2564 29.5501ZM30.7759 33.0818L33.8284 31.3082L32.3212 28.7143L29.2687 30.4879L30.7759 33.0818ZM30.5921 33.7717C30.4532 33.5312 30.5358 33.2214 30.7759 33.0818L29.2687 30.4879C27.5988 31.4582 27.0283 33.5991 27.994 35.2717L30.5921 33.7717ZM31.2687 33.952C31.0314 34.09 30.7294 34.0095 30.5921 33.7717L27.994 35.2717C28.9613 36.9472 31.1032 37.5179 32.776 36.5459L31.2687 33.952ZM34.3308 32.1728L31.2687 33.952L32.776 36.5459L35.838 34.7667L34.3308 32.1728ZM36.5942 36.9959L36.5844 33.4656L33.5844 33.4739L33.5942 37.0042L36.5942 36.9959Z" fill="black" mask="url(#path-11-inside-6_111_1109)"/>
</svg>
