<svg width="48" height="48" viewBox="0 0 48 48" fill="none" xmlns="http://www.w3.org/2000/svg">
<g clip-path="url(#clip0_97_651)">
<mask id="path-1-inside-1_97_651" fill="white">
<path fill-rule="evenodd" clip-rule="evenodd" d="M16.6961 35.7077C17.2476 34.7495 16.9191 33.5236 15.9624 32.9695C15.0058 32.4154 13.7833 32.743 13.2319 33.7012L6.73381 44.9923C6.18238 45.9505 6.51087 47.1764 7.4675 47.7305C8.42413 48.2846 9.64665 47.957 10.1981 46.9988L16.6961 35.7077ZM36.7325 35.7077C37.2839 34.7495 36.9554 33.5236 35.9988 32.9695C35.0422 32.4154 33.8197 32.743 33.2682 33.7012L26.7702 44.9923C26.2188 45.9505 26.5472 47.1764 27.5039 47.7305C28.4605 48.2846 29.683 47.957 30.2345 46.9988L36.7325 35.7077ZM24.9983 32.9695C25.9549 33.5236 26.2834 34.7495 25.732 35.7077L19.2339 46.9988C18.6825 47.957 17.46 48.2846 16.5033 47.7305C15.5467 47.1764 15.2182 45.9505 15.7696 44.9923L22.2677 33.7012C22.8191 32.743 24.0416 32.4154 24.9983 32.9695Z"/>
</mask>
<path fill-rule="evenodd" clip-rule="evenodd" d="M16.6961 35.7077C17.2476 34.7495 16.9191 33.5236 15.9624 32.9695C15.0058 32.4154 13.7833 32.743 13.2319 33.7012L6.73381 44.9923C6.18238 45.9505 6.51087 47.1764 7.4675 47.7305C8.42413 48.2846 9.64665 47.957 10.1981 46.9988L16.6961 35.7077ZM36.7325 35.7077C37.2839 34.7495 36.9554 33.5236 35.9988 32.9695C35.0422 32.4154 33.8197 32.743 33.2682 33.7012L26.7702 44.9923C26.2188 45.9505 26.5472 47.1764 27.5039 47.7305C28.4605 48.2846 29.683 47.957 30.2345 46.9988L36.7325 35.7077ZM24.9983 32.9695C25.9549 33.5236 26.2834 34.7495 25.732 35.7077L19.2339 46.9988C18.6825 47.957 17.46 48.2846 16.5033 47.7305C15.5467 47.1764 15.2182 45.9505 15.7696 44.9923L22.2677 33.7012C22.8191 32.743 24.0416 32.4154 24.9983 32.9695Z" fill="#148FCC"/>
<path fill-rule="evenodd" clip-rule="evenodd" d="M16.6961 35.7077C17.2476 34.7495 16.9191 33.5236 15.9624 32.9695C15.0058 32.4154 13.7833 32.743 13.2319 33.7012L6.73381 44.9923C6.18238 45.9505 6.51087 47.1764 7.4675 47.7305C8.42413 48.2846 9.64665 47.957 10.1981 46.9988L16.6961 35.7077ZM36.7325 35.7077C37.2839 34.7495 36.9554 33.5236 35.9988 32.9695C35.0422 32.4154 33.8197 32.743 33.2682 33.7012L26.7702 44.9923C26.2188 45.9505 26.5472 47.1764 27.5039 47.7305C28.4605 48.2846 29.683 47.957 30.2345 46.9988L36.7325 35.7077ZM24.9983 32.9695C25.9549 33.5236 26.2834 34.7495 25.732 35.7077L19.2339 46.9988C18.6825 47.957 17.46 48.2846 16.5033 47.7305C15.5467 47.1764 15.2182 45.9505 15.7696 44.9923L22.2677 33.7012C22.8191 32.743 24.0416 32.4154 24.9983 32.9695Z" fill="black" fill-opacity="0.1"/>
<path d="M15.9624 32.9695L16.7142 31.6715L16.7142 31.6715L15.9624 32.9695ZM16.6961 35.7077L17.9962 36.4559L17.9962 36.4559L16.6961 35.7077ZM13.2319 33.7012L14.5319 34.4494L14.5319 34.4494L13.2319 33.7012ZM6.73381 44.9923L5.43373 44.2441L5.43373 44.2441L6.73381 44.9923ZM7.4675 47.7305L6.71569 49.0285L6.71569 49.0285L7.4675 47.7305ZM10.1981 46.9988L11.4982 47.747L11.4982 47.747L10.1981 46.9988ZM35.9988 32.9695L36.7506 31.6715L36.7506 31.6715L35.9988 32.9695ZM36.7325 35.7077L38.0326 36.4559L38.0326 36.4559L36.7325 35.7077ZM33.2682 33.7012L31.9682 32.953L31.9682 32.953L33.2682 33.7012ZM26.7702 44.9923L28.0703 45.7405L28.0703 45.7405L26.7702 44.9923ZM27.5039 47.7305L26.7521 49.0285L26.7521 49.0285L27.5039 47.7305ZM30.2345 46.9988L31.5345 47.747L31.5345 47.747L30.2345 46.9988ZM25.732 35.7077L24.4319 34.9595L24.4319 34.9595L25.732 35.7077ZM24.9983 32.9695L25.7501 31.6715L25.7501 31.6715L24.9983 32.9695ZM19.2339 46.9988L17.9338 46.2506L17.9338 46.2506L19.2339 46.9988ZM16.5033 47.7305L15.7515 49.0285L15.7515 49.0285L16.5033 47.7305ZM15.7696 44.9923L14.4696 44.2441L14.4696 44.2441L15.7696 44.9923ZM22.2677 33.7012L23.5678 34.4494L23.5678 34.4494L22.2677 33.7012ZM15.2106 34.2675C15.4518 34.4072 15.5351 34.7179 15.396 34.9595L17.9962 36.4559C18.96 34.7811 18.3863 32.64 16.7142 31.6715L15.2106 34.2675ZM14.5319 34.4494C14.6693 34.2106 14.9723 34.1295 15.2106 34.2675L16.7142 31.6715C15.0393 30.7014 12.8972 31.2754 11.9318 32.953L14.5319 34.4494ZM8.03389 45.7405L14.5319 34.4494L11.9318 32.953L5.43373 44.2441L8.03389 45.7405ZM8.2193 46.4325C7.97813 46.2928 7.89486 45.9821 8.03389 45.7405L5.43373 44.2441C4.4699 45.9189 5.04361 48.06 6.71569 49.0285L8.2193 46.4325ZM8.898 46.2506C8.7606 46.4894 8.45766 46.5705 8.2193 46.4325L6.71569 49.0285C8.39059 49.9986 10.5327 49.4246 11.4982 47.747L8.898 46.2506ZM15.396 34.9595L8.898 46.2506L11.4982 47.747L17.9962 36.4559L15.396 34.9595ZM35.247 34.2675C35.4882 34.4072 35.5714 34.7179 35.4324 34.9595L38.0326 36.4559C38.9964 34.7811 38.4227 32.64 36.7506 31.6715L35.247 34.2675ZM34.5683 34.4494C34.7057 34.2106 35.0086 34.1295 35.247 34.2675L36.7506 31.6715C35.0757 30.7014 32.9336 31.2754 31.9682 32.953L34.5683 34.4494ZM28.0703 45.7405L34.5683 34.4494L31.9682 32.953L25.4701 44.2441L28.0703 45.7405ZM28.2557 46.4325C28.0145 46.2928 27.9312 45.9821 28.0703 45.7405L25.4701 44.2441C24.5063 45.9189 25.08 48.06 26.7521 49.0285L28.2557 46.4325ZM28.9344 46.2506C28.797 46.4894 28.494 46.5705 28.2557 46.4325L26.7521 49.0285C28.427 49.9986 30.5691 49.4246 31.5345 47.747L28.9344 46.2506ZM35.4324 34.9595L28.9344 46.2506L31.5345 47.747L38.0326 36.4559L35.4324 34.9595ZM27.032 36.4559C27.9959 34.7811 27.4222 32.64 25.7501 31.6715L24.2465 34.2675C24.4876 34.4072 24.5709 34.7179 24.4319 34.9595L27.032 36.4559ZM20.534 47.747L27.032 36.4559L24.4319 34.9595L17.9338 46.2506L20.534 47.747ZM15.7515 49.0285C17.4264 49.9986 19.5685 49.4246 20.534 47.747L17.9338 46.2506C17.7964 46.4894 17.4935 46.5705 17.2551 46.4325L15.7515 49.0285ZM14.4696 44.2441C13.5057 45.9189 14.0794 48.06 15.7515 49.0285L17.2551 46.4325C17.014 46.2928 16.9307 45.9821 17.0697 45.7405L14.4696 44.2441ZM20.9676 32.953L14.4696 44.2441L17.0697 45.7405L23.5678 34.4494L20.9676 32.953ZM25.7501 31.6715C24.0752 30.7014 21.9331 31.2754 20.9676 32.953L23.5678 34.4494C23.7052 34.2106 24.0081 34.1295 24.2465 34.2675L25.7501 31.6715Z" fill="black" mask="url(#path-1-inside-1_97_651)"/>
<mask id="path-3-inside-2_97_651" fill="white">
<path fill-rule="evenodd" clip-rule="evenodd" d="M37.1642 32H16.1194C7.2169 32 0 24.8366 0 16C0 7.16345 7.2169 0 16.1194 0C23.5583 0 29.8202 5.00162 31.6782 11.8017C33.2873 10.8544 35.1623 10.3111 37.1642 10.3111C43.1487 10.3111 48 15.1663 48 21.1556C48 27.1149 43.197 31.9515 37.2537 31.9996V32H37.1642Z"/>
</mask>
<path fill-rule="evenodd" clip-rule="evenodd" d="M37.1642 32H16.1194C7.2169 32 0 24.8366 0 16C0 7.16345 7.2169 0 16.1194 0C23.5583 0 29.8202 5.00162 31.6782 11.8017C33.2873 10.8544 35.1623 10.3111 37.1642 10.3111C43.1487 10.3111 48 15.1663 48 21.1556C48 27.1149 43.197 31.9515 37.2537 31.9996V32H37.1642Z" fill="white"/>
<path d="M31.6782 11.8017L28.7843 12.5924L29.8185 16.3777L33.2001 14.387L31.6782 11.8017ZM37.2537 31.9996L37.2294 28.9997L34.2537 29.0238V31.9996H37.2537ZM37.2537 32V35H40.2537V32H37.2537ZM16.1194 35H37.1642V29H16.1194V35ZM16.1194 29C8.85269 29 3 23.1587 3 16H-3C-3 26.5144 5.58112 35 16.1194 35V29ZM3 16C3 8.84129 8.85269 3 16.1194 3V-3C5.58112 -3 -3 5.4856 -3 16H3ZM16.1194 3C22.185 3 27.2772 7.0765 28.7843 12.5924L34.5721 11.011C32.3633 2.92674 24.9316 -3 16.1194 -3V3ZM33.2001 14.387C34.3607 13.7037 35.7122 13.3111 37.1642 13.3111V7.31111C34.6125 7.31111 32.2138 8.00508 30.1562 9.21641L33.2001 14.387ZM37.1642 13.3111C41.4895 13.3111 45 16.8209 45 21.1556H51C51 13.5117 44.8078 7.31111 37.1642 7.31111V13.3111ZM45 21.1556C45 25.4684 41.5245 28.965 37.2294 28.9997L37.278 34.9995C44.8695 34.9381 51 28.7614 51 21.1556H45ZM40.2537 32V31.9996H34.2537V32H40.2537ZM37.1642 35H37.2537V29H37.1642V35Z" fill="black" mask="url(#path-3-inside-2_97_651)"/>
</g>
<defs>
<clipPath id="clip0_97_651">
<rect width="48" height="48" fill="white"/>
</clipPath>
</defs>
</svg>
