<svg width="96" height="96" viewBox="0 0 96 96" fill="none" xmlns="http://www.w3.org/2000/svg">
<g clip-path="url(#clip0_97_641)">
<mask id="path-1-inside-1_97_641" fill="white">
<path fill-rule="evenodd" clip-rule="evenodd" d="M53.992 90.052C52.8918 91.9697 53.5522 94.4205 55.4669 95.526C57.3816 96.6315 59.8256 95.9729 60.9258 94.0552L73.8898 71.456C74.9899 69.5382 74.3296 67.0874 72.4149 65.982C70.5002 64.8765 68.0562 65.535 66.956 67.4528L53.992 90.052ZM14.0217 90.0518C12.9216 91.9695 13.5819 94.4203 15.4966 95.5258C17.4114 96.6313 19.8554 95.9727 20.9555 94.055L33.9195 71.4558C35.0197 69.538 34.3593 67.0872 32.4446 65.9818C30.5299 64.8763 28.0859 65.5348 26.9858 67.4526L14.0217 90.0518ZM35.4669 95.5259C33.5522 94.4205 32.8918 91.9697 33.992 90.0519L46.956 67.4527C48.0562 65.535 50.5002 64.8765 52.4149 65.9819C54.3296 67.0874 54.9899 69.5382 53.8898 71.456L40.9258 94.0551C39.8256 95.9729 37.3816 96.6314 35.4669 95.5259Z"/>
</mask>
<path fill-rule="evenodd" clip-rule="evenodd" d="M53.992 90.052C52.8918 91.9697 53.5522 94.4205 55.4669 95.526C57.3816 96.6315 59.8256 95.9729 60.9258 94.0552L73.8898 71.456C74.9899 69.5382 74.3296 67.0874 72.4149 65.982C70.5002 64.8765 68.0562 65.535 66.956 67.4528L53.992 90.052ZM14.0217 90.0518C12.9216 91.9695 13.5819 94.4203 15.4966 95.5258C17.4114 96.6313 19.8554 95.9727 20.9555 94.055L33.9195 71.4558C35.0197 69.538 34.3593 67.0872 32.4446 65.9818C30.5299 64.8763 28.0859 65.5348 26.9858 67.4526L14.0217 90.0518ZM35.4669 95.5259C33.5522 94.4205 32.8918 91.9697 33.992 90.0519L46.956 67.4527C48.0562 65.535 50.5002 64.8765 52.4149 65.9819C54.3296 67.0874 54.9899 69.5382 53.8898 71.456L40.9258 94.0551C39.8256 95.9729 37.3816 96.6314 35.4669 95.5259Z" fill="#148FCC"/>
<path fill-rule="evenodd" clip-rule="evenodd" d="M53.992 90.052C52.8918 91.9697 53.5522 94.4205 55.4669 95.526C57.3816 96.6315 59.8256 95.9729 60.9258 94.0552L73.8898 71.456C74.9899 69.5382 74.3296 67.0874 72.4149 65.982C70.5002 64.8765 68.0562 65.535 66.956 67.4528L53.992 90.052ZM14.0217 90.0518C12.9216 91.9695 13.5819 94.4203 15.4966 95.5258C17.4114 96.6313 19.8554 95.9727 20.9555 94.055L33.9195 71.4558C35.0197 69.538 34.3593 67.0872 32.4446 65.9818C30.5299 64.8763 28.0859 65.5348 26.9858 67.4526L14.0217 90.0518ZM35.4669 95.5259C33.5522 94.4205 32.8918 91.9697 33.992 90.0519L46.956 67.4527C48.0562 65.535 50.5002 64.8765 52.4149 65.9819C54.3296 67.0874 54.9899 69.5382 53.8898 71.456L40.9258 94.0551C39.8256 95.9729 37.3816 96.6314 35.4669 95.5259Z" fill="black" fill-opacity="0.1"/>
<path d="M55.4669 95.526L56.4669 93.7939L56.4669 93.7939L55.4669 95.526ZM53.992 90.052L52.2572 89.0568L52.2572 89.0568L53.992 90.052ZM60.9258 94.0552L59.1909 93.06L59.1909 93.06L60.9258 94.0552ZM73.8898 71.456L75.6246 72.4512L75.6246 72.4512L73.8898 71.456ZM72.4149 65.982L73.4149 64.2499L73.4149 64.2499L72.4149 65.982ZM66.956 67.4528L65.2212 66.4576L65.2212 66.4576L66.956 67.4528ZM15.4966 95.5258L16.4966 93.7938L16.4966 93.7938L15.4966 95.5258ZM14.0217 90.0518L15.7565 91.0469L15.7565 91.0469L14.0217 90.0518ZM20.9555 94.055L22.6903 95.0502L22.6903 95.0502L20.9555 94.055ZM33.9195 71.4558L32.1847 70.4606L32.1847 70.4606L33.9195 71.4558ZM32.4446 65.9818L33.4446 64.2497L33.4446 64.2497L32.4446 65.9818ZM26.9858 67.4526L25.2509 66.4574L25.2509 66.4574L26.9858 67.4526ZM33.992 90.0519L35.7268 91.0471L35.7268 91.0471L33.992 90.0519ZM35.4669 95.5259L36.4669 93.7939L36.4669 93.7939L35.4669 95.5259ZM46.956 67.4527L45.2212 66.4576L45.2212 66.4576L46.956 67.4527ZM52.4149 65.9819L51.4149 67.714L51.4149 67.714L52.4149 65.9819ZM53.8898 71.456L55.6246 72.4511L55.6246 72.4511L53.8898 71.456ZM40.9258 94.0551L42.6606 95.0503L42.6606 95.0503L40.9258 94.0551ZM56.4669 93.7939C55.5069 93.2397 55.1752 92.0087 55.7268 91.0471L52.2572 89.0568C50.6085 91.9308 51.5975 95.6014 54.4669 97.258L56.4669 93.7939ZM59.1909 93.06C58.6415 94.0178 57.4231 94.346 56.4669 93.7939L54.4669 97.258C57.3401 98.9169 61.0097 97.9281 62.6606 95.0504L59.1909 93.06ZM72.155 70.4608L59.1909 93.06L62.6606 95.0504L75.6246 72.4512L72.155 70.4608ZM71.4149 67.714C72.3749 68.2683 72.7066 69.4993 72.155 70.4608L75.6246 72.4512C77.2733 69.5772 76.2843 65.9066 73.4149 64.2499L71.4149 67.714ZM68.6908 68.448C69.2403 67.4902 70.4586 67.1619 71.4149 67.714L73.4149 64.2499C70.5417 62.5911 66.872 63.5798 65.2212 66.4576L68.6908 68.448ZM55.7268 91.0471L68.6908 68.448L65.2212 66.4576L52.2572 89.0568L55.7268 91.0471ZM16.4966 93.7938C15.5366 93.2395 15.205 92.0085 15.7565 91.0469L12.2869 89.0566C10.6382 91.9306 11.6272 95.6012 14.4966 97.2579L16.4966 93.7938ZM19.2207 93.0598C18.6712 94.0176 17.4529 94.3458 16.4966 93.7938L14.4966 97.2579C17.3698 98.9167 21.0395 97.9279 22.6903 95.0502L19.2207 93.0598ZM32.1847 70.4606L19.2207 93.0598L22.6903 95.0502L35.6544 72.451L32.1847 70.4606ZM31.4446 67.7138C32.4046 68.2681 32.7363 69.4991 32.1847 70.4606L35.6544 72.451C37.3031 69.577 36.314 65.9064 33.4446 64.2497L31.4446 67.7138ZM28.7206 68.4478C29.27 67.49 30.4884 67.1617 31.4446 67.7138L33.4446 64.2497C30.5715 62.5909 26.9018 63.5797 25.2509 66.4574L28.7206 68.4478ZM15.7565 91.0469L28.7206 68.4478L25.2509 66.4574L12.2869 89.0566L15.7565 91.0469ZM32.2572 89.0567C30.6085 91.9307 31.5975 95.6013 34.4669 97.258L36.4669 93.7939C35.5069 93.2396 35.1752 92.0086 35.7268 91.0471L32.2572 89.0567ZM45.2212 66.4576L32.2572 89.0567L35.7268 91.0471L48.6908 68.4479L45.2212 66.4576ZM53.4149 64.2499C50.5417 62.591 46.872 63.5798 45.2212 66.4576L48.6908 68.4479C49.2403 67.4902 50.4586 67.1619 51.4149 67.714L53.4149 64.2499ZM55.6246 72.4511C57.2733 69.5771 56.2843 65.9065 53.4149 64.2499L51.4149 67.714C52.3749 68.2682 52.7066 69.4992 52.155 70.4608L55.6246 72.4511ZM42.6606 95.0503L55.6246 72.4511L52.155 70.4608L39.1909 93.0599L42.6606 95.0503ZM34.4669 97.258C37.3401 98.9168 41.0097 97.9281 42.6606 95.0503L39.1909 93.0599C38.6415 94.0177 37.4231 94.346 36.4669 93.7939L34.4669 97.258Z" fill="black" mask="url(#path-1-inside-1_97_641)"/>
<mask id="path-3-inside-2_97_641" fill="white">
<path fill-rule="evenodd" clip-rule="evenodd" d="M74.3284 64H32.2388C14.4338 64 0 49.6731 0 32C0 14.3269 14.4338 0 32.2388 0C47.1165 0 59.6405 10.0032 63.3564 23.6034C66.5746 21.7088 70.3247 20.6222 74.3284 20.6222C86.2973 20.6222 96 30.3327 96 42.3111C96 54.2298 86.3939 63.903 74.5075 63.9993V64L74.3284 64Z"/>
</mask>
<path fill-rule="evenodd" clip-rule="evenodd" d="M74.3284 64H32.2388C14.4338 64 0 49.6731 0 32C0 14.3269 14.4338 0 32.2388 0C47.1165 0 59.6405 10.0032 63.3564 23.6034C66.5746 21.7088 70.3247 20.6222 74.3284 20.6222C86.2973 20.6222 96 30.3327 96 42.3111C96 54.2298 86.3939 63.903 74.5075 63.9993V64L74.3284 64Z" fill="white"/>
<path d="M74.3284 64L74.3286 60H74.3284V64ZM63.3564 23.6034L59.4978 24.6576L60.8768 29.7048L65.3856 27.0504L63.3564 23.6034ZM74.5075 63.9993L74.4751 59.9994L70.5075 60.0316V63.9993H74.5075ZM74.5075 64L74.5073 68L78.5075 68.0002V64H74.5075ZM32.2388 68H74.3284V60H32.2388V68ZM32.2388 60C16.6149 60 4 47.436 4 32H-4C-4 51.9102 12.2528 68 32.2388 68V60ZM4 32C4 16.564 16.6149 4 32.2388 4V-4C12.2528 -4 -4 12.0898 -4 32H4ZM32.2388 4C45.2855 4 56.2497 12.7698 59.4978 24.6576L67.2149 22.5491C63.0312 7.23674 48.9476 -4 32.2388 -4V4ZM65.3856 27.0504C68.0058 25.5079 71.0578 24.6222 74.3284 24.6222V16.6222C69.5916 16.6222 65.1433 17.9097 61.3271 20.1563L65.3856 27.0504ZM74.3284 24.6222C84.0852 24.6222 92 32.5388 92 42.3111H100C100 28.1265 88.5095 16.6222 74.3284 16.6222V24.6222ZM92 42.3111C92 52.0345 84.1639 59.9209 74.4751 59.9994L74.5399 67.9992C88.6239 67.8851 100 56.4251 100 42.3111H92ZM78.5075 64V63.9993H70.5075V64H78.5075ZM74.3282 68L74.5073 68L74.5077 60L74.3286 60L74.3282 68Z" fill="black" mask="url(#path-3-inside-2_97_641)"/>
</g>
<defs>
<clipPath id="clip0_97_641">
<rect width="96" height="96" fill="white"/>
</clipPath>
</defs>
</svg>
