<svg width="72" height="96" viewBox="0 0 72 96" fill="none" xmlns="http://www.w3.org/2000/svg">
<mask id="path-1-inside-1_11_1349" fill="white">
<path fill-rule="evenodd" clip-rule="evenodd" d="M51.4286 20.8855L36 0L20.5714 20.8855L9.80552 35.4592C3.72624 41.8888 0 50.5561 0 60.0916C0 79.9233 16.1177 96 36 96C55.8823 96 72 79.9233 72 60.0916C72 50.5561 68.2737 41.8887 62.1944 35.4591L51.4286 20.8855Z"/>
</mask>
<path d="M36 0L39.2173 -2.37671L36 -6.73198L32.7827 -2.37671L36 0ZM51.4286 20.8855L54.6459 18.5088L54.6459 18.5088L51.4286 20.8855ZM20.5714 20.8855L23.7888 23.2622L23.7888 23.2622L20.5714 20.8855ZM9.80552 35.4592L12.712 38.2073L12.8787 38.031L13.0229 37.8359L9.80552 35.4592ZM62.1944 35.4591L58.9771 37.8358L59.1212 38.0309L59.2879 38.2072L62.1944 35.4591ZM32.7827 2.37671L48.2112 23.2622L54.6459 18.5088L39.2173 -2.37671L32.7827 2.37671ZM23.7888 23.2622L39.2173 2.37671L32.7827 -2.37671L17.3541 18.5088L23.7888 23.2622ZM13.0229 37.8359L23.7888 23.2622L17.3541 18.5088L6.58819 33.0825L13.0229 37.8359ZM4 60.0916C4 51.6196 7.306 43.9248 12.712 38.2073L6.89903 32.711C0.146477 39.8527 -4 49.4926 -4 60.0916H4ZM36 92C18.3173 92 4 77.7045 4 60.0916H-4C-4 82.142 13.9182 100 36 100V92ZM68 60.0916C68 77.7045 53.6827 92 36 92V100C58.0818 100 76 82.142 76 60.0916H68ZM59.2879 38.2072C64.694 43.9248 68 51.6196 68 60.0916H76C76 49.4926 71.8535 39.8526 65.1009 32.7109L59.2879 38.2072ZM48.2112 23.2622L58.9771 37.8358L65.4117 33.0824L54.6459 18.5088L48.2112 23.2622Z" fill="black" mask="url(#path-1-inside-1_11_1349)"/>
</svg>
