<svg width="96" height="96" viewBox="0 0 96 96" fill="none" xmlns="http://www.w3.org/2000/svg">
<g clip-path="url(#clip0_82_615)">
<mask id="path-1-inside-1_82_615" fill="white">
<path fill-rule="evenodd" clip-rule="evenodd" d="M33.9324 71.4696C35.0352 69.5534 34.3783 67.1016 32.4651 65.9935C30.552 64.8854 28.107 65.5405 27.0042 67.4567L14.0088 90.0379C12.906 91.9541 13.5629 94.4058 15.4761 95.5139C17.3893 96.6221 19.8342 95.967 20.937 94.0507L33.9324 71.4696ZM74.0032 71.4696C75.106 69.5534 74.4491 67.1016 72.5359 65.9935C70.6228 64.8854 68.1778 65.5405 67.075 67.4567L59.0676 81.3707C57.9648 83.2869 58.6217 85.7386 60.5349 86.8468C62.448 87.9549 64.893 87.2998 65.9958 85.3835L74.0032 71.4696ZM50.5359 65.9936C52.4491 67.1017 53.106 69.5534 52.0032 71.4697L47.9968 78.4313C46.894 80.3475 44.4491 81.0026 42.5359 79.8945C40.6227 78.7864 39.9658 76.3347 41.0686 74.4184L45.075 67.4568C46.1778 65.5406 48.6227 64.8855 50.5359 65.9936Z"/>
</mask>
<path fill-rule="evenodd" clip-rule="evenodd" d="M33.9324 71.4696C35.0352 69.5534 34.3783 67.1016 32.4651 65.9935C30.552 64.8854 28.107 65.5405 27.0042 67.4567L14.0088 90.0379C12.906 91.9541 13.5629 94.4058 15.4761 95.5139C17.3893 96.6221 19.8342 95.967 20.937 94.0507L33.9324 71.4696ZM74.0032 71.4696C75.106 69.5534 74.4491 67.1016 72.5359 65.9935C70.6228 64.8854 68.1778 65.5405 67.075 67.4567L59.0676 81.3707C57.9648 83.2869 58.6217 85.7386 60.5349 86.8468C62.448 87.9549 64.893 87.2998 65.9958 85.3835L74.0032 71.4696ZM50.5359 65.9936C52.4491 67.1017 53.106 69.5534 52.0032 71.4697L47.9968 78.4313C46.894 80.3475 44.4491 81.0026 42.5359 79.8945C40.6227 78.7864 39.9658 76.3347 41.0686 74.4184L45.075 67.4568C46.1778 65.5406 48.6227 64.8855 50.5359 65.9936Z" fill="#148FCC"/>
<path fill-rule="evenodd" clip-rule="evenodd" d="M33.9324 71.4696C35.0352 69.5534 34.3783 67.1016 32.4651 65.9935C30.552 64.8854 28.107 65.5405 27.0042 67.4567L14.0088 90.0379C12.906 91.9541 13.5629 94.4058 15.4761 95.5139C17.3893 96.6221 19.8342 95.967 20.937 94.0507L33.9324 71.4696ZM74.0032 71.4696C75.106 69.5534 74.4491 67.1016 72.5359 65.9935C70.6228 64.8854 68.1778 65.5405 67.075 67.4567L59.0676 81.3707C57.9648 83.2869 58.6217 85.7386 60.5349 86.8468C62.448 87.9549 64.893 87.2998 65.9958 85.3835L74.0032 71.4696ZM50.5359 65.9936C52.4491 67.1017 53.106 69.5534 52.0032 71.4697L47.9968 78.4313C46.894 80.3475 44.4491 81.0026 42.5359 79.8945C40.6227 78.7864 39.9658 76.3347 41.0686 74.4184L45.075 67.4568C46.1778 65.5406 48.6227 64.8855 50.5359 65.9936Z" fill="black" fill-opacity="0.1"/>
<path d="M32.4651 65.9935L33.4675 64.2629L33.4675 64.2629L32.4651 65.9935ZM33.9324 71.4696L32.199 70.472L32.199 70.472L33.9324 71.4696ZM27.0042 67.4567L28.7377 68.4543L28.7377 68.4543L27.0042 67.4567ZM14.0088 90.0379L12.2753 89.0403L12.2753 89.0403L14.0088 90.0379ZM15.4761 95.5139L16.4785 93.7833L16.4785 93.7833L15.4761 95.5139ZM20.937 94.0507L19.2035 93.0531L19.2035 93.0531L20.937 94.0507ZM72.5359 65.9935L71.5335 67.7242L71.5335 67.7242L72.5359 65.9935ZM74.0032 71.4696L75.7367 72.4672L75.7367 72.4672L74.0032 71.4696ZM67.075 67.4567L65.3416 66.4592L65.3416 66.4592L67.075 67.4567ZM59.0676 81.3707L57.3341 80.3731L57.3341 80.3731L59.0676 81.3707ZM65.9958 85.3835L67.7292 86.3811L67.7292 86.3811L65.9958 85.3835ZM52.0032 71.4697L50.2698 70.4721L50.2698 70.4721L52.0032 71.4697ZM50.5359 65.9936L49.5335 67.7242L49.5335 67.7242L50.5359 65.9936ZM47.9968 78.4313L49.7302 79.4289L49.7302 79.4289L47.9968 78.4313ZM42.5359 79.8945L41.5335 81.6252L41.5335 81.6252L42.5359 79.8945ZM41.0686 74.4184L42.802 75.416L42.802 75.416L41.0686 74.4184ZM45.075 67.4568L43.3416 66.4592L43.3416 66.4592L45.075 67.4568ZM31.4627 67.7242C32.422 68.2798 32.7519 69.5112 32.199 70.472L35.6659 72.4672C37.3186 69.5955 36.3346 65.9235 33.4675 64.2629L31.4627 67.7242ZM28.7377 68.4543C29.2884 67.4973 30.5072 67.1708 31.4627 67.7242L33.4675 64.2629C30.5967 62.6 26.9256 63.5837 25.2708 66.4592L28.7377 68.4543ZM15.7422 91.0355L28.7377 68.4543L25.2708 66.4592L12.2753 89.0403L15.7422 91.0355ZM16.4785 93.7833C15.5193 93.2277 15.1893 91.9962 15.7422 91.0355L12.2753 89.0403C10.6227 91.912 11.6066 95.584 14.4737 97.2446L16.4785 93.7833ZM19.2035 93.0531C18.6528 94.0101 17.434 94.3367 16.4785 93.7833L14.4737 97.2446C17.3445 98.9074 21.0156 97.9238 22.6704 95.0483L19.2035 93.0531ZM32.199 70.472L19.2035 93.0531L22.6704 95.0483L35.6659 72.4672L32.199 70.472ZM71.5335 67.7242C72.4928 68.2798 72.8227 69.5112 72.2698 70.472L75.7367 72.4672C77.3894 69.5955 76.4055 65.9235 73.5383 64.2629L71.5335 67.7242ZM68.8085 68.4543C69.3592 67.4973 70.5781 67.1708 71.5335 67.7242L73.5383 64.2629C70.6675 62.6 66.9964 63.5837 65.3416 66.4592L68.8085 68.4543ZM60.801 82.3683L68.8085 68.4543L65.3416 66.4592L57.3341 80.3731L60.801 82.3683ZM61.5373 85.1161C60.578 84.5605 60.2481 83.329 60.801 82.3683L57.3341 80.3731C55.6815 83.2448 56.6653 86.9168 59.5325 88.5774L61.5373 85.1161ZM64.2623 84.3859C63.7116 85.3429 62.4927 85.6695 61.5373 85.1161L59.5325 88.5774C62.4033 90.2402 66.0744 89.2566 67.7292 86.3811L64.2623 84.3859ZM72.2698 70.472L64.2623 84.3859L67.7292 86.3811L75.7367 72.4672L72.2698 70.472ZM53.7366 72.4673C55.3893 69.5955 54.4054 65.9236 51.5383 64.2629L49.5335 67.7242C50.4927 68.2798 50.8227 69.5113 50.2698 70.4721L53.7366 72.4673ZM49.7302 79.4289L53.7366 72.4673L50.2698 70.4721L46.2634 77.4337L49.7302 79.4289ZM41.5335 81.6252C44.4044 83.288 48.0754 82.3043 49.7302 79.4289L46.2634 77.4337C45.7126 78.3907 44.4938 78.7173 43.5383 78.1638L41.5335 81.6252ZM39.3352 73.4208C37.6825 76.2925 38.6664 79.9645 41.5335 81.6252L43.5383 78.1638C42.5791 77.6083 42.2491 76.3768 42.802 75.416L39.3352 73.4208ZM43.3416 66.4592L39.3352 73.4208L42.802 75.416L46.8084 68.4544L43.3416 66.4592ZM51.5383 64.2629C48.6674 62.6001 44.9964 63.5837 43.3416 66.4592L46.8084 68.4544C47.3592 67.4974 48.578 67.1708 49.5335 67.7242L51.5383 64.2629Z" fill="black" mask="url(#path-1-inside-1_82_615)"/>
<mask id="path-3-inside-2_82_615" fill="white">
<path fill-rule="evenodd" clip-rule="evenodd" d="M74.3284 64H32.2388C14.4338 64 0 49.6731 0 32C0 14.3269 14.4338 0 32.2388 0C47.1165 0 59.6405 10.0032 63.3564 23.6034C66.5746 21.7088 70.3247 20.6222 74.3284 20.6222C86.2973 20.6222 96 30.3327 96 42.3111C96 54.2298 86.3939 63.903 74.5075 63.9993V64L74.3284 64Z"/>
</mask>
<path fill-rule="evenodd" clip-rule="evenodd" d="M74.3284 64H32.2388C14.4338 64 0 49.6731 0 32C0 14.3269 14.4338 0 32.2388 0C47.1165 0 59.6405 10.0032 63.3564 23.6034C66.5746 21.7088 70.3247 20.6222 74.3284 20.6222C86.2973 20.6222 96 30.3327 96 42.3111C96 54.2298 86.3939 63.903 74.5075 63.9993V64L74.3284 64Z" fill="white"/>
<path d="M74.3284 64L74.3286 60H74.3284V64ZM63.3564 23.6034L59.4978 24.6576L60.8768 29.7048L65.3856 27.0504L63.3564 23.6034ZM74.5075 63.9993L74.4751 59.9994L70.5075 60.0316V63.9993H74.5075ZM74.5075 64L74.5073 68L78.5075 68.0002V64H74.5075ZM32.2388 68H74.3284V60H32.2388V68ZM32.2388 60C16.6149 60 4 47.436 4 32H-4C-4 51.9102 12.2528 68 32.2388 68V60ZM4 32C4 16.564 16.6149 4 32.2388 4V-4C12.2528 -4 -4 12.0898 -4 32H4ZM32.2388 4C45.2855 4 56.2497 12.7698 59.4978 24.6576L67.2149 22.5491C63.0312 7.23674 48.9476 -4 32.2388 -4V4ZM65.3856 27.0504C68.0058 25.5079 71.0578 24.6222 74.3284 24.6222V16.6222C69.5916 16.6222 65.1433 17.9097 61.3271 20.1563L65.3856 27.0504ZM74.3284 24.6222C84.0852 24.6222 92 32.5388 92 42.3111H100C100 28.1265 88.5095 16.6222 74.3284 16.6222V24.6222ZM92 42.3111C92 52.0345 84.1639 59.9209 74.4751 59.9994L74.5399 67.9992C88.6239 67.8851 100 56.4251 100 42.3111H92ZM78.5075 64V63.9993H70.5075V64H78.5075ZM74.3282 68L74.5073 68L74.5077 60L74.3286 60L74.3282 68Z" fill="black" mask="url(#path-3-inside-2_82_615)"/>
</g>
<defs>
<clipPath id="clip0_82_615">
<rect width="96" height="96" fill="white"/>
</clipPath>
</defs>
</svg>
