<svg width="48" height="48" viewBox="0 0 48 48" fill="none" xmlns="http://www.w3.org/2000/svg">
<g clip-path="url(#clip0_97_631)">
<mask id="path-1-inside-1_97_631" fill="white">
<path fill-rule="evenodd" clip-rule="evenodd" d="M16.6986 35.7092C17.2499 34.7511 16.9215 33.5254 15.965 32.9713C15.0085 32.4173 13.7861 32.7449 13.2347 33.7029L6.73747 44.9927C6.1861 45.9507 6.51455 47.1765 7.47106 47.7305C8.42758 48.2845 9.64996 47.957 10.2013 46.9989L16.6986 35.7092ZM36.7325 35.7092C37.2839 34.7511 36.9555 33.5254 35.9989 32.9713C35.0424 32.4173 33.82 32.7449 33.2687 33.7029L29.2652 40.6594C28.7139 41.6174 29.0423 42.8432 29.9988 43.3972C30.9553 43.9512 32.1777 43.6237 32.7291 42.6657L36.7325 35.7092ZM24.9997 32.9713C25.9562 33.5254 26.2847 34.7511 25.7333 35.7092L23.7302 39.1897C23.1789 40.1478 21.9565 40.4753 21 39.9213C20.0435 39.3673 19.715 38.1415 20.2664 37.1835L22.2694 33.7029C22.8208 32.7449 24.0432 32.4173 24.9997 32.9713Z"/>
</mask>
<path fill-rule="evenodd" clip-rule="evenodd" d="M16.6986 35.7092C17.2499 34.7511 16.9215 33.5254 15.965 32.9713C15.0085 32.4173 13.7861 32.7449 13.2347 33.7029L6.73747 44.9927C6.1861 45.9507 6.51455 47.1765 7.47106 47.7305C8.42758 48.2845 9.64996 47.957 10.2013 46.9989L16.6986 35.7092ZM36.7325 35.7092C37.2839 34.7511 36.9555 33.5254 35.9989 32.9713C35.0424 32.4173 33.82 32.7449 33.2687 33.7029L29.2652 40.6594C28.7139 41.6174 29.0423 42.8432 29.9988 43.3972C30.9553 43.9512 32.1777 43.6237 32.7291 42.6657L36.7325 35.7092ZM24.9997 32.9713C25.9562 33.5254 26.2847 34.7511 25.7333 35.7092L23.7302 39.1897C23.1789 40.1478 21.9565 40.4753 21 39.9213C20.0435 39.3673 19.715 38.1415 20.2664 37.1835L22.2694 33.7029C22.8208 32.7449 24.0432 32.4173 24.9997 32.9713Z" fill="#148FCC"/>
<path fill-rule="evenodd" clip-rule="evenodd" d="M16.6986 35.7092C17.2499 34.7511 16.9215 33.5254 15.965 32.9713C15.0085 32.4173 13.7861 32.7449 13.2347 33.7029L6.73747 44.9927C6.1861 45.9507 6.51455 47.1765 7.47106 47.7305C8.42758 48.2845 9.64996 47.957 10.2013 46.9989L16.6986 35.7092ZM36.7325 35.7092C37.2839 34.7511 36.9555 33.5254 35.9989 32.9713C35.0424 32.4173 33.82 32.7449 33.2687 33.7029L29.2652 40.6594C28.7139 41.6174 29.0423 42.8432 29.9988 43.3972C30.9553 43.9512 32.1777 43.6237 32.7291 42.6657L36.7325 35.7092ZM24.9997 32.9713C25.9562 33.5254 26.2847 34.7511 25.7333 35.7092L23.7302 39.1897C23.1789 40.1478 21.9565 40.4753 21 39.9213C20.0435 39.3673 19.715 38.1415 20.2664 37.1835L22.2694 33.7029C22.8208 32.7449 24.0432 32.4173 24.9997 32.9713Z" fill="black" fill-opacity="0.1"/>
<path d="M15.965 32.9713L16.7168 31.6734L16.7168 31.6734L15.965 32.9713ZM16.6986 35.7092L17.9987 36.4574L17.9987 36.4574L16.6986 35.7092ZM13.2347 33.7029L14.5348 34.4511L14.5348 34.4511L13.2347 33.7029ZM6.73747 44.9927L8.03754 45.7409L8.03754 45.7409L6.73747 44.9927ZM7.47106 47.7305L6.71926 49.0285L6.71926 49.0285L7.47106 47.7305ZM10.2013 46.9989L11.5014 47.7471L11.5014 47.7471L10.2013 46.9989ZM35.9989 32.9713L36.7507 31.6734L36.7507 31.6734L35.9989 32.9713ZM36.7325 35.7092L35.4325 34.961L35.4325 34.961L36.7325 35.7092ZM33.2687 33.7029L31.9686 32.9547L31.9686 32.9547L33.2687 33.7029ZM29.2652 40.6594L30.5653 41.4076L30.5653 41.4076L29.2652 40.6594ZM32.7291 42.6657L34.0292 43.4139L34.0292 43.4139L32.7291 42.6657ZM25.7333 35.7092L27.0334 36.4574L27.0334 36.4574L25.7333 35.7092ZM24.9997 32.9713L25.7515 31.6734L25.7515 31.6734L24.9997 32.9713ZM23.7302 39.1897L25.0303 39.9379L25.0303 39.9379L23.7302 39.1897ZM21 39.9213L20.2482 41.2193L20.2482 41.2193L21 39.9213ZM20.2664 37.1835L21.5665 37.9317L21.5665 37.9317L20.2664 37.1835ZM22.2694 33.7029L20.9694 32.9547L20.9694 32.9547L22.2694 33.7029ZM15.2132 34.2693C15.4542 34.409 15.5375 34.7195 15.3985 34.961L17.9987 36.4574C18.9624 34.7827 18.3888 32.6418 16.7168 31.6734L15.2132 34.2693ZM14.5348 34.4511C14.6721 34.2125 14.9749 34.1313 15.2132 34.2693L16.7168 31.6734C15.042 30.7033 12.9 31.2772 11.9346 32.9547L14.5348 34.4511ZM8.03754 45.7409L14.5348 34.4511L11.9346 32.9547L5.43739 44.2445L8.03754 45.7409ZM8.22287 46.4325C7.98181 46.2929 7.89859 45.9823 8.03754 45.7409L5.43739 44.2445C4.47362 45.9191 5.04729 48.0601 6.71926 49.0285L8.22287 46.4325ZM8.90124 46.2507C8.76391 46.4894 8.46112 46.5705 8.22287 46.4325L6.71926 49.0285C8.39405 49.9985 10.536 49.4246 11.5014 47.7471L8.90124 46.2507ZM15.3985 34.961L8.90124 46.2507L11.5014 47.7471L17.9987 36.4574L15.3985 34.961ZM35.2471 34.2693C35.4882 34.409 35.5714 34.7195 35.4325 34.961L38.0326 36.4574C38.9964 34.7827 38.4227 32.6418 36.7507 31.6734L35.2471 34.2693ZM34.5688 34.4511C34.7061 34.2125 35.0089 34.1313 35.2471 34.2693L36.7507 31.6734C35.076 30.7033 32.934 31.2772 31.9686 32.9547L34.5688 34.4511ZM30.5653 41.4076L34.5688 34.4511L31.9686 32.9547L27.9652 39.9112L30.5653 41.4076ZM30.7506 42.0992C30.5096 41.9596 30.4264 41.649 30.5653 41.4076L27.9652 39.9112C27.0014 41.5858 27.5751 43.7268 29.247 44.6952L30.7506 42.0992ZM31.429 41.9175C31.2917 42.1561 30.9889 42.2372 30.7506 42.0992L29.247 44.6952C30.9218 45.6653 33.0638 45.0913 34.0292 43.4139L31.429 41.9175ZM35.4325 34.961L31.429 41.9175L34.0292 43.4139L38.0326 36.4574L35.4325 34.961ZM27.0334 36.4574C27.9971 34.7827 27.4235 32.6418 25.7515 31.6734L24.2479 34.2693C24.489 34.409 24.5722 34.7195 24.4332 34.961L27.0334 36.4574ZM25.0303 39.9379L27.0334 36.4574L24.4332 34.961L22.4302 38.4415L25.0303 39.9379ZM20.2482 41.2193C21.923 42.1894 24.0649 41.6154 25.0303 39.9379L22.4302 38.4415C22.2928 38.6802 21.99 38.7613 21.7518 38.6233L20.2482 41.2193ZM18.9663 36.4353C18.0025 38.1099 18.5762 40.2509 20.2482 41.2193L21.7518 38.6233C21.5107 38.4837 21.4275 38.1731 21.5665 37.9317L18.9663 36.4353ZM20.9694 32.9547L18.9663 36.4353L21.5665 37.9317L23.5695 34.4511L20.9694 32.9547ZM25.7515 31.6734C24.0767 30.7033 21.9348 31.2772 20.9694 32.9547L23.5695 34.4511C23.7069 34.2125 24.0096 34.1313 24.2479 34.2693L25.7515 31.6734Z" fill="black" mask="url(#path-1-inside-1_97_631)"/>
<mask id="path-3-inside-2_97_631" fill="white">
<path fill-rule="evenodd" clip-rule="evenodd" d="M37.1642 32H16.1194C7.2169 32 0 24.8366 0 16C0 7.16345 7.2169 0 16.1194 0C23.5583 0 29.8202 5.00162 31.6782 11.8017C33.2873 10.8544 35.1623 10.3111 37.1642 10.3111C43.1487 10.3111 48 15.1663 48 21.1556C48 27.1149 43.197 31.9515 37.2537 31.9996V32H37.1642Z"/>
</mask>
<path fill-rule="evenodd" clip-rule="evenodd" d="M37.1642 32H16.1194C7.2169 32 0 24.8366 0 16C0 7.16345 7.2169 0 16.1194 0C23.5583 0 29.8202 5.00162 31.6782 11.8017C33.2873 10.8544 35.1623 10.3111 37.1642 10.3111C43.1487 10.3111 48 15.1663 48 21.1556C48 27.1149 43.197 31.9515 37.2537 31.9996V32H37.1642Z" fill="white"/>
<path d="M31.6782 11.8017L28.7843 12.5924L29.8185 16.3777L33.2001 14.387L31.6782 11.8017ZM37.2537 31.9996L37.2294 28.9997L34.2537 29.0238V31.9996H37.2537ZM37.2537 32V35H40.2537V32H37.2537ZM16.1194 35H37.1642V29H16.1194V35ZM16.1194 29C8.85269 29 3 23.1587 3 16H-3C-3 26.5144 5.58112 35 16.1194 35V29ZM3 16C3 8.84129 8.85269 3 16.1194 3V-3C5.58112 -3 -3 5.4856 -3 16H3ZM16.1194 3C22.185 3 27.2772 7.0765 28.7843 12.5924L34.5721 11.011C32.3633 2.92674 24.9316 -3 16.1194 -3V3ZM33.2001 14.387C34.3607 13.7037 35.7122 13.3111 37.1642 13.3111V7.31111C34.6125 7.31111 32.2138 8.00508 30.1562 9.21641L33.2001 14.387ZM37.1642 13.3111C41.4895 13.3111 45 16.8209 45 21.1556H51C51 13.5117 44.8078 7.31111 37.1642 7.31111V13.3111ZM45 21.1556C45 25.4684 41.5245 28.965 37.2294 28.9997L37.278 34.9995C44.8695 34.9381 51 28.7614 51 21.1556H45ZM40.2537 32V31.9996H34.2537V32H40.2537ZM37.1642 35H37.2537V29H37.1642V35Z" fill="black" mask="url(#path-3-inside-2_97_631)"/>
</g>
<defs>
<clipPath id="clip0_97_631">
<rect width="48" height="48" fill="white"/>
</clipPath>
</defs>
</svg>
