<svg width="512" height="512" viewBox="0 0 512 512" fill="none" xmlns="http://www.w3.org/2000/svg">
<path d="M148.726 192.142C186.404 206.019 228.06 186.379 241.765 148.274C255.471 110.17 236.037 68.03 198.358 54.1525C160.679 40.2751 119.024 59.9152 105.318 98.0198C91.6127 136.124 111.047 178.264 148.726 192.142Z" fill="#B9E6FF"/>
<path d="M237.073 146.546C224.289 182.09 185.468 200.346 150.418 187.437C115.368 174.527 97.2257 135.292 110.01 99.7479C122.795 64.2041 161.616 45.9482 196.666 58.8575C231.716 71.7667 249.858 111.002 237.073 146.546Z" fill="black" fill-opacity="0.2" stroke="black" stroke-width="10"/>
<path d="M237.796 224.946C263.124 234.275 291.188 220.901 300.477 195.075C309.766 169.248 296.764 140.749 271.435 131.42C246.107 122.092 218.043 135.466 208.754 161.292C199.465 187.119 212.467 215.618 237.796 224.946Z" fill="#B9E6FF"/>
<path d="M237.796 224.946C263.124 234.275 291.188 220.901 300.477 195.075C309.766 169.248 296.764 140.749 271.435 131.42C246.107 122.092 218.043 135.466 208.754 161.292C199.465 187.119 212.467 215.618 237.796 224.946Z" fill="black" fill-opacity="0.2"/>
<path d="M252.788 184.456L163.34 151.511L148.726 192.142L238.174 225.086L252.788 184.456Z" fill="#B9E6FF"/>
<path d="M252.788 184.456L163.34 151.511L148.726 192.142L238.174 225.086L252.788 184.456Z" fill="black" fill-opacity="0.2"/>
<path d="M177.836 335.026C179.472 332.159 178.501 328.493 175.668 326.838C172.835 325.183 169.213 326.165 167.577 329.032L112.048 426.357C110.413 429.224 111.383 432.89 114.216 434.545C117.049 436.2 120.672 435.218 122.307 432.351L177.836 335.026Z" fill="black"/>
<path d="M224.798 335.026C226.433 332.159 225.462 328.493 222.63 326.838C219.797 325.183 216.174 326.165 214.538 329.032L159.01 426.357C157.374 429.224 158.345 432.89 161.178 434.545C164.011 436.2 167.633 435.218 169.269 432.351L224.798 335.026Z" fill="black"/>
<path d="M224.798 335.026C226.433 332.159 225.462 328.493 222.63 326.838C219.797 325.183 216.174 326.165 214.538 329.032L159.01 426.357C157.374 429.224 158.345 432.89 161.178 434.545C164.011 436.2 167.633 435.218 169.269 432.351L224.798 335.026Z" fill="white" fill-opacity="0.2"/>
<path d="M272.182 335.026C273.818 332.159 272.847 328.493 270.014 326.838C267.181 325.183 263.559 326.165 261.923 329.032L206.394 426.357C204.759 429.224 205.729 432.89 208.562 434.545C211.395 436.2 215.018 435.218 216.653 432.351L272.182 335.026Z" fill="black"/>
<path d="M319.567 335.026C321.202 332.159 320.232 328.493 317.399 326.838C314.566 325.183 310.943 326.165 309.308 329.032L253.779 426.357C252.143 429.224 253.114 432.89 255.947 434.545C258.78 436.2 262.402 435.218 264.038 432.351L319.567 335.026Z" fill="black"/>
<path d="M319.567 335.026C321.202 332.159 320.232 328.493 317.399 326.838C314.566 325.183 310.943 326.165 309.308 329.032L253.779 426.357C252.143 429.224 253.114 432.89 255.947 434.545C258.78 436.2 262.402 435.218 264.038 432.351L319.567 335.026Z" fill="white" fill-opacity="0.2"/>
<path d="M366.951 335.026C368.587 332.159 367.616 328.493 364.783 326.838C361.95 325.183 358.328 326.165 356.692 329.032L301.163 426.357C299.528 429.224 300.498 432.89 303.331 434.545C306.164 436.2 309.787 435.218 311.423 432.351L366.951 335.026Z" fill="black"/>
<path d="M414.336 335.026C415.972 332.159 415.001 328.493 412.168 326.838C409.335 325.183 405.713 326.165 404.077 329.032L348.548 426.357C346.912 429.224 347.883 432.89 350.716 434.545C353.549 436.2 357.172 435.218 358.807 432.351L414.336 335.026Z" fill="black"/>
<path d="M414.336 335.026C415.972 332.159 415.001 328.493 412.168 326.838C409.335 325.183 405.713 326.165 404.077 329.032L348.548 426.357C346.912 429.224 347.883 432.89 350.716 434.545C353.549 436.2 357.172 435.218 358.807 432.351L414.336 335.026Z" fill="white" fill-opacity="0.2"/>
<mask id="path-18-inside-1_38_160" fill="white">
<path fill-rule="evenodd" clip-rule="evenodd" d="M397.339 358.965H223.551C223.508 358.965 223.466 358.965 223.423 358.965C149.82 358.965 90.1537 298.587 90.1537 224.107C90.1537 149.627 149.82 89.2494 223.423 89.2494C284.925 89.2494 336.696 131.406 352.057 188.721C365.36 180.737 380.863 176.158 397.413 176.158C446.891 176.158 487 217.08 487 267.561C487 317.79 447.29 358.556 398.154 358.962V358.965H397.487C397.463 358.965 397.438 358.965 397.413 358.965C397.389 358.965 397.364 358.965 397.339 358.965Z"/>
</mask>
<path fill-rule="evenodd" clip-rule="evenodd" d="M397.339 358.965H223.551C223.508 358.965 223.466 358.965 223.423 358.965C149.82 358.965 90.1537 298.587 90.1537 224.107C90.1537 149.627 149.82 89.2494 223.423 89.2494C284.925 89.2494 336.696 131.406 352.057 188.721C365.36 180.737 380.863 176.158 397.413 176.158C446.891 176.158 487 217.08 487 267.561C487 317.79 447.29 358.556 398.154 358.962V358.965H397.487C397.463 358.965 397.438 358.965 397.413 358.965C397.389 358.965 397.364 358.965 397.339 358.965Z" fill="#FFD500"/>
<path d="M352.057 188.721L342.398 191.31L345.831 204.12L357.203 197.295L352.057 188.721ZM398.154 358.962L398.071 348.962L388.154 349.044V358.962H398.154ZM398.154 358.965V368.965H408.154V358.965H398.154ZM223.551 368.965H397.339V348.965H223.551V368.965ZM223.551 348.965C223.526 348.965 223.501 348.965 223.48 348.965C223.458 348.965 223.44 348.965 223.423 348.965V368.965C223.448 368.965 223.473 368.965 223.494 368.965C223.516 368.965 223.534 368.965 223.551 368.965V348.965ZM223.423 348.965C155.455 348.965 100.154 293.176 100.154 224.107H80.1537C80.1537 303.998 144.186 368.965 223.423 368.965V348.965ZM100.154 224.107C100.154 155.038 155.455 99.2494 223.423 99.2494V79.2494C144.186 79.2494 80.1537 144.216 80.1537 224.107H100.154ZM223.423 99.2494C280.214 99.2494 328.16 138.185 342.398 191.31L361.716 186.132C345.232 124.627 289.636 79.2494 223.423 79.2494V99.2494ZM357.203 197.295C369.003 190.213 382.735 186.158 397.413 186.158V166.158C378.991 166.158 361.718 171.26 346.911 180.147L357.203 197.295ZM397.413 186.158C441.179 186.158 477 222.413 477 267.561H497C497 211.748 452.602 166.158 397.413 166.158V186.158ZM477 267.561C477 312.483 441.535 348.603 398.071 348.962L398.236 368.961C453.045 368.509 497 323.097 497 267.561H477ZM408.154 358.965V358.962H388.154V358.965H408.154ZM397.487 368.965H398.154V348.965H397.487V368.965ZM397.487 348.965C397.471 348.965 397.456 348.965 397.444 348.965C397.431 348.965 397.422 348.965 397.413 348.965V368.965C397.429 368.965 397.445 368.965 397.457 368.965C397.469 368.965 397.479 368.965 397.487 368.965V348.965ZM397.413 348.965C397.405 348.965 397.395 348.965 397.383 348.965C397.371 348.965 397.355 348.965 397.339 348.965V368.965C397.348 368.965 397.357 368.965 397.37 368.965C397.382 368.965 397.397 368.965 397.413 368.965V348.965Z" fill="black" mask="url(#path-18-inside-1_38_160)"/>
<path fill-rule="evenodd" clip-rule="evenodd" d="M307.827 119.739C284.844 100.684 255.453 89.2494 223.423 89.2494C199.149 89.2494 176.391 95.8165 156.789 107.291V340.923C176.391 352.397 199.149 358.965 223.423 358.965L223.551 358.965H307.827V119.739Z" fill="black"/>
<path d="M416.664 264.564C427.704 264.564 436.654 255.508 436.654 244.336C436.654 233.164 427.704 224.107 416.664 224.107C405.623 224.107 396.673 233.164 396.673 244.336C396.673 255.508 405.623 264.564 416.664 264.564Z" fill="black"/>
<mask id="path-22-inside-2_38_160" fill="white">
<path fill-rule="evenodd" clip-rule="evenodd" d="M105.764 243.299C105.696 243.299 105.627 243.299 105.558 243.299C61.0672 243.299 25 207.072 25 162.384C25 117.697 61.0672 81.4698 105.558 81.4698C142.735 81.4698 174.029 106.764 183.315 141.152C191.356 136.362 200.727 133.614 210.732 133.614C240.639 133.614 264.885 158.168 264.885 188.457C264.885 218.594 240.881 243.053 211.179 243.297V243.299H105.764Z"/>
</mask>
<path fill-rule="evenodd" clip-rule="evenodd" d="M105.764 243.299C105.696 243.299 105.627 243.299 105.558 243.299C61.0672 243.299 25 207.072 25 162.384C25 117.697 61.0672 81.4698 105.558 81.4698C142.735 81.4698 174.029 106.764 183.315 141.152C191.356 136.362 200.727 133.614 210.732 133.614C240.639 133.614 264.885 158.168 264.885 188.457C264.885 218.594 240.881 243.053 211.179 243.297V243.299H105.764Z" fill="#B9E6FF"/>
<path d="M105.764 243.299V233.299H105.752L105.74 233.299L105.764 243.299ZM183.315 141.152L173.66 143.759L177.099 156.495L188.433 149.744L183.315 141.152ZM211.179 243.297L211.097 233.297L201.179 233.378V243.297H211.179ZM211.179 243.299V253.299H221.179V243.299H211.179ZM105.74 233.299C105.679 233.299 105.618 233.299 105.558 233.299V253.299C105.636 253.299 105.713 253.299 105.789 253.299L105.74 233.299ZM105.558 233.299C66.6316 233.299 35 201.591 35 162.384H15C15 212.553 55.5028 253.299 105.558 253.299V233.299ZM35 162.384C35 123.178 66.6316 91.4698 105.558 91.4698V71.4698C55.5028 71.4698 15 112.215 15 162.384H35ZM105.558 91.4698C138.075 91.4698 165.516 113.596 173.66 143.759L192.969 138.546C182.543 99.9314 147.394 71.4698 105.558 71.4698V91.4698ZM188.433 149.744C194.974 145.847 202.584 143.614 210.732 143.614V123.614C198.871 123.614 187.739 126.877 178.197 132.561L188.433 149.744ZM210.732 143.614C234.998 143.614 254.885 163.571 254.885 188.457H274.885C274.885 152.765 246.281 123.614 210.732 123.614V143.614ZM254.885 188.457C254.885 213.217 235.195 233.1 211.097 233.297L211.261 253.296C246.567 253.007 274.885 223.971 274.885 188.457H254.885ZM221.179 243.299V243.297H201.179V243.299H221.179ZM105.764 253.299H211.179V233.299H105.764V253.299Z" fill="black" mask="url(#path-22-inside-2_38_160)"/>
</svg>
