<svg width="96" height="96" viewBox="0 0 96 96" fill="none" xmlns="http://www.w3.org/2000/svg">
<mask id="path-1-inside-1_97_668" fill="white">
<path fill-rule="evenodd" clip-rule="evenodd" d="M45.0007 80.4392C43.0876 79.3311 42.4306 76.8794 43.5334 74.9631L47.5398 68.0015C48.6426 66.0853 51.0876 65.4302 53.0007 66.5383C54.9139 67.6464 55.5708 70.0981 54.468 72.0144L50.4616 78.976C49.3588 80.8922 46.9139 81.5473 45.0007 80.4392ZM20.0007 87.4617C18.0875 86.3535 17.4306 83.9018 18.5334 81.9856L26.5398 68.0735C27.6426 66.1573 30.0875 65.5022 32.0007 66.6103C33.9139 67.7184 34.5708 70.1701 33.468 72.0864L25.4616 85.9984C24.3588 87.9147 21.9139 88.5698 20.0007 87.4617Z"/>
</mask>
<path fill-rule="evenodd" clip-rule="evenodd" d="M45.0007 80.4392C43.0876 79.3311 42.4306 76.8794 43.5334 74.9631L47.5398 68.0015C48.6426 66.0853 51.0876 65.4302 53.0007 66.5383C54.9139 67.6464 55.5708 70.0981 54.468 72.0144L50.4616 78.976C49.3588 80.8922 46.9139 81.5473 45.0007 80.4392ZM20.0007 87.4617C18.0875 86.3535 17.4306 83.9018 18.5334 81.9856L26.5398 68.0735C27.6426 66.1573 30.0875 65.5022 32.0007 66.6103C33.9139 67.7184 34.5708 70.1701 33.468 72.0864L25.4616 85.9984C24.3588 87.9147 21.9139 88.5698 20.0007 87.4617Z" fill="#148FCC"/>
<path fill-rule="evenodd" clip-rule="evenodd" d="M45.0007 80.4392C43.0876 79.3311 42.4306 76.8794 43.5334 74.9631L47.5398 68.0015C48.6426 66.0853 51.0876 65.4302 53.0007 66.5383C54.9139 67.6464 55.5708 70.0981 54.468 72.0144L50.4616 78.976C49.3588 80.8922 46.9139 81.5473 45.0007 80.4392ZM20.0007 87.4617C18.0875 86.3535 17.4306 83.9018 18.5334 81.9856L26.5398 68.0735C27.6426 66.1573 30.0875 65.5022 32.0007 66.6103C33.9139 67.7184 34.5708 70.1701 33.468 72.0864L25.4616 85.9984C24.3588 87.9147 21.9139 88.5698 20.0007 87.4617Z" fill="black" fill-opacity="0.1"/>
<path d="M43.5334 74.9631L45.2669 75.9607L45.2669 75.9607L43.5334 74.9631ZM45.0007 80.4392L43.9983 82.1699L43.9983 82.1699L45.0007 80.4392ZM47.5398 68.0015L45.8064 67.0039L45.8064 67.0039L47.5398 68.0015ZM53.0007 66.5383L54.0031 64.8076L54.0031 64.8076L53.0007 66.5383ZM54.468 72.0144L52.7346 71.0168L52.7346 71.0168L54.468 72.0144ZM50.4616 78.976L52.1951 79.9736L52.1951 79.9736L50.4616 78.976ZM18.5334 81.9856L16.7999 80.988L16.7999 80.988L18.5334 81.9856ZM20.0007 87.4617L21.0031 85.731L21.0031 85.731L20.0007 87.4617ZM26.5398 68.0735L28.2732 69.0711L28.2732 69.0711L26.5398 68.0735ZM32.0007 66.6103L30.9983 68.3409L30.9983 68.3409L32.0007 66.6103ZM33.468 72.0864L35.2014 73.084L35.2014 73.084L33.468 72.0864ZM25.4616 85.9984L27.195 86.996L27.195 86.996L25.4616 85.9984ZM41.8 73.9655C40.1473 76.8373 41.1312 80.5092 43.9983 82.1699L46.0031 78.7086C45.0439 78.153 44.7139 76.9215 45.2669 75.9607L41.8 73.9655ZM45.8064 67.0039L41.8 73.9655L45.2669 75.9607L49.2733 68.9991L45.8064 67.0039ZM54.0031 64.8076C51.1323 63.1448 47.4612 64.1285 45.8064 67.0039L49.2733 68.9991C49.824 68.0421 51.0428 67.7155 51.9983 68.269L54.0031 64.8076ZM56.2015 73.012C57.8541 70.1403 56.8702 66.4683 54.0031 64.8076L51.9983 68.269C52.9575 68.8246 53.2875 70.056 52.7346 71.0168L56.2015 73.012ZM52.1951 79.9736L56.2015 73.012L52.7346 71.0168L48.7282 77.9784L52.1951 79.9736ZM43.9983 82.1699C46.8692 83.8327 50.5402 82.8491 52.1951 79.9736L48.7282 77.9784C48.1774 78.9354 46.9586 79.262 46.0031 78.7086L43.9983 82.1699ZM16.7999 80.988C15.1473 83.8597 16.1312 87.5317 18.9983 89.1923L21.0031 85.731C20.0439 85.1754 19.7139 83.9439 20.2668 82.9832L16.7999 80.988ZM24.8064 67.0759L16.7999 80.988L20.2668 82.9832L28.2732 69.0711L24.8064 67.0759ZM33.0031 64.8796C30.1322 63.2168 26.4612 64.2004 24.8064 67.0759L28.2732 69.0711C28.824 68.1141 30.0428 67.7875 30.9983 68.3409L33.0031 64.8796ZM35.2014 73.084C36.8541 70.2122 35.8702 66.5403 33.0031 64.8796L30.9983 68.3409C31.9575 68.8965 32.2875 70.128 31.7346 71.0888L35.2014 73.084ZM27.195 86.996L35.2014 73.084L31.7346 71.0888L23.7281 85.0008L27.195 86.996ZM18.9983 89.1923C21.8691 90.8551 25.5402 89.8715 27.195 86.996L23.7281 85.0008C23.1774 85.9578 21.9586 86.2844 21.0031 85.731L18.9983 89.1923Z" fill="black" mask="url(#path-1-inside-1_97_668)"/>
<mask id="path-3-inside-2_97_668" fill="white">
<path fill-rule="evenodd" clip-rule="evenodd" d="M74.3284 64H32.2388C14.4338 64 0 49.6731 0 32C0 14.3269 14.4338 0 32.2388 0C47.1165 0 59.6405 10.0032 63.3564 23.6034C66.5746 21.7088 70.3247 20.6222 74.3284 20.6222C86.2973 20.6222 96 30.3327 96 42.3111C96 54.2298 86.3939 63.903 74.5075 63.9993V64L74.3284 64Z"/>
</mask>
<path fill-rule="evenodd" clip-rule="evenodd" d="M74.3284 64H32.2388C14.4338 64 0 49.6731 0 32C0 14.3269 14.4338 0 32.2388 0C47.1165 0 59.6405 10.0032 63.3564 23.6034C66.5746 21.7088 70.3247 20.6222 74.3284 20.6222C86.2973 20.6222 96 30.3327 96 42.3111C96 54.2298 86.3939 63.903 74.5075 63.9993V64L74.3284 64Z" fill="white"/>
<path d="M74.3284 64L74.3286 60H74.3284V64ZM63.3564 23.6034L59.4978 24.6576L60.8768 29.7048L65.3856 27.0504L63.3564 23.6034ZM74.5075 63.9993L74.4751 59.9994L70.5075 60.0316V63.9993H74.5075ZM74.5075 64L74.5073 68L78.5075 68.0002V64H74.5075ZM32.2388 68H74.3284V60H32.2388V68ZM32.2388 60C16.6149 60 4 47.436 4 32H-4C-4 51.9102 12.2528 68 32.2388 68V60ZM4 32C4 16.564 16.6149 4 32.2388 4V-4C12.2528 -4 -4 12.0898 -4 32H4ZM32.2388 4C45.2855 4 56.2497 12.7698 59.4978 24.6576L67.2149 22.5491C63.0312 7.23674 48.9476 -4 32.2388 -4V4ZM65.3856 27.0504C68.0058 25.5079 71.0578 24.6222 74.3284 24.6222V16.6222C69.5916 16.6222 65.1433 17.9097 61.3271 20.1563L65.3856 27.0504ZM74.3284 24.6222C84.0852 24.6222 92 32.5388 92 42.3111H100C100 28.1265 88.5095 16.6222 74.3284 16.6222V24.6222ZM92 42.3111C92 52.0345 84.1639 59.9209 74.4751 59.9994L74.5399 67.9992C88.6239 67.8851 100 56.4251 100 42.3111H92ZM78.5075 64V63.9993H70.5075V64H78.5075ZM74.3282 68L74.5073 68L74.5077 60L74.3286 60L74.3282 68Z" fill="black" mask="url(#path-3-inside-2_97_668)"/>
<mask id="path-5-inside-3_97_668" fill="white">
<path fill-rule="evenodd" clip-rule="evenodd" d="M71.1883 74.9999C71.1944 77.209 72.9903 78.9999 75.1994 78.9999C77.4085 78.9999 79.1944 77.209 79.1883 74.9999L79.1686 67.9171L85.293 71.4304C87.2092 72.5296 89.6581 71.8698 90.7626 69.9567C91.8672 68.0435 91.2092 65.6014 89.293 64.5022L83.1493 60.9779L89.2544 57.4305C91.1645 56.3206 91.8175 53.8699 90.7129 51.9568C89.6083 50.0436 87.1645 49.3924 85.2544 50.5023L79.1301 54.0608L79.1105 47C79.1044 44.7909 77.3085 43 75.0994 43C72.8902 43 71.1044 44.7909 71.1105 47L71.1302 54.0831L65.0055 50.5696C63.0892 49.4704 60.6404 50.1302 59.5358 52.0433C58.4313 53.9565 59.0892 56.3986 61.0055 57.4978L67.1495 61.0223L61.0446 64.5696C59.1346 65.6795 58.4815 68.1301 59.5861 70.0433C60.6907 71.9565 63.1346 72.6077 65.0446 71.4978L71.1687 67.9394L71.1883 74.9999Z"/>
</mask>
<path fill-rule="evenodd" clip-rule="evenodd" d="M71.1883 74.9999C71.1944 77.209 72.9903 78.9999 75.1994 78.9999C77.4085 78.9999 79.1944 77.209 79.1883 74.9999L79.1686 67.9171L85.293 71.4304C87.2092 72.5296 89.6581 71.8698 90.7626 69.9567C91.8672 68.0435 91.2092 65.6014 89.293 64.5022L83.1493 60.9779L89.2544 57.4305C91.1645 56.3206 91.8175 53.8699 90.7129 51.9568C89.6083 50.0436 87.1645 49.3924 85.2544 50.5023L79.1301 54.0608L79.1105 47C79.1044 44.7909 77.3085 43 75.0994 43C72.8902 43 71.1044 44.7909 71.1105 47L71.1302 54.0831L65.0055 50.5696C63.0892 49.4704 60.6404 50.1302 59.5358 52.0433C58.4313 53.9565 59.0892 56.3986 61.0055 57.4978L67.1495 61.0223L61.0446 64.5696C59.1346 65.6795 58.4815 68.1301 59.5861 70.0433C60.6907 71.9565 63.1346 72.6077 65.0446 71.4978L71.1687 67.9394L71.1883 74.9999Z" fill="#148FCC"/>
<path fill-rule="evenodd" clip-rule="evenodd" d="M71.1883 74.9999C71.1944 77.209 72.9903 78.9999 75.1994 78.9999C77.4085 78.9999 79.1944 77.209 79.1883 74.9999L79.1686 67.9171L85.293 71.4304C87.2092 72.5296 89.6581 71.8698 90.7626 69.9567C91.8672 68.0435 91.2092 65.6014 89.293 64.5022L83.1493 60.9779L89.2544 57.4305C91.1645 56.3206 91.8175 53.8699 90.7129 51.9568C89.6083 50.0436 87.1645 49.3924 85.2544 50.5023L79.1301 54.0608L79.1105 47C79.1044 44.7909 77.3085 43 75.0994 43C72.8902 43 71.1044 44.7909 71.1105 47L71.1302 54.0831L65.0055 50.5696C63.0892 49.4704 60.6404 50.1302 59.5358 52.0433C58.4313 53.9565 59.0892 56.3986 61.0055 57.4978L67.1495 61.0223L61.0446 64.5696C59.1346 65.6795 58.4815 68.1301 59.5861 70.0433C60.6907 71.9565 63.1346 72.6077 65.0446 71.4978L71.1687 67.9394L71.1883 74.9999Z" fill="white" fill-opacity="0.5"/>
<path d="M71.1883 74.9999L69.1883 75.0054L69.1883 75.0054L71.1883 74.9999ZM79.1883 74.9999L77.1883 75.0054L77.1883 75.0054L79.1883 74.9999ZM79.1686 67.9171L80.1638 66.1823L77.159 64.4586L77.1686 67.9227L79.1686 67.9171ZM85.293 71.4304L84.2978 73.1652L84.2978 73.1652L85.293 71.4304ZM90.7626 69.9567L92.4947 70.9567L92.4947 70.9567L90.7626 69.9567ZM89.293 64.5022L90.2882 62.7674L90.2882 62.7674L89.293 64.5022ZM83.1493 60.9779L82.1445 59.2486L79.1494 60.989L82.1542 62.7127L83.1493 60.9779ZM89.2544 57.4305L88.2496 55.7012L88.2496 55.7012L89.2544 57.4305ZM90.7129 51.9568L88.9809 52.9568L88.9809 52.9568L90.7129 51.9568ZM85.2544 50.5023L84.2496 48.773L84.2496 48.773L85.2544 50.5023ZM79.1301 54.0608L77.1301 54.0664L77.1397 57.5305L80.1349 55.7901L79.1301 54.0608ZM79.1105 47L81.1105 46.9944L81.1105 46.9944L79.1105 47ZM71.1105 47L69.1105 47.0055L69.1105 47.0055L71.1105 47ZM71.1302 54.0831L70.135 55.8179L73.1398 57.5416L73.1302 54.0775L71.1302 54.0831ZM65.0055 50.5696L64.0103 52.3044L64.0103 52.3044L65.0055 50.5696ZM59.5358 52.0433L61.2679 53.0433L61.2679 53.0433L59.5358 52.0433ZM61.0055 57.4978L62.0007 55.763L62.0007 55.763L61.0055 57.4978ZM67.1495 61.0223L68.1543 62.7516L71.1494 61.0112L68.1446 59.2875L67.1495 61.0223ZM61.0446 64.5696L60.0398 62.8403L60.0398 62.8403L61.0446 64.5696ZM59.5861 70.0433L61.3182 69.0433L59.5861 70.0433ZM65.0446 71.4978L64.0398 69.7685L64.0398 69.7685L65.0446 71.4978ZM71.1687 67.9394L73.1687 67.9338L73.159 64.4697L70.1639 66.2101L71.1687 67.9394ZM75.1994 76.9999C74.0927 76.9999 73.1914 76.1011 73.1883 74.9943L69.1883 75.0054C69.1975 78.317 71.8879 80.9999 75.1994 80.9999V76.9999ZM77.1883 75.0054C77.1914 76.1078 76.3018 76.9999 75.1994 76.9999V80.9999C78.5153 80.9999 81.1975 78.3102 81.1883 74.9943L77.1883 75.0054ZM77.1686 67.9227L77.1883 75.0054L81.1883 74.9943L81.1686 67.9116L77.1686 67.9227ZM78.1734 69.652L84.2978 73.1652L86.2882 69.6956L80.1638 66.1823L78.1734 69.652ZM84.2978 73.1652C87.1703 74.813 90.8389 73.8245 92.4947 70.9567L89.0306 68.9567C88.4772 69.9151 87.2482 70.2463 86.2882 69.6956L84.2978 73.1652ZM92.4947 70.9567C94.1526 68.085 93.1644 64.4173 90.2882 62.7674L88.2978 66.237C89.254 66.7856 89.5818 68.002 89.0306 68.9567L92.4947 70.9567ZM90.2882 62.7674L84.1445 59.2431L82.1542 62.7127L88.2978 66.237L90.2882 62.7674ZM88.2496 55.7012L82.1445 59.2486L84.1541 62.7071L90.2592 59.1597L88.2496 55.7012ZM88.9809 52.9568C89.5342 53.9152 89.2065 55.1452 88.2496 55.7012L90.2592 59.1597C93.1224 57.496 94.1007 53.8246 92.445 50.9568L88.9809 52.9568ZM86.2592 52.2315C87.2123 51.6777 88.4297 52.0021 88.9809 52.9568L92.445 50.9568C90.787 48.0851 87.1166 47.1071 84.2496 48.773L86.2592 52.2315ZM80.1349 55.7901L86.2592 52.2315L84.2496 48.773L78.1253 52.3316L80.1349 55.7901ZM77.1105 47.0055L77.1301 54.0664L81.1301 54.0553L81.1105 46.9944L77.1105 47.0055ZM75.0994 45C76.2061 45 77.1074 45.8988 77.1105 47.0055L81.1105 46.9944C81.1013 43.6829 78.4109 41 75.0994 41V45ZM73.1105 46.9944C73.1074 45.892 73.997 45 75.0994 45V41C71.7835 41 69.1013 43.6897 69.1105 47.0055L73.1105 46.9944ZM73.1302 54.0775L73.1105 46.9944L69.1105 47.0055L69.1302 54.0886L73.1302 54.0775ZM72.1254 52.3482L66.0007 48.8348L64.0103 52.3044L70.135 55.8179L72.1254 52.3482ZM66.0007 48.8348C63.1282 47.187 59.4595 48.1755 57.8038 51.0433L61.2679 53.0433C61.8212 52.0849 63.0503 51.7537 64.0103 52.3044L66.0007 48.8348ZM57.8038 51.0433C56.1458 53.915 57.1341 57.5827 60.0103 59.2326L62.0007 55.763C61.0444 55.2144 60.7167 53.998 61.2679 53.0433L57.8038 51.0433ZM60.0103 59.2326L66.1543 62.7571L68.1446 59.2875L62.0007 55.763L60.0103 59.2326ZM62.0495 66.2989L68.1543 62.7516L66.1447 59.2931L60.0398 62.8403L62.0495 66.2989ZM61.3182 69.0433C60.7648 68.0848 61.0925 66.8549 62.0495 66.2989L60.0398 62.8403C57.1766 64.5041 56.1983 68.1754 57.8541 71.0433L61.3182 69.0433ZM64.0398 69.7685C63.0867 70.3224 61.8694 69.998 61.3182 69.0433L57.8541 71.0433C59.512 73.9149 63.1824 74.893 66.0495 73.2271L64.0398 69.7685ZM70.1639 66.2101L64.0398 69.7685L66.0495 73.2271L72.1735 69.6686L70.1639 66.2101ZM73.1883 74.9943L73.1687 67.9338L69.1687 67.9449L69.1883 75.0054L73.1883 74.9943Z" fill="black" mask="url(#path-5-inside-3_97_668)"/>
</svg>
