<svg width="48" height="48" viewBox="0 0 48 48" fill="none" xmlns="http://www.w3.org/2000/svg">
<path d="M46.5 24C46.5 36.4264 36.4264 46.5 24 46.5C11.5736 46.5 1.5 36.4264 1.5 24C1.5 11.5736 11.5736 1.5 24 1.5C36.4264 1.5 46.5 11.5736 46.5 24Z" fill="#FFBB00" stroke="black" stroke-width="3"/>
<mask id="path-2-inside-1_73_364" fill="white">
<path fill-rule="evenodd" clip-rule="evenodd" d="M27.8732 48L12.0896 48C5.41268 48 0 42.6274 0 36C0 29.3726 5.41268 24 12.0896 24C17.6687 24 22.3652 27.7512 23.7586 32.8513C24.9655 32.1408 26.3718 31.7333 27.8732 31.7333C32.3615 31.7333 36 35.3748 36 39.8667C36 44.3362 32.3977 47.9636 27.9403 47.9997V48L27.8732 48Z"/>
</mask>
<path fill-rule="evenodd" clip-rule="evenodd" d="M27.8732 48L12.0896 48C5.41268 48 0 42.6274 0 36C0 29.3726 5.41268 24 12.0896 24C17.6687 24 22.3652 27.7512 23.7586 32.8513C24.9655 32.1408 26.3718 31.7333 27.8732 31.7333C32.3615 31.7333 36 35.3748 36 39.8667C36 44.3362 32.3977 47.9636 27.9403 47.9997V48L27.8732 48Z" fill="white"/>
<path d="M12.0896 48L12.0896 51L12.0896 51L12.0896 48ZM27.8732 48L27.8732 45L27.8732 45L27.8732 48ZM23.7586 32.8513L20.8647 33.642L21.899 37.4273L25.2806 35.4365L23.7586 32.8513ZM27.9403 47.9997L27.916 44.9998L24.9403 45.0239V47.9997H27.9403ZM27.9403 48L27.9402 51L30.9403 51.0001V48H27.9403ZM12.0896 51L27.8732 51L27.8732 45L12.0896 45L12.0896 51ZM12.0896 45C7.04846 45 3 40.9496 3 36H-3C-3 44.3053 3.77689 51 12.0896 51V45ZM3 36C3 31.0504 7.04846 27 12.0896 27V21C3.77689 21 -3 27.6947 -3 36H3ZM12.0896 27C16.2954 27 19.8221 29.8261 20.8647 33.642L26.6526 32.0606C24.9082 25.6763 19.042 21 12.0896 21V27ZM25.2806 35.4365C26.0389 34.9901 26.9216 34.7333 27.8732 34.7333V28.7333C25.822 28.7333 23.892 29.2915 22.2367 30.266L25.2806 35.4365ZM27.8732 34.7333C30.7024 34.7333 33 37.0293 33 39.8667H39C39 33.7202 34.0206 28.7333 27.8732 28.7333V34.7333ZM33 39.8667C33 42.6897 30.7252 44.9771 27.916 44.9998L27.9646 50.9996C34.0702 50.9502 39 45.9826 39 39.8667H33ZM30.9403 48V47.9997H24.9403V48H30.9403ZM27.8731 51L27.9402 51L27.9404 45L27.8732 45L27.8731 51Z" fill="black" mask="url(#path-2-inside-1_73_364)"/>
</svg>
