<svg width="96" height="96" viewBox="0 0 96 96" fill="none" xmlns="http://www.w3.org/2000/svg">
<path d="M94 48C94 73.4051 73.4051 94 48 94C22.5949 94 2 73.4051 2 48C2 22.5949 22.5949 2 48 2C73.4051 2 94 22.5949 94 48Z" fill="#FFBB00" stroke="black" stroke-width="4"/>
<mask id="path-2-inside-1_73_363" fill="white">
<path fill-rule="evenodd" clip-rule="evenodd" d="M55.7463 96L24.1791 96C10.8254 96 0 85.2548 0 72C0 58.7452 10.8254 48 24.1791 48C35.3374 48 44.7303 55.5024 47.5173 65.7025C49.9309 64.2816 52.7435 63.4667 55.7463 63.4667C64.723 63.4667 72 70.7495 72 79.7333C72 88.6723 64.7954 95.9272 55.8806 95.9994V96L55.7463 96Z"/>
</mask>
<path fill-rule="evenodd" clip-rule="evenodd" d="M55.7463 96L24.1791 96C10.8254 96 0 85.2548 0 72C0 58.7452 10.8254 48 24.1791 48C35.3374 48 44.7303 55.5024 47.5173 65.7025C49.9309 64.2816 52.7435 63.4667 55.7463 63.4667C64.723 63.4667 72 70.7495 72 79.7333C72 88.6723 64.7954 95.9272 55.8806 95.9994V96L55.7463 96Z" fill="white"/>
<path d="M24.1791 96L24.1791 100L24.1791 100L24.1791 96ZM55.7463 96L55.7464 92L55.7463 92L55.7463 96ZM47.5173 65.7025L43.6587 66.7568L45.0377 71.8039L49.5465 69.1495L47.5173 65.7025ZM55.8806 95.9994L55.8482 91.9996L51.8806 92.0317V95.9994H55.8806ZM55.8806 96L55.8805 100L59.8806 100V96H55.8806ZM24.1791 100L55.7463 100L55.7463 92L24.1791 92L24.1791 100ZM24.1791 92C13.0064 92 4 83.0177 4 72H-4C-4 87.4919 8.64431 100 24.1791 100V92ZM4 72C4 60.9823 13.0064 52 24.1791 52V44C8.64431 44 -4 56.508 -4 72H4ZM24.1791 52C33.5063 52 41.3396 58.2689 43.6587 66.7568L51.3758 64.6482C48.1211 52.7359 37.1685 44 24.1791 44V52ZM49.5465 69.1495C51.3622 68.0807 53.4766 67.4667 55.7463 67.4667V59.4667C52.0105 59.4667 48.4997 60.4825 45.488 62.2555L49.5465 69.1495ZM55.7463 67.4667C62.5108 67.4667 68 72.9556 68 79.7333H76C76 68.5434 66.9351 59.4667 55.7463 59.4667V67.4667ZM68 79.7333C68 86.477 62.5654 91.9452 55.8482 91.9996L55.913 99.9993C67.0254 99.9093 76 90.8676 76 79.7333H68ZM59.8806 96V95.9994H51.8806V96H59.8806ZM55.7462 100L55.8805 100L55.8807 92L55.7464 92L55.7462 100Z" fill="black" mask="url(#path-2-inside-1_73_363)"/>
</svg>
