<svg width="54" height="48" viewBox="0 0 54 48" fill="none" xmlns="http://www.w3.org/2000/svg">
<path d="M14.4614 19.1901C18.8655 20.8125 23.7343 18.5164 25.3362 14.0615C26.9382 9.60661 24.6666 4.67998 20.2626 3.05755C15.8586 1.43511 10.9898 3.73126 9.38786 8.18614C7.7859 12.641 10.0574 17.5676 14.4614 19.1901Z" fill="#B9E6FF"/>
<path d="M24.3979 13.7158C22.98 17.6587 18.678 19.6778 14.7998 18.2491C10.9217 16.8204 8.90837 12.4747 10.3262 8.53183C11.744 4.58896 16.0461 2.56985 19.9242 3.99855C23.8024 5.42725 25.8157 9.77293 24.3979 13.7158Z" fill="black" fill-opacity="0.2" stroke="black" stroke-width="2"/>
<path d="M24.8722 23.0253C27.8327 24.1159 31.1128 22.5524 32.1986 19.5329C33.2844 16.5135 31.7646 13.1817 28.8041 12.091C25.8437 11.0004 22.5635 12.564 21.4778 15.5834C20.392 18.6028 21.9118 21.9347 24.8722 23.0253Z" fill="#B9E6FF"/>
<path d="M24.8722 23.0253C27.8327 24.1159 31.1128 22.5524 32.1986 19.5329C33.2844 16.5135 31.7646 13.1817 28.8041 12.091C25.8437 11.0004 22.5635 12.564 21.4778 15.5834C20.392 18.6028 21.9118 21.9347 24.8722 23.0253Z" fill="black" fill-opacity="0.2"/>
<path d="M26.6246 18.2915L16.1696 14.4399L14.4614 19.1901L24.9165 23.0417L26.6246 18.2915Z" fill="#B9E6FF"/>
<path d="M26.6246 18.2915L16.1696 14.4399L14.4614 19.1901L24.9165 23.0417L26.6246 18.2915Z" fill="black" fill-opacity="0.2"/>
<path d="M17.864 35.8949C18.0552 35.5598 17.9417 35.1312 17.6106 34.9377C17.2795 34.7442 16.8561 34.859 16.6649 35.1942L10.1745 46.5726C9.98333 46.9078 10.0968 47.3363 10.4279 47.5298C10.759 47.7233 11.1824 47.6085 11.3736 47.2734L17.864 35.8949Z" fill="black"/>
<path d="M23.353 35.8949C23.5441 35.5598 23.4307 35.1312 23.0996 34.9377C22.7684 34.7442 22.345 34.859 22.1538 35.1942L15.6635 46.5726C15.4723 46.9078 15.5857 47.3363 15.9169 47.5298C16.248 47.7233 16.6714 47.6085 16.8626 47.2734L23.353 35.8949Z" fill="black"/>
<path d="M23.353 35.8949C23.5441 35.5598 23.4307 35.1312 23.0996 34.9377C22.7684 34.7442 22.345 34.859 22.1538 35.1942L15.6635 46.5726C15.4723 46.9078 15.5857 47.3363 15.9169 47.5298C16.248 47.7233 16.6714 47.6085 16.8626 47.2734L23.353 35.8949Z" fill="white" fill-opacity="0.2"/>
<path d="M28.8914 35.8949C29.0826 35.5598 28.9691 35.1312 28.638 34.9377C28.3069 34.7442 27.8835 34.859 27.6923 35.1942L21.2019 46.5726C21.0107 46.9078 21.1242 47.3363 21.4553 47.5298C21.7864 47.7233 22.2098 47.6085 22.401 47.2734L28.8914 35.8949Z" fill="black"/>
<path d="M34.4299 35.8949C34.621 35.5598 34.5076 35.1312 34.1765 34.9377C33.8453 34.7442 33.4219 34.859 33.2308 35.1942L26.7404 46.5726C26.5492 46.9078 26.6626 47.3363 26.9938 47.5298C27.3249 47.7233 27.7483 47.6085 27.9395 47.2734L34.4299 35.8949Z" fill="black"/>
<path d="M34.4299 35.8949C34.621 35.5598 34.5076 35.1312 34.1765 34.9377C33.8453 34.7442 33.4219 34.859 33.2308 35.1942L26.7404 46.5726C26.5492 46.9078 26.6626 47.3363 26.9938 47.5298C27.3249 47.7233 27.7483 47.6085 27.9395 47.2734L34.4299 35.8949Z" fill="white" fill-opacity="0.2"/>
<path d="M39.9683 35.8949C40.1595 35.5598 40.046 35.1312 39.7149 34.9377C39.3838 34.7442 38.9604 34.859 38.7692 35.1942L32.2788 46.5726C32.0876 46.9078 32.2011 47.3363 32.5322 47.5298C32.8633 47.7233 33.2868 47.6085 33.4779 47.2734L39.9683 35.8949Z" fill="black"/>
<path d="M45.5068 35.8949C45.698 35.5598 45.5846 35.1312 45.2534 34.9377C44.9223 34.7442 44.4989 34.859 44.3077 35.1942L37.8173 46.5726C37.6262 46.9078 37.7396 47.3363 38.0707 47.5298C38.4019 47.7233 38.8253 47.6085 39.0164 47.2734L45.5068 35.8949Z" fill="black"/>
<path d="M45.5068 35.8949C45.698 35.5598 45.5846 35.1312 45.2534 34.9377C44.9223 34.7442 44.4989 34.859 44.3077 35.1942L37.8173 46.5726C37.6262 46.9078 37.7396 47.3363 38.0707 47.5298C38.4019 47.7233 38.8253 47.6085 39.0164 47.2734L45.5068 35.8949Z" fill="white" fill-opacity="0.2"/>
<mask id="path-17-inside-1_1_67" fill="white">
<path fill-rule="evenodd" clip-rule="evenodd" d="M43.5162 38.6936H23.2057C23.2012 38.6936 23.1968 38.6936 23.1923 38.6936C14.5894 38.6936 7.61536 31.6347 7.61536 22.9272C7.61536 14.2196 14.5894 7.16077 23.1923 7.16077C30.3808 7.16077 36.432 12.0894 38.2274 18.7901C39.7824 17.8567 41.5943 17.3214 43.5288 17.3214C49.3119 17.3214 54 22.1057 54 28.0075C54 33.8798 49.3586 38.6458 43.6154 38.6933V38.6936H43.5415C43.5373 38.6936 43.533 38.6936 43.5288 38.6936C43.5246 38.6936 43.5204 38.6936 43.5162 38.6936Z"/>
</mask>
<path fill-rule="evenodd" clip-rule="evenodd" d="M43.5162 38.6936H23.2057C23.2012 38.6936 23.1968 38.6936 23.1923 38.6936C14.5894 38.6936 7.61536 31.6347 7.61536 22.9272C7.61536 14.2196 14.5894 7.16077 23.1923 7.16077C30.3808 7.16077 36.432 12.0894 38.2274 18.7901C39.7824 17.8567 41.5943 17.3214 43.5288 17.3214C49.3119 17.3214 54 22.1057 54 28.0075C54 33.8798 49.3586 38.6458 43.6154 38.6933V38.6936H43.5415C43.5373 38.6936 43.533 38.6936 43.5288 38.6936C43.5246 38.6936 43.5204 38.6936 43.5162 38.6936Z" fill="#FFD500"/>
<path d="M23.2057 38.6936L23.2057 36.6936L23.204 36.6936L23.2057 38.6936ZM43.5162 38.6936L43.5189 36.6936H43.5162V38.6936ZM38.2274 18.7901L36.2956 19.3078L36.9822 21.8704L39.2568 20.5049L38.2274 18.7901ZM43.6154 38.6933L43.5988 36.6933L41.6154 36.7097V38.6933H43.6154ZM43.6154 38.6936V40.6936H45.6154V38.6936H43.6154ZM43.5415 38.6936L43.5415 36.6936L43.5388 36.6936L43.5415 38.6936ZM23.2057 40.6936H43.5162V36.6936H23.2057V40.6936ZM23.204 36.6936C23.2001 36.6936 23.1962 36.6936 23.1923 36.6936V40.6936C23.1973 40.6936 23.2024 40.6936 23.2074 40.6936L23.204 36.6936ZM23.1923 36.6936C15.7167 36.6936 9.61536 30.553 9.61536 22.9272H5.61536C5.61536 32.7164 13.4621 40.6936 23.1923 40.6936V36.6936ZM9.61536 22.9272C9.61536 15.3013 15.7167 9.16077 23.1923 9.16077V5.16077C13.4621 5.16077 5.61536 13.1379 5.61536 22.9272H9.61536ZM23.1923 9.16077C29.4383 9.16077 34.7246 13.4448 36.2956 19.3078L40.1593 18.2725C38.1394 10.7339 31.3233 5.16077 23.1923 5.16077V9.16077ZM39.2568 20.5049C40.5111 19.7519 41.9688 19.3214 43.5288 19.3214V15.3214C41.2199 15.3214 39.0536 15.9615 37.1981 17.0754L39.2568 20.5049ZM43.5288 19.3214C48.1692 19.3214 52 23.1718 52 28.0075H56C56 21.0396 50.4546 15.3214 43.5288 15.3214V19.3214ZM52 28.0075C52 32.8188 48.2072 36.6553 43.5988 36.6933L43.6319 40.6932C50.5099 40.6364 56 34.9408 56 28.0075H52ZM45.6154 38.6936V38.6933H41.6154V38.6936H45.6154ZM43.5415 40.6936H43.6154V36.6936H43.5415V40.6936ZM43.5388 36.6936C43.5357 36.6936 43.5325 36.6936 43.5288 36.6936V40.6936C43.5336 40.6936 43.5388 40.6936 43.5442 40.6936L43.5388 36.6936ZM43.5288 36.6936C43.5252 36.6936 43.5219 36.6936 43.5189 36.6936L43.5135 40.6936C43.5189 40.6936 43.524 40.6936 43.5288 40.6936V36.6936Z" fill="black" mask="url(#path-17-inside-1_1_67)"/>
<path fill-rule="evenodd" clip-rule="evenodd" d="M33.0577 10.7253C30.3714 8.49757 26.9361 7.16077 23.1923 7.16077C20.3551 7.16077 17.695 7.92854 15.4039 9.27002V36.5844C17.695 37.9258 20.3551 38.6936 23.1923 38.6936L23.2057 38.6936H33.0577V10.7253Z" fill="black"/>
<path d="M45.7789 27.6571C47.0693 27.6571 48.1154 26.5983 48.1154 25.2921C48.1154 23.986 47.0693 22.9272 45.7789 22.9272C44.4884 22.9272 43.4423 23.986 43.4423 25.2921C43.4423 26.5983 44.4884 27.6571 45.7789 27.6571Z" fill="black"/>
<mask id="path-21-inside-2_1_67" fill="white">
<path fill-rule="evenodd" clip-rule="evenodd" d="M9.43852 25.1709C9.43098 25.1709 9.42344 25.171 9.4159 25.171C4.21564 25.171 0 20.9356 0 15.7111C0 10.4866 4.21564 6.25125 9.4159 6.25125C13.7612 6.25125 17.419 9.2084 18.5043 13.2288C19.4442 12.6688 20.5395 12.3476 21.7089 12.3476C25.2046 12.3476 28.0385 15.2182 28.0385 18.7592C28.0385 22.2826 25.2328 25.1422 21.7612 25.1707V25.1709H9.43852Z"/>
</mask>
<path fill-rule="evenodd" clip-rule="evenodd" d="M9.43852 25.1709C9.43098 25.1709 9.42344 25.171 9.4159 25.171C4.21564 25.171 0 20.9356 0 15.7111C0 10.4866 4.21564 6.25125 9.4159 6.25125C13.7612 6.25125 17.419 9.2084 18.5043 13.2288C19.4442 12.6688 20.5395 12.3476 21.7089 12.3476C25.2046 12.3476 28.0385 15.2182 28.0385 18.7592C28.0385 22.2826 25.2328 25.1422 21.7612 25.1707V25.1709H9.43852Z" fill="#B9E6FF"/>
<path d="M9.43852 25.1709L9.43852 23.1709L9.43396 23.1709L9.43852 25.1709ZM18.5043 13.2288L16.5734 13.7501L17.2612 16.2977L19.5281 14.947L18.5043 13.2288ZM21.7612 25.1707L21.7448 23.1708L19.7612 23.187V25.1707H21.7612ZM21.7612 25.1709V27.1709H23.7612V25.1709H21.7612ZM9.43396 23.1709C9.42777 23.171 9.42176 23.171 9.4159 23.171V27.171C9.42513 27.171 9.43419 27.1709 9.44307 27.1709L9.43396 23.1709ZM9.4159 23.171C5.32898 23.171 2 19.8399 2 15.7111H-2C-2 22.0314 3.1023 27.171 9.4159 27.171V23.171ZM2 15.7111C2 11.5824 5.32898 8.25125 9.4159 8.25125V4.25125C3.1023 4.25125 -2 9.39079 -2 15.7111H2ZM9.4159 8.25125C12.829 8.25125 15.7162 10.5745 16.5734 13.7501L20.4352 12.7076C19.1218 7.84229 14.6934 4.25125 9.4159 4.25125V8.25125ZM19.5281 14.947C20.168 14.5657 20.911 14.3476 21.7089 14.3476V10.3476C20.1681 10.3476 18.7205 10.7719 17.4806 11.5107L19.5281 14.947ZM21.7089 14.3476C24.0758 14.3476 26.0385 16.2984 26.0385 18.7592H30.0385C30.0385 14.138 26.3334 10.3476 21.7089 10.3476V14.3476ZM26.0385 18.7592C26.0385 21.2076 24.0953 23.1515 21.7448 23.1708L21.7776 27.1706C26.3704 27.133 30.0385 23.3576 30.0385 18.7592H26.0385ZM23.7612 25.1709V25.1707H19.7612V25.1709H23.7612ZM9.43852 27.1709H21.7612V23.1709H9.43852V27.1709Z" fill="black" mask="url(#path-21-inside-2_1_67)"/>
</svg>
