<svg width="96" height="96" viewBox="0 0 96 96" fill="none" xmlns="http://www.w3.org/2000/svg">
<g clip-path="url(#clip0_149_1618)">
<mask id="path-1-inside-1_149_1618" fill="white">
<path fill-rule="evenodd" clip-rule="evenodd" d="M54.005 71.4669C55.1069 69.5522 54.4477 67.1008 52.5361 65.9936C50.6244 64.8864 48.1787 65.5393 47.0768 67.454C45.9749 69.3688 46.6341 71.8201 48.5457 72.9273C50.4573 74.0346 52.9031 73.3816 54.005 71.4669ZM32.468 65.9952C34.3797 67.1024 35.0361 69.5522 33.9342 71.4669C32.8323 73.3816 30.3893 74.0362 28.4777 72.929C26.566 71.8217 25.9096 69.372 27.0115 67.4573C28.1135 65.5426 30.5564 64.888 32.468 65.9952ZM23.4085 81.7372C25.3202 82.8444 25.9766 85.2942 24.8747 87.2089C23.7727 89.1236 21.3298 89.7782 19.4181 88.6709C17.5065 87.5637 16.8501 85.114 17.952 83.1993C19.0539 81.2846 21.4969 80.63 23.4085 81.7372ZM44.5385 79.8901C46.4501 80.9973 47.1093 83.4487 46.0074 85.3634C44.9055 87.2781 42.4598 87.9311 40.5481 86.8238C38.6365 85.7166 37.9773 83.2652 39.0792 81.3505C40.1811 79.4358 42.6269 78.7829 44.5385 79.8901Z"/>
</mask>
<path fill-rule="evenodd" clip-rule="evenodd" d="M54.005 71.4669C55.1069 69.5522 54.4477 67.1008 52.5361 65.9936C50.6244 64.8864 48.1787 65.5393 47.0768 67.454C45.9749 69.3688 46.6341 71.8201 48.5457 72.9273C50.4573 74.0346 52.9031 73.3816 54.005 71.4669ZM32.468 65.9952C34.3797 67.1024 35.0361 69.5522 33.9342 71.4669C32.8323 73.3816 30.3893 74.0362 28.4777 72.929C26.566 71.8217 25.9096 69.372 27.0115 67.4573C28.1135 65.5426 30.5564 64.888 32.468 65.9952ZM23.4085 81.7372C25.3202 82.8444 25.9766 85.2942 24.8747 87.2089C23.7727 89.1236 21.3298 89.7782 19.4181 88.6709C17.5065 87.5637 16.8501 85.114 17.952 83.1993C19.0539 81.2846 21.4969 80.63 23.4085 81.7372ZM44.5385 79.8901C46.4501 80.9973 47.1093 83.4487 46.0074 85.3634C44.9055 87.2781 42.4598 87.9311 40.5481 86.8238C38.6365 85.7166 37.9773 83.2652 39.0792 81.3505C40.1811 79.4358 42.6269 78.7829 44.5385 79.8901Z" fill="#148FCC"/>
<path fill-rule="evenodd" clip-rule="evenodd" d="M54.005 71.4669C55.1069 69.5522 54.4477 67.1008 52.5361 65.9936C50.6244 64.8864 48.1787 65.5393 47.0768 67.454C45.9749 69.3688 46.6341 71.8201 48.5457 72.9273C50.4573 74.0346 52.9031 73.3816 54.005 71.4669ZM32.468 65.9952C34.3797 67.1024 35.0361 69.5522 33.9342 71.4669C32.8323 73.3816 30.3893 74.0362 28.4777 72.929C26.566 71.8217 25.9096 69.372 27.0115 67.4573C28.1135 65.5426 30.5564 64.888 32.468 65.9952ZM23.4085 81.7372C25.3202 82.8444 25.9766 85.2942 24.8747 87.2089C23.7727 89.1236 21.3298 89.7782 19.4181 88.6709C17.5065 87.5637 16.8501 85.114 17.952 83.1993C19.0539 81.2846 21.4969 80.63 23.4085 81.7372ZM44.5385 79.8901C46.4501 80.9973 47.1093 83.4487 46.0074 85.3634C44.9055 87.2781 42.4598 87.9311 40.5481 86.8238C38.6365 85.7166 37.9773 83.2652 39.0792 81.3505C40.1811 79.4358 42.6269 78.7829 44.5385 79.8901Z" fill="white" fill-opacity="0.5"/>
<path d="M52.5361 65.9936L53.5385 64.2629L53.5385 64.2629L52.5361 65.9936ZM54.005 71.4669L55.7384 72.4645L55.7384 72.4645L54.005 71.4669ZM47.0768 67.454L45.3433 66.4565L47.0768 67.454ZM33.9342 71.4669L32.2007 70.4693L32.2007 70.4693L33.9342 71.4669ZM32.468 65.9952L33.4705 64.2646L33.4705 64.2646L32.468 65.9952ZM28.4777 72.929L27.4753 74.6596L27.4753 74.6596L28.4777 72.929ZM27.0115 67.4573L25.2781 66.4597L25.2781 66.4597L27.0115 67.4573ZM24.8747 87.2089L26.6081 88.2065L26.6081 88.2065L24.8747 87.2089ZM23.4085 81.7372L24.4109 80.0065L24.4109 80.0065L23.4085 81.7372ZM19.4181 88.6709L20.4206 86.9403L20.4206 86.9403L19.4181 88.6709ZM17.952 83.1993L19.6855 84.1969L19.6855 84.1969L17.952 83.1993ZM46.0074 85.3634L47.7409 86.361L47.7409 86.361L46.0074 85.3634ZM44.5385 79.8901L43.5361 81.6207L43.5361 81.6207L44.5385 79.8901ZM40.5481 86.8238L39.5457 88.5545L39.5457 88.5545L40.5481 86.8238ZM51.5337 67.7243C52.4932 68.28 52.8225 69.5119 52.2715 70.4693L55.7384 72.4645C57.3912 69.5925 56.4022 65.9217 53.5385 64.2629L51.5337 67.7243ZM48.8102 68.4516C49.359 67.498 50.5779 67.1707 51.5337 67.7243L53.5385 64.2629C50.671 62.6021 46.9983 63.5807 45.3433 66.4565L48.8102 68.4516ZM49.5481 71.1967C48.5886 70.6409 48.2592 69.4091 48.8102 68.4516L45.3433 66.4565C43.6905 69.3284 44.6795 72.9993 47.5433 74.658L49.5481 71.1967ZM52.2715 70.4693C51.7227 71.423 50.5038 71.7503 49.5481 71.1967L47.5433 74.658C50.4108 76.3189 54.0834 75.3403 55.7384 72.4645L52.2715 70.4693ZM35.6676 72.4645C37.3194 69.5943 36.336 65.9243 33.4705 64.2646L31.4656 67.7259C32.4233 68.2806 32.7528 69.5101 32.2007 70.4693L35.6676 72.4645ZM27.4753 74.6596C30.3446 76.3216 34.0137 75.3384 35.6676 72.4645L32.2007 70.4693C31.6509 71.4248 30.434 71.7508 29.4801 71.1983L27.4753 74.6596ZM25.2781 66.4597C23.6263 69.3299 24.6097 72.9999 27.4753 74.6596L29.4801 71.1983C28.5224 70.6436 28.1929 69.4141 28.745 68.4549L25.2781 66.4597ZM33.4705 64.2646C30.6011 62.6026 26.9321 63.5857 25.2781 66.4597L28.745 68.4549C29.2949 67.4994 30.5117 67.1733 31.4656 67.7259L33.4705 64.2646ZM26.6081 88.2065C28.2599 85.3363 27.2765 81.6663 24.4109 80.0065L22.4061 83.4679C23.3638 84.0226 23.6933 85.2521 23.1412 86.2113L26.6081 88.2065ZM18.4157 90.4016C21.2851 92.0635 24.9541 91.0804 26.6081 88.2065L23.1412 86.2113C22.5913 87.1668 21.3745 87.4928 20.4206 86.9403L18.4157 90.4016ZM16.2186 82.2017C14.5668 85.0718 15.5502 88.7419 18.4157 90.4016L20.4206 86.9403C19.4629 86.3856 19.1334 85.1561 19.6855 84.1969L16.2186 82.2017ZM24.4109 80.0065C21.5416 78.3446 17.8725 79.3277 16.2186 82.2017L19.6855 84.1969C20.2353 83.2414 21.4522 82.9153 22.4061 83.4679L24.4109 80.0065ZM47.7409 86.361C49.3937 83.489 48.4047 79.8181 45.5409 78.1594L43.5361 81.6207C44.4956 82.1765 44.825 83.4084 44.274 84.3658L47.7409 86.361ZM39.5457 88.5545C42.4132 90.2154 46.0859 89.2367 47.7409 86.361L44.274 84.3658C43.7252 85.3194 42.5063 85.6468 41.5505 85.0932L39.5457 88.5545ZM37.3458 80.3529C35.6929 83.2249 36.682 86.8958 39.5457 88.5545L41.5505 85.0932C40.591 84.5374 40.2617 83.3056 40.8127 82.3481L37.3458 80.3529ZM45.5409 78.1594C42.6734 76.4986 39.0008 77.4772 37.3458 80.3529L40.8127 82.3481C41.3615 81.3945 42.5803 81.0672 43.5361 81.6207L45.5409 78.1594Z" fill="black" mask="url(#path-1-inside-1_149_1618)"/>
<mask id="path-3-inside-2_149_1618" fill="white">
<path fill-rule="evenodd" clip-rule="evenodd" d="M74.3284 64H32.2388C14.4338 64 0 49.6731 0 32C0 14.3269 14.4338 0 32.2388 0C47.1165 0 59.6405 10.0032 63.3564 23.6034C66.5746 21.7088 70.3247 20.6222 74.3284 20.6222C86.2973 20.6222 96 30.3327 96 42.3111C96 54.2298 86.3939 63.903 74.5075 63.9993V64L74.3284 64Z"/>
</mask>
<path fill-rule="evenodd" clip-rule="evenodd" d="M74.3284 64H32.2388C14.4338 64 0 49.6731 0 32C0 14.3269 14.4338 0 32.2388 0C47.1165 0 59.6405 10.0032 63.3564 23.6034C66.5746 21.7088 70.3247 20.6222 74.3284 20.6222C86.2973 20.6222 96 30.3327 96 42.3111C96 54.2298 86.3939 63.903 74.5075 63.9993V64L74.3284 64Z" fill="#A2A2C1"/>
<path fill-rule="evenodd" clip-rule="evenodd" d="M74.3284 64H32.2388C14.4338 64 0 49.6731 0 32C0 14.3269 14.4338 0 32.2388 0C47.1165 0 59.6405 10.0032 63.3564 23.6034C66.5746 21.7088 70.3247 20.6222 74.3284 20.6222C86.2973 20.6222 96 30.3327 96 42.3111C96 54.2298 86.3939 63.903 74.5075 63.9993V64L74.3284 64Z" fill="black" fill-opacity="0.2"/>
<path d="M74.3284 64L74.3286 60H74.3284V64ZM63.3564 23.6034L59.4978 24.6576L60.8768 29.7048L65.3856 27.0504L63.3564 23.6034ZM74.5075 63.9993L74.4751 59.9994L70.5075 60.0316V63.9993H74.5075ZM74.5075 64L74.5073 68L78.5075 68.0002V64H74.5075ZM32.2388 68H74.3284V60H32.2388V68ZM32.2388 60C16.6149 60 4 47.436 4 32H-4C-4 51.9102 12.2528 68 32.2388 68V60ZM4 32C4 16.564 16.6149 4 32.2388 4V-4C12.2528 -4 -4 12.0898 -4 32H4ZM32.2388 4C45.2855 4 56.2497 12.7698 59.4978 24.6576L67.2149 22.5491C63.0312 7.23674 48.9476 -4 32.2388 -4V4ZM65.3856 27.0504C68.0058 25.5079 71.0578 24.6222 74.3284 24.6222V16.6222C69.5916 16.6222 65.1433 17.9097 61.3271 20.1563L65.3856 27.0504ZM74.3284 24.6222C84.0852 24.6222 92 32.5388 92 42.3111H100C100 28.1265 88.5095 16.6222 74.3284 16.6222V24.6222ZM92 42.3111C92 52.0345 84.1639 59.9209 74.4751 59.9994L74.5399 67.9992C88.6239 67.8851 100 56.4251 100 42.3111H92ZM78.5075 64V63.9993H70.5075V64H78.5075ZM74.3282 68L74.5073 68L74.5077 60L74.3286 60L74.3282 68Z" fill="black" mask="url(#path-3-inside-2_149_1618)"/>
<mask id="path-5-inside-3_149_1618" fill="white">
<path fill-rule="evenodd" clip-rule="evenodd" d="M70.3934 73.3758H63L67.9289 42.0005H82.7156L75.5961 64.6605H86.5492L66.8336 96.0358L70.3934 73.3758Z"/>
</mask>
<path fill-rule="evenodd" clip-rule="evenodd" d="M70.3934 73.3758H63L67.9289 42.0005H82.7156L75.5961 64.6605H86.5492L66.8336 96.0358L70.3934 73.3758Z" fill="#FFD729"/>
<path d="M63 73.3758L60.0363 72.9102L59.4919 76.3758H63V73.3758ZM70.3934 73.3758L73.357 73.8414L73.9014 70.3758H70.3934V73.3758ZM67.9289 42.0005V39.0005H65.3634L64.9652 41.5349L67.9289 42.0005ZM82.7156 42.0005L85.5777 42.8997L86.8028 39.0005H82.7156V42.0005ZM75.5961 64.6605L72.734 63.7613L71.5089 67.6605H75.5961V64.6605ZM86.5492 64.6605L89.0893 66.2567L91.9775 61.6605H86.5492V64.6605ZM66.8336 96.0358L63.8699 95.5702L69.3737 97.632L66.8336 96.0358ZM63 76.3758H70.3934V70.3758H63V76.3758ZM64.9652 41.5349L60.0363 72.9102L65.9637 73.8414L70.8926 42.4661L64.9652 41.5349ZM82.7156 39.0005H67.9289V45.0005H82.7156V39.0005ZM78.4581 65.5597L85.5777 42.8997L79.8535 41.1013L72.734 63.7613L78.4581 65.5597ZM86.5492 61.6605H75.5961V67.6605H86.5492V61.6605ZM69.3737 97.632L89.0893 66.2567L84.0091 63.0643L64.2935 94.4397L69.3737 97.632ZM67.4297 72.9102L63.8699 95.5702L69.7973 96.5014L73.357 73.8414L67.4297 72.9102Z" fill="black" mask="url(#path-5-inside-3_149_1618)"/>
</g>
<defs>
<clipPath id="clip0_149_1618">
<rect width="96" height="96" fill="white"/>
</clipPath>
</defs>
</svg>
