<svg width="48" height="48" viewBox="0 0 48 48" fill="none" xmlns="http://www.w3.org/2000/svg">
<g clip-path="url(#clip0_149_1661)">
<mask id="path-1-inside-1_149_1661" fill="white">
<path fill-rule="evenodd" clip-rule="evenodd" d="M23.7899 36.0055C24.3407 35.0484 24.0112 33.8229 23.0556 33.2694C22.1 32.716 20.8774 33.0424 20.3265 33.9995C19.7757 34.9567 20.1052 36.1821 21.0608 36.7356C22.0164 37.2891 23.2391 36.9627 23.7899 36.0055ZM13.0237 33.2703C13.9793 33.8238 14.3074 35.0484 13.7566 36.0055C13.2057 36.9627 11.9845 37.2899 11.0289 36.7364C10.0733 36.1829 9.74515 34.9583 10.296 34.0011C10.8468 33.044 12.0681 32.7168 13.0237 33.2703ZM8.4949 41.1397C9.45051 41.6932 9.77865 42.9178 9.22781 43.875C8.67697 44.8321 7.45574 45.1594 6.50012 44.6059C5.54451 44.0524 5.21637 42.8277 5.76721 41.8706C6.31805 40.9134 7.53928 40.5862 8.4949 41.1397ZM19.0576 40.2162C20.0133 40.7697 20.3428 41.9952 19.7919 42.9523C19.2411 43.9095 18.0185 44.2359 17.0629 43.6824C16.1073 43.1289 15.7777 41.9035 16.3286 40.9463C16.8794 39.9892 18.102 39.6627 19.0576 40.2162Z"/>
</mask>
<path fill-rule="evenodd" clip-rule="evenodd" d="M23.7899 36.0055C24.3407 35.0484 24.0112 33.8229 23.0556 33.2694C22.1 32.716 20.8774 33.0424 20.3265 33.9995C19.7757 34.9567 20.1052 36.1821 21.0608 36.7356C22.0164 37.2891 23.2391 36.9627 23.7899 36.0055ZM13.0237 33.2703C13.9793 33.8238 14.3074 35.0484 13.7566 36.0055C13.2057 36.9627 11.9845 37.2899 11.0289 36.7364C10.0733 36.1829 9.74515 34.9583 10.296 34.0011C10.8468 33.044 12.0681 32.7168 13.0237 33.2703ZM8.4949 41.1397C9.45051 41.6932 9.77865 42.9178 9.22781 43.875C8.67697 44.8321 7.45574 45.1594 6.50012 44.6059C5.54451 44.0524 5.21637 42.8277 5.76721 41.8706C6.31805 40.9134 7.53928 40.5862 8.4949 41.1397ZM19.0576 40.2162C20.0133 40.7697 20.3428 41.9952 19.7919 42.9523C19.2411 43.9095 18.0185 44.2359 17.0629 43.6824C16.1073 43.1289 15.7777 41.9035 16.3286 40.9463C16.8794 39.9892 18.102 39.6627 19.0576 40.2162Z" fill="#148FCC"/>
<path fill-rule="evenodd" clip-rule="evenodd" d="M23.7899 36.0055C24.3407 35.0484 24.0112 33.8229 23.0556 33.2694C22.1 32.716 20.8774 33.0424 20.3265 33.9995C19.7757 34.9567 20.1052 36.1821 21.0608 36.7356C22.0164 37.2891 23.2391 36.9627 23.7899 36.0055ZM13.0237 33.2703C13.9793 33.8238 14.3074 35.0484 13.7566 36.0055C13.2057 36.9627 11.9845 37.2899 11.0289 36.7364C10.0733 36.1829 9.74515 34.9583 10.296 34.0011C10.8468 33.044 12.0681 32.7168 13.0237 33.2703ZM8.4949 41.1397C9.45051 41.6932 9.77865 42.9178 9.22781 43.875C8.67697 44.8321 7.45574 45.1594 6.50012 44.6059C5.54451 44.0524 5.21637 42.8277 5.76721 41.8706C6.31805 40.9134 7.53928 40.5862 8.4949 41.1397ZM19.0576 40.2162C20.0133 40.7697 20.3428 41.9952 19.7919 42.9523C19.2411 43.9095 18.0185 44.2359 17.0629 43.6824C16.1073 43.1289 15.7777 41.9035 16.3286 40.9463C16.8794 39.9892 18.102 39.6627 19.0576 40.2162Z" fill="white" fill-opacity="0.5"/>
<path d="M23.0556 33.2694L22.5544 34.1348L22.5544 34.1348L23.0556 33.2694ZM20.3265 33.9995L19.4598 33.5007L19.4598 33.5007L20.3265 33.9995ZM21.0608 36.7356L20.5596 37.6009L20.5596 37.6009L21.0608 36.7356ZM13.7566 36.0055L12.8899 35.5067L12.8899 35.5067L13.7566 36.0055ZM11.0289 36.7364L11.5301 35.8711L11.5301 35.8711L11.0289 36.7364ZM10.296 34.0011L11.1627 34.4999L11.1627 34.4999L10.296 34.0011ZM9.22781 43.875L10.0945 44.3738L10.0945 44.3738L9.22781 43.875ZM8.4949 41.1397L8.9961 40.2744L8.9961 40.2744L8.4949 41.1397ZM6.50012 44.6059L5.99892 45.4712L5.99892 45.4712L6.50012 44.6059ZM19.0576 40.2162L19.5588 39.3509L19.5588 39.3509L19.0576 40.2162ZM17.0629 43.6824L16.5617 44.5477L16.5617 44.5477L17.0629 43.6824ZM16.3286 40.9463L15.4619 40.4475L15.4619 40.4475L16.3286 40.9463ZM22.5544 34.1348C23.0339 34.4125 23.1986 35.0282 22.9232 35.5067L24.6566 36.5043C25.4829 35.0685 24.9885 33.2334 23.5568 32.4041L22.5544 34.1348ZM21.1932 34.4983C21.4675 34.0217 22.0767 33.8581 22.5544 34.1348L23.5568 32.4041C22.1232 31.5738 20.2872 32.063 19.4598 33.5007L21.1932 34.4983ZM21.562 35.8703C21.0825 35.5925 20.9178 34.9768 21.1932 34.4983L19.4598 33.5007C18.6335 34.9365 19.1279 36.7717 20.5596 37.6009L21.562 35.8703ZM22.9232 35.5067C22.6489 35.9834 22.0397 36.1469 21.562 35.8703L20.5596 37.6009C21.9932 38.4313 23.8292 37.942 24.6566 36.5043L22.9232 35.5067ZM14.6233 36.5043C15.4491 35.0694 14.9575 33.2347 13.5249 32.4049L12.5225 34.1356C13.0011 34.4128 13.1658 35.0273 12.8899 35.5067L14.6233 36.5043ZM10.5277 37.6017C11.9622 38.4326 13.7964 37.9411 14.6233 36.5043L12.8899 35.5067C12.615 35.9843 12.0069 36.1472 11.5301 35.8711L10.5277 37.6017ZM9.42927 33.5023C8.60349 34.9372 9.09511 36.772 10.5277 37.6017L11.5301 35.8711C11.0515 35.5938 10.8868 34.9793 11.1627 34.4999L9.42927 33.5023ZM13.5249 32.4049C12.0904 31.5741 10.2561 32.0656 9.42927 33.5023L11.1627 34.4999C11.4375 34.0224 12.0457 33.8594 12.5225 34.1356L13.5249 32.4049ZM10.0945 44.3738C10.9203 42.9389 10.4287 41.1041 8.9961 40.2744L7.99369 42.005C8.47234 42.2823 8.63699 42.8968 8.36109 43.3762L10.0945 44.3738ZM5.99892 45.4712C7.43339 46.302 9.26767 45.8105 10.0945 44.3738L8.36109 43.3762C8.08627 43.8537 7.4781 44.0167 7.00133 43.7405L5.99892 45.4712ZM4.90049 41.3718C4.07472 42.8067 4.56633 44.6414 5.99892 45.4712L7.00133 43.7405C6.52268 43.4633 6.35803 42.8488 6.63393 42.3694L4.90049 41.3718ZM8.9961 40.2744C7.56164 39.4435 5.72736 39.935 4.90049 41.3718L6.63393 42.3694C6.90875 41.8918 7.51692 41.7289 7.99369 42.005L8.9961 40.2744ZM20.6587 43.4511C21.485 42.0153 20.9905 40.1802 19.5588 39.3509L18.5564 41.0816C19.036 41.3593 19.2006 41.975 18.9252 42.4535L20.6587 43.4511ZM16.5617 44.5477C17.9952 45.378 19.8313 44.8888 20.6587 43.4511L18.9252 42.4535C18.6509 42.9301 18.0418 43.0937 17.5641 42.8171L16.5617 44.5477ZM15.4619 40.4475C14.6356 41.8833 15.13 43.7185 16.5617 44.5477L17.5641 42.8171C17.0845 42.5393 16.9199 41.9236 17.1953 41.4451L15.4619 40.4475ZM19.5588 39.3509C18.1253 38.5206 16.2892 39.0098 15.4619 40.4475L17.1953 41.4451C17.4696 40.9685 18.0788 40.8049 18.5564 41.0816L19.5588 39.3509Z" fill="black" mask="url(#path-1-inside-1_149_1661)"/>
<mask id="path-3-inside-2_149_1661" fill="white">
<path fill-rule="evenodd" clip-rule="evenodd" d="M37.2537 31.9996C43.197 31.9515 48 27.1149 48 21.1556C48 15.1663 43.1486 10.3111 37.1642 10.3111C35.1623 10.3111 33.2873 10.8544 31.6782 11.8017C29.8202 5.00162 23.5583 0 16.1194 0C7.2169 0 0 7.16344 0 16C0 24.8366 7.2169 32 16.1194 32L37.2537 32V31.9996Z"/>
</mask>
<path fill-rule="evenodd" clip-rule="evenodd" d="M37.2537 31.9996C43.197 31.9515 48 27.1149 48 21.1556C48 15.1663 43.1486 10.3111 37.1642 10.3111C35.1623 10.3111 33.2873 10.8544 31.6782 11.8017C29.8202 5.00162 23.5583 0 16.1194 0C7.2169 0 0 7.16344 0 16C0 24.8366 7.2169 32 16.1194 32L37.2537 32V31.9996Z" fill="#A2A2C1"/>
<path fill-rule="evenodd" clip-rule="evenodd" d="M37.2537 31.9996C43.197 31.9515 48 27.1149 48 21.1556C48 15.1663 43.1486 10.3111 37.1642 10.3111C35.1623 10.3111 33.2873 10.8544 31.6782 11.8017C29.8202 5.00162 23.5583 0 16.1194 0C7.2169 0 0 7.16344 0 16C0 24.8366 7.2169 32 16.1194 32L37.2537 32V31.9996Z" fill="black" fill-opacity="0.2"/>
<path d="M37.2537 31.9996L37.2213 27.9998L33.2537 28.0319V31.9996H37.2537ZM31.6782 11.8017L27.8196 12.8559L29.1986 17.9031L33.7074 15.2487L31.6782 11.8017ZM16.1194 32L16.1194 28H16.1194V32ZM37.2537 32L37.2537 36L41.2537 36V32H37.2537ZM44 21.1556C44 24.9196 40.9669 27.9694 37.2213 27.9998L37.2861 35.9995C45.427 35.9336 52 29.3102 52 21.1556H44ZM37.1642 14.3111C40.9365 14.3111 44 17.3725 44 21.1556H52C52 12.9602 45.3608 6.31111 37.1642 6.31111V14.3111ZM33.7074 15.2487C34.7185 14.6535 35.8954 14.3111 37.1642 14.3111V6.31111C34.4293 6.31111 31.856 7.05531 29.6489 8.35465L33.7074 15.2487ZM16.1194 4C21.7272 4 26.4295 7.76813 27.8196 12.8559L35.5367 10.7474C33.211 2.23512 25.3893 -4 16.1194 -4V4ZM4 16C4 9.40057 9.39795 4 16.1194 4V-4C5.03585 -4 -4 4.92632 -4 16H4ZM16.1194 28C9.39795 28 4 22.5994 4 16H-4C-4 27.0737 5.03585 36 16.1194 36V28ZM16.1194 36L37.2537 36L37.2537 28L16.1194 28L16.1194 36ZM41.2537 32V31.9996H33.2537V32H41.2537Z" fill="black" mask="url(#path-3-inside-2_149_1661)"/>
<mask id="path-5-inside-3_149_1661" fill="white">
<path fill-rule="evenodd" clip-rule="evenodd" d="M36.697 36.689H33L35.4647 21H42.8587L39.2986 32.3308H44.7756L34.917 48.0198L36.697 36.689Z"/>
</mask>
<path fill-rule="evenodd" clip-rule="evenodd" d="M36.697 36.689H33L35.4647 21H42.8587L39.2986 32.3308H44.7756L34.917 48.0198L36.697 36.689Z" fill="#FFD729"/>
<path d="M33 36.689L31.0242 36.3786L30.6613 38.689H33V36.689ZM36.697 36.689L38.6728 36.9994L39.0357 34.689H36.697V36.689ZM35.4647 21V19H33.7543L33.4889 20.6896L35.4647 21ZM42.8587 21L44.7667 21.5995L45.5834 19H42.8587V21ZM39.2986 32.3308L37.3906 31.7313L36.5739 34.3308H39.2986V32.3308ZM44.7756 32.3308L46.469 33.3949L48.3945 30.3308H44.7756V32.3308ZM34.917 48.0198L32.9412 47.7094L36.6104 49.0839L34.917 48.0198ZM33 38.689H36.697V34.689H33V38.689ZM33.4889 20.6896L31.0242 36.3786L34.9758 36.9994L37.4404 21.3104L33.4889 20.6896ZM42.8587 19H35.4647V23H42.8587V19ZM41.2067 32.9303L44.7667 21.5995L40.9506 20.4005L37.3906 31.7313L41.2067 32.9303ZM44.7756 30.3308H39.2986V34.3308H44.7756V30.3308ZM36.6104 49.0839L46.469 33.3949L43.0822 31.2667L33.2236 46.9557L36.6104 49.0839ZM34.7212 36.3786L32.9412 47.7094L36.8927 48.3302L38.6728 36.9994L34.7212 36.3786Z" fill="black" mask="url(#path-5-inside-3_149_1661)"/>
</g>
<defs>
<clipPath id="clip0_149_1661">
<rect width="48" height="48" fill="white"/>
</clipPath>
</defs>
</svg>
