<svg width="48" height="48" viewBox="0 0 48 48" fill="none" xmlns="http://www.w3.org/2000/svg">
<g clip-path="url(#clip0_97_845)">
<rect x="-1.0231" y="0.274136" width="2.50293" height="15.5288" rx="1.25146" transform="matrix(-0.865329 -0.501203 -0.498797 0.866719 15.9252 33.4984)" fill="#148FCC"/>
<rect x="-1.0231" y="0.274136" width="2.50293" height="15.5288" rx="1.25146" transform="matrix(-0.865329 -0.501203 -0.498797 0.866719 15.9252 33.4984)" fill="black" fill-opacity="0.1"/>
<rect x="-1.0231" y="0.274136" width="2.50293" height="15.5288" rx="1.25146" transform="matrix(-0.865329 -0.501203 -0.498797 0.866719 15.9252 33.4984)" stroke="black" stroke-width="1.5"/>
<path d="M33.9177 34.0789L29.9142 41.0354C29.5695 41.6344 29.7748 42.4009 30.3729 42.7473C30.971 43.0937 31.7353 42.8889 32.0801 42.2899L36.0835 35.3334C36.4283 34.7344 36.2229 33.9679 35.6248 33.6215C35.0267 33.2751 34.2624 33.4799 33.9177 34.0789Z" fill="#148FCC"/>
<path d="M33.9177 34.0789L29.9142 41.0354C29.5695 41.6344 29.7748 42.4009 30.3729 42.7473C30.971 43.0937 31.7353 42.8889 32.0801 42.2899L36.0835 35.3334C36.4283 34.7344 36.2229 33.9679 35.6248 33.6215C35.0267 33.2751 34.2624 33.4799 33.9177 34.0789Z" fill="black" fill-opacity="0.1"/>
<path d="M33.9177 34.0789L29.9142 41.0354C29.5695 41.6344 29.7748 42.4009 30.3729 42.7473C30.971 43.0937 31.7353 42.8889 32.0801 42.2899L36.0835 35.3334C36.4283 34.7344 36.2229 33.9679 35.6248 33.6215C35.0267 33.2751 34.2624 33.4799 33.9177 34.0789Z" stroke="black" stroke-width="1.5"/>
<rect x="-1.0231" y="0.274136" width="2.50293" height="6.51871" rx="1.25146" transform="matrix(-0.865329 -0.501203 -0.498797 0.866719 24.96 33.4984)" fill="#148FCC"/>
<rect x="-1.0231" y="0.274136" width="2.50293" height="6.51871" rx="1.25146" transform="matrix(-0.865329 -0.501203 -0.498797 0.866719 24.96 33.4984)" fill="black" fill-opacity="0.4"/>
<rect x="-1.0231" y="0.274136" width="2.50293" height="6.51871" rx="1.25146" transform="matrix(-0.865329 -0.501203 -0.498797 0.866719 24.96 33.4984)" stroke="black" stroke-width="1.5"/>
<mask id="path-4-inside-1_97_845" fill="white">
<path fill-rule="evenodd" clip-rule="evenodd" d="M37.1642 32H16.1194C7.2169 32 0 24.8366 0 16C0 7.16345 7.2169 0 16.1194 0C23.5583 0 29.8202 5.00162 31.6782 11.8017C33.2873 10.8544 35.1623 10.3111 37.1642 10.3111C43.1487 10.3111 48 15.1663 48 21.1556C48 27.1149 43.197 31.9515 37.2537 31.9996V32H37.1642Z"/>
</mask>
<path fill-rule="evenodd" clip-rule="evenodd" d="M37.1642 32H16.1194C7.2169 32 0 24.8366 0 16C0 7.16345 7.2169 0 16.1194 0C23.5583 0 29.8202 5.00162 31.6782 11.8017C33.2873 10.8544 35.1623 10.3111 37.1642 10.3111C43.1487 10.3111 48 15.1663 48 21.1556C48 27.1149 43.197 31.9515 37.2537 31.9996V32H37.1642Z" fill="#A2A2C1"/>
<path d="M31.6782 11.8017L28.7843 12.5924L29.8185 16.3777L33.2001 14.387L31.6782 11.8017ZM37.2537 31.9996L37.2294 28.9997L34.2537 29.0238V31.9996H37.2537ZM37.2537 32V35H40.2537V32H37.2537ZM16.1194 35H37.1642V29H16.1194V35ZM16.1194 29C8.85269 29 3 23.1587 3 16H-3C-3 26.5144 5.58112 35 16.1194 35V29ZM3 16C3 8.84129 8.85269 3 16.1194 3V-3C5.58112 -3 -3 5.4856 -3 16H3ZM16.1194 3C22.185 3 27.2772 7.0765 28.7843 12.5924L34.5721 11.011C32.3633 2.92674 24.9316 -3 16.1194 -3V3ZM33.2001 14.387C34.3607 13.7037 35.7122 13.3111 37.1642 13.3111V7.31111C34.6125 7.31111 32.2138 8.00508 30.1562 9.21641L33.2001 14.387ZM37.1642 13.3111C41.4895 13.3111 45 16.8209 45 21.1556H51C51 13.5117 44.8078 7.31111 37.1642 7.31111V13.3111ZM45 21.1556C45 25.4684 41.5245 28.965 37.2294 28.9997L37.278 34.9995C44.8695 34.9381 51 28.7614 51 21.1556H45ZM40.2537 32V31.9996H34.2537V32H40.2537ZM37.1642 35H37.2537V29H37.1642V35Z" fill="black" mask="url(#path-4-inside-1_97_845)"/>
<mask id="path-6-inside-2_97_845" fill="white">
<path fill-rule="evenodd" clip-rule="evenodd" d="M36.0942 36C36.0973 37.1046 36.9952 38.0001 38.0998 38.0001C39.2043 38.0001 40.0973 37.1046 40.0942 36L40.0844 32.4586L43.1466 34.2153C44.1047 34.7649 45.3291 34.435 45.8814 33.4784C46.4337 32.5218 46.1047 31.3008 45.1466 30.7512L42.0748 28.989L45.1273 27.2153C46.0823 26.6603 46.4088 25.435 45.8566 24.4784C45.3043 23.5218 44.0823 23.1962 43.1273 23.7512L40.0651 25.5305L40.0553 22C40.0522 20.8954 39.1543 20 38.0497 20C36.9452 20 36.0522 20.8954 36.0553 22L36.0651 25.5416L33.0028 23.7848C32.0446 23.2352 30.8202 23.5651 30.2679 24.5217C29.7156 25.4783 30.0446 26.6993 31.0027 27.249L34.0748 29.0112L31.0223 30.7849C30.0673 31.3398 29.7408 32.5652 30.2931 33.5217C30.8453 34.4783 32.0673 34.8039 33.0223 34.249L36.0844 32.4698L36.0942 36Z"/>
</mask>
<path fill-rule="evenodd" clip-rule="evenodd" d="M36.0942 36C36.0973 37.1046 36.9952 38.0001 38.0998 38.0001C39.2043 38.0001 40.0973 37.1046 40.0942 36L40.0844 32.4586L43.1466 34.2153C44.1047 34.7649 45.3291 34.435 45.8814 33.4784C46.4337 32.5218 46.1047 31.3008 45.1466 30.7512L42.0748 28.989L45.1273 27.2153C46.0823 26.6603 46.4088 25.435 45.8566 24.4784C45.3043 23.5218 44.0823 23.1962 43.1273 23.7512L40.0651 25.5305L40.0553 22C40.0522 20.8954 39.1543 20 38.0497 20C36.9452 20 36.0522 20.8954 36.0553 22L36.0651 25.5416L33.0028 23.7848C32.0446 23.2352 30.8202 23.5651 30.2679 24.5217C29.7156 25.4783 30.0446 26.6993 31.0027 27.249L34.0748 29.0112L31.0223 30.7849C30.0673 31.3398 29.7408 32.5652 30.2931 33.5217C30.8453 34.4783 32.0673 34.8039 33.0223 34.249L36.0844 32.4698L36.0942 36Z" fill="#148FCC"/>
<path fill-rule="evenodd" clip-rule="evenodd" d="M36.0942 36C36.0973 37.1046 36.9952 38.0001 38.0998 38.0001C39.2043 38.0001 40.0973 37.1046 40.0942 36L40.0844 32.4586L43.1466 34.2153C44.1047 34.7649 45.3291 34.435 45.8814 33.4784C46.4337 32.5218 46.1047 31.3008 45.1466 30.7512L42.0748 28.989L45.1273 27.2153C46.0823 26.6603 46.4088 25.435 45.8566 24.4784C45.3043 23.5218 44.0823 23.1962 43.1273 23.7512L40.0651 25.5305L40.0553 22C40.0522 20.8954 39.1543 20 38.0497 20C36.9452 20 36.0522 20.8954 36.0553 22L36.0651 25.5416L33.0028 23.7848C32.0446 23.2352 30.8202 23.5651 30.2679 24.5217C29.7156 25.4783 30.0446 26.6993 31.0027 27.249L34.0748 29.0112L31.0223 30.7849C30.0673 31.3398 29.7408 32.5652 30.2931 33.5217C30.8453 34.4783 32.0673 34.8039 33.0223 34.249L36.0844 32.4698L36.0942 36Z" fill="white" fill-opacity="0.5"/>
<path d="M36.0942 36L34.5942 36.0042L34.5942 36.0042L36.0942 36ZM40.0942 36L41.5942 35.9959L41.5942 35.9959L40.0942 36ZM40.0844 32.4586L40.8308 31.1575L38.5772 29.8647L38.5844 32.4628L40.0844 32.4586ZM43.1466 34.2153L42.4002 35.5164L42.4002 35.5164L43.1466 34.2153ZM45.8814 33.4784L47.1805 34.2284L47.1805 34.2284L45.8814 33.4784ZM45.1466 30.7512L45.893 29.45L45.893 29.45L45.1466 30.7512ZM42.0748 28.989L41.3211 27.692L39.0748 28.9973L41.3284 30.2901L42.0748 28.989ZM45.1273 27.2153L45.8809 28.5122L45.8809 28.5122L45.1273 27.2153ZM45.8566 24.4784L47.1556 23.7284L47.1556 23.7284L45.8566 24.4784ZM43.1273 23.7512L43.8809 25.0481L43.8809 25.0481L43.1273 23.7512ZM40.0651 25.5305L38.5651 25.5346L38.5723 28.1327L40.8187 26.8274L40.0651 25.5305ZM40.0553 22L41.5553 21.9958L41.5553 21.9958L40.0553 22ZM36.0553 22L34.5553 22.0042L34.5553 22.0042L36.0553 22ZM36.0651 25.5416L35.3187 26.8427L37.5723 28.1355L37.5651 25.5374L36.0651 25.5416ZM33.0028 23.7848L33.7491 22.4837L33.7491 22.4837L33.0028 23.7848ZM30.2679 24.5217L31.567 25.2717L31.567 25.2717L30.2679 24.5217ZM31.0027 27.249L31.7491 25.9478L31.7491 25.9478L31.0027 27.249ZM34.0748 29.0112L34.8284 30.3082L37.0747 29.0029L34.8211 27.7101L34.0748 29.0112ZM31.0223 30.7849L30.2687 29.4879L30.2687 29.4879L31.0223 30.7849ZM30.2931 33.5217L31.5921 32.7717L31.5921 32.7717L30.2931 33.5217ZM33.0223 34.249L32.2687 32.952L33.0223 34.249ZM36.0844 32.4698L37.5844 32.4656L37.5772 29.8675L35.3308 31.1728L36.0844 32.4698ZM38.0998 36.5001C37.822 36.5001 37.5949 36.2737 37.5942 35.9959L34.5942 36.0042C34.5996 37.9356 36.1684 39.5001 38.0998 39.5001V36.5001ZM38.5942 36.0042C38.595 36.2787 38.3743 36.5001 38.0998 36.5001V39.5001C40.0344 39.5001 41.5996 37.9305 41.5942 35.9959L38.5942 36.0042ZM38.5844 32.4628L38.5942 36.0042L41.5942 35.9959L41.5844 32.4545L38.5844 32.4628ZM39.338 33.7598L42.4002 35.5164L43.893 32.9142L40.8308 31.1575L39.338 33.7598ZM42.4002 35.5164C44.0755 36.4774 46.2148 35.901 47.1805 34.2284L44.5824 32.7284C44.4435 32.969 44.1339 33.0524 43.893 32.9142L42.4002 35.5164ZM47.1805 34.2284C48.1478 32.553 47.5711 30.4127 45.893 29.45L44.4002 32.0523C44.6383 32.1889 44.7196 32.4907 44.5824 32.7284L47.1805 34.2284ZM45.893 29.45L42.8211 27.6879L41.3284 30.2901L44.4002 32.0523L45.893 29.45ZM44.3737 25.9183L41.3211 27.692L42.8284 30.2859L45.8809 28.5122L44.3737 25.9183ZM44.5575 25.2284C44.6964 25.469 44.6139 25.7788 44.3737 25.9183L45.8809 28.5122C47.5508 27.5419 48.1213 25.401 47.1556 23.7284L44.5575 25.2284ZM43.8809 25.0481C44.1182 24.9102 44.4203 24.9907 44.5575 25.2284L47.1556 23.7284C46.1883 22.053 44.0464 21.4822 42.3737 22.4542L43.8809 25.0481ZM40.8187 26.8274L43.8809 25.0481L42.3737 22.4542L39.3115 24.2335L40.8187 26.8274ZM38.5553 22.0042L38.5651 25.5346L41.5651 25.5263L41.5553 21.9958L38.5553 22.0042ZM38.0497 21.5C38.3275 21.5 38.5545 21.7264 38.5553 22.0042L41.5553 21.9958C41.5499 20.0645 39.9811 18.5 38.0497 18.5V21.5ZM37.5553 21.9958C37.5545 21.7213 37.7752 21.5 38.0497 21.5V18.5C36.1151 18.5 34.5499 20.0695 34.5553 22.0042L37.5553 21.9958ZM37.5651 25.5374L37.5553 21.9958L34.5553 22.0042L34.5651 25.5457L37.5651 25.5374ZM36.8115 24.2404L33.7491 22.4837L32.2564 25.0859L35.3187 26.8427L36.8115 24.2404ZM33.7491 22.4837C32.0739 21.5227 29.9346 22.0991 28.9689 23.7717L31.567 25.2717C31.7058 25.0311 32.0154 24.9477 32.2564 25.0859L33.7491 22.4837ZM28.9689 23.7717C28.0016 25.4471 28.5782 27.5874 30.2564 28.5501L31.7491 25.9478C31.511 25.8112 31.4297 25.5094 31.567 25.2717L28.9689 23.7717ZM30.2564 28.5501L33.3284 30.3123L34.8211 27.7101L31.7491 25.9478L30.2564 28.5501ZM31.7759 32.0818L34.8284 30.3082L33.3212 27.7143L30.2687 29.4879L31.7759 32.0818ZM31.5921 32.7717C31.4532 32.5312 31.5358 32.2214 31.7759 32.0818L30.2687 29.4879C28.5988 30.4582 28.0283 32.5991 28.994 34.2717L31.5921 32.7717ZM32.2687 32.952C32.0314 33.09 31.7294 33.0095 31.5921 32.7717L28.994 34.2717C29.9613 35.9472 32.1032 36.5179 33.776 35.5459L32.2687 32.952ZM35.3308 31.1728L32.2687 32.952L33.776 35.5459L36.838 33.7667L35.3308 31.1728ZM37.5942 35.9959L37.5844 32.4656L34.5844 32.4739L34.5942 36.0042L37.5942 35.9959Z" fill="black" mask="url(#path-6-inside-2_97_845)"/>
</g>
<defs>
<clipPath id="clip0_97_845">
<rect width="48" height="48" fill="white"/>
</clipPath>
</defs>
</svg>
