<svg width="48" height="48" viewBox="0 0 48 48" fill="none" xmlns="http://www.w3.org/2000/svg">
<mask id="path-1-inside-1_99_975" fill="white">
<path fill-rule="evenodd" clip-rule="evenodd" d="M12.9975 35.7327C12.4465 36.69 12.776 37.9157 13.7318 38.4693C14.6876 39.0229 15.9104 38.6963 16.4614 37.739C17.0123 36.7816 16.6828 35.556 15.727 35.0024C14.7712 34.4488 13.5484 34.7753 12.9975 35.7327ZM9.99754 41.7332C9.44658 42.6905 9.77606 43.9161 10.7319 44.4698C11.6877 45.0234 12.9105 44.6968 13.4614 43.7395C14.0124 42.7821 13.6829 41.5565 12.7271 41.0029C11.7713 40.4493 10.5485 40.7758 9.99754 41.7332ZM28.7318 41.4692C27.776 40.9156 27.4465 39.69 27.9975 38.7326C28.5484 37.7753 29.7712 37.4487 30.727 38.0023C31.6828 38.556 32.0123 39.7816 31.4613 40.7389C30.9104 41.6963 29.6876 42.0228 28.7318 41.4692Z"/>
</mask>
<path fill-rule="evenodd" clip-rule="evenodd" d="M12.9975 35.7327C12.4465 36.69 12.776 37.9157 13.7318 38.4693C14.6876 39.0229 15.9104 38.6963 16.4614 37.739C17.0123 36.7816 16.6828 35.556 15.727 35.0024C14.7712 34.4488 13.5484 34.7753 12.9975 35.7327ZM9.99754 41.7332C9.44658 42.6905 9.77606 43.9161 10.7319 44.4698C11.6877 45.0234 12.9105 44.6968 13.4614 43.7395C14.0124 42.7821 13.6829 41.5565 12.7271 41.0029C11.7713 40.4493 10.5485 40.7758 9.99754 41.7332ZM28.7318 41.4692C27.776 40.9156 27.4465 39.69 27.9975 38.7326C28.5484 37.7753 29.7712 37.4487 30.727 38.0023C31.6828 38.556 32.0123 39.7816 31.4613 40.7389C30.9104 41.6963 29.6876 42.0228 28.7318 41.4692Z" fill="white"/>
<path d="M13.7318 38.4693L13.2306 39.3346L13.2306 39.3346L13.7318 38.4693ZM12.9975 35.7327L12.1308 35.2339L12.1308 35.2339L12.9975 35.7327ZM16.4614 37.739L17.3281 38.2378L17.3281 38.2378L16.4614 37.739ZM15.727 35.0024L16.2282 34.1371L16.2282 34.1371L15.727 35.0024ZM10.7319 44.4698L10.2307 45.3351L10.2307 45.3351L10.7319 44.4698ZM9.99754 41.7332L9.13082 41.2344L9.13082 41.2344L9.99754 41.7332ZM12.7271 41.0029L13.2283 40.1376L13.2283 40.1376L12.7271 41.0029ZM28.7318 41.4692L29.233 40.6039L29.233 40.6039L28.7318 41.4692ZM30.727 38.0023L30.2258 38.8677L30.2258 38.8677L30.727 38.0023ZM14.233 37.6039C13.7533 37.3261 13.5887 36.7103 13.8642 36.2315L12.1308 35.2339C11.3044 36.6698 11.7987 38.5052 13.2306 39.3346L14.233 37.6039ZM15.5946 37.2402C15.3202 37.7171 14.7108 37.8807 14.233 37.6039L13.2306 39.3346C14.6644 40.1651 16.5006 39.6756 17.3281 38.2378L15.5946 37.2402ZM15.2258 35.8677C15.7055 36.1456 15.8702 36.7614 15.5946 37.2402L17.3281 38.2378C18.1544 36.8019 17.6602 34.9665 16.2282 34.1371L15.2258 35.8677ZM13.8642 36.2315C14.1386 35.7546 14.748 35.591 15.2258 35.8677L16.2282 34.1371C14.7944 33.3066 12.9582 33.7961 12.1308 35.2339L13.8642 36.2315ZM11.2331 43.6044C10.7534 43.3266 10.5887 42.7108 10.8643 42.232L9.13082 41.2344C8.30445 42.6703 8.79872 44.5057 10.2307 45.3351L11.2331 43.6044ZM12.5947 43.2407C12.3202 43.7176 11.7109 43.8812 11.2331 43.6044L10.2307 45.3351C11.6645 46.1656 13.5007 45.6761 14.3281 44.2383L12.5947 43.2407ZM12.2259 41.8682C12.7055 42.146 12.8702 42.7619 12.5947 43.2407L14.3281 44.2383C15.1545 42.8024 14.6602 40.967 13.2283 40.1376L12.2259 41.8682ZM10.8643 42.232C11.1387 41.7551 11.7481 41.5915 12.2259 41.8682L13.2283 40.1376C11.7944 39.3071 9.95828 39.7966 9.13082 41.2344L10.8643 42.232ZM27.1308 38.2338C26.3044 39.6697 26.7987 41.5051 28.2306 42.3345L29.233 40.6039C28.7533 40.3261 28.5886 39.7102 28.8642 39.2314L27.1308 38.2338ZM31.2282 37.137C29.7944 36.3065 27.9582 36.796 27.1308 38.2338L28.8642 39.2314C29.1386 38.7545 29.748 38.5909 30.2258 38.8677L31.2282 37.137ZM32.3281 41.2377C33.1544 39.8018 32.6602 37.9664 31.2282 37.137L30.2258 38.8677C30.7055 39.1455 30.8702 39.7613 30.5946 40.2401L32.3281 41.2377ZM28.2306 42.3345C29.6644 43.165 31.5006 42.6755 32.3281 41.2377L30.5946 40.2401C30.3202 40.717 29.7108 40.8806 29.233 40.6039L28.2306 42.3345Z" fill="black" mask="url(#path-1-inside-1_99_975)"/>
<mask id="path-3-inside-2_99_975" fill="white">
<path fill-rule="evenodd" clip-rule="evenodd" d="M37.1642 32H16.1194C7.2169 32 0 24.8366 0 16C0 7.16345 7.2169 0 16.1194 0C23.5583 0 29.8202 5.00162 31.6782 11.8017C33.2873 10.8544 35.1623 10.3111 37.1642 10.3111C43.1487 10.3111 48 15.1663 48 21.1556C48 27.1149 43.197 31.9515 37.2537 31.9996V32H37.1642Z"/>
</mask>
<path fill-rule="evenodd" clip-rule="evenodd" d="M37.1642 32H16.1194C7.2169 32 0 24.8366 0 16C0 7.16345 7.2169 0 16.1194 0C23.5583 0 29.8202 5.00162 31.6782 11.8017C33.2873 10.8544 35.1623 10.3111 37.1642 10.3111C43.1487 10.3111 48 15.1663 48 21.1556C48 27.1149 43.197 31.9515 37.2537 31.9996V32H37.1642Z" fill="white"/>
<path d="M31.6782 11.8017L28.7843 12.5924L29.8185 16.3777L33.2001 14.387L31.6782 11.8017ZM37.2537 31.9996L37.2294 28.9997L34.2537 29.0238V31.9996H37.2537ZM37.2537 32V35H40.2537V32H37.2537ZM16.1194 35H37.1642V29H16.1194V35ZM16.1194 29C8.85269 29 3 23.1587 3 16H-3C-3 26.5144 5.58112 35 16.1194 35V29ZM3 16C3 8.84129 8.85269 3 16.1194 3V-3C5.58112 -3 -3 5.4856 -3 16H3ZM16.1194 3C22.185 3 27.2772 7.0765 28.7843 12.5924L34.5721 11.011C32.3633 2.92674 24.9316 -3 16.1194 -3V3ZM33.2001 14.387C34.3607 13.7037 35.7122 13.3111 37.1642 13.3111V7.31111C34.6125 7.31111 32.2138 8.00508 30.1562 9.21641L33.2001 14.387ZM37.1642 13.3111C41.4895 13.3111 45 16.8209 45 21.1556H51C51 13.5117 44.8078 7.31111 37.1642 7.31111V13.3111ZM45 21.1556C45 25.4684 41.5245 28.965 37.2294 28.9997L37.278 34.9995C44.8695 34.9381 51 28.7614 51 21.1556H45ZM40.2537 32V31.9996H34.2537V32H40.2537ZM37.1642 35H37.2537V29H37.1642V35Z" fill="black" mask="url(#path-3-inside-2_99_975)"/>
<mask id="path-5-inside-3_99_975" fill="white">
<path fill-rule="evenodd" clip-rule="evenodd" d="M35.0942 37C35.0973 38.1046 35.9952 39.0001 37.0998 39.0001C38.2043 39.0001 39.0973 38.1046 39.0942 37L39.0844 33.4586L42.1466 35.2153C43.1047 35.7649 44.3291 35.435 44.8814 34.4784C45.4337 33.5218 45.1047 32.3008 44.1466 31.7512L41.0748 29.989L44.1273 28.2153C45.0823 27.6603 45.4088 26.435 44.8566 25.4784C44.3043 24.5218 43.0823 24.1962 42.1273 24.7512L39.0651 26.5305L39.0553 23C39.0522 21.8954 38.1543 21 37.0497 21C35.9452 21 35.0522 21.8954 35.0553 23L35.0651 26.5416L32.0028 24.7848C31.0446 24.2352 29.8202 24.5651 29.2679 25.5217C28.7156 26.4783 29.0446 27.6993 30.0027 28.249L33.0748 30.0112L30.0223 31.7849C29.0673 32.3398 28.7408 33.5652 29.2931 34.5217C29.8453 35.4783 31.0673 35.8039 32.0223 35.249L35.0844 33.4698L35.0942 37Z"/>
</mask>
<path fill-rule="evenodd" clip-rule="evenodd" d="M35.0942 37C35.0973 38.1046 35.9952 39.0001 37.0998 39.0001C38.2043 39.0001 39.0973 38.1046 39.0942 37L39.0844 33.4586L42.1466 35.2153C43.1047 35.7649 44.3291 35.435 44.8814 34.4784C45.4337 33.5218 45.1047 32.3008 44.1466 31.7512L41.0748 29.989L44.1273 28.2153C45.0823 27.6603 45.4088 26.435 44.8566 25.4784C44.3043 24.5218 43.0823 24.1962 42.1273 24.7512L39.0651 26.5305L39.0553 23C39.0522 21.8954 38.1543 21 37.0497 21C35.9452 21 35.0522 21.8954 35.0553 23L35.0651 26.5416L32.0028 24.7848C31.0446 24.2352 29.8202 24.5651 29.2679 25.5217C28.7156 26.4783 29.0446 27.6993 30.0027 28.249L33.0748 30.0112L30.0223 31.7849C29.0673 32.3398 28.7408 33.5652 29.2931 34.5217C29.8453 35.4783 31.0673 35.8039 32.0223 35.249L35.0844 33.4698L35.0942 37Z" fill="#148FCC"/>
<path fill-rule="evenodd" clip-rule="evenodd" d="M35.0942 37C35.0973 38.1046 35.9952 39.0001 37.0998 39.0001C38.2043 39.0001 39.0973 38.1046 39.0942 37L39.0844 33.4586L42.1466 35.2153C43.1047 35.7649 44.3291 35.435 44.8814 34.4784C45.4337 33.5218 45.1047 32.3008 44.1466 31.7512L41.0748 29.989L44.1273 28.2153C45.0823 27.6603 45.4088 26.435 44.8566 25.4784C44.3043 24.5218 43.0823 24.1962 42.1273 24.7512L39.0651 26.5305L39.0553 23C39.0522 21.8954 38.1543 21 37.0497 21C35.9452 21 35.0522 21.8954 35.0553 23L35.0651 26.5416L32.0028 24.7848C31.0446 24.2352 29.8202 24.5651 29.2679 25.5217C28.7156 26.4783 29.0446 27.6993 30.0027 28.249L33.0748 30.0112L30.0223 31.7849C29.0673 32.3398 28.7408 33.5652 29.2931 34.5217C29.8453 35.4783 31.0673 35.8039 32.0223 35.249L35.0844 33.4698L35.0942 37Z" fill="white" fill-opacity="0.5"/>
<path d="M35.0942 37L33.5942 37.0042L33.5942 37.0042L35.0942 37ZM39.0942 37L40.5942 36.9959L40.5942 36.9959L39.0942 37ZM39.0844 33.4586L39.8308 32.1575L37.5772 30.8647L37.5844 33.4628L39.0844 33.4586ZM42.1466 35.2153L41.4002 36.5164L41.4002 36.5164L42.1466 35.2153ZM44.8814 34.4784L46.1805 35.2284L46.1805 35.2284L44.8814 34.4784ZM44.1466 31.7512L44.893 30.45L44.893 30.45L44.1466 31.7512ZM41.0748 29.989L40.3211 28.692L38.0748 29.9973L40.3284 31.2901L41.0748 29.989ZM44.1273 28.2153L44.8809 29.5122L44.8809 29.5122L44.1273 28.2153ZM44.8566 25.4784L46.1556 24.7284L46.1556 24.7284L44.8566 25.4784ZM42.1273 24.7512L42.8809 26.0481L42.8809 26.0481L42.1273 24.7512ZM39.0651 26.5305L37.5651 26.5346L37.5723 29.1327L39.8187 27.8274L39.0651 26.5305ZM39.0553 23L40.5553 22.9958L40.5553 22.9958L39.0553 23ZM35.0553 23L33.5553 23.0042L33.5553 23.0042L35.0553 23ZM35.0651 26.5416L34.3187 27.8427L36.5723 29.1355L36.5651 26.5374L35.0651 26.5416ZM32.0028 24.7848L32.7491 23.4837L32.7491 23.4837L32.0028 24.7848ZM29.2679 25.5217L30.567 26.2717L30.567 26.2717L29.2679 25.5217ZM30.0027 28.249L30.7491 26.9478L30.7491 26.9478L30.0027 28.249ZM33.0748 30.0112L33.8284 31.3082L36.0747 30.0029L33.8211 28.7101L33.0748 30.0112ZM30.0223 31.7849L29.2687 30.4879L29.2687 30.4879L30.0223 31.7849ZM29.2931 34.5217L30.5921 33.7717L30.5921 33.7717L29.2931 34.5217ZM32.0223 35.249L31.2687 33.952L32.0223 35.249ZM35.0844 33.4698L36.5844 33.4656L36.5772 30.8675L34.3308 32.1728L35.0844 33.4698ZM37.0998 37.5001C36.822 37.5001 36.5949 37.2737 36.5942 36.9959L33.5942 37.0042C33.5996 38.9356 35.1684 40.5001 37.0998 40.5001V37.5001ZM37.5942 37.0042C37.595 37.2787 37.3743 37.5001 37.0998 37.5001V40.5001C39.0344 40.5001 40.5996 38.9305 40.5942 36.9959L37.5942 37.0042ZM37.5844 33.4628L37.5942 37.0042L40.5942 36.9959L40.5844 33.4545L37.5844 33.4628ZM38.338 34.7598L41.4002 36.5164L42.893 33.9142L39.8308 32.1575L38.338 34.7598ZM41.4002 36.5164C43.0755 37.4774 45.2148 36.901 46.1805 35.2284L43.5824 33.7284C43.4435 33.969 43.1339 34.0524 42.893 33.9142L41.4002 36.5164ZM46.1805 35.2284C47.1478 33.553 46.5711 31.4127 44.893 30.45L43.4002 33.0523C43.6383 33.1889 43.7196 33.4907 43.5824 33.7284L46.1805 35.2284ZM44.893 30.45L41.8211 28.6879L40.3284 31.2901L43.4002 33.0523L44.893 30.45ZM43.3737 26.9183L40.3211 28.692L41.8284 31.2859L44.8809 29.5122L43.3737 26.9183ZM43.5575 26.2284C43.6964 26.469 43.6139 26.7788 43.3737 26.9183L44.8809 29.5122C46.5508 28.5419 47.1213 26.401 46.1556 24.7284L43.5575 26.2284ZM42.8809 26.0481C43.1182 25.9102 43.4203 25.9907 43.5575 26.2284L46.1556 24.7284C45.1883 23.053 43.0464 22.4822 41.3737 23.4542L42.8809 26.0481ZM39.8187 27.8274L42.8809 26.0481L41.3737 23.4542L38.3115 25.2335L39.8187 27.8274ZM37.5553 23.0042L37.5651 26.5346L40.5651 26.5263L40.5553 22.9958L37.5553 23.0042ZM37.0497 22.5C37.3275 22.5 37.5545 22.7264 37.5553 23.0042L40.5553 22.9958C40.5499 21.0645 38.9811 19.5 37.0497 19.5V22.5ZM36.5553 22.9958C36.5545 22.7213 36.7752 22.5 37.0497 22.5V19.5C35.1151 19.5 33.5499 21.0695 33.5553 23.0042L36.5553 22.9958ZM36.5651 26.5374L36.5553 22.9958L33.5553 23.0042L33.5651 26.5457L36.5651 26.5374ZM35.8115 25.2404L32.7491 23.4837L31.2564 26.0859L34.3187 27.8427L35.8115 25.2404ZM32.7491 23.4837C31.0739 22.5227 28.9346 23.0991 27.9689 24.7717L30.567 26.2717C30.7058 26.0311 31.0154 25.9477 31.2564 26.0859L32.7491 23.4837ZM27.9689 24.7717C27.0016 26.4471 27.5782 28.5874 29.2564 29.5501L30.7491 26.9478C30.511 26.8112 30.4297 26.5094 30.567 26.2717L27.9689 24.7717ZM29.2564 29.5501L32.3284 31.3123L33.8211 28.7101L30.7491 26.9478L29.2564 29.5501ZM30.7759 33.0818L33.8284 31.3082L32.3212 28.7143L29.2687 30.4879L30.7759 33.0818ZM30.5921 33.7717C30.4532 33.5312 30.5358 33.2214 30.7759 33.0818L29.2687 30.4879C27.5988 31.4582 27.0283 33.5991 27.994 35.2717L30.5921 33.7717ZM31.2687 33.952C31.0314 34.09 30.7294 34.0095 30.5921 33.7717L27.994 35.2717C28.9613 36.9472 31.1032 37.5179 32.776 36.5459L31.2687 33.952ZM34.3308 32.1728L31.2687 33.952L32.776 36.5459L35.838 34.7667L34.3308 32.1728ZM36.5942 36.9959L36.5844 33.4656L33.5844 33.4739L33.5942 37.0042L36.5942 36.9959Z" fill="black" mask="url(#path-5-inside-3_99_975)"/>
</svg>
