<svg width="96" height="96" viewBox="0 0 96 96" fill="none" xmlns="http://www.w3.org/2000/svg">
<mask id="path-1-inside-1_99_962" fill="white">
<path fill-rule="evenodd" clip-rule="evenodd" d="M64.4611 67.9387C62.5494 66.8314 61.893 64.3817 62.9949 62.467C64.0969 60.5523 66.5398 59.8977 68.4515 61.0049C70.3631 62.1121 71.0195 64.5619 69.9176 66.4766C68.8157 68.3913 66.3727 69.0459 64.4611 67.9387ZM25.995 67.467C24.8931 69.3817 25.5495 71.8315 27.4611 72.9387C29.3727 74.0459 31.8157 73.3914 32.9176 71.4767C34.0195 69.562 33.3631 67.1122 31.4515 66.005C29.5399 64.8977 27.0969 65.5523 25.995 67.467ZM56.4612 81.9387C54.5496 80.8314 53.8932 78.3817 54.9951 76.467C56.097 74.5523 58.5399 73.8977 60.4516 75.0049C62.3632 76.1121 63.0196 78.5619 61.9177 80.4766C60.8158 82.3913 58.3728 83.0459 56.4612 81.9387ZM19.4612 86.9387C17.5496 85.8315 16.8932 83.3817 17.9951 81.467C19.097 79.5523 21.54 78.8977 23.4516 80.005C25.3632 81.1122 26.0197 83.562 24.9177 85.4767C23.8158 87.3914 21.3729 88.0459 19.4612 86.9387Z"/>
</mask>
<path fill-rule="evenodd" clip-rule="evenodd" d="M64.4611 67.9387C62.5494 66.8314 61.893 64.3817 62.9949 62.467C64.0969 60.5523 66.5398 59.8977 68.4515 61.0049C70.3631 62.1121 71.0195 64.5619 69.9176 66.4766C68.8157 68.3913 66.3727 69.0459 64.4611 67.9387ZM25.995 67.467C24.8931 69.3817 25.5495 71.8315 27.4611 72.9387C29.3727 74.0459 31.8157 73.3914 32.9176 71.4767C34.0195 69.562 33.3631 67.1122 31.4515 66.005C29.5399 64.8977 27.0969 65.5523 25.995 67.467ZM56.4612 81.9387C54.5496 80.8314 53.8932 78.3817 54.9951 76.467C56.097 74.5523 58.5399 73.8977 60.4516 75.0049C62.3632 76.1121 63.0196 78.5619 61.9177 80.4766C60.8158 82.3913 58.3728 83.0459 56.4612 81.9387ZM19.4612 86.9387C17.5496 85.8315 16.8932 83.3817 17.9951 81.467C19.097 79.5523 21.54 78.8977 23.4516 80.005C25.3632 81.1122 26.0197 83.562 24.9177 85.4767C23.8158 87.3914 21.3729 88.0459 19.4612 86.9387Z" fill="white"/>
<path d="M62.9949 62.467L61.2615 61.4694L62.9949 62.467ZM68.4515 61.0049L69.4539 59.2743L68.4515 61.0049ZM69.9176 66.4766L68.1841 65.479L68.1841 65.479L69.9176 66.4766ZM27.4611 72.9387L26.4587 74.6694L26.4587 74.6694L27.4611 72.9387ZM25.995 67.467L27.7284 68.4646L27.7284 68.4646L25.995 67.467ZM32.9176 71.4767L31.1842 70.4791L31.1842 70.4791L32.9176 71.4767ZM31.4515 66.005L32.4539 64.2743L32.4539 64.2743L31.4515 66.005ZM54.9951 76.467L56.7285 77.4646L56.7285 77.4646L54.9951 76.467ZM56.4612 81.9387L55.4588 83.6693L55.4588 83.6693L56.4612 81.9387ZM61.9177 80.4766L60.1843 79.479L60.1843 79.479L61.9177 80.4766ZM17.9951 81.467L19.7285 82.4646L19.7285 82.4646L17.9951 81.467ZM19.4612 86.9387L18.4588 88.6694L18.4588 88.6694L19.4612 86.9387ZM23.4516 80.005L22.4492 81.7356L22.4492 81.7356L23.4516 80.005ZM24.9177 85.4767L23.1843 84.4791L23.1843 84.4791L24.9177 85.4767ZM61.2615 61.4694C59.6097 64.3395 60.5931 68.0096 63.4587 69.6693L65.4635 66.208C64.5058 65.6533 64.1763 64.4238 64.7284 63.4646L61.2615 61.4694ZM69.4539 59.2743C66.5845 57.6123 62.9155 58.5954 61.2615 61.4694L64.7284 63.4646C65.2783 62.5091 66.4951 62.183 67.449 62.7356L69.4539 59.2743ZM71.651 67.4742C73.3028 64.604 72.3194 60.934 69.4539 59.2743L67.449 62.7356C68.4067 63.2903 68.7362 64.5198 68.1841 65.479L71.651 67.4742ZM63.4587 69.6693C66.328 71.3312 69.9971 70.3481 71.651 67.4742L68.1841 65.479C67.6343 66.4345 66.4174 66.7605 65.4635 66.208L63.4587 69.6693ZM28.4635 71.2081C27.5058 70.6534 27.1764 69.4239 27.7284 68.4646L24.2615 66.4694C22.6098 69.3396 23.5931 73.0096 26.4587 74.6694L28.4635 71.2081ZM31.1842 70.4791C30.6343 71.4345 29.4175 71.7606 28.4635 71.2081L26.4587 74.6694C29.328 76.3313 32.9971 75.3482 34.6511 72.4743L31.1842 70.4791ZM30.4491 67.7356C31.4068 68.2903 31.7362 69.5198 31.1842 70.4791L34.6511 72.4743C36.3028 69.6041 35.3195 65.9341 32.4539 64.2743L30.4491 67.7356ZM27.7284 68.4646C28.2783 67.5092 29.4951 67.1831 30.4491 67.7356L32.4539 64.2743C29.5846 62.6124 25.9155 63.5955 24.2615 66.4694L27.7284 68.4646ZM53.2616 75.4694C51.6098 78.3396 52.5932 82.0096 55.4588 83.6693L57.4636 80.208C56.5059 79.6533 56.1765 78.4238 56.7285 77.4646L53.2616 75.4694ZM61.454 73.2743C58.5847 71.6123 54.9156 72.5954 53.2616 75.4694L56.7285 77.4646C57.2784 76.5091 58.4952 76.183 59.4492 76.7356L61.454 73.2743ZM63.6511 81.4742C65.3029 78.604 64.3196 74.934 61.454 73.2743L59.4492 76.7356C60.4069 77.2903 60.7363 78.5198 60.1843 79.479L63.6511 81.4742ZM55.4588 83.6693C58.3281 85.3312 61.9972 84.3481 63.6511 81.4742L60.1843 79.479C59.6344 80.4345 58.4175 80.7605 57.4636 80.208L55.4588 83.6693ZM16.2617 80.4694C14.6099 83.3396 15.5933 87.0096 18.4588 88.6694L20.4636 85.2081C19.5059 84.6534 19.1765 83.4239 19.7285 82.4646L16.2617 80.4694ZM24.454 78.2743C21.5847 76.6124 17.9156 77.5955 16.2617 80.4694L19.7285 82.4646C20.2784 81.5092 21.4953 81.1831 22.4492 81.7356L24.454 78.2743ZM26.6512 86.4742C28.303 83.6041 27.3196 79.9341 24.454 78.2743L22.4492 81.7356C23.4069 82.2903 23.7363 83.5198 23.1843 84.4791L26.6512 86.4742ZM18.4588 88.6694C21.3282 90.3313 24.9972 89.3482 26.6512 86.4742L23.1843 84.4791C22.6344 85.4345 21.4176 85.7606 20.4636 85.2081L18.4588 88.6694Z" fill="black" mask="url(#path-1-inside-1_99_962)"/>
<mask id="path-3-inside-2_99_962" fill="white">
<path fill-rule="evenodd" clip-rule="evenodd" d="M74.3284 64H32.2388C14.4338 64 0 49.6731 0 32C0 14.3269 14.4338 0 32.2388 0C47.1165 0 59.6405 10.0032 63.3564 23.6034C66.5746 21.7088 70.3247 20.6222 74.3284 20.6222C86.2973 20.6222 96 30.3327 96 42.3111C96 54.2298 86.3939 63.903 74.5075 63.9993V64L74.3284 64Z"/>
</mask>
<path fill-rule="evenodd" clip-rule="evenodd" d="M74.3284 64H32.2388C14.4338 64 0 49.6731 0 32C0 14.3269 14.4338 0 32.2388 0C47.1165 0 59.6405 10.0032 63.3564 23.6034C66.5746 21.7088 70.3247 20.6222 74.3284 20.6222C86.2973 20.6222 96 30.3327 96 42.3111C96 54.2298 86.3939 63.903 74.5075 63.9993V64L74.3284 64Z" fill="white"/>
<path d="M74.3284 64L74.3286 60H74.3284V64ZM63.3564 23.6034L59.4978 24.6576L60.8768 29.7048L65.3856 27.0504L63.3564 23.6034ZM74.5075 63.9993L74.4751 59.9994L70.5075 60.0316V63.9993H74.5075ZM74.5075 64L74.5073 68L78.5075 68.0002V64H74.5075ZM32.2388 68H74.3284V60H32.2388V68ZM32.2388 60C16.6149 60 4 47.436 4 32H-4C-4 51.9102 12.2528 68 32.2388 68V60ZM4 32C4 16.564 16.6149 4 32.2388 4V-4C12.2528 -4 -4 12.0898 -4 32H4ZM32.2388 4C45.2855 4 56.2497 12.7698 59.4978 24.6576L67.2149 22.5491C63.0312 7.23674 48.9476 -4 32.2388 -4V4ZM65.3856 27.0504C68.0058 25.5079 71.0578 24.6222 74.3284 24.6222V16.6222C69.5916 16.6222 65.1433 17.9097 61.3271 20.1563L65.3856 27.0504ZM74.3284 24.6222C84.0852 24.6222 92 32.5388 92 42.3111H100C100 28.1265 88.5095 16.6222 74.3284 16.6222V24.6222ZM92 42.3111C92 52.0345 84.1639 59.9209 74.4751 59.9994L74.5399 67.9992C88.6239 67.8851 100 56.4251 100 42.3111H92ZM78.5075 64V63.9993H70.5075V64H78.5075ZM74.3282 68L74.5073 68L74.5077 60L74.3286 60L74.3282 68Z" fill="black" mask="url(#path-3-inside-2_99_962)"/>
<mask id="path-5-inside-3_99_962" fill="white">
<path fill-rule="evenodd" clip-rule="evenodd" d="M71.1883 74.9999C71.1944 77.209 72.9903 78.9999 75.1994 78.9999C77.4085 78.9999 79.1944 77.209 79.1883 74.9999L79.1686 67.9171L85.293 71.4304C87.2092 72.5296 89.6581 71.8698 90.7626 69.9567C91.8672 68.0435 91.2092 65.6014 89.293 64.5022L83.1493 60.9779L89.2544 57.4305C91.1645 56.3206 91.8175 53.8699 90.7129 51.9568C89.6083 50.0436 87.1645 49.3924 85.2544 50.5023L79.1301 54.0608L79.1105 47C79.1044 44.7909 77.3085 43 75.0994 43C72.8902 43 71.1044 44.7909 71.1105 47L71.1302 54.0831L65.0055 50.5696C63.0892 49.4704 60.6404 50.1302 59.5358 52.0433C58.4313 53.9565 59.0892 56.3986 61.0055 57.4978L67.1495 61.0223L61.0446 64.5696C59.1346 65.6795 58.4815 68.1301 59.5861 70.0433C60.6907 71.9565 63.1346 72.6077 65.0446 71.4978L71.1687 67.9394L71.1883 74.9999Z"/>
</mask>
<path fill-rule="evenodd" clip-rule="evenodd" d="M71.1883 74.9999C71.1944 77.209 72.9903 78.9999 75.1994 78.9999C77.4085 78.9999 79.1944 77.209 79.1883 74.9999L79.1686 67.9171L85.293 71.4304C87.2092 72.5296 89.6581 71.8698 90.7626 69.9567C91.8672 68.0435 91.2092 65.6014 89.293 64.5022L83.1493 60.9779L89.2544 57.4305C91.1645 56.3206 91.8175 53.8699 90.7129 51.9568C89.6083 50.0436 87.1645 49.3924 85.2544 50.5023L79.1301 54.0608L79.1105 47C79.1044 44.7909 77.3085 43 75.0994 43C72.8902 43 71.1044 44.7909 71.1105 47L71.1302 54.0831L65.0055 50.5696C63.0892 49.4704 60.6404 50.1302 59.5358 52.0433C58.4313 53.9565 59.0892 56.3986 61.0055 57.4978L67.1495 61.0223L61.0446 64.5696C59.1346 65.6795 58.4815 68.1301 59.5861 70.0433C60.6907 71.9565 63.1346 72.6077 65.0446 71.4978L71.1687 67.9394L71.1883 74.9999Z" fill="#148FCC"/>
<path fill-rule="evenodd" clip-rule="evenodd" d="M71.1883 74.9999C71.1944 77.209 72.9903 78.9999 75.1994 78.9999C77.4085 78.9999 79.1944 77.209 79.1883 74.9999L79.1686 67.9171L85.293 71.4304C87.2092 72.5296 89.6581 71.8698 90.7626 69.9567C91.8672 68.0435 91.2092 65.6014 89.293 64.5022L83.1493 60.9779L89.2544 57.4305C91.1645 56.3206 91.8175 53.8699 90.7129 51.9568C89.6083 50.0436 87.1645 49.3924 85.2544 50.5023L79.1301 54.0608L79.1105 47C79.1044 44.7909 77.3085 43 75.0994 43C72.8902 43 71.1044 44.7909 71.1105 47L71.1302 54.0831L65.0055 50.5696C63.0892 49.4704 60.6404 50.1302 59.5358 52.0433C58.4313 53.9565 59.0892 56.3986 61.0055 57.4978L67.1495 61.0223L61.0446 64.5696C59.1346 65.6795 58.4815 68.1301 59.5861 70.0433C60.6907 71.9565 63.1346 72.6077 65.0446 71.4978L71.1687 67.9394L71.1883 74.9999Z" fill="white" fill-opacity="0.5"/>
<path d="M71.1883 74.9999L69.1883 75.0054L69.1883 75.0054L71.1883 74.9999ZM79.1883 74.9999L77.1883 75.0054L77.1883 75.0054L79.1883 74.9999ZM79.1686 67.9171L80.1638 66.1823L77.159 64.4586L77.1686 67.9227L79.1686 67.9171ZM85.293 71.4304L84.2978 73.1652L84.2978 73.1652L85.293 71.4304ZM90.7626 69.9567L92.4947 70.9567L92.4947 70.9567L90.7626 69.9567ZM89.293 64.5022L90.2882 62.7674L90.2882 62.7674L89.293 64.5022ZM83.1493 60.9779L82.1445 59.2486L79.1494 60.989L82.1542 62.7127L83.1493 60.9779ZM89.2544 57.4305L88.2496 55.7012L88.2496 55.7012L89.2544 57.4305ZM90.7129 51.9568L88.9809 52.9568L88.9809 52.9568L90.7129 51.9568ZM85.2544 50.5023L84.2496 48.773L84.2496 48.773L85.2544 50.5023ZM79.1301 54.0608L77.1301 54.0664L77.1397 57.5305L80.1349 55.7901L79.1301 54.0608ZM79.1105 47L81.1105 46.9944L81.1105 46.9944L79.1105 47ZM71.1105 47L69.1105 47.0055L69.1105 47.0055L71.1105 47ZM71.1302 54.0831L70.135 55.8179L73.1398 57.5416L73.1302 54.0775L71.1302 54.0831ZM65.0055 50.5696L64.0103 52.3044L64.0103 52.3044L65.0055 50.5696ZM59.5358 52.0433L61.2679 53.0433L61.2679 53.0433L59.5358 52.0433ZM61.0055 57.4978L62.0007 55.763L62.0007 55.763L61.0055 57.4978ZM67.1495 61.0223L68.1543 62.7516L71.1494 61.0112L68.1446 59.2875L67.1495 61.0223ZM61.0446 64.5696L60.0398 62.8403L60.0398 62.8403L61.0446 64.5696ZM59.5861 70.0433L61.3182 69.0433L59.5861 70.0433ZM65.0446 71.4978L64.0398 69.7685L64.0398 69.7685L65.0446 71.4978ZM71.1687 67.9394L73.1687 67.9338L73.159 64.4697L70.1639 66.2101L71.1687 67.9394ZM75.1994 76.9999C74.0927 76.9999 73.1914 76.1011 73.1883 74.9943L69.1883 75.0054C69.1975 78.317 71.8879 80.9999 75.1994 80.9999V76.9999ZM77.1883 75.0054C77.1914 76.1078 76.3018 76.9999 75.1994 76.9999V80.9999C78.5153 80.9999 81.1975 78.3102 81.1883 74.9943L77.1883 75.0054ZM77.1686 67.9227L77.1883 75.0054L81.1883 74.9943L81.1686 67.9116L77.1686 67.9227ZM78.1734 69.652L84.2978 73.1652L86.2882 69.6956L80.1638 66.1823L78.1734 69.652ZM84.2978 73.1652C87.1703 74.813 90.8389 73.8245 92.4947 70.9567L89.0306 68.9567C88.4772 69.9151 87.2482 70.2463 86.2882 69.6956L84.2978 73.1652ZM92.4947 70.9567C94.1526 68.085 93.1644 64.4173 90.2882 62.7674L88.2978 66.237C89.254 66.7856 89.5818 68.002 89.0306 68.9567L92.4947 70.9567ZM90.2882 62.7674L84.1445 59.2431L82.1542 62.7127L88.2978 66.237L90.2882 62.7674ZM88.2496 55.7012L82.1445 59.2486L84.1541 62.7071L90.2592 59.1597L88.2496 55.7012ZM88.9809 52.9568C89.5342 53.9152 89.2065 55.1452 88.2496 55.7012L90.2592 59.1597C93.1224 57.496 94.1007 53.8246 92.445 50.9568L88.9809 52.9568ZM86.2592 52.2315C87.2123 51.6777 88.4297 52.0021 88.9809 52.9568L92.445 50.9568C90.787 48.0851 87.1166 47.1071 84.2496 48.773L86.2592 52.2315ZM80.1349 55.7901L86.2592 52.2315L84.2496 48.773L78.1253 52.3316L80.1349 55.7901ZM77.1105 47.0055L77.1301 54.0664L81.1301 54.0553L81.1105 46.9944L77.1105 47.0055ZM75.0994 45C76.2061 45 77.1074 45.8988 77.1105 47.0055L81.1105 46.9944C81.1013 43.6829 78.4109 41 75.0994 41V45ZM73.1105 46.9944C73.1074 45.892 73.997 45 75.0994 45V41C71.7835 41 69.1013 43.6897 69.1105 47.0055L73.1105 46.9944ZM73.1302 54.0775L73.1105 46.9944L69.1105 47.0055L69.1302 54.0886L73.1302 54.0775ZM72.1254 52.3482L66.0007 48.8348L64.0103 52.3044L70.135 55.8179L72.1254 52.3482ZM66.0007 48.8348C63.1282 47.187 59.4595 48.1755 57.8038 51.0433L61.2679 53.0433C61.8212 52.0849 63.0503 51.7537 64.0103 52.3044L66.0007 48.8348ZM57.8038 51.0433C56.1458 53.915 57.1341 57.5827 60.0103 59.2326L62.0007 55.763C61.0444 55.2144 60.7167 53.998 61.2679 53.0433L57.8038 51.0433ZM60.0103 59.2326L66.1543 62.7571L68.1446 59.2875L62.0007 55.763L60.0103 59.2326ZM62.0495 66.2989L68.1543 62.7516L66.1447 59.2931L60.0398 62.8403L62.0495 66.2989ZM61.3182 69.0433C60.7648 68.0848 61.0925 66.8549 62.0495 66.2989L60.0398 62.8403C57.1766 64.5041 56.1983 68.1754 57.8541 71.0433L61.3182 69.0433ZM64.0398 69.7685C63.0867 70.3224 61.8694 69.998 61.3182 69.0433L57.8541 71.0433C59.512 73.9149 63.1824 74.893 66.0495 73.2271L64.0398 69.7685ZM70.1639 66.2101L64.0398 69.7685L66.0495 73.2271L72.1735 69.6686L70.1639 66.2101ZM73.1883 74.9943L73.1687 67.9338L69.1687 67.9449L69.1883 75.0054L73.1883 74.9943Z" fill="black" mask="url(#path-5-inside-3_99_962)"/>
</svg>
