<svg width="96" height="96" viewBox="0 0 96 96" fill="none" xmlns="http://www.w3.org/2000/svg">
<g clip-path="url(#clip0_148_1512)">
<rect x="-1.36413" y="0.365515" width="6.00643" height="32.06" rx="3.00322" transform="matrix(-0.865329 -0.501203 -0.498797 0.866719 33.5671 67.365)" fill="#148FCC"/>
<rect x="-1.36413" y="0.365515" width="6.00643" height="32.06" rx="3.00322" transform="matrix(-0.865329 -0.501203 -0.498797 0.866719 33.5671 67.365)" fill="black" fill-opacity="0.1"/>
<rect x="-1.36413" y="0.365515" width="6.00643" height="32.06" rx="3.00322" transform="matrix(-0.865329 -0.501203 -0.498797 0.866719 33.5671 67.365)" stroke="black" stroke-width="2"/>
<path d="M47.9405 67.958L39.933 81.8719C39.1057 83.3095 39.5985 85.1488 41.0337 85.9801C42.469 86.8114 44.3032 86.3199 45.1305 84.8824L53.138 70.9685C53.9653 69.5309 53.4725 67.6916 52.0372 66.8603C50.602 66.029 48.7678 66.5204 47.9405 67.958Z" fill="#148FCC"/>
<path d="M47.9405 67.958L39.933 81.8719C39.1057 83.3095 39.5985 85.1488 41.0337 85.9801C42.469 86.8114 44.3032 86.3199 45.1305 84.8824L53.138 70.9685C53.9653 69.5309 53.4725 67.6916 52.0372 66.8603C50.602 66.029 48.7678 66.5204 47.9405 67.958Z" fill="black" fill-opacity="0.1"/>
<path d="M47.9405 67.958L39.933 81.8719C39.1057 83.3095 39.5985 85.1488 41.0337 85.9801C42.469 86.8114 44.3032 86.3199 45.1305 84.8824L53.138 70.9685C53.9653 69.5309 53.4725 67.6916 52.0372 66.8603C50.602 66.029 48.7678 66.5204 47.9405 67.958Z" stroke="black" stroke-width="2"/>
<mask id="path-3-inside-1_148_1512" fill="white">
<path fill-rule="evenodd" clip-rule="evenodd" d="M74.3284 64H32.2388C14.4338 64 0 49.6731 0 32C0 14.3269 14.4338 0 32.2388 0C47.1165 0 59.6405 10.0032 63.3564 23.6034C66.5746 21.7088 70.3247 20.6222 74.3284 20.6222C86.2973 20.6222 96 30.3327 96 42.3111C96 54.2298 86.3939 63.903 74.5075 63.9993V64L74.3284 64Z"/>
</mask>
<path fill-rule="evenodd" clip-rule="evenodd" d="M74.3284 64H32.2388C14.4338 64 0 49.6731 0 32C0 14.3269 14.4338 0 32.2388 0C47.1165 0 59.6405 10.0032 63.3564 23.6034C66.5746 21.7088 70.3247 20.6222 74.3284 20.6222C86.2973 20.6222 96 30.3327 96 42.3111C96 54.2298 86.3939 63.903 74.5075 63.9993V64L74.3284 64Z" fill="#A2A2C1"/>
<path fill-rule="evenodd" clip-rule="evenodd" d="M74.3284 64H32.2388C14.4338 64 0 49.6731 0 32C0 14.3269 14.4338 0 32.2388 0C47.1165 0 59.6405 10.0032 63.3564 23.6034C66.5746 21.7088 70.3247 20.6222 74.3284 20.6222C86.2973 20.6222 96 30.3327 96 42.3111C96 54.2298 86.3939 63.903 74.5075 63.9993V64L74.3284 64Z" fill="black" fill-opacity="0.2"/>
<path d="M74.3284 64L74.3286 60H74.3284V64ZM63.3564 23.6034L59.4978 24.6576L60.8768 29.7048L65.3856 27.0504L63.3564 23.6034ZM74.5075 63.9993L74.4751 59.9994L70.5075 60.0316V63.9993H74.5075ZM74.5075 64L74.5073 68L78.5075 68.0002V64H74.5075ZM32.2388 68H74.3284V60H32.2388V68ZM32.2388 60C16.6149 60 4 47.436 4 32H-4C-4 51.9102 12.2528 68 32.2388 68V60ZM4 32C4 16.564 16.6149 4 32.2388 4V-4C12.2528 -4 -4 12.0898 -4 32H4ZM32.2388 4C45.2855 4 56.2497 12.7698 59.4978 24.6576L67.2149 22.5491C63.0312 7.23674 48.9476 -4 32.2388 -4V4ZM65.3856 27.0504C68.0058 25.5079 71.0578 24.6222 74.3284 24.6222V16.6222C69.5916 16.6222 65.1433 17.9097 61.3271 20.1563L65.3856 27.0504ZM74.3284 24.6222C84.0852 24.6222 92 32.5388 92 42.3111H100C100 28.1265 88.5095 16.6222 74.3284 16.6222V24.6222ZM92 42.3111C92 52.0345 84.1639 59.9209 74.4751 59.9994L74.5399 67.9992C88.6239 67.8851 100 56.4251 100 42.3111H92ZM78.5075 64V63.9993H70.5075V64H78.5075ZM74.3282 68L74.5073 68L74.5077 60L74.3286 60L74.3282 68Z" fill="black" mask="url(#path-3-inside-1_148_1512)"/>
<mask id="path-5-inside-2_148_1512" fill="white">
<path fill-rule="evenodd" clip-rule="evenodd" d="M70.3934 73.3758H63L67.9289 42.0005H82.7156L75.5961 64.6605H86.5492L66.8336 96.0358L70.3934 73.3758Z"/>
</mask>
<path fill-rule="evenodd" clip-rule="evenodd" d="M70.3934 73.3758H63L67.9289 42.0005H82.7156L75.5961 64.6605H86.5492L66.8336 96.0358L70.3934 73.3758Z" fill="#FFD729"/>
<path d="M63 73.3758L60.0363 72.9102L59.4919 76.3758H63V73.3758ZM70.3934 73.3758L73.357 73.8414L73.9014 70.3758H70.3934V73.3758ZM67.9289 42.0005V39.0005H65.3634L64.9652 41.5349L67.9289 42.0005ZM82.7156 42.0005L85.5777 42.8997L86.8028 39.0005H82.7156V42.0005ZM75.5961 64.6605L72.734 63.7613L71.5089 67.6605H75.5961V64.6605ZM86.5492 64.6605L89.0893 66.2567L91.9775 61.6605H86.5492V64.6605ZM66.8336 96.0358L63.8699 95.5702L69.3737 97.632L66.8336 96.0358ZM63 76.3758H70.3934V70.3758H63V76.3758ZM64.9652 41.5349L60.0363 72.9102L65.9637 73.8414L70.8926 42.4661L64.9652 41.5349ZM82.7156 39.0005H67.9289V45.0005H82.7156V39.0005ZM78.4581 65.5597L85.5777 42.8997L79.8535 41.1013L72.734 63.7613L78.4581 65.5597ZM86.5492 61.6605H75.5961V67.6605H86.5492V61.6605ZM69.3737 97.632L89.0893 66.2567L84.0091 63.0643L64.2935 94.4397L69.3737 97.632ZM67.4297 72.9102L63.8699 95.5702L69.7973 96.5014L73.357 73.8414L67.4297 72.9102Z" fill="black" mask="url(#path-5-inside-2_148_1512)"/>
</g>
<defs>
<clipPath id="clip0_148_1512">
<rect width="96" height="96" fill="white"/>
</clipPath>
</defs>
</svg>
