<svg width="48" height="48" viewBox="0 0 48 48" fill="none" xmlns="http://www.w3.org/2000/svg">
<g clip-path="url(#clip0_149_1604)">
<mask id="path-1-inside-1_149_1604" fill="white">
<path fill-rule="evenodd" clip-rule="evenodd" d="M25.0059 33.2695C25.9625 33.8236 26.291 35.0495 25.7396 36.0077L21.7356 42.965C21.1842 43.9232 19.9617 44.2508 19.0051 43.6967C18.0484 43.1426 17.7199 41.9167 18.2714 40.9585L22.2753 34.0012C22.8267 33.043 24.0493 32.7154 25.0059 33.2695ZM14.97 33.2695C15.9266 33.8236 16.2551 35.0495 15.7037 36.0077L9.20564 47.2988C8.65422 48.257 7.43169 48.5846 6.47506 48.0305C5.51843 47.4764 5.18995 46.2505 5.74137 45.2923L12.2394 34.0012C12.7908 33.043 14.0134 32.7154 14.97 33.2695Z"/>
</mask>
<path fill-rule="evenodd" clip-rule="evenodd" d="M25.0059 33.2695C25.9625 33.8236 26.291 35.0495 25.7396 36.0077L21.7356 42.965C21.1842 43.9232 19.9617 44.2508 19.0051 43.6967C18.0484 43.1426 17.7199 41.9167 18.2714 40.9585L22.2753 34.0012C22.8267 33.043 24.0493 32.7154 25.0059 33.2695ZM14.97 33.2695C15.9266 33.8236 16.2551 35.0495 15.7037 36.0077L9.20564 47.2988C8.65422 48.257 7.43169 48.5846 6.47506 48.0305C5.51843 47.4764 5.18995 46.2505 5.74137 45.2923L12.2394 34.0012C12.7908 33.043 14.0134 32.7154 14.97 33.2695Z" fill="#148FCC"/>
<path fill-rule="evenodd" clip-rule="evenodd" d="M25.0059 33.2695C25.9625 33.8236 26.291 35.0495 25.7396 36.0077L21.7356 42.965C21.1842 43.9232 19.9617 44.2508 19.0051 43.6967C18.0484 43.1426 17.7199 41.9167 18.2714 40.9585L22.2753 34.0012C22.8267 33.043 24.0493 32.7154 25.0059 33.2695ZM14.97 33.2695C15.9266 33.8236 16.2551 35.0495 15.7037 36.0077L9.20564 47.2988C8.65422 48.257 7.43169 48.5846 6.47506 48.0305C5.51843 47.4764 5.18995 46.2505 5.74137 45.2923L12.2394 34.0012C12.7908 33.043 14.0134 32.7154 14.97 33.2695Z" fill="black" fill-opacity="0.1"/>
<path d="M25.7396 36.0077L27.0397 36.7559L27.0397 36.7559L25.7396 36.0077ZM21.7356 42.965L20.4356 42.2168L20.4356 42.2168L21.7356 42.965ZM19.0051 43.6967L19.7569 42.3987L19.7569 42.3987L19.0051 43.6967ZM18.2714 40.9585L16.9713 40.2103L16.9713 40.2103L18.2714 40.9585ZM22.2753 34.0012L23.5754 34.7494L23.5754 34.7494L22.2753 34.0012ZM15.7037 36.0077L14.4036 35.2595L14.4036 35.2595L15.7037 36.0077ZM14.97 33.2695L14.2182 34.5675L14.2182 34.5675L14.97 33.2695ZM9.20564 47.2988L7.90557 46.5506L7.90557 46.5506L9.20564 47.2988ZM6.47506 48.0305L5.72326 49.3285L5.72326 49.3285L6.47506 48.0305ZM5.74137 45.2923L4.4413 44.5441L4.4413 44.5441L5.74137 45.2923ZM12.2394 34.0012L13.5395 34.7494L13.5395 34.7494L12.2394 34.0012ZM27.0397 36.7559C28.0035 35.0811 27.4298 32.94 25.7577 31.9715L24.2541 34.5675C24.4953 34.7072 24.5785 35.0179 24.4395 35.2595L27.0397 36.7559ZM23.0357 43.7132L27.0397 36.7559L24.4395 35.2595L20.4356 42.2168L23.0357 43.7132ZM18.2533 44.9947C19.9282 45.9648 22.0703 45.3908 23.0357 43.7132L20.4356 42.2168C20.2982 42.4556 19.9952 42.5367 19.7569 42.3987L18.2533 44.9947ZM16.9713 40.2103C16.0075 41.8851 16.5812 44.0262 18.2533 44.9947L19.7569 42.3987C19.5157 42.259 19.4324 41.9482 19.5715 41.7067L16.9713 40.2103ZM20.9752 33.253L16.9713 40.2103L19.5715 41.7067L23.5754 34.7494L20.9752 33.253ZM25.7577 31.9715C24.0828 31.0014 21.9407 31.5754 20.9752 33.253L23.5754 34.7494C23.7128 34.5106 24.0157 34.4295 24.2541 34.5675L25.7577 31.9715ZM17.0038 36.7559C17.9676 35.0811 17.3939 32.94 15.7218 31.9715L14.2182 34.5675C14.4594 34.7072 14.5426 35.0179 14.4036 35.2595L17.0038 36.7559ZM10.5057 48.047L17.0038 36.7559L14.4036 35.2595L7.90557 46.5506L10.5057 48.047ZM5.72326 49.3285C7.39816 50.2986 9.54027 49.7246 10.5057 48.047L7.90557 46.5506C7.76817 46.7894 7.46523 46.8705 7.22687 46.7325L5.72326 49.3285ZM4.4413 44.5441C3.47746 46.2189 4.05117 48.36 5.72326 49.3285L7.22687 46.7325C6.98569 46.5928 6.90243 46.2821 7.04145 46.0405L4.4413 44.5441ZM10.9393 33.253L4.4413 44.5441L7.04145 46.0405L13.5395 34.7494L10.9393 33.253ZM15.7218 31.9715C14.0469 31.0014 11.9048 31.5754 10.9393 33.253L13.5395 34.7494C13.6769 34.5106 13.9798 34.4295 14.2182 34.5675L15.7218 31.9715Z" fill="black" mask="url(#path-1-inside-1_149_1604)"/>
<mask id="path-3-inside-2_149_1604" fill="white">
<path fill-rule="evenodd" clip-rule="evenodd" d="M37.1669 31.6215L16.1206 31.6215C7.21744 31.6215 0 24.4575 0 15.6203C0 6.78311 7.21744 -0.380859 16.1206 -0.380859C23.56 -0.380859 29.8224 4.62113 31.6805 11.4217C33.2897 10.4743 35.1649 9.93101 37.1669 9.93101C43.1518 9.93101 48.0035 14.7866 48.0035 20.7763C48.0035 26.736 43.2001 31.573 37.2565 31.6211V31.6215L37.1669 31.6215Z"/>
</mask>
<path fill-rule="evenodd" clip-rule="evenodd" d="M37.1669 31.6215L16.1206 31.6215C7.21744 31.6215 0 24.4575 0 15.6203C0 6.78311 7.21744 -0.380859 16.1206 -0.380859C23.56 -0.380859 29.8224 4.62113 31.6805 11.4217C33.2897 10.4743 35.1649 9.93101 37.1669 9.93101C43.1518 9.93101 48.0035 14.7866 48.0035 20.7763C48.0035 26.736 43.2001 31.573 37.2565 31.6211V31.6215L37.1669 31.6215Z" fill="#A2A2C1"/>
<path fill-rule="evenodd" clip-rule="evenodd" d="M37.1669 31.6215L16.1206 31.6215C7.21744 31.6215 0 24.4575 0 15.6203C0 6.78311 7.21744 -0.380859 16.1206 -0.380859C23.56 -0.380859 29.8224 4.62113 31.6805 11.4217C33.2897 10.4743 35.1649 9.93101 37.1669 9.93101C43.1518 9.93101 48.0035 14.7866 48.0035 20.7763C48.0035 26.736 43.2001 31.573 37.2565 31.6211V31.6215L37.1669 31.6215Z" fill="black" fill-opacity="0.2"/>
<path d="M16.1206 31.6215L16.1206 34.6215L16.1206 34.6215L16.1206 31.6215ZM37.1669 31.6215L37.1671 28.6215L37.1669 28.6215L37.1669 31.6215ZM31.6805 11.4217L28.7866 12.2124L29.8208 15.9977L33.2025 14.007L31.6805 11.4217ZM37.2565 31.6211L37.2322 28.6212L34.2565 28.6453V31.6211H37.2565ZM37.2565 31.6215L37.2564 34.6215L40.2565 34.6216V31.6215H37.2565ZM16.1206 34.6215L37.1669 34.6215L37.1669 28.6215L16.1206 28.6215L16.1206 34.6215ZM16.1206 28.6215C8.85322 28.6215 3 22.7797 3 15.6203H-3C-3 26.1354 5.58165 34.6215 16.1206 34.6215V28.6215ZM3 15.6203C3 8.46096 8.85322 2.61914 16.1206 2.61914V-3.38086C5.58165 -3.38086 -3 5.10527 -3 15.6203H3ZM16.1206 2.61914C22.1867 2.61914 27.2794 6.69601 28.7866 12.2124L34.5744 10.631C32.3655 2.54625 24.9333 -3.38086 16.1206 -3.38086V2.61914ZM33.2025 14.007C34.3632 13.3237 35.7147 12.931 37.1669 12.931V6.93101C34.6151 6.93101 32.2163 7.62502 30.1586 8.83642L33.2025 14.007ZM37.1669 12.931C41.4927 12.931 45.0035 16.4412 45.0035 20.7763H51.0035C51.0035 13.132 44.8109 6.93101 37.1669 6.93101V12.931ZM45.0035 20.7763C45.0035 25.0895 41.5276 28.5864 37.2322 28.6212L37.2808 34.621C44.8727 34.5595 51.0035 28.3825 51.0035 20.7763H45.0035ZM40.2565 31.6215V31.6211H34.2565V31.6215H40.2565ZM37.1668 34.6215L37.2564 34.6215L37.2566 28.6215L37.1671 28.6215L37.1668 34.6215Z" fill="black" mask="url(#path-3-inside-2_149_1604)"/>
<mask id="path-5-inside-3_149_1604" fill="white">
<path fill-rule="evenodd" clip-rule="evenodd" d="M36.697 36.689H33L35.4647 21H42.8587L39.2986 32.3308H44.7756L34.917 48.0198L36.697 36.689Z"/>
</mask>
<path fill-rule="evenodd" clip-rule="evenodd" d="M36.697 36.689H33L35.4647 21H42.8587L39.2986 32.3308H44.7756L34.917 48.0198L36.697 36.689Z" fill="#FFD729"/>
<path d="M33 36.689L31.0242 36.3786L30.6613 38.689H33V36.689ZM36.697 36.689L38.6728 36.9994L39.0357 34.689H36.697V36.689ZM35.4647 21V19H33.7543L33.4889 20.6896L35.4647 21ZM42.8587 21L44.7667 21.5995L45.5834 19H42.8587V21ZM39.2986 32.3308L37.3906 31.7313L36.5739 34.3308H39.2986V32.3308ZM44.7756 32.3308L46.469 33.3949L48.3945 30.3308H44.7756V32.3308ZM34.917 48.0198L32.9412 47.7094L36.6104 49.0839L34.917 48.0198ZM33 38.689H36.697V34.689H33V38.689ZM33.4889 20.6896L31.0242 36.3786L34.9758 36.9994L37.4404 21.3104L33.4889 20.6896ZM42.8587 19H35.4647V23H42.8587V19ZM41.2067 32.9303L44.7667 21.5995L40.9506 20.4005L37.3906 31.7313L41.2067 32.9303ZM44.7756 30.3308H39.2986V34.3308H44.7756V30.3308ZM36.6104 49.0839L46.469 33.3949L43.0822 31.2667L33.2236 46.9557L36.6104 49.0839ZM34.7212 36.3786L32.9412 47.7094L36.8927 48.3302L38.6728 36.9994L34.7212 36.3786Z" fill="black" mask="url(#path-5-inside-3_149_1604)"/>
</g>
<defs>
<clipPath id="clip0_149_1604">
<rect width="48" height="48" fill="white"/>
</clipPath>
</defs>
</svg>
