<svg width="49" height="48" viewBox="0 0 49 48" fill="none" xmlns="http://www.w3.org/2000/svg">
<g clip-path="url(#clip0_97_720)">
<mask id="path-1-inside-1_97_720" fill="white">
<path fill-rule="evenodd" clip-rule="evenodd" d="M17.1961 35.7077C17.7476 34.7495 17.4191 33.5236 16.4624 32.9695C15.5058 32.4154 14.2833 32.743 13.7319 33.7012L7.23381 44.9923C6.68238 45.9505 7.01087 47.1764 7.9675 47.7305C8.92413 48.2846 10.1467 47.957 10.6981 46.9988L17.1961 35.7077ZM37.2325 35.7077C37.7839 34.7495 37.4554 33.5236 36.4988 32.9695C35.5422 32.4154 34.3197 32.743 33.7682 33.7012L27.2702 44.9923C26.7188 45.9505 27.0472 47.1764 28.0039 47.7305C28.9605 48.2846 30.183 47.957 30.7345 46.9988L37.2325 35.7077ZM25.4983 32.9695C26.4549 33.5236 26.7834 34.7495 26.232 35.7077L19.7339 46.9988C19.1825 47.957 17.96 48.2846 17.0033 47.7305C16.0467 47.1764 15.7182 45.9505 16.2696 44.9923L22.7677 33.7012C23.3191 32.743 24.5416 32.4154 25.4983 32.9695Z"/>
</mask>
<path fill-rule="evenodd" clip-rule="evenodd" d="M17.1961 35.7077C17.7476 34.7495 17.4191 33.5236 16.4624 32.9695C15.5058 32.4154 14.2833 32.743 13.7319 33.7012L7.23381 44.9923C6.68238 45.9505 7.01087 47.1764 7.9675 47.7305C8.92413 48.2846 10.1467 47.957 10.6981 46.9988L17.1961 35.7077ZM37.2325 35.7077C37.7839 34.7495 37.4554 33.5236 36.4988 32.9695C35.5422 32.4154 34.3197 32.743 33.7682 33.7012L27.2702 44.9923C26.7188 45.9505 27.0472 47.1764 28.0039 47.7305C28.9605 48.2846 30.183 47.957 30.7345 46.9988L37.2325 35.7077ZM25.4983 32.9695C26.4549 33.5236 26.7834 34.7495 26.232 35.7077L19.7339 46.9988C19.1825 47.957 17.96 48.2846 17.0033 47.7305C16.0467 47.1764 15.7182 45.9505 16.2696 44.9923L22.7677 33.7012C23.3191 32.743 24.5416 32.4154 25.4983 32.9695Z" fill="#148FCC"/>
<path fill-rule="evenodd" clip-rule="evenodd" d="M17.1961 35.7077C17.7476 34.7495 17.4191 33.5236 16.4624 32.9695C15.5058 32.4154 14.2833 32.743 13.7319 33.7012L7.23381 44.9923C6.68238 45.9505 7.01087 47.1764 7.9675 47.7305C8.92413 48.2846 10.1467 47.957 10.6981 46.9988L17.1961 35.7077ZM37.2325 35.7077C37.7839 34.7495 37.4554 33.5236 36.4988 32.9695C35.5422 32.4154 34.3197 32.743 33.7682 33.7012L27.2702 44.9923C26.7188 45.9505 27.0472 47.1764 28.0039 47.7305C28.9605 48.2846 30.183 47.957 30.7345 46.9988L37.2325 35.7077ZM25.4983 32.9695C26.4549 33.5236 26.7834 34.7495 26.232 35.7077L19.7339 46.9988C19.1825 47.957 17.96 48.2846 17.0033 47.7305C16.0467 47.1764 15.7182 45.9505 16.2696 44.9923L22.7677 33.7012C23.3191 32.743 24.5416 32.4154 25.4983 32.9695Z" fill="black" fill-opacity="0.1"/>
<path d="M16.4624 32.9695L17.2142 31.6715L17.2142 31.6715L16.4624 32.9695ZM17.1961 35.7077L18.4962 36.4559L18.4962 36.4559L17.1961 35.7077ZM13.7319 33.7012L15.0319 34.4494L15.0319 34.4494L13.7319 33.7012ZM7.23381 44.9923L5.93373 44.2441L5.93373 44.2441L7.23381 44.9923ZM7.9675 47.7305L7.21569 49.0285L7.21569 49.0285L7.9675 47.7305ZM10.6981 46.9988L11.9982 47.747L11.9982 47.747L10.6981 46.9988ZM36.4988 32.9695L37.2506 31.6715L37.2506 31.6715L36.4988 32.9695ZM37.2325 35.7077L38.5326 36.4559L38.5326 36.4559L37.2325 35.7077ZM33.7682 33.7012L32.4682 32.953L32.4682 32.953L33.7682 33.7012ZM27.2702 44.9923L28.5703 45.7405L28.5703 45.7405L27.2702 44.9923ZM28.0039 47.7305L27.2521 49.0285L27.2521 49.0285L28.0039 47.7305ZM30.7345 46.9988L32.0345 47.747L32.0345 47.747L30.7345 46.9988ZM26.232 35.7077L24.9319 34.9595L24.9319 34.9595L26.232 35.7077ZM25.4983 32.9695L26.2501 31.6715L26.2501 31.6715L25.4983 32.9695ZM19.7339 46.9988L18.4338 46.2506L18.4338 46.2506L19.7339 46.9988ZM17.0033 47.7305L16.2515 49.0285L16.2515 49.0285L17.0033 47.7305ZM16.2696 44.9923L14.9696 44.2441L14.9696 44.2441L16.2696 44.9923ZM22.7677 33.7012L24.0678 34.4494L24.0678 34.4494L22.7677 33.7012ZM15.7106 34.2675C15.9518 34.4072 16.0351 34.7179 15.896 34.9595L18.4962 36.4559C19.46 34.7811 18.8863 32.64 17.2142 31.6715L15.7106 34.2675ZM15.0319 34.4494C15.1693 34.2106 15.4723 34.1295 15.7106 34.2675L17.2142 31.6715C15.5393 30.7014 13.3972 31.2754 12.4318 32.953L15.0319 34.4494ZM8.53389 45.7405L15.0319 34.4494L12.4318 32.953L5.93373 44.2441L8.53389 45.7405ZM8.7193 46.4325C8.47813 46.2928 8.39486 45.9821 8.53389 45.7405L5.93373 44.2441C4.9699 45.9189 5.54361 48.06 7.21569 49.0285L8.7193 46.4325ZM9.398 46.2506C9.2606 46.4894 8.95766 46.5705 8.7193 46.4325L7.21569 49.0285C8.89059 49.9986 11.0327 49.4246 11.9982 47.747L9.398 46.2506ZM15.896 34.9595L9.398 46.2506L11.9982 47.747L18.4962 36.4559L15.896 34.9595ZM35.747 34.2675C35.9882 34.4072 36.0714 34.7179 35.9324 34.9595L38.5326 36.4559C39.4964 34.7811 38.9227 32.64 37.2506 31.6715L35.747 34.2675ZM35.0683 34.4494C35.2057 34.2106 35.5086 34.1295 35.747 34.2675L37.2506 31.6715C35.5757 30.7014 33.4336 31.2754 32.4682 32.953L35.0683 34.4494ZM28.5703 45.7405L35.0683 34.4494L32.4682 32.953L25.9701 44.2441L28.5703 45.7405ZM28.7557 46.4325C28.5145 46.2928 28.4312 45.9821 28.5703 45.7405L25.9701 44.2441C25.0063 45.9189 25.58 48.06 27.2521 49.0285L28.7557 46.4325ZM29.4344 46.2506C29.297 46.4894 28.994 46.5705 28.7557 46.4325L27.2521 49.0285C28.927 49.9986 31.0691 49.4246 32.0345 47.747L29.4344 46.2506ZM35.9324 34.9595L29.4344 46.2506L32.0345 47.747L38.5326 36.4559L35.9324 34.9595ZM27.532 36.4559C28.4959 34.7811 27.9222 32.64 26.2501 31.6715L24.7465 34.2675C24.9876 34.4072 25.0709 34.7179 24.9319 34.9595L27.532 36.4559ZM21.034 47.747L27.532 36.4559L24.9319 34.9595L18.4338 46.2506L21.034 47.747ZM16.2515 49.0285C17.9264 49.9986 20.0685 49.4246 21.034 47.747L18.4338 46.2506C18.2964 46.4894 17.9935 46.5705 17.7551 46.4325L16.2515 49.0285ZM14.9696 44.2441C14.0057 45.9189 14.5794 48.06 16.2515 49.0285L17.7551 46.4325C17.514 46.2928 17.4307 45.9821 17.5697 45.7405L14.9696 44.2441ZM21.4676 32.953L14.9696 44.2441L17.5697 45.7405L24.0678 34.4494L21.4676 32.953ZM26.2501 31.6715C24.5752 30.7014 22.4331 31.2754 21.4676 32.953L24.0678 34.4494C24.2052 34.2106 24.5081 34.1295 24.7465 34.2675L26.2501 31.6715Z" fill="black" mask="url(#path-1-inside-1_97_720)"/>
<mask id="path-3-inside-2_97_720" fill="white">
<path fill-rule="evenodd" clip-rule="evenodd" d="M37.6642 32H16.6194C7.7169 32 0.5 24.8366 0.5 16C0.5 7.16345 7.7169 0 16.6194 0C24.0583 0 30.3202 5.00162 32.1782 11.8017C33.7873 10.8544 35.6623 10.3111 37.6642 10.3111C43.6487 10.3111 48.5 15.1663 48.5 21.1556C48.5 27.1149 43.697 31.9515 37.7537 31.9996V32H37.6642Z"/>
</mask>
<path fill-rule="evenodd" clip-rule="evenodd" d="M37.6642 32H16.6194C7.7169 32 0.5 24.8366 0.5 16C0.5 7.16345 7.7169 0 16.6194 0C24.0583 0 30.3202 5.00162 32.1782 11.8017C33.7873 10.8544 35.6623 10.3111 37.6642 10.3111C43.6487 10.3111 48.5 15.1663 48.5 21.1556C48.5 27.1149 43.697 31.9515 37.7537 31.9996V32H37.6642Z" fill="white"/>
<path d="M32.1782 11.8017L28.3196 12.8559L29.6986 17.9031L34.2075 15.2487L32.1782 11.8017ZM37.7537 31.9996L37.7213 27.9998L33.7537 28.0319V31.9996H37.7537ZM37.7537 32V36H41.7537V32H37.7537ZM16.6194 36H37.6642V28H16.6194V36ZM16.6194 28C9.89795 28 4.5 22.5994 4.5 16H-3.5C-3.5 27.0737 5.53586 36 16.6194 36V28ZM4.5 16C4.5 9.40057 9.89795 4 16.6194 4V-4C5.53586 -4 -3.5 4.92632 -3.5 16H4.5ZM16.6194 4C22.2272 4 26.9295 7.76813 28.3196 12.8559L36.0367 10.7474C33.711 2.23512 25.8893 -4 16.6194 -4V4ZM34.2075 15.2487C35.2185 14.6535 36.3954 14.3111 37.6642 14.3111V6.31111C34.9293 6.31111 32.356 7.05531 30.1489 8.35465L34.2075 15.2487ZM37.6642 14.3111C41.4365 14.3111 44.5 17.3725 44.5 21.1556H52.5C52.5 12.9602 45.8608 6.31111 37.6642 6.31111V14.3111ZM44.5 21.1556C44.5 24.9196 41.467 27.9694 37.7213 27.9998L37.7861 35.9995C45.927 35.9336 52.5 29.3102 52.5 21.1556H44.5ZM41.7537 32V31.9996H33.7537V32H41.7537ZM37.6642 36H37.7537V28H37.6642V36Z" fill="black" mask="url(#path-3-inside-2_97_720)"/>
<mask id="path-5-inside-3_97_720" fill="white">
<path fill-rule="evenodd" clip-rule="evenodd" d="M35.5942 37C35.5973 38.1046 36.4952 39.0001 37.5998 39.0001C38.7043 39.0001 39.5973 38.1046 39.5942 37L39.5844 33.4586L42.6466 35.2153C43.6047 35.7649 44.8291 35.435 45.3814 34.4784C45.9337 33.5218 45.6047 32.3008 44.6466 31.7512L41.5748 29.989L44.6273 28.2153C45.5823 27.6603 45.9088 26.435 45.3566 25.4784C44.8043 24.5218 43.5823 24.1962 42.6273 24.7512L39.5651 26.5305L39.5553 23C39.5522 21.8954 38.6543 21 37.5497 21C36.4452 21 35.5522 21.8954 35.5553 23L35.5651 26.5416L32.5028 24.7848C31.5446 24.2352 30.3202 24.5651 29.7679 25.5217C29.2156 26.4783 29.5446 27.6993 30.5027 28.249L33.5748 30.0112L30.5223 31.7849C29.5673 32.3398 29.2408 33.5652 29.7931 34.5217C30.3453 35.4783 31.5673 35.8039 32.5223 35.249L35.5844 33.4698L35.5942 37Z"/>
</mask>
<path fill-rule="evenodd" clip-rule="evenodd" d="M35.5942 37C35.5973 38.1046 36.4952 39.0001 37.5998 39.0001C38.7043 39.0001 39.5973 38.1046 39.5942 37L39.5844 33.4586L42.6466 35.2153C43.6047 35.7649 44.8291 35.435 45.3814 34.4784C45.9337 33.5218 45.6047 32.3008 44.6466 31.7512L41.5748 29.989L44.6273 28.2153C45.5823 27.6603 45.9088 26.435 45.3566 25.4784C44.8043 24.5218 43.5823 24.1962 42.6273 24.7512L39.5651 26.5305L39.5553 23C39.5522 21.8954 38.6543 21 37.5497 21C36.4452 21 35.5522 21.8954 35.5553 23L35.5651 26.5416L32.5028 24.7848C31.5446 24.2352 30.3202 24.5651 29.7679 25.5217C29.2156 26.4783 29.5446 27.6993 30.5027 28.249L33.5748 30.0112L30.5223 31.7849C29.5673 32.3398 29.2408 33.5652 29.7931 34.5217C30.3453 35.4783 31.5673 35.8039 32.5223 35.249L35.5844 33.4698L35.5942 37Z" fill="#148FCC"/>
<path fill-rule="evenodd" clip-rule="evenodd" d="M35.5942 37C35.5973 38.1046 36.4952 39.0001 37.5998 39.0001C38.7043 39.0001 39.5973 38.1046 39.5942 37L39.5844 33.4586L42.6466 35.2153C43.6047 35.7649 44.8291 35.435 45.3814 34.4784C45.9337 33.5218 45.6047 32.3008 44.6466 31.7512L41.5748 29.989L44.6273 28.2153C45.5823 27.6603 45.9088 26.435 45.3566 25.4784C44.8043 24.5218 43.5823 24.1962 42.6273 24.7512L39.5651 26.5305L39.5553 23C39.5522 21.8954 38.6543 21 37.5497 21C36.4452 21 35.5522 21.8954 35.5553 23L35.5651 26.5416L32.5028 24.7848C31.5446 24.2352 30.3202 24.5651 29.7679 25.5217C29.2156 26.4783 29.5446 27.6993 30.5027 28.249L33.5748 30.0112L30.5223 31.7849C29.5673 32.3398 29.2408 33.5652 29.7931 34.5217C30.3453 35.4783 31.5673 35.8039 32.5223 35.249L35.5844 33.4698L35.5942 37Z" fill="white" fill-opacity="0.5"/>
<path d="M35.5942 37L34.0942 37.0042L34.0942 37.0042L35.5942 37ZM39.5942 37L41.0942 36.9959L41.0942 36.9959L39.5942 37ZM39.5844 33.4586L40.3308 32.1575L38.0772 30.8647L38.0844 33.4628L39.5844 33.4586ZM42.6466 35.2153L41.9002 36.5164L41.9002 36.5164L42.6466 35.2153ZM45.3814 34.4784L46.6805 35.2284L46.6805 35.2284L45.3814 34.4784ZM44.6466 31.7512L45.393 30.45L45.393 30.45L44.6466 31.7512ZM41.5748 29.989L40.8211 28.692L38.5748 29.9973L40.8284 31.2901L41.5748 29.989ZM44.6273 28.2153L45.3809 29.5122L45.3809 29.5122L44.6273 28.2153ZM45.3566 25.4784L46.6556 24.7284L46.6556 24.7284L45.3566 25.4784ZM42.6273 24.7512L43.3809 26.0481L43.3809 26.0481L42.6273 24.7512ZM39.5651 26.5305L38.0651 26.5346L38.0723 29.1327L40.3187 27.8274L39.5651 26.5305ZM39.5553 23L41.0553 22.9958L41.0553 22.9958L39.5553 23ZM35.5553 23L34.0553 23.0042L34.0553 23.0042L35.5553 23ZM35.5651 26.5416L34.8187 27.8427L37.0723 29.1355L37.0651 26.5374L35.5651 26.5416ZM32.5028 24.7848L33.2491 23.4837L33.2491 23.4837L32.5028 24.7848ZM29.7679 25.5217L31.067 26.2717L31.067 26.2717L29.7679 25.5217ZM30.5027 28.249L31.2491 26.9478L31.2491 26.9478L30.5027 28.249ZM33.5748 30.0112L34.3284 31.3082L36.5747 30.0029L34.3211 28.7101L33.5748 30.0112ZM30.5223 31.7849L29.7687 30.4879L29.7687 30.4879L30.5223 31.7849ZM29.7931 34.5217L31.0921 33.7717L31.0921 33.7717L29.7931 34.5217ZM32.5223 35.249L31.7687 33.952L32.5223 35.249ZM35.5844 33.4698L37.0844 33.4656L37.0772 30.8675L34.8308 32.1728L35.5844 33.4698ZM37.5998 37.5001C37.322 37.5001 37.0949 37.2737 37.0942 36.9959L34.0942 37.0042C34.0996 38.9356 35.6684 40.5001 37.5998 40.5001V37.5001ZM38.0942 37.0042C38.095 37.2787 37.8743 37.5001 37.5998 37.5001V40.5001C39.5344 40.5001 41.0996 38.9305 41.0942 36.9959L38.0942 37.0042ZM38.0844 33.4628L38.0942 37.0042L41.0942 36.9959L41.0844 33.4545L38.0844 33.4628ZM38.838 34.7598L41.9002 36.5164L43.393 33.9142L40.3308 32.1575L38.838 34.7598ZM41.9002 36.5164C43.5755 37.4774 45.7148 36.901 46.6805 35.2284L44.0824 33.7284C43.9435 33.969 43.6339 34.0524 43.393 33.9142L41.9002 36.5164ZM46.6805 35.2284C47.6478 33.553 47.0711 31.4127 45.393 30.45L43.9002 33.0523C44.1383 33.1889 44.2196 33.4907 44.0824 33.7284L46.6805 35.2284ZM45.393 30.45L42.3211 28.6879L40.8284 31.2901L43.9002 33.0523L45.393 30.45ZM43.8737 26.9183L40.8211 28.692L42.3284 31.2859L45.3809 29.5122L43.8737 26.9183ZM44.0575 26.2284C44.1964 26.469 44.1139 26.7788 43.8737 26.9183L45.3809 29.5122C47.0508 28.5419 47.6213 26.401 46.6556 24.7284L44.0575 26.2284ZM43.3809 26.0481C43.6182 25.9102 43.9203 25.9907 44.0575 26.2284L46.6556 24.7284C45.6883 23.053 43.5464 22.4822 41.8737 23.4542L43.3809 26.0481ZM40.3187 27.8274L43.3809 26.0481L41.8737 23.4542L38.8115 25.2335L40.3187 27.8274ZM38.0553 23.0042L38.0651 26.5346L41.0651 26.5263L41.0553 22.9958L38.0553 23.0042ZM37.5497 22.5C37.8275 22.5 38.0545 22.7264 38.0553 23.0042L41.0553 22.9958C41.0499 21.0645 39.4811 19.5 37.5497 19.5V22.5ZM37.0553 22.9958C37.0545 22.7213 37.2752 22.5 37.5497 22.5V19.5C35.6151 19.5 34.0499 21.0695 34.0553 23.0042L37.0553 22.9958ZM37.0651 26.5374L37.0553 22.9958L34.0553 23.0042L34.0651 26.5457L37.0651 26.5374ZM36.3115 25.2404L33.2491 23.4837L31.7564 26.0859L34.8187 27.8427L36.3115 25.2404ZM33.2491 23.4837C31.5739 22.5227 29.4346 23.0991 28.4689 24.7717L31.067 26.2717C31.2058 26.0311 31.5154 25.9477 31.7564 26.0859L33.2491 23.4837ZM28.4689 24.7717C27.5016 26.4471 28.0782 28.5874 29.7564 29.5501L31.2491 26.9478C31.011 26.8112 30.9297 26.5094 31.067 26.2717L28.4689 24.7717ZM29.7564 29.5501L32.8284 31.3123L34.3211 28.7101L31.2491 26.9478L29.7564 29.5501ZM31.2759 33.0818L34.3284 31.3082L32.8212 28.7143L29.7687 30.4879L31.2759 33.0818ZM31.0921 33.7717C30.9532 33.5312 31.0358 33.2214 31.2759 33.0818L29.7687 30.4879C28.0988 31.4582 27.5283 33.5991 28.494 35.2717L31.0921 33.7717ZM31.7687 33.952C31.5314 34.09 31.2294 34.0095 31.0921 33.7717L28.494 35.2717C29.4613 36.9472 31.6032 37.5179 33.276 36.5459L31.7687 33.952ZM34.8308 32.1728L31.7687 33.952L33.276 36.5459L36.338 34.7667L34.8308 32.1728ZM37.0942 36.9959L37.0844 33.4656L34.0844 33.4739L34.0942 37.0042L37.0942 36.9959Z" fill="black" mask="url(#path-5-inside-3_97_720)"/>
</g>
<defs>
<clipPath id="clip0_97_720">
<rect width="48" height="48" fill="white" transform="translate(0.5)"/>
</clipPath>
</defs>
</svg>
