<svg width="97" height="96" viewBox="0 0 97 96" fill="none" xmlns="http://www.w3.org/2000/svg">
<g clip-path="url(#clip0_97_710)">
<mask id="path-1-inside-1_97_710" fill="white">
<path fill-rule="evenodd" clip-rule="evenodd" d="M54.492 90.052C53.3918 91.9697 54.0522 94.4205 55.9669 95.526C57.8816 96.6315 60.3256 95.9729 61.4258 94.0552L74.3898 71.456C75.4899 69.5382 74.8296 67.0874 72.9149 65.982C71.0002 64.8765 68.5562 65.535 67.456 67.4528L54.492 90.052ZM14.5217 90.0518C13.4216 91.9695 14.0819 94.4203 15.9966 95.5258C17.9114 96.6313 20.3554 95.9727 21.4555 94.055L34.4195 71.4558C35.5197 69.538 34.8593 67.0872 32.9446 65.9818C31.0299 64.8763 28.5859 65.5348 27.4858 67.4526L14.5217 90.0518ZM35.9669 95.5259C34.0522 94.4205 33.3918 91.9697 34.492 90.0519L47.456 67.4527C48.5562 65.535 51.0002 64.8765 52.9149 65.9819C54.8296 67.0874 55.4899 69.5382 54.3898 71.456L41.4258 94.0551C40.3256 95.9729 37.8816 96.6314 35.9669 95.5259Z"/>
</mask>
<path fill-rule="evenodd" clip-rule="evenodd" d="M54.492 90.052C53.3918 91.9697 54.0522 94.4205 55.9669 95.526C57.8816 96.6315 60.3256 95.9729 61.4258 94.0552L74.3898 71.456C75.4899 69.5382 74.8296 67.0874 72.9149 65.982C71.0002 64.8765 68.5562 65.535 67.456 67.4528L54.492 90.052ZM14.5217 90.0518C13.4216 91.9695 14.0819 94.4203 15.9966 95.5258C17.9114 96.6313 20.3554 95.9727 21.4555 94.055L34.4195 71.4558C35.5197 69.538 34.8593 67.0872 32.9446 65.9818C31.0299 64.8763 28.5859 65.5348 27.4858 67.4526L14.5217 90.0518ZM35.9669 95.5259C34.0522 94.4205 33.3918 91.9697 34.492 90.0519L47.456 67.4527C48.5562 65.535 51.0002 64.8765 52.9149 65.9819C54.8296 67.0874 55.4899 69.5382 54.3898 71.456L41.4258 94.0551C40.3256 95.9729 37.8816 96.6314 35.9669 95.5259Z" fill="#148FCC"/>
<path fill-rule="evenodd" clip-rule="evenodd" d="M54.492 90.052C53.3918 91.9697 54.0522 94.4205 55.9669 95.526C57.8816 96.6315 60.3256 95.9729 61.4258 94.0552L74.3898 71.456C75.4899 69.5382 74.8296 67.0874 72.9149 65.982C71.0002 64.8765 68.5562 65.535 67.456 67.4528L54.492 90.052ZM14.5217 90.0518C13.4216 91.9695 14.0819 94.4203 15.9966 95.5258C17.9114 96.6313 20.3554 95.9727 21.4555 94.055L34.4195 71.4558C35.5197 69.538 34.8593 67.0872 32.9446 65.9818C31.0299 64.8763 28.5859 65.5348 27.4858 67.4526L14.5217 90.0518ZM35.9669 95.5259C34.0522 94.4205 33.3918 91.9697 34.492 90.0519L47.456 67.4527C48.5562 65.535 51.0002 64.8765 52.9149 65.9819C54.8296 67.0874 55.4899 69.5382 54.3898 71.456L41.4258 94.0551C40.3256 95.9729 37.8816 96.6314 35.9669 95.5259Z" fill="black" fill-opacity="0.1"/>
<path d="M55.9669 95.526L56.9669 93.7939L56.9669 93.7939L55.9669 95.526ZM54.492 90.052L52.7572 89.0568L52.7572 89.0568L54.492 90.052ZM61.4258 94.0552L59.6909 93.06L59.6909 93.06L61.4258 94.0552ZM74.3898 71.456L76.1246 72.4512L76.1246 72.4512L74.3898 71.456ZM72.9149 65.982L73.9149 64.2499L73.9149 64.2499L72.9149 65.982ZM67.456 67.4528L65.7212 66.4576L65.7212 66.4576L67.456 67.4528ZM15.9966 95.5258L16.9966 93.7938L16.9966 93.7938L15.9966 95.5258ZM14.5217 90.0518L16.2565 91.0469L16.2565 91.0469L14.5217 90.0518ZM21.4555 94.055L23.1903 95.0502L23.1903 95.0502L21.4555 94.055ZM34.4195 71.4558L32.6847 70.4606L32.6847 70.4606L34.4195 71.4558ZM32.9446 65.9818L33.9446 64.2497L33.9446 64.2497L32.9446 65.9818ZM27.4858 67.4526L25.7509 66.4574L25.7509 66.4574L27.4858 67.4526ZM34.492 90.0519L36.2268 91.0471L36.2268 91.0471L34.492 90.0519ZM35.9669 95.5259L36.9669 93.7939L36.9669 93.7939L35.9669 95.5259ZM47.456 67.4527L45.7212 66.4576L45.7212 66.4576L47.456 67.4527ZM52.9149 65.9819L51.9149 67.714L51.9149 67.714L52.9149 65.9819ZM54.3898 71.456L56.1246 72.4511L56.1246 72.4511L54.3898 71.456ZM41.4258 94.0551L43.1606 95.0503L43.1606 95.0503L41.4258 94.0551ZM56.9669 93.7939C56.0069 93.2397 55.6752 92.0087 56.2268 91.0471L52.7572 89.0568C51.1085 91.9308 52.0975 95.6014 54.9669 97.258L56.9669 93.7939ZM59.6909 93.06C59.1415 94.0178 57.9231 94.346 56.9669 93.7939L54.9669 97.258C57.8401 98.9169 61.5097 97.9281 63.1606 95.0504L59.6909 93.06ZM72.655 70.4608L59.6909 93.06L63.1606 95.0504L76.1246 72.4512L72.655 70.4608ZM71.9149 67.714C72.8749 68.2683 73.2066 69.4993 72.655 70.4608L76.1246 72.4512C77.7733 69.5772 76.7843 65.9066 73.9149 64.2499L71.9149 67.714ZM69.1908 68.448C69.7403 67.4902 70.9586 67.1619 71.9149 67.714L73.9149 64.2499C71.0417 62.5911 67.372 63.5798 65.7212 66.4576L69.1908 68.448ZM56.2268 91.0471L69.1908 68.448L65.7212 66.4576L52.7572 89.0568L56.2268 91.0471ZM16.9966 93.7938C16.0366 93.2395 15.705 92.0085 16.2565 91.0469L12.7869 89.0566C11.1382 91.9306 12.1272 95.6012 14.9966 97.2579L16.9966 93.7938ZM19.7207 93.0598C19.1712 94.0176 17.9529 94.3458 16.9966 93.7938L14.9966 97.2579C17.8698 98.9167 21.5395 97.9279 23.1903 95.0502L19.7207 93.0598ZM32.6847 70.4606L19.7207 93.0598L23.1903 95.0502L36.1544 72.451L32.6847 70.4606ZM31.9446 67.7138C32.9046 68.2681 33.2363 69.4991 32.6847 70.4606L36.1544 72.451C37.8031 69.577 36.814 65.9064 33.9446 64.2497L31.9446 67.7138ZM29.2206 68.4478C29.77 67.49 30.9884 67.1617 31.9446 67.7138L33.9446 64.2497C31.0715 62.5909 27.4018 63.5797 25.7509 66.4574L29.2206 68.4478ZM16.2565 91.0469L29.2206 68.4478L25.7509 66.4574L12.7869 89.0566L16.2565 91.0469ZM32.7572 89.0567C31.1085 91.9307 32.0975 95.6013 34.9669 97.258L36.9669 93.7939C36.0069 93.2396 35.6752 92.0086 36.2268 91.0471L32.7572 89.0567ZM45.7212 66.4576L32.7572 89.0567L36.2268 91.0471L49.1908 68.4479L45.7212 66.4576ZM53.9149 64.2499C51.0417 62.591 47.372 63.5798 45.7212 66.4576L49.1908 68.4479C49.7403 67.4902 50.9586 67.1619 51.9149 67.714L53.9149 64.2499ZM56.1246 72.4511C57.7733 69.5771 56.7843 65.9065 53.9149 64.2499L51.9149 67.714C52.8749 68.2682 53.2066 69.4992 52.655 70.4608L56.1246 72.4511ZM43.1606 95.0503L56.1246 72.4511L52.655 70.4608L39.6909 93.0599L43.1606 95.0503ZM34.9669 97.258C37.8401 98.9168 41.5097 97.9281 43.1606 95.0503L39.6909 93.0599C39.1415 94.0177 37.9231 94.346 36.9669 93.7939L34.9669 97.258Z" fill="black" mask="url(#path-1-inside-1_97_710)"/>
<mask id="path-3-inside-2_97_710" fill="white">
<path fill-rule="evenodd" clip-rule="evenodd" d="M74.8284 64H32.7388C14.9338 64 0.5 49.6731 0.5 32C0.5 14.3269 14.9338 0 32.7388 0C47.6165 0 60.1405 10.0032 63.8564 23.6034C67.0746 21.7088 70.8247 20.6222 74.8284 20.6222C86.7973 20.6222 96.5 30.3327 96.5 42.3111C96.5 54.2298 86.8939 63.903 75.0075 63.9993V64L74.8284 64Z"/>
</mask>
<path fill-rule="evenodd" clip-rule="evenodd" d="M74.8284 64H32.7388C14.9338 64 0.5 49.6731 0.5 32C0.5 14.3269 14.9338 0 32.7388 0C47.6165 0 60.1405 10.0032 63.8564 23.6034C67.0746 21.7088 70.8247 20.6222 74.8284 20.6222C86.7973 20.6222 96.5 30.3327 96.5 42.3111C96.5 54.2298 86.8939 63.903 75.0075 63.9993V64L74.8284 64Z" fill="white"/>
<path d="M74.8284 64L74.8286 60H74.8284V64ZM63.8564 23.6034L59.9978 24.6576L61.3768 29.7048L65.8856 27.0504L63.8564 23.6034ZM75.0075 63.9993L74.9751 59.9994L71.0075 60.0316V63.9993H75.0075ZM75.0075 64L75.0073 68L79.0075 68.0002V64H75.0075ZM32.7388 68H74.8284V60H32.7388V68ZM32.7388 60C17.1149 60 4.5 47.436 4.5 32H-3.5C-3.5 51.9102 12.7528 68 32.7388 68V60ZM4.5 32C4.5 16.564 17.1149 4 32.7388 4V-4C12.7528 -4 -3.5 12.0898 -3.5 32H4.5ZM32.7388 4C45.7855 4 56.7497 12.7698 59.9978 24.6576L67.7149 22.5491C63.5312 7.23674 49.4476 -4 32.7388 -4V4ZM65.8856 27.0504C68.5058 25.5079 71.5578 24.6222 74.8284 24.6222V16.6222C70.0916 16.6222 65.6433 17.9097 61.8271 20.1563L65.8856 27.0504ZM74.8284 24.6222C84.5852 24.6222 92.5 32.5388 92.5 42.3111H100.5C100.5 28.1265 89.0095 16.6222 74.8284 16.6222V24.6222ZM92.5 42.3111C92.5 52.0345 84.6639 59.9209 74.9751 59.9994L75.0399 67.9992C89.1239 67.8851 100.5 56.4251 100.5 42.3111H92.5ZM79.0075 64V63.9993H71.0075V64H79.0075ZM74.8282 68L75.0073 68L75.0077 60L74.8286 60L74.8282 68Z" fill="black" mask="url(#path-3-inside-2_97_710)"/>
<mask id="path-5-inside-3_97_710" fill="white">
<path fill-rule="evenodd" clip-rule="evenodd" d="M71.6883 74.9999C71.6944 77.209 73.4903 78.9999 75.6994 78.9999C77.9085 78.9999 79.6944 77.209 79.6883 74.9999L79.6686 67.9171L85.793 71.4304C87.7092 72.5296 90.1581 71.8698 91.2626 69.9567C92.3672 68.0435 91.7092 65.6014 89.793 64.5022L83.6493 60.9779L89.7544 57.4305C91.6645 56.3206 92.3175 53.8699 91.2129 51.9568C90.1083 50.0436 87.6645 49.3924 85.7544 50.5023L79.6301 54.0608L79.6105 47C79.6044 44.7909 77.8085 43 75.5994 43C73.3902 43 71.6044 44.7909 71.6105 47L71.6302 54.0831L65.5055 50.5696C63.5892 49.4704 61.1404 50.1302 60.0358 52.0433C58.9313 53.9565 59.5892 56.3986 61.5055 57.4978L67.6495 61.0223L61.5446 64.5696C59.6346 65.6795 58.9815 68.1301 60.0861 70.0433C61.1907 71.9565 63.6346 72.6077 65.5446 71.4978L71.6687 67.9394L71.6883 74.9999Z"/>
</mask>
<path fill-rule="evenodd" clip-rule="evenodd" d="M71.6883 74.9999C71.6944 77.209 73.4903 78.9999 75.6994 78.9999C77.9085 78.9999 79.6944 77.209 79.6883 74.9999L79.6686 67.9171L85.793 71.4304C87.7092 72.5296 90.1581 71.8698 91.2626 69.9567C92.3672 68.0435 91.7092 65.6014 89.793 64.5022L83.6493 60.9779L89.7544 57.4305C91.6645 56.3206 92.3175 53.8699 91.2129 51.9568C90.1083 50.0436 87.6645 49.3924 85.7544 50.5023L79.6301 54.0608L79.6105 47C79.6044 44.7909 77.8085 43 75.5994 43C73.3902 43 71.6044 44.7909 71.6105 47L71.6302 54.0831L65.5055 50.5696C63.5892 49.4704 61.1404 50.1302 60.0358 52.0433C58.9313 53.9565 59.5892 56.3986 61.5055 57.4978L67.6495 61.0223L61.5446 64.5696C59.6346 65.6795 58.9815 68.1301 60.0861 70.0433C61.1907 71.9565 63.6346 72.6077 65.5446 71.4978L71.6687 67.9394L71.6883 74.9999Z" fill="#148FCC"/>
<path fill-rule="evenodd" clip-rule="evenodd" d="M71.6883 74.9999C71.6944 77.209 73.4903 78.9999 75.6994 78.9999C77.9085 78.9999 79.6944 77.209 79.6883 74.9999L79.6686 67.9171L85.793 71.4304C87.7092 72.5296 90.1581 71.8698 91.2626 69.9567C92.3672 68.0435 91.7092 65.6014 89.793 64.5022L83.6493 60.9779L89.7544 57.4305C91.6645 56.3206 92.3175 53.8699 91.2129 51.9568C90.1083 50.0436 87.6645 49.3924 85.7544 50.5023L79.6301 54.0608L79.6105 47C79.6044 44.7909 77.8085 43 75.5994 43C73.3902 43 71.6044 44.7909 71.6105 47L71.6302 54.0831L65.5055 50.5696C63.5892 49.4704 61.1404 50.1302 60.0358 52.0433C58.9313 53.9565 59.5892 56.3986 61.5055 57.4978L67.6495 61.0223L61.5446 64.5696C59.6346 65.6795 58.9815 68.1301 60.0861 70.0433C61.1907 71.9565 63.6346 72.6077 65.5446 71.4978L71.6687 67.9394L71.6883 74.9999Z" fill="white" fill-opacity="0.5"/>
<path d="M71.6883 74.9999L69.6883 75.0054L69.6883 75.0054L71.6883 74.9999ZM79.6883 74.9999L77.6883 75.0054L77.6883 75.0054L79.6883 74.9999ZM79.6686 67.9171L80.6638 66.1823L77.659 64.4586L77.6686 67.9227L79.6686 67.9171ZM85.793 71.4304L84.7978 73.1652L84.7978 73.1652L85.793 71.4304ZM91.2626 69.9567L92.9947 70.9567L92.9947 70.9567L91.2626 69.9567ZM89.793 64.5022L90.7882 62.7674L90.7882 62.7674L89.793 64.5022ZM83.6493 60.9779L82.6445 59.2486L79.6494 60.989L82.6542 62.7127L83.6493 60.9779ZM89.7544 57.4305L88.7496 55.7012L88.7496 55.7012L89.7544 57.4305ZM91.2129 51.9568L89.4809 52.9568L89.4809 52.9568L91.2129 51.9568ZM85.7544 50.5023L84.7496 48.773L84.7496 48.773L85.7544 50.5023ZM79.6301 54.0608L77.6301 54.0664L77.6397 57.5305L80.6349 55.7901L79.6301 54.0608ZM79.6105 47L81.6105 46.9944L81.6105 46.9944L79.6105 47ZM71.6105 47L69.6105 47.0055L69.6105 47.0055L71.6105 47ZM71.6302 54.0831L70.635 55.8179L73.6398 57.5416L73.6302 54.0775L71.6302 54.0831ZM65.5055 50.5696L64.5103 52.3044L64.5103 52.3044L65.5055 50.5696ZM60.0358 52.0433L61.7679 53.0433L61.7679 53.0433L60.0358 52.0433ZM61.5055 57.4978L62.5007 55.763L62.5007 55.763L61.5055 57.4978ZM67.6495 61.0223L68.6543 62.7516L71.6494 61.0112L68.6446 59.2875L67.6495 61.0223ZM61.5446 64.5696L60.5398 62.8403L60.5398 62.8403L61.5446 64.5696ZM60.0861 70.0433L61.8182 69.0433L60.0861 70.0433ZM65.5446 71.4978L64.5398 69.7685L64.5398 69.7685L65.5446 71.4978ZM71.6687 67.9394L73.6687 67.9338L73.659 64.4697L70.6639 66.2101L71.6687 67.9394ZM75.6994 76.9999C74.5927 76.9999 73.6914 76.1011 73.6883 74.9943L69.6883 75.0054C69.6975 78.317 72.3879 80.9999 75.6994 80.9999V76.9999ZM77.6883 75.0054C77.6914 76.1078 76.8018 76.9999 75.6994 76.9999V80.9999C79.0153 80.9999 81.6975 78.3102 81.6883 74.9943L77.6883 75.0054ZM77.6686 67.9227L77.6883 75.0054L81.6883 74.9943L81.6686 67.9116L77.6686 67.9227ZM78.6734 69.652L84.7978 73.1652L86.7882 69.6956L80.6638 66.1823L78.6734 69.652ZM84.7978 73.1652C87.6703 74.813 91.3389 73.8245 92.9947 70.9567L89.5306 68.9567C88.9772 69.9151 87.7482 70.2463 86.7882 69.6956L84.7978 73.1652ZM92.9947 70.9567C94.6526 68.085 93.6644 64.4173 90.7882 62.7674L88.7978 66.237C89.754 66.7856 90.0818 68.002 89.5306 68.9567L92.9947 70.9567ZM90.7882 62.7674L84.6445 59.2431L82.6542 62.7127L88.7978 66.237L90.7882 62.7674ZM88.7496 55.7012L82.6445 59.2486L84.6541 62.7071L90.7592 59.1597L88.7496 55.7012ZM89.4809 52.9568C90.0342 53.9152 89.7065 55.1452 88.7496 55.7012L90.7592 59.1597C93.6224 57.496 94.6007 53.8246 92.945 50.9568L89.4809 52.9568ZM86.7592 52.2315C87.7123 51.6777 88.9297 52.0021 89.4809 52.9568L92.945 50.9568C91.287 48.0851 87.6166 47.1071 84.7496 48.773L86.7592 52.2315ZM80.6349 55.7901L86.7592 52.2315L84.7496 48.773L78.6253 52.3316L80.6349 55.7901ZM77.6105 47.0055L77.6301 54.0664L81.6301 54.0553L81.6105 46.9944L77.6105 47.0055ZM75.5994 45C76.7061 45 77.6074 45.8988 77.6105 47.0055L81.6105 46.9944C81.6013 43.6829 78.9109 41 75.5994 41V45ZM73.6105 46.9944C73.6074 45.892 74.497 45 75.5994 45V41C72.2835 41 69.6013 43.6897 69.6105 47.0055L73.6105 46.9944ZM73.6302 54.0775L73.6105 46.9944L69.6105 47.0055L69.6302 54.0886L73.6302 54.0775ZM72.6254 52.3482L66.5007 48.8348L64.5103 52.3044L70.635 55.8179L72.6254 52.3482ZM66.5007 48.8348C63.6282 47.187 59.9595 48.1755 58.3038 51.0433L61.7679 53.0433C62.3212 52.0849 63.5503 51.7537 64.5103 52.3044L66.5007 48.8348ZM58.3038 51.0433C56.6458 53.915 57.6341 57.5827 60.5103 59.2326L62.5007 55.763C61.5444 55.2144 61.2167 53.998 61.7679 53.0433L58.3038 51.0433ZM60.5103 59.2326L66.6543 62.7571L68.6446 59.2875L62.5007 55.763L60.5103 59.2326ZM62.5495 66.2989L68.6543 62.7516L66.6447 59.2931L60.5398 62.8403L62.5495 66.2989ZM61.8182 69.0433C61.2648 68.0848 61.5925 66.8549 62.5495 66.2989L60.5398 62.8403C57.6766 64.5041 56.6983 68.1754 58.3541 71.0433L61.8182 69.0433ZM64.5398 69.7685C63.5867 70.3224 62.3694 69.998 61.8182 69.0433L58.3541 71.0433C60.012 73.9149 63.6824 74.893 66.5495 73.2271L64.5398 69.7685ZM70.6639 66.2101L64.5398 69.7685L66.5495 73.2271L72.6735 69.6686L70.6639 66.2101ZM73.6883 74.9943L73.6687 67.9338L69.6687 67.9449L69.6883 75.0054L73.6883 74.9943Z" fill="black" mask="url(#path-5-inside-3_97_710)"/>
</g>
<defs>
<clipPath id="clip0_97_710">
<rect width="96" height="96" fill="white" transform="translate(0.5)"/>
</clipPath>
</defs>
</svg>
