<svg width="97" height="96" viewBox="0 0 97 96" fill="none" xmlns="http://www.w3.org/2000/svg">
<g clip-path="url(#clip0_100_1052)">
<mask id="path-1-inside-1_100_1052" fill="white">
<path fill-rule="evenodd" clip-rule="evenodd" d="M64.9611 67.9387C63.0494 66.8314 62.393 64.3817 63.4949 62.467C64.5969 60.5523 67.0398 59.8977 68.9515 61.0049C70.5679 61.9412 71.2869 63.8374 70.8041 65.5583C71.1973 65.6445 71.5842 65.7922 71.9515 66.0049C73.8631 67.1121 74.5195 69.5619 73.4176 71.4766C72.3157 73.3913 69.8727 74.0459 67.9611 72.9387C66.3446 72.0024 65.6257 70.1062 66.1084 68.3853C65.7152 68.2991 65.3283 68.1514 64.9611 67.9387ZM27.9611 72.9387C26.0495 71.8315 25.3931 69.3817 26.495 67.467C27.5969 65.5523 30.0399 64.8977 31.9515 66.005C33.8631 67.1122 34.5195 69.562 33.4176 71.4767C32.3157 73.3914 29.8727 74.0459 27.9611 72.9387ZM43.4951 73.467C42.3932 75.3817 43.0496 77.8314 44.9612 78.9387C46.8728 80.0459 49.3158 79.3913 50.4177 77.4766C51.5196 75.5619 50.8632 73.1121 48.9516 72.0049C47.0399 70.8977 44.597 71.5523 43.4951 73.467ZM59.9612 86.9387C58.0496 85.8314 57.3932 83.3817 58.4951 81.467C59.597 79.5523 62.0399 78.8977 63.9516 80.0049C65.8632 81.1121 66.5196 83.5619 65.4177 85.4766C64.3158 87.3913 61.8728 88.0459 59.9612 86.9387ZM19.9612 86.9387C18.0496 85.8315 17.3932 83.3817 18.4951 81.467C19.597 79.5523 22.04 78.8977 23.9516 80.005C25.8632 81.1122 26.5197 83.562 25.4177 85.4767C24.3158 87.3914 21.8729 88.0459 19.9612 86.9387Z"/>
</mask>
<path fill-rule="evenodd" clip-rule="evenodd" d="M64.9611 67.9387C63.0494 66.8314 62.393 64.3817 63.4949 62.467C64.5969 60.5523 67.0398 59.8977 68.9515 61.0049C70.5679 61.9412 71.2869 63.8374 70.8041 65.5583C71.1973 65.6445 71.5842 65.7922 71.9515 66.0049C73.8631 67.1121 74.5195 69.5619 73.4176 71.4766C72.3157 73.3913 69.8727 74.0459 67.9611 72.9387C66.3446 72.0024 65.6257 70.1062 66.1084 68.3853C65.7152 68.2991 65.3283 68.1514 64.9611 67.9387ZM27.9611 72.9387C26.0495 71.8315 25.3931 69.3817 26.495 67.467C27.5969 65.5523 30.0399 64.8977 31.9515 66.005C33.8631 67.1122 34.5195 69.562 33.4176 71.4767C32.3157 73.3914 29.8727 74.0459 27.9611 72.9387ZM43.4951 73.467C42.3932 75.3817 43.0496 77.8314 44.9612 78.9387C46.8728 80.0459 49.3158 79.3913 50.4177 77.4766C51.5196 75.5619 50.8632 73.1121 48.9516 72.0049C47.0399 70.8977 44.597 71.5523 43.4951 73.467ZM59.9612 86.9387C58.0496 85.8314 57.3932 83.3817 58.4951 81.467C59.597 79.5523 62.0399 78.8977 63.9516 80.0049C65.8632 81.1121 66.5196 83.5619 65.4177 85.4766C64.3158 87.3913 61.8728 88.0459 59.9612 86.9387ZM19.9612 86.9387C18.0496 85.8315 17.3932 83.3817 18.4951 81.467C19.597 79.5523 22.04 78.8977 23.9516 80.005C25.8632 81.1122 26.5197 83.562 25.4177 85.4767C24.3158 87.3914 21.8729 88.0459 19.9612 86.9387Z" fill="white"/>
<path d="M63.4949 62.467L61.7615 61.4694L63.4949 62.467ZM64.9611 67.9387L63.9587 69.6693L63.9587 69.6693L64.9611 67.9387ZM68.9515 61.0049L67.949 62.7356L67.949 62.7356L68.9515 61.0049ZM70.8041 65.5583L68.8784 65.0181L68.3062 67.0581L70.3757 67.5119L70.8041 65.5583ZM71.9515 66.0049L72.9539 64.2743L72.9539 64.2743L71.9515 66.0049ZM73.4176 71.4766L71.6841 70.479L71.6841 70.479L73.4176 71.4766ZM67.9611 72.9387L68.9635 71.208L68.9635 71.208L67.9611 72.9387ZM66.1084 68.3853L68.0341 68.9255L68.6063 66.8855L66.5368 66.4317L66.1084 68.3853ZM26.495 67.467L28.2284 68.4646L28.2284 68.4646L26.495 67.467ZM27.9611 72.9387L26.9587 74.6694L26.9587 74.6694L27.9611 72.9387ZM31.9515 66.005L32.9539 64.2743L32.9539 64.2743L31.9515 66.005ZM33.4176 71.4767L31.6842 70.4791L31.6842 70.4791L33.4176 71.4767ZM44.9612 78.9387L43.9588 80.6693L43.9588 80.6693L44.9612 78.9387ZM50.4177 77.4766L48.6843 76.479L48.6843 76.479L50.4177 77.4766ZM48.9516 72.0049L49.954 70.2743L49.954 70.2743L48.9516 72.0049ZM58.4951 81.467L60.2285 82.4646L60.2285 82.4646L58.4951 81.467ZM59.9612 86.9387L58.9588 88.6693L58.9588 88.6693L59.9612 86.9387ZM63.9516 80.0049L62.9492 81.7356L62.9492 81.7356L63.9516 80.0049ZM65.4177 85.4766L63.6843 84.479L63.6843 84.479L65.4177 85.4766ZM18.4951 81.467L20.2285 82.4646L20.2285 82.4646L18.4951 81.467ZM19.9612 86.9387L18.9588 88.6694L18.9588 88.6694L19.9612 86.9387ZM23.9516 80.005L22.9492 81.7356L22.9492 81.7356L23.9516 80.005ZM25.4177 85.4767L23.6843 84.4791L23.6843 84.4791L25.4177 85.4767ZM61.7615 61.4694C60.1097 64.3395 61.0931 68.0096 63.9587 69.6693L65.9635 66.208C65.0058 65.6533 64.6763 64.4238 65.2284 63.4646L61.7615 61.4694ZM69.9539 59.2743C67.0845 57.6123 63.4155 58.5954 61.7615 61.4694L65.2284 63.4646C65.7783 62.5091 66.9951 62.183 67.949 62.7356L69.9539 59.2743ZM72.7298 66.0985C73.4529 63.5206 72.3799 60.6794 69.9539 59.2743L67.949 62.7356C68.7559 63.2029 69.1208 64.1541 68.8784 65.0181L72.7298 66.0985ZM70.3757 67.5119C70.5695 67.5543 70.7625 67.6275 70.949 67.7356L72.9539 64.2743C72.4059 63.9569 71.8251 63.7347 71.2325 63.6047L70.3757 67.5119ZM70.949 67.7356C71.9067 68.2903 72.2362 69.5198 71.6841 70.479L75.151 72.4742C76.8028 69.604 75.8194 65.934 72.9539 64.2743L70.949 67.7356ZM71.6841 70.479C71.1343 71.4345 69.9174 71.7605 68.9635 71.208L66.9587 74.6693C69.828 76.3312 73.4971 75.3481 75.151 72.4742L71.6841 70.479ZM68.9635 71.208C68.1566 70.7406 67.7917 69.7895 68.0341 68.9255L64.1827 67.8451C63.4596 70.4229 64.5326 73.2641 66.9587 74.6693L68.9635 71.208ZM63.9587 69.6693C64.5066 69.9867 65.0874 70.2089 65.68 70.3389L66.5368 66.4317C66.3431 66.3892 66.1501 66.3161 65.9635 66.208L63.9587 69.6693ZM24.7615 66.4694C23.1098 69.3396 24.0931 73.0096 26.9587 74.6694L28.9635 71.2081C28.0058 70.6534 27.6764 69.4239 28.2284 68.4646L24.7615 66.4694ZM32.9539 64.2743C30.0846 62.6124 26.4155 63.5955 24.7615 66.4694L28.2284 68.4646C28.7783 67.5092 29.9951 67.1831 30.9491 67.7356L32.9539 64.2743ZM35.1511 72.4743C36.8028 69.6041 35.8195 65.9341 32.9539 64.2743L30.9491 67.7356C31.9068 68.2903 32.2362 69.5198 31.6842 70.4791L35.1511 72.4743ZM26.9587 74.6694C29.828 76.3313 33.4971 75.3482 35.1511 72.4743L31.6842 70.4791C31.1343 71.4345 29.9175 71.7606 28.9635 71.2081L26.9587 74.6694ZM45.9636 77.208C45.0059 76.6533 44.6765 75.4238 45.2285 74.4646L41.7616 72.4694C40.1098 75.3395 41.0932 79.0096 43.9588 80.6693L45.9636 77.208ZM48.6843 76.479C48.1344 77.4345 46.9175 77.7605 45.9636 77.208L43.9588 80.6693C46.8281 82.3312 50.4972 81.3481 52.1511 78.4742L48.6843 76.479ZM47.9492 73.7356C48.9069 74.2903 49.2363 75.5198 48.6843 76.479L52.1511 78.4742C53.8029 75.604 52.8196 71.934 49.954 70.2743L47.9492 73.7356ZM45.2285 74.4646C45.7784 73.5091 46.9952 73.183 47.9492 73.7356L49.954 70.2743C47.0847 68.6123 43.4156 69.5954 41.7616 72.4694L45.2285 74.4646ZM56.7616 80.4694C55.1098 83.3396 56.0932 87.0096 58.9588 88.6693L60.9636 85.208C60.0059 84.6533 59.6765 83.4238 60.2285 82.4646L56.7616 80.4694ZM64.954 78.2743C62.0847 76.6123 58.4156 77.5954 56.7616 80.4694L60.2285 82.4646C60.7784 81.5091 61.9952 81.183 62.9492 81.7356L64.954 78.2743ZM67.1511 86.4742C68.8029 83.604 67.8196 79.934 64.954 78.2743L62.9492 81.7356C63.9069 82.2903 64.2363 83.5198 63.6843 84.479L67.1511 86.4742ZM58.9588 88.6693C61.8281 90.3312 65.4972 89.3481 67.1511 86.4742L63.6843 84.479C63.1344 85.4345 61.9175 85.7605 60.9636 85.208L58.9588 88.6693ZM16.7617 80.4694C15.1099 83.3396 16.0933 87.0096 18.9588 88.6694L20.9636 85.2081C20.0059 84.6534 19.6765 83.4239 20.2285 82.4646L16.7617 80.4694ZM24.954 78.2743C22.0847 76.6124 18.4156 77.5955 16.7617 80.4694L20.2285 82.4646C20.7784 81.5092 21.9953 81.1831 22.9492 81.7356L24.954 78.2743ZM27.1512 86.4742C28.803 83.6041 27.8196 79.9341 24.954 78.2743L22.9492 81.7356C23.9069 82.2903 24.2363 83.5198 23.6843 84.4791L27.1512 86.4742ZM18.9588 88.6694C21.8282 90.3313 25.4972 89.3482 27.1512 86.4742L23.6843 84.4791C23.1344 85.4345 21.9176 85.7606 20.9636 85.2081L18.9588 88.6694Z" fill="black" mask="url(#path-1-inside-1_100_1052)"/>
<mask id="path-3-inside-2_100_1052" fill="white">
<path fill-rule="evenodd" clip-rule="evenodd" d="M74.8284 64H32.7388C14.9338 64 0.5 49.6731 0.5 32C0.5 14.3269 14.9338 0 32.7388 0C47.6165 0 60.1405 10.0032 63.8564 23.6034C67.0746 21.7088 70.8247 20.6222 74.8284 20.6222C86.7973 20.6222 96.5 30.3327 96.5 42.3111C96.5 54.2298 86.8939 63.903 75.0075 63.9993V64L74.8284 64Z"/>
</mask>
<path fill-rule="evenodd" clip-rule="evenodd" d="M74.8284 64H32.7388C14.9338 64 0.5 49.6731 0.5 32C0.5 14.3269 14.9338 0 32.7388 0C47.6165 0 60.1405 10.0032 63.8564 23.6034C67.0746 21.7088 70.8247 20.6222 74.8284 20.6222C86.7973 20.6222 96.5 30.3327 96.5 42.3111C96.5 54.2298 86.8939 63.903 75.0075 63.9993V64L74.8284 64Z" fill="white"/>
<path d="M74.8284 64L74.8286 60H74.8284V64ZM63.8564 23.6034L59.9978 24.6576L61.3768 29.7048L65.8856 27.0504L63.8564 23.6034ZM75.0075 63.9993L74.9751 59.9994L71.0075 60.0316V63.9993H75.0075ZM75.0075 64L75.0073 68L79.0075 68.0002V64H75.0075ZM32.7388 68H74.8284V60H32.7388V68ZM32.7388 60C17.1149 60 4.5 47.436 4.5 32H-3.5C-3.5 51.9102 12.7528 68 32.7388 68V60ZM4.5 32C4.5 16.564 17.1149 4 32.7388 4V-4C12.7528 -4 -3.5 12.0898 -3.5 32H4.5ZM32.7388 4C45.7855 4 56.7497 12.7698 59.9978 24.6576L67.7149 22.5491C63.5312 7.23674 49.4476 -4 32.7388 -4V4ZM65.8856 27.0504C68.5058 25.5079 71.5578 24.6222 74.8284 24.6222V16.6222C70.0916 16.6222 65.6433 17.9097 61.8271 20.1563L65.8856 27.0504ZM74.8284 24.6222C84.5852 24.6222 92.5 32.5388 92.5 42.3111H100.5C100.5 28.1265 89.0095 16.6222 74.8284 16.6222V24.6222ZM92.5 42.3111C92.5 52.0345 84.6639 59.9209 74.9751 59.9994L75.0399 67.9992C89.1239 67.8851 100.5 56.4251 100.5 42.3111H92.5ZM79.0075 64V63.9993H71.0075V64H79.0075ZM74.8282 68L75.0073 68L75.0077 60L74.8286 60L74.8282 68Z" fill="black" mask="url(#path-3-inside-2_100_1052)"/>
<mask id="path-5-inside-3_100_1052" fill="white">
<path fill-rule="evenodd" clip-rule="evenodd" d="M71.6883 74.9999C71.6944 77.209 73.4903 78.9999 75.6994 78.9999C77.9085 78.9999 79.6944 77.209 79.6883 74.9999L79.6686 67.9171L85.793 71.4304C87.7092 72.5296 90.1581 71.8698 91.2626 69.9567C92.3672 68.0435 91.7092 65.6014 89.793 64.5022L83.6493 60.9779L89.7544 57.4305C91.6645 56.3206 92.3175 53.8699 91.2129 51.9568C90.1083 50.0436 87.6645 49.3924 85.7544 50.5023L79.6301 54.0608L79.6105 47C79.6044 44.7909 77.8085 43 75.5994 43C73.3902 43 71.6044 44.7909 71.6105 47L71.6302 54.0831L65.5055 50.5696C63.5892 49.4704 61.1404 50.1302 60.0358 52.0433C58.9313 53.9565 59.5892 56.3986 61.5055 57.4978L67.6495 61.0223L61.5446 64.5696C59.6346 65.6795 58.9815 68.1301 60.0861 70.0433C61.1907 71.9565 63.6346 72.6077 65.5446 71.4978L71.6687 67.9394L71.6883 74.9999Z"/>
</mask>
<path fill-rule="evenodd" clip-rule="evenodd" d="M71.6883 74.9999C71.6944 77.209 73.4903 78.9999 75.6994 78.9999C77.9085 78.9999 79.6944 77.209 79.6883 74.9999L79.6686 67.9171L85.793 71.4304C87.7092 72.5296 90.1581 71.8698 91.2626 69.9567C92.3672 68.0435 91.7092 65.6014 89.793 64.5022L83.6493 60.9779L89.7544 57.4305C91.6645 56.3206 92.3175 53.8699 91.2129 51.9568C90.1083 50.0436 87.6645 49.3924 85.7544 50.5023L79.6301 54.0608L79.6105 47C79.6044 44.7909 77.8085 43 75.5994 43C73.3902 43 71.6044 44.7909 71.6105 47L71.6302 54.0831L65.5055 50.5696C63.5892 49.4704 61.1404 50.1302 60.0358 52.0433C58.9313 53.9565 59.5892 56.3986 61.5055 57.4978L67.6495 61.0223L61.5446 64.5696C59.6346 65.6795 58.9815 68.1301 60.0861 70.0433C61.1907 71.9565 63.6346 72.6077 65.5446 71.4978L71.6687 67.9394L71.6883 74.9999Z" fill="#148FCC"/>
<path fill-rule="evenodd" clip-rule="evenodd" d="M71.6883 74.9999C71.6944 77.209 73.4903 78.9999 75.6994 78.9999C77.9085 78.9999 79.6944 77.209 79.6883 74.9999L79.6686 67.9171L85.793 71.4304C87.7092 72.5296 90.1581 71.8698 91.2626 69.9567C92.3672 68.0435 91.7092 65.6014 89.793 64.5022L83.6493 60.9779L89.7544 57.4305C91.6645 56.3206 92.3175 53.8699 91.2129 51.9568C90.1083 50.0436 87.6645 49.3924 85.7544 50.5023L79.6301 54.0608L79.6105 47C79.6044 44.7909 77.8085 43 75.5994 43C73.3902 43 71.6044 44.7909 71.6105 47L71.6302 54.0831L65.5055 50.5696C63.5892 49.4704 61.1404 50.1302 60.0358 52.0433C58.9313 53.9565 59.5892 56.3986 61.5055 57.4978L67.6495 61.0223L61.5446 64.5696C59.6346 65.6795 58.9815 68.1301 60.0861 70.0433C61.1907 71.9565 63.6346 72.6077 65.5446 71.4978L71.6687 67.9394L71.6883 74.9999Z" fill="white" fill-opacity="0.5"/>
<path d="M71.6883 74.9999L69.6883 75.0054L69.6883 75.0054L71.6883 74.9999ZM79.6883 74.9999L77.6883 75.0054L77.6883 75.0054L79.6883 74.9999ZM79.6686 67.9171L80.6638 66.1823L77.659 64.4586L77.6686 67.9227L79.6686 67.9171ZM85.793 71.4304L84.7978 73.1652L84.7978 73.1652L85.793 71.4304ZM91.2626 69.9567L92.9947 70.9567L92.9947 70.9567L91.2626 69.9567ZM89.793 64.5022L90.7882 62.7674L90.7882 62.7674L89.793 64.5022ZM83.6493 60.9779L82.6445 59.2486L79.6494 60.989L82.6542 62.7127L83.6493 60.9779ZM89.7544 57.4305L88.7496 55.7012L88.7496 55.7012L89.7544 57.4305ZM91.2129 51.9568L89.4809 52.9568L89.4809 52.9568L91.2129 51.9568ZM85.7544 50.5023L84.7496 48.773L84.7496 48.773L85.7544 50.5023ZM79.6301 54.0608L77.6301 54.0664L77.6397 57.5305L80.6349 55.7901L79.6301 54.0608ZM79.6105 47L81.6105 46.9944L81.6105 46.9944L79.6105 47ZM71.6105 47L69.6105 47.0055L69.6105 47.0055L71.6105 47ZM71.6302 54.0831L70.635 55.8179L73.6398 57.5416L73.6302 54.0775L71.6302 54.0831ZM65.5055 50.5696L64.5103 52.3044L64.5103 52.3044L65.5055 50.5696ZM60.0358 52.0433L61.7679 53.0433L61.7679 53.0433L60.0358 52.0433ZM61.5055 57.4978L62.5007 55.763L62.5007 55.763L61.5055 57.4978ZM67.6495 61.0223L68.6543 62.7516L71.6494 61.0112L68.6446 59.2875L67.6495 61.0223ZM61.5446 64.5696L60.5398 62.8403L60.5398 62.8403L61.5446 64.5696ZM60.0861 70.0433L61.8182 69.0433L60.0861 70.0433ZM65.5446 71.4978L64.5398 69.7685L64.5398 69.7685L65.5446 71.4978ZM71.6687 67.9394L73.6687 67.9338L73.659 64.4697L70.6639 66.2101L71.6687 67.9394ZM75.6994 76.9999C74.5927 76.9999 73.6914 76.1011 73.6883 74.9943L69.6883 75.0054C69.6975 78.317 72.3879 80.9999 75.6994 80.9999V76.9999ZM77.6883 75.0054C77.6914 76.1078 76.8018 76.9999 75.6994 76.9999V80.9999C79.0153 80.9999 81.6975 78.3102 81.6883 74.9943L77.6883 75.0054ZM77.6686 67.9227L77.6883 75.0054L81.6883 74.9943L81.6686 67.9116L77.6686 67.9227ZM78.6734 69.652L84.7978 73.1652L86.7882 69.6956L80.6638 66.1823L78.6734 69.652ZM84.7978 73.1652C87.6703 74.813 91.3389 73.8245 92.9947 70.9567L89.5306 68.9567C88.9772 69.9151 87.7482 70.2463 86.7882 69.6956L84.7978 73.1652ZM92.9947 70.9567C94.6526 68.085 93.6644 64.4173 90.7882 62.7674L88.7978 66.237C89.754 66.7856 90.0818 68.002 89.5306 68.9567L92.9947 70.9567ZM90.7882 62.7674L84.6445 59.2431L82.6542 62.7127L88.7978 66.237L90.7882 62.7674ZM88.7496 55.7012L82.6445 59.2486L84.6541 62.7071L90.7592 59.1597L88.7496 55.7012ZM89.4809 52.9568C90.0342 53.9152 89.7065 55.1452 88.7496 55.7012L90.7592 59.1597C93.6224 57.496 94.6007 53.8246 92.945 50.9568L89.4809 52.9568ZM86.7592 52.2315C87.7123 51.6777 88.9297 52.0021 89.4809 52.9568L92.945 50.9568C91.287 48.0851 87.6166 47.1071 84.7496 48.773L86.7592 52.2315ZM80.6349 55.7901L86.7592 52.2315L84.7496 48.773L78.6253 52.3316L80.6349 55.7901ZM77.6105 47.0055L77.6301 54.0664L81.6301 54.0553L81.6105 46.9944L77.6105 47.0055ZM75.5994 45C76.7061 45 77.6074 45.8988 77.6105 47.0055L81.6105 46.9944C81.6013 43.6829 78.9109 41 75.5994 41V45ZM73.6105 46.9944C73.6074 45.892 74.497 45 75.5994 45V41C72.2835 41 69.6013 43.6897 69.6105 47.0055L73.6105 46.9944ZM73.6302 54.0775L73.6105 46.9944L69.6105 47.0055L69.6302 54.0886L73.6302 54.0775ZM72.6254 52.3482L66.5007 48.8348L64.5103 52.3044L70.635 55.8179L72.6254 52.3482ZM66.5007 48.8348C63.6282 47.187 59.9595 48.1755 58.3038 51.0433L61.7679 53.0433C62.3212 52.0849 63.5503 51.7537 64.5103 52.3044L66.5007 48.8348ZM58.3038 51.0433C56.6458 53.915 57.6341 57.5827 60.5103 59.2326L62.5007 55.763C61.5444 55.2144 61.2167 53.998 61.7679 53.0433L58.3038 51.0433ZM60.5103 59.2326L66.6543 62.7571L68.6446 59.2875L62.5007 55.763L60.5103 59.2326ZM62.5495 66.2989L68.6543 62.7516L66.6447 59.2931L60.5398 62.8403L62.5495 66.2989ZM61.8182 69.0433C61.2648 68.0848 61.5925 66.8549 62.5495 66.2989L60.5398 62.8403C57.6766 64.5041 56.6983 68.1754 58.3541 71.0433L61.8182 69.0433ZM64.5398 69.7685C63.5867 70.3224 62.3694 69.998 61.8182 69.0433L58.3541 71.0433C60.012 73.9149 63.6824 74.893 66.5495 73.2271L64.5398 69.7685ZM70.6639 66.2101L64.5398 69.7685L66.5495 73.2271L72.6735 69.6686L70.6639 66.2101ZM73.6883 74.9943L73.6687 67.9338L69.6687 67.9449L69.6883 75.0054L73.6883 74.9943Z" fill="black" mask="url(#path-5-inside-3_100_1052)"/>
</g>
<defs>
<clipPath id="clip0_100_1052">
<rect width="96" height="96" fill="white" transform="translate(0.5)"/>
</clipPath>
</defs>
</svg>
