<svg width="49" height="48" viewBox="0 0 49 48" fill="none" xmlns="http://www.w3.org/2000/svg">
<g clip-path="url(#clip0_100_1067)">
<mask id="path-1-inside-1_100_1067" fill="white">
<path fill-rule="evenodd" clip-rule="evenodd" d="M13.4975 35.7327C12.9465 36.69 13.276 37.9157 14.2318 38.4693C15.1876 39.0229 16.4104 38.6963 16.9614 37.739C17.5123 36.7816 17.1828 35.556 16.227 35.0024C15.2712 34.4488 14.0484 34.7753 13.4975 35.7327ZM10.4975 41.7332C9.94658 42.6905 10.2761 43.9161 11.2319 44.4698C12.1877 45.0234 13.4105 44.6968 13.9614 43.7395C14.5124 42.7821 14.1829 41.5565 13.2271 41.0029C12.2713 40.4493 11.0485 40.7758 10.4975 41.7332ZM29.2318 41.4692C28.276 40.9156 27.9465 39.69 28.4975 38.7326C29.0484 37.7753 30.2712 37.4487 31.227 38.0023C32.1828 38.556 32.5123 39.7816 31.9613 40.7389C31.4104 41.6963 30.1876 42.0228 29.2318 41.4692Z"/>
</mask>
<path fill-rule="evenodd" clip-rule="evenodd" d="M13.4975 35.7327C12.9465 36.69 13.276 37.9157 14.2318 38.4693C15.1876 39.0229 16.4104 38.6963 16.9614 37.739C17.5123 36.7816 17.1828 35.556 16.227 35.0024C15.2712 34.4488 14.0484 34.7753 13.4975 35.7327ZM10.4975 41.7332C9.94658 42.6905 10.2761 43.9161 11.2319 44.4698C12.1877 45.0234 13.4105 44.6968 13.9614 43.7395C14.5124 42.7821 14.1829 41.5565 13.2271 41.0029C12.2713 40.4493 11.0485 40.7758 10.4975 41.7332ZM29.2318 41.4692C28.276 40.9156 27.9465 39.69 28.4975 38.7326C29.0484 37.7753 30.2712 37.4487 31.227 38.0023C32.1828 38.556 32.5123 39.7816 31.9613 40.7389C31.4104 41.6963 30.1876 42.0228 29.2318 41.4692Z" fill="white"/>
<path d="M14.2318 38.4693L13.7306 39.3346L13.7306 39.3346L14.2318 38.4693ZM13.4975 35.7327L12.6308 35.2339L12.6308 35.2339L13.4975 35.7327ZM16.9614 37.739L17.8281 38.2378L17.8281 38.2378L16.9614 37.739ZM16.227 35.0024L16.7282 34.1371L16.7282 34.1371L16.227 35.0024ZM11.2319 44.4698L10.7307 45.3351L10.7307 45.3351L11.2319 44.4698ZM10.4975 41.7332L9.63082 41.2344L9.63082 41.2344L10.4975 41.7332ZM13.2271 41.0029L13.7283 40.1376L13.7283 40.1376L13.2271 41.0029ZM29.2318 41.4692L29.733 40.6039L29.733 40.6039L29.2318 41.4692ZM31.227 38.0023L30.7258 38.8677L30.7258 38.8677L31.227 38.0023ZM14.733 37.6039C14.2533 37.3261 14.0887 36.7103 14.3642 36.2315L12.6308 35.2339C11.8044 36.6698 12.2987 38.5052 13.7306 39.3346L14.733 37.6039ZM16.0946 37.2402C15.8202 37.7171 15.2108 37.8807 14.733 37.6039L13.7306 39.3346C15.1644 40.1651 17.0006 39.6756 17.8281 38.2378L16.0946 37.2402ZM15.7258 35.8677C16.2055 36.1456 16.3702 36.7614 16.0946 37.2402L17.8281 38.2378C18.6544 36.8019 18.1602 34.9665 16.7282 34.1371L15.7258 35.8677ZM14.3642 36.2315C14.6386 35.7546 15.248 35.591 15.7258 35.8677L16.7282 34.1371C15.2944 33.3066 13.4582 33.7961 12.6308 35.2339L14.3642 36.2315ZM11.7331 43.6044C11.2534 43.3266 11.0887 42.7108 11.3643 42.232L9.63082 41.2344C8.80445 42.6703 9.29872 44.5057 10.7307 45.3351L11.7331 43.6044ZM13.0947 43.2407C12.8202 43.7176 12.2109 43.8812 11.7331 43.6044L10.7307 45.3351C12.1645 46.1656 14.0007 45.6761 14.8281 44.2383L13.0947 43.2407ZM12.7259 41.8682C13.2055 42.146 13.3702 42.7619 13.0947 43.2407L14.8281 44.2383C15.6545 42.8024 15.1602 40.967 13.7283 40.1376L12.7259 41.8682ZM11.3643 42.232C11.6387 41.7551 12.2481 41.5915 12.7259 41.8682L13.7283 40.1376C12.2944 39.3071 10.4583 39.7966 9.63082 41.2344L11.3643 42.232ZM27.6308 38.2338C26.8044 39.6697 27.2987 41.5051 28.7306 42.3345L29.733 40.6039C29.2533 40.3261 29.0886 39.7102 29.3642 39.2314L27.6308 38.2338ZM31.7282 37.137C30.2944 36.3065 28.4582 36.796 27.6308 38.2338L29.3642 39.2314C29.6386 38.7545 30.248 38.5909 30.7258 38.8677L31.7282 37.137ZM32.8281 41.2377C33.6544 39.8018 33.1602 37.9664 31.7282 37.137L30.7258 38.8677C31.2055 39.1455 31.3702 39.7613 31.0946 40.2401L32.8281 41.2377ZM28.7306 42.3345C30.1644 43.165 32.0006 42.6755 32.8281 41.2377L31.0946 40.2401C30.8202 40.717 30.2108 40.8806 29.733 40.6039L28.7306 42.3345Z" fill="black" mask="url(#path-1-inside-1_100_1067)"/>
<mask id="path-3-inside-2_100_1067" fill="white">
<path fill-rule="evenodd" clip-rule="evenodd" d="M37.6642 32H16.6194C7.7169 32 0.5 24.8366 0.5 16C0.5 7.16345 7.7169 0 16.6194 0C24.0583 0 30.3202 5.00162 32.1782 11.8017C33.7873 10.8544 35.6623 10.3111 37.6642 10.3111C43.6487 10.3111 48.5 15.1663 48.5 21.1556C48.5 27.1149 43.697 31.9515 37.7537 31.9996V32H37.6642Z"/>
</mask>
<path fill-rule="evenodd" clip-rule="evenodd" d="M37.6642 32H16.6194C7.7169 32 0.5 24.8366 0.5 16C0.5 7.16345 7.7169 0 16.6194 0C24.0583 0 30.3202 5.00162 32.1782 11.8017C33.7873 10.8544 35.6623 10.3111 37.6642 10.3111C43.6487 10.3111 48.5 15.1663 48.5 21.1556C48.5 27.1149 43.697 31.9515 37.7537 31.9996V32H37.6642Z" fill="white"/>
<path d="M32.1782 11.8017L29.2843 12.5924L30.3185 16.3777L33.7001 14.387L32.1782 11.8017ZM37.7537 31.9996L37.7294 28.9997L34.7537 29.0238V31.9996H37.7537ZM37.7537 32V35H40.7537V32H37.7537ZM16.6194 35H37.6642V29H16.6194V35ZM16.6194 29C9.35269 29 3.5 23.1587 3.5 16H-2.5C-2.5 26.5144 6.08112 35 16.6194 35V29ZM3.5 16C3.5 8.84129 9.35269 3 16.6194 3V-3C6.08112 -3 -2.5 5.4856 -2.5 16H3.5ZM16.6194 3C22.685 3 27.7772 7.0765 29.2843 12.5924L35.0721 11.011C32.8633 2.92674 25.4316 -3 16.6194 -3V3ZM33.7001 14.387C34.8607 13.7037 36.2122 13.3111 37.6642 13.3111V7.31111C35.1125 7.31111 32.7138 8.00508 30.6562 9.21641L33.7001 14.387ZM37.6642 13.3111C41.9895 13.3111 45.5 16.8209 45.5 21.1556H51.5C51.5 13.5117 45.3078 7.31111 37.6642 7.31111V13.3111ZM45.5 21.1556C45.5 25.4684 42.0245 28.965 37.7294 28.9997L37.778 34.9995C45.3695 34.9381 51.5 28.7614 51.5 21.1556H45.5ZM40.7537 32V31.9996H34.7537V32H40.7537ZM37.6642 35H37.7537V29H37.6642V35Z" fill="black" mask="url(#path-3-inside-2_100_1067)"/>
<mask id="path-5-inside-3_100_1067" fill="white">
<path fill-rule="evenodd" clip-rule="evenodd" d="M35.5942 37C35.5972 38.1046 36.4951 39 37.5997 39C38.7043 39 39.5973 38.1046 39.5942 37L39.5843 33.4586L42.6466 35.2152C43.6047 35.7649 44.8291 35.435 45.3814 34.4784C45.9337 33.5218 45.6047 32.3007 44.6466 31.7511L41.5747 29.9889L44.6273 28.2152C45.5823 27.6603 45.9088 26.435 45.3565 25.4784C44.8042 24.5218 43.5823 24.1962 42.6272 24.7511L39.5651 26.5304L39.5553 23C39.5522 21.8954 38.6543 20.9999 37.5497 20.9999C36.4451 20.9999 35.5522 21.8954 35.5553 23L35.5651 26.5415L32.5027 24.7848C31.5446 24.2351 30.3202 24.5651 29.7679 25.5216C29.2156 26.4782 29.5446 27.6993 30.5027 28.2489L33.5747 30.0112L30.5223 31.7848C29.5673 32.3398 29.2407 33.5651 29.793 34.5217C30.3453 35.4783 31.5673 35.8039 32.5223 35.2489L35.5843 33.4697L35.5942 37Z"/>
</mask>
<path fill-rule="evenodd" clip-rule="evenodd" d="M35.5942 37C35.5972 38.1046 36.4951 39 37.5997 39C38.7043 39 39.5973 38.1046 39.5942 37L39.5843 33.4586L42.6466 35.2152C43.6047 35.7649 44.8291 35.435 45.3814 34.4784C45.9337 33.5218 45.6047 32.3007 44.6466 31.7511L41.5747 29.9889L44.6273 28.2152C45.5823 27.6603 45.9088 26.435 45.3565 25.4784C44.8042 24.5218 43.5823 24.1962 42.6272 24.7511L39.5651 26.5304L39.5553 23C39.5522 21.8954 38.6543 20.9999 37.5497 20.9999C36.4451 20.9999 35.5522 21.8954 35.5553 23L35.5651 26.5415L32.5027 24.7848C31.5446 24.2351 30.3202 24.5651 29.7679 25.5216C29.2156 26.4782 29.5446 27.6993 30.5027 28.2489L33.5747 30.0112L30.5223 31.7848C29.5673 32.3398 29.2407 33.5651 29.793 34.5217C30.3453 35.4783 31.5673 35.8039 32.5223 35.2489L35.5843 33.4697L35.5942 37Z" fill="#148FCC"/>
<path fill-rule="evenodd" clip-rule="evenodd" d="M35.5942 37C35.5972 38.1046 36.4951 39 37.5997 39C38.7043 39 39.5973 38.1046 39.5942 37L39.5843 33.4586L42.6466 35.2152C43.6047 35.7649 44.8291 35.435 45.3814 34.4784C45.9337 33.5218 45.6047 32.3007 44.6466 31.7511L41.5747 29.9889L44.6273 28.2152C45.5823 27.6603 45.9088 26.435 45.3565 25.4784C44.8042 24.5218 43.5823 24.1962 42.6272 24.7511L39.5651 26.5304L39.5553 23C39.5522 21.8954 38.6543 20.9999 37.5497 20.9999C36.4451 20.9999 35.5522 21.8954 35.5553 23L35.5651 26.5415L32.5027 24.7848C31.5446 24.2351 30.3202 24.5651 29.7679 25.5216C29.2156 26.4782 29.5446 27.6993 30.5027 28.2489L33.5747 30.0112L30.5223 31.7848C29.5673 32.3398 29.2407 33.5651 29.793 34.5217C30.3453 35.4783 31.5673 35.8039 32.5223 35.2489L35.5843 33.4697L35.5942 37Z" fill="white" fill-opacity="0.5"/>
<path d="M35.5942 37L34.0942 37.0042L34.0942 37.0042L35.5942 37ZM39.5942 37L41.0942 36.9959L41.0942 36.9959L39.5942 37ZM39.5844 33.4586L40.3308 32.1575L38.0772 30.8647L38.0844 33.4628L39.5844 33.4586ZM42.6466 35.2153L41.9002 36.5164L41.9002 36.5164L42.6466 35.2153ZM45.3814 34.4784L46.6805 35.2284L46.6805 35.2284L45.3814 34.4784ZM44.6466 31.7512L45.393 30.45L45.393 30.45L44.6466 31.7512ZM41.5748 29.989L40.8211 28.692L38.5748 29.9973L40.8284 31.2901L41.5748 29.989ZM44.6273 28.2153L45.3809 29.5122L45.3809 29.5122L44.6273 28.2153ZM45.3566 25.4784L46.6556 24.7284L46.6556 24.7284L45.3566 25.4784ZM42.6273 24.7512L43.3809 26.0481L43.3809 26.0481L42.6273 24.7512ZM39.5651 26.5305L38.0651 26.5346L38.0723 29.1327L40.3187 27.8274L39.5651 26.5305ZM39.5553 23L41.0553 22.9958L41.0553 22.9958L39.5553 23ZM35.5553 23L34.0553 23.0042L34.0553 23.0042L35.5553 23ZM35.5651 26.5416L34.8187 27.8427L37.0723 29.1355L37.0651 26.5374L35.5651 26.5416ZM32.5028 24.7848L33.2491 23.4837L33.2491 23.4837L32.5028 24.7848ZM29.7679 25.5217L31.067 26.2717L31.067 26.2717L29.7679 25.5217ZM30.5027 28.249L31.2491 26.9478L31.2491 26.9478L30.5027 28.249ZM33.5748 30.0112L34.3284 31.3082L36.5747 30.0029L34.3211 28.7101L33.5748 30.0112ZM30.5223 31.7849L29.7687 30.4879L29.7687 30.4879L30.5223 31.7849ZM29.7931 34.5217L31.0921 33.7717L31.0921 33.7717L29.7931 34.5217ZM32.5223 35.249L31.7687 33.952L32.5223 35.249ZM35.5844 33.4698L37.0844 33.4656L37.0772 30.8675L34.8308 32.1728L35.5844 33.4698ZM37.5998 37.5001C37.322 37.5001 37.0949 37.2737 37.0942 36.9959L34.0942 37.0042C34.0996 38.9356 35.6684 40.5001 37.5998 40.5001V37.5001ZM38.0942 37.0042C38.095 37.2787 37.8743 37.5001 37.5998 37.5001V40.5001C39.5344 40.5001 41.0996 38.9305 41.0942 36.9959L38.0942 37.0042ZM38.0844 33.4628L38.0942 37.0042L41.0942 36.9959L41.0844 33.4545L38.0844 33.4628ZM38.838 34.7598L41.9002 36.5164L43.393 33.9142L40.3308 32.1575L38.838 34.7598ZM41.9002 36.5164C43.5755 37.4774 45.7148 36.901 46.6805 35.2284L44.0824 33.7284C43.9435 33.969 43.6339 34.0524 43.393 33.9142L41.9002 36.5164ZM46.6805 35.2284C47.6478 33.553 47.0711 31.4127 45.393 30.45L43.9002 33.0523C44.1383 33.1889 44.2196 33.4907 44.0824 33.7284L46.6805 35.2284ZM45.393 30.45L42.3211 28.6879L40.8284 31.2901L43.9002 33.0523L45.393 30.45ZM43.8737 26.9183L40.8211 28.692L42.3284 31.2859L45.3809 29.5122L43.8737 26.9183ZM44.0575 26.2284C44.1964 26.469 44.1139 26.7788 43.8737 26.9183L45.3809 29.5122C47.0508 28.5419 47.6213 26.401 46.6556 24.7284L44.0575 26.2284ZM43.3809 26.0481C43.6182 25.9102 43.9203 25.9907 44.0575 26.2284L46.6556 24.7284C45.6883 23.053 43.5464 22.4822 41.8737 23.4542L43.3809 26.0481ZM40.3187 27.8274L43.3809 26.0481L41.8737 23.4542L38.8115 25.2335L40.3187 27.8274ZM38.0553 23.0042L38.0651 26.5346L41.0651 26.5263L41.0553 22.9958L38.0553 23.0042ZM37.5497 22.5C37.8275 22.5 38.0545 22.7264 38.0553 23.0042L41.0553 22.9958C41.0499 21.0645 39.4811 19.5 37.5497 19.5V22.5ZM37.0553 22.9958C37.0545 22.7213 37.2752 22.5 37.5497 22.5V19.5C35.6151 19.5 34.0499 21.0695 34.0553 23.0042L37.0553 22.9958ZM37.0651 26.5374L37.0553 22.9958L34.0553 23.0042L34.0651 26.5457L37.0651 26.5374ZM36.3115 25.2404L33.2491 23.4837L31.7564 26.0859L34.8187 27.8427L36.3115 25.2404ZM33.2491 23.4837C31.5739 22.5227 29.4346 23.0991 28.4689 24.7717L31.067 26.2717C31.2058 26.0311 31.5154 25.9477 31.7564 26.0859L33.2491 23.4837ZM28.4689 24.7717C27.5016 26.4471 28.0782 28.5874 29.7564 29.5501L31.2491 26.9478C31.011 26.8112 30.9297 26.5094 31.067 26.2717L28.4689 24.7717ZM29.7564 29.5501L32.8284 31.3123L34.3211 28.7101L31.2491 26.9478L29.7564 29.5501ZM31.2759 33.0818L34.3284 31.3082L32.8212 28.7143L29.7687 30.4879L31.2759 33.0818ZM31.0921 33.7717C30.9532 33.5312 31.0358 33.2214 31.2759 33.0818L29.7687 30.4879C28.0988 31.4582 27.5283 33.5991 28.494 35.2717L31.0921 33.7717ZM31.7687 33.952C31.5314 34.09 31.2294 34.0095 31.0921 33.7717L28.494 35.2717C29.4613 36.9472 31.6032 37.5179 33.276 36.5459L31.7687 33.952ZM34.8308 32.1728L31.7687 33.952L33.276 36.5459L36.338 34.7667L34.8308 32.1728ZM37.0942 36.9959L37.0844 33.4656L34.0844 33.4739L34.0942 37.0042L37.0942 36.9959Z" fill="black" mask="url(#path-5-inside-3_100_1067)"/>
</g>
<defs>
<clipPath id="clip0_100_1067">
<rect width="48" height="48" fill="white" transform="translate(0.5)"/>
</clipPath>
</defs>
</svg>
