<svg width="97" height="96" viewBox="0 0 97 96" fill="none" xmlns="http://www.w3.org/2000/svg">
<path d="M80 47C80 65.7777 64.7777 81 46 81C27.2223 81 12 65.7777 12 47C12 28.2223 27.2223 13 46 13C64.7777 13 80 28.2223 80 47Z" fill="#FFBB00" stroke="black" stroke-width="4"/>
<mask id="path-2-inside-1_73_371" fill="white">
<path fill-rule="evenodd" clip-rule="evenodd" d="M56.2463 96L24.6791 96C11.3254 96 0.5 85.2548 0.5 72C0.5 58.7452 11.3254 48 24.6791 48C35.8374 48 45.2303 55.5024 48.0173 65.7025C50.4309 64.2816 53.2435 63.4667 56.2463 63.4667C65.223 63.4667 72.5 70.7495 72.5 79.7333C72.5 88.6723 65.2954 95.9272 56.3806 95.9995V96L56.2463 96Z"/>
</mask>
<path fill-rule="evenodd" clip-rule="evenodd" d="M56.2463 96L24.6791 96C11.3254 96 0.5 85.2548 0.5 72C0.5 58.7452 11.3254 48 24.6791 48C35.8374 48 45.2303 55.5024 48.0173 65.7025C50.4309 64.2816 53.2435 63.4667 56.2463 63.4667C65.223 63.4667 72.5 70.7495 72.5 79.7333C72.5 88.6723 65.2954 95.9272 56.3806 95.9995V96L56.2463 96Z" fill="white"/>
<path d="M24.6791 96L24.6791 100L24.6791 100L24.6791 96ZM56.2463 96L56.2464 92L56.2463 92L56.2463 96ZM48.0173 65.7025L44.1587 66.7568L45.5377 71.8039L50.0465 69.1496L48.0173 65.7025ZM56.3806 95.9995L56.3482 91.9996L52.3806 92.0317V95.9995H56.3806ZM56.3806 96L56.3805 100L60.3806 100V96H56.3806ZM24.6791 100L56.2463 100L56.2463 92L24.6791 92L24.6791 100ZM24.6791 92C13.5064 92 4.5 83.0177 4.5 72H-3.5C-3.5 87.492 9.14431 100 24.6791 100V92ZM4.5 72C4.5 60.9823 13.5064 52 24.6791 52V44C9.14431 44 -3.5 56.508 -3.5 72H4.5ZM24.6791 52C34.0063 52 41.8396 58.2689 44.1587 66.7568L51.8758 64.6483C48.6211 52.7359 37.6685 44 24.6791 44V52ZM50.0465 69.1496C51.8622 68.0807 53.9766 67.4667 56.2463 67.4667V59.4667C52.5105 59.4667 48.9997 60.4825 45.988 62.2555L50.0465 69.1496ZM56.2463 67.4667C63.0108 67.4667 68.5 72.9556 68.5 79.7333H76.5C76.5 68.5434 67.4351 59.4667 56.2463 59.4667V67.4667ZM68.5 79.7333C68.5 86.477 63.0654 91.9452 56.3482 91.9996L56.413 99.9993C67.5255 99.9093 76.5 90.8676 76.5 79.7333H68.5ZM60.3806 96V95.9995H52.3806V96H60.3806ZM56.2462 100L56.3805 100L56.3807 92L56.2464 92L56.2462 100Z" fill="black" mask="url(#path-2-inside-1_73_371)"/>
<mask id="path-4-inside-2_73_371" fill="white">
<path fill-rule="evenodd" clip-rule="evenodd" d="M52.3675 38L77.3459 38C77.35 38 77.3541 38 77.3582 38C87.9299 38 96.5 29.4934 96.5 19C96.5 8.50659 87.9299 0 77.3582 0C68.5246 0 61.0885 5.93943 58.8822 14.0145C56.9714 12.8896 54.7447 12.2444 52.3675 12.2444C45.261 12.2444 39.5 18.01 39.5 25.1222C39.5 32.1989 45.2036 37.9424 52.2612 37.9996V38L52.3675 38Z"/>
</mask>
<path fill-rule="evenodd" clip-rule="evenodd" d="M52.3675 38L77.3459 38C77.35 38 77.3541 38 77.3582 38C87.9299 38 96.5 29.4934 96.5 19C96.5 8.50659 87.9299 0 77.3582 0C68.5246 0 61.0885 5.93943 58.8822 14.0145C56.9714 12.8896 54.7447 12.2444 52.3675 12.2444C45.261 12.2444 39.5 18.01 39.5 25.1222C39.5 32.1989 45.2036 37.9424 52.2612 37.9996V38L52.3675 38Z" fill="white"/>
<path d="M77.3459 38L77.3459 42L77.3459 42L77.3459 38ZM52.3675 38L52.3674 34L52.3675 34L52.3675 38ZM58.8822 14.0145L62.7407 15.0688L61.3617 20.1159L56.8529 17.4615L58.8822 14.0145ZM52.2612 37.9996L52.2936 33.9997L56.2612 34.0318V37.9996H52.2612ZM52.2612 38L52.2613 42L48.2612 42.0001V38H52.2612ZM77.3459 42L52.3675 42L52.3675 34L77.3459 34L77.3459 42ZM77.3459 34C77.3491 34 77.3521 34 77.3539 34C77.3561 34 77.3573 34 77.3582 34V42C77.3551 42 77.3521 42 77.3502 42C77.348 42 77.3469 42 77.3459 42V34ZM77.3582 34C85.7489 34 92.5 27.2563 92.5 19H100.5C100.5 31.7305 90.111 42 77.3582 42V34ZM92.5 19C92.5 10.7437 85.7489 4 77.3582 4V-4C90.111 -4 100.5 6.26946 100.5 19H92.5ZM77.3582 4C70.3556 4 64.4792 8.70594 62.7407 15.0688L55.0236 12.9602C57.6977 3.17292 66.6935 -4 77.3582 -4V4ZM56.8529 17.4615C55.5401 16.6887 54.0116 16.2444 52.3675 16.2444V8.24444C55.4778 8.24444 58.4026 9.09051 60.9114 10.5675L56.8529 17.4615ZM52.3675 16.2444C47.4731 16.2444 43.5 20.2161 43.5 25.1222H35.5C35.5 15.8039 43.0488 8.24444 52.3675 8.24444V16.2444ZM43.5 25.1222C43.5 30.0036 47.4336 33.9603 52.2936 33.9997L52.2288 41.9994C42.9736 41.9245 35.5 34.3942 35.5 25.1222H43.5ZM48.2612 38V37.9996H56.2612V38H48.2612ZM52.3677 42L52.2613 42L52.261 34L52.3674 34L52.3677 42Z" fill="black" mask="url(#path-4-inside-2_73_371)"/>
</svg>
