<svg width="49" height="48" viewBox="0 0 49 48" fill="none" xmlns="http://www.w3.org/2000/svg">
<path d="M39.75 23.5C39.75 32.6127 32.3627 40 23.25 40C14.1373 40 6.75 32.6127 6.75 23.5C6.75 14.3873 14.1373 7 23.25 7C32.3627 7 39.75 14.3873 39.75 23.5Z" fill="#FFBB00" stroke="black" stroke-width="3"/>
<mask id="path-2-inside-1_73_383" fill="white">
<path fill-rule="evenodd" clip-rule="evenodd" d="M28.3731 48L12.5896 48C5.91268 48 0.5 42.6274 0.5 36C0.5 29.3726 5.91268 24 12.5896 24C18.1687 24 22.8652 27.7512 24.2586 32.8513C25.4655 32.1408 26.8718 31.7333 28.3731 31.7333C32.8615 31.7333 36.5 35.3748 36.5 39.8667C36.5 44.3362 32.8977 47.9636 28.4403 47.9997V48L28.3731 48Z"/>
</mask>
<path fill-rule="evenodd" clip-rule="evenodd" d="M28.3731 48L12.5896 48C5.91268 48 0.5 42.6274 0.5 36C0.5 29.3726 5.91268 24 12.5896 24C18.1687 24 22.8652 27.7512 24.2586 32.8513C25.4655 32.1408 26.8718 31.7333 28.3731 31.7333C32.8615 31.7333 36.5 35.3748 36.5 39.8667C36.5 44.3362 32.8977 47.9636 28.4403 47.9997V48L28.3731 48Z" fill="white"/>
<path d="M12.5896 48L12.5896 51L12.5896 51L12.5896 48ZM28.3731 48L28.3732 45L28.3731 45L28.3731 48ZM24.2586 32.8513L21.3647 33.642L22.399 37.4273L25.7806 35.4365L24.2586 32.8513ZM28.4403 47.9997L28.416 44.9998L25.4403 45.0239V47.9997H28.4403ZM28.4403 48L28.4402 51L31.4403 51.0001V48H28.4403ZM12.5896 51L28.3732 51L28.3731 45L12.5896 45L12.5896 51ZM12.5896 45C7.54846 45 3.5 40.9496 3.5 36H-2.5C-2.5 44.3053 4.27689 51 12.5896 51V45ZM3.5 36C3.5 31.0504 7.54846 27 12.5896 27V21C4.27689 21 -2.5 27.6947 -2.5 36H3.5ZM12.5896 27C16.7954 27 20.3221 29.8261 21.3647 33.642L27.1526 32.0606C25.4082 25.6763 19.542 21 12.5896 21V27ZM25.7806 35.4365C26.5389 34.9901 27.4216 34.7333 28.3731 34.7333V28.7333C26.322 28.7333 24.392 29.2915 22.7367 30.266L25.7806 35.4365ZM28.3731 34.7333C31.2024 34.7333 33.5 37.0293 33.5 39.8667H39.5C39.5 33.7202 34.5206 28.7333 28.3731 28.7333V34.7333ZM33.5 39.8667C33.5 42.6897 31.2252 44.9771 28.416 44.9998L28.4646 50.9996C34.5702 50.9502 39.5 45.9826 39.5 39.8667H33.5ZM31.4403 48V47.9997H25.4403V48H31.4403ZM28.3731 51L28.4402 51L28.4404 45L28.3732 45L28.3731 51Z" fill="black" mask="url(#path-2-inside-1_73_383)"/>
<mask id="path-4-inside-2_73_383" fill="white">
<path fill-rule="evenodd" clip-rule="evenodd" d="M26.4338 19.0001L38.923 19.0001C38.925 19.0001 38.9271 19.0001 38.9291 19.0001C44.215 19.0001 48.5 14.7468 48.5 9.50006C48.5 4.25336 44.215 6.09457e-05 38.9291 6.09457e-05C34.5123 6.09457e-05 30.7942 2.96977 29.6911 7.00731C28.7357 6.44486 27.6224 6.12228 26.4338 6.12228C22.8805 6.12228 20 9.00507 20 12.5612C20 16.0995 22.8518 18.9713 26.3806 18.9998V19.0001L26.4338 19.0001Z"/>
</mask>
<path fill-rule="evenodd" clip-rule="evenodd" d="M26.4338 19.0001L38.923 19.0001C38.925 19.0001 38.9271 19.0001 38.9291 19.0001C44.215 19.0001 48.5 14.7468 48.5 9.50006C48.5 4.25336 44.215 6.09457e-05 38.9291 6.09457e-05C34.5123 6.09457e-05 30.7942 2.96977 29.6911 7.00731C28.7357 6.44486 27.6224 6.12228 26.4338 6.12228C22.8805 6.12228 20 9.00507 20 12.5612C20 16.0995 22.8518 18.9713 26.3806 18.9998V19.0001L26.4338 19.0001Z" fill="white"/>
<path d="M38.923 19.0001L38.923 22.0001L38.923 22.0001L38.923 19.0001ZM26.4338 19.0001L26.4336 16.0001L26.4338 16.0001L26.4338 19.0001ZM29.6911 7.00731L32.585 7.79801L31.5507 11.5834L28.1691 9.59258L29.6911 7.00731ZM26.3806 18.9998L26.4049 15.9999L29.3806 16.024V18.9998H26.3806ZM26.3806 19.0001L26.3807 22.0001L23.3806 22.0002V19.0001H26.3806ZM38.923 22.0001L26.4338 22.0001L26.4338 16.0001L38.923 16.0001L38.923 22.0001ZM38.923 16.0001C38.9248 16.0001 38.9265 16.0001 38.9274 16.0001C38.9286 16.0001 38.9289 16.0001 38.9291 16.0001V22.0001C38.9273 22.0001 38.9255 22.0001 38.9246 22.0001C38.9235 22.0001 38.9232 22.0001 38.923 22.0001V16.0001ZM38.9291 16.0001C42.5792 16.0001 45.5 13.0689 45.5 9.50006H51.5C51.5 16.4246 45.8507 22.0001 38.9291 22.0001V16.0001ZM45.5 9.50006C45.5 5.9312 42.5792 3.00006 38.9291 3.00006V-2.99994C45.8507 -2.99994 51.5 2.57551 51.5 9.50006H45.5ZM38.9291 3.00006C35.8856 3.00006 33.3373 5.04466 32.585 7.79801L26.7972 6.21662C28.2512 0.894894 33.139 -2.99994 38.9291 -2.99994V3.00006ZM28.1691 9.59258C27.6622 9.29418 27.0726 9.12228 26.4338 9.12228V3.12228C28.1722 3.12228 29.8091 3.59554 31.213 4.42204L28.1691 9.59258ZM26.4338 9.12228C24.5396 9.12228 23 10.6597 23 12.5612H17C17 7.35048 21.2214 3.12228 26.4338 3.12228V9.12228ZM23 12.5612C23 14.453 24.5243 15.9847 26.4049 15.9999L26.3563 21.9997C21.1793 21.9578 17 17.746 17 12.5612H23ZM23.3806 19.0001V18.9998H29.3806V19.0001H23.3806ZM26.4339 22.0001L26.3807 22.0001L26.3805 16.0001L26.4336 16.0001L26.4339 22.0001Z" fill="black" mask="url(#path-4-inside-2_73_383)"/>
</svg>
