<svg width="54" height="48" viewBox="0 0 54 48" fill="none" xmlns="http://www.w3.org/2000/svg">
<path d="M14.4614 19.1901C18.8655 20.8125 23.7343 18.5164 25.3362 14.0615C26.9382 9.60661 24.6666 4.67998 20.2626 3.05755C15.8586 1.43511 10.9898 3.73126 9.38786 8.18614C7.7859 12.641 10.0574 17.5676 14.4614 19.1901Z" fill="#B9E6FF"/>
<path d="M24.867 13.8886C23.3571 18.0875 18.7717 20.2451 14.6306 18.7196C10.4896 17.194 8.34714 12.5579 9.85703 8.35898C11.3669 4.16011 15.9524 2.00248 20.0934 3.52805C24.2345 5.05362 26.3769 9.68977 24.867 13.8886Z" fill="black" fill-opacity="0.2" stroke="black"/>
<path d="M24.8722 23.0253C27.8327 24.1159 31.1128 22.5524 32.1986 19.5329C33.2844 16.5135 31.7646 13.1817 28.8041 12.091C25.8437 11.0004 22.5635 12.564 21.4778 15.5834C20.392 18.6028 21.9118 21.9347 24.8722 23.0253Z" fill="#B9E6FF"/>
<path d="M24.8722 23.0253C27.8327 24.1159 31.1128 22.5524 32.1986 19.5329C33.2844 16.5135 31.7646 13.1817 28.8041 12.091C25.8437 11.0004 22.5635 12.564 21.4778 15.5834C20.392 18.6028 21.9118 21.9347 24.8722 23.0253Z" fill="black" fill-opacity="0.2"/>
<path d="M26.6246 18.2915L16.1696 14.4399L14.4614 19.1901L24.9165 23.0417L26.6246 18.2915Z" fill="#B9E6FF"/>
<path d="M26.6246 18.2915L16.1696 14.4399L14.4614 19.1901L24.9165 23.0417L26.6246 18.2915Z" fill="black" fill-opacity="0.2"/>
<path d="M17.864 35.8949C18.0552 35.5598 17.9417 35.1312 17.6106 34.9377C17.2795 34.7442 16.8561 34.859 16.6649 35.1942L10.1745 46.5726C9.98333 46.9078 10.0968 47.3363 10.4279 47.5298C10.759 47.7233 11.1824 47.6085 11.3736 47.2734L17.864 35.8949Z" fill="black"/>
<path d="M23.353 35.8949C23.5441 35.5598 23.4307 35.1312 23.0996 34.9377C22.7684 34.7442 22.345 34.859 22.1538 35.1942L15.6635 46.5726C15.4723 46.9078 15.5857 47.3363 15.9169 47.5298C16.248 47.7233 16.6714 47.6085 16.8626 47.2734L23.353 35.8949Z" fill="black"/>
<path d="M23.353 35.8949C23.5441 35.5598 23.4307 35.1312 23.0996 34.9377C22.7684 34.7442 22.345 34.859 22.1538 35.1942L15.6635 46.5726C15.4723 46.9078 15.5857 47.3363 15.9169 47.5298C16.248 47.7233 16.6714 47.6085 16.8626 47.2734L23.353 35.8949Z" fill="white" fill-opacity="0.2"/>
<path d="M28.8914 35.8949C29.0826 35.5598 28.9691 35.1312 28.638 34.9377C28.3069 34.7442 27.8835 34.859 27.6923 35.1942L21.2019 46.5726C21.0107 46.9078 21.1242 47.3363 21.4553 47.5298C21.7864 47.7233 22.2098 47.6085 22.401 47.2734L28.8914 35.8949Z" fill="black"/>
<path d="M34.4299 35.8949C34.621 35.5598 34.5076 35.1312 34.1765 34.9377C33.8453 34.7442 33.4219 34.859 33.2308 35.1942L26.7404 46.5726C26.5492 46.9078 26.6626 47.3363 26.9938 47.5298C27.3249 47.7233 27.7483 47.6085 27.9395 47.2734L34.4299 35.8949Z" fill="black"/>
<path d="M34.4299 35.8949C34.621 35.5598 34.5076 35.1312 34.1765 34.9377C33.8453 34.7442 33.4219 34.859 33.2308 35.1942L26.7404 46.5726C26.5492 46.9078 26.6626 47.3363 26.9938 47.5298C27.3249 47.7233 27.7483 47.6085 27.9395 47.2734L34.4299 35.8949Z" fill="white" fill-opacity="0.2"/>
<path d="M39.9683 35.8949C40.1595 35.5598 40.046 35.1312 39.7149 34.9377C39.3838 34.7442 38.9604 34.859 38.7692 35.1942L32.2788 46.5726C32.0876 46.9078 32.2011 47.3363 32.5322 47.5298C32.8633 47.7233 33.2868 47.6085 33.4779 47.2734L39.9683 35.8949Z" fill="black"/>
<path d="M45.5068 35.8949C45.698 35.5598 45.5846 35.1312 45.2534 34.9377C44.9223 34.7442 44.4989 34.859 44.3077 35.1942L37.8173 46.5726C37.6262 46.9078 37.7396 47.3363 38.0707 47.5298C38.4019 47.7233 38.8253 47.6085 39.0164 47.2734L45.5068 35.8949Z" fill="black"/>
<path d="M45.5068 35.8949C45.698 35.5598 45.5846 35.1312 45.2534 34.9377C44.9223 34.7442 44.4989 34.859 44.3077 35.1942L37.8173 46.5726C37.6262 46.9078 37.7396 47.3363 38.0707 47.5298C38.4019 47.7233 38.8253 47.6085 39.0164 47.2734L45.5068 35.8949Z" fill="white" fill-opacity="0.2"/>
<mask id="path-17-inside-1_1_67" fill="white">
<path fill-rule="evenodd" clip-rule="evenodd" d="M43.5162 38.6936H23.2057C23.2012 38.6936 23.1968 38.6936 23.1923 38.6936C14.5894 38.6936 7.61536 31.6347 7.61536 22.9272C7.61536 14.2196 14.5894 7.16077 23.1923 7.16077C30.3808 7.16077 36.432 12.0894 38.2274 18.7901C39.7824 17.8567 41.5943 17.3214 43.5288 17.3214C49.3119 17.3214 54 22.1057 54 28.0075C54 33.8798 49.3586 38.6458 43.6154 38.6933V38.6936H43.5415C43.5373 38.6936 43.533 38.6936 43.5288 38.6936C43.5246 38.6936 43.5204 38.6936 43.5162 38.6936Z"/>
</mask>
<path fill-rule="evenodd" clip-rule="evenodd" d="M43.5162 38.6936H23.2057C23.2012 38.6936 23.1968 38.6936 23.1923 38.6936C14.5894 38.6936 7.61536 31.6347 7.61536 22.9272C7.61536 14.2196 14.5894 7.16077 23.1923 7.16077C30.3808 7.16077 36.432 12.0894 38.2274 18.7901C39.7824 17.8567 41.5943 17.3214 43.5288 17.3214C49.3119 17.3214 54 22.1057 54 28.0075C54 33.8798 49.3586 38.6458 43.6154 38.6933V38.6936H43.5415C43.5373 38.6936 43.533 38.6936 43.5288 38.6936C43.5246 38.6936 43.5204 38.6936 43.5162 38.6936Z" fill="#FFD500"/>
<path d="M23.2057 38.6936L23.2057 37.6936L23.2048 37.6936L23.2057 38.6936ZM43.5162 38.6936L43.5175 37.6936H43.5162V38.6936ZM38.2274 18.7901L37.2615 19.049L37.6048 20.3303L38.7421 19.6475L38.2274 18.7901ZM43.6154 38.6933L43.6071 37.6933L42.6154 37.7015V38.6933H43.6154ZM43.6154 38.6936V39.6936H44.6154V38.6936H43.6154ZM43.5415 38.6936V37.6936L43.5401 37.6936L43.5415 38.6936ZM23.2057 39.6936H43.5162V37.6936H23.2057V39.6936ZM23.2048 37.6936C23.2007 37.6936 23.1965 37.6936 23.1923 37.6936V39.6936C23.197 39.6936 23.2018 39.6936 23.2065 39.6936L23.2048 37.6936ZM23.1923 37.6936C15.153 37.6936 8.61536 31.0939 8.61536 22.9272H6.61536C6.61536 32.1756 14.0257 39.6936 23.1923 39.6936V37.6936ZM8.61536 22.9272C8.61536 14.7605 15.153 8.16077 23.1923 8.16077V6.16077C14.0257 6.16077 6.61536 13.6788 6.61536 22.9272H8.61536ZM23.1923 8.16077C29.9095 8.16077 35.5783 12.7671 37.2615 19.049L39.1934 18.5313C37.2857 11.4116 30.8521 6.16077 23.1923 6.16077V8.16077ZM38.7421 19.6475C40.1468 18.8043 41.7816 18.3214 43.5288 18.3214V16.3214C41.4071 16.3214 39.418 16.9091 37.7127 17.9328L38.7421 19.6475ZM43.5288 18.3214C48.7405 18.3214 53 22.6387 53 28.0075H55C55 21.5727 49.8832 16.3214 43.5288 16.3214V18.3214ZM53 28.0075C53 33.3493 48.7829 37.6505 43.6071 37.6933L43.6236 39.6932C49.9343 39.6411 55 34.4103 55 28.0075H53ZM44.6154 38.6936V38.6933H42.6154V38.6936H44.6154ZM43.5415 39.6936H43.6154V37.6936H43.5415V39.6936ZM43.5401 37.6936C43.5365 37.6936 43.5328 37.6936 43.5288 37.6936V39.6936C43.5333 39.6936 43.538 39.6936 43.5428 39.6936L43.5401 37.6936ZM43.5288 37.6936C43.5249 37.6936 43.5212 37.6936 43.5175 37.6936L43.5148 39.6936C43.5196 39.6936 43.5243 39.6936 43.5288 39.6936V37.6936Z" fill="black" mask="url(#path-17-inside-1_1_67)"/>
<path fill-rule="evenodd" clip-rule="evenodd" d="M33.0577 10.7253C30.3714 8.49757 26.9361 7.16077 23.1923 7.16077C20.3551 7.16077 17.695 7.92854 15.4039 9.27002V36.5844C17.695 37.9258 20.3551 38.6936 23.1923 38.6936L23.2057 38.6936H33.0577V10.7253Z" fill="black"/>
<path d="M45.7789 27.6571C47.0693 27.6571 48.1154 26.5983 48.1154 25.2921C48.1154 23.986 47.0693 22.9272 45.7789 22.9272C44.4884 22.9272 43.4423 23.986 43.4423 25.2921C43.4423 26.5983 44.4884 27.6571 45.7789 27.6571Z" fill="black"/>
<mask id="path-21-inside-2_1_67" fill="white">
<path fill-rule="evenodd" clip-rule="evenodd" d="M9.43852 25.1709C9.43098 25.1709 9.42344 25.171 9.4159 25.171C4.21564 25.171 0 20.9356 0 15.7111C0 10.4866 4.21564 6.25125 9.4159 6.25125C13.7612 6.25125 17.419 9.2084 18.5043 13.2288C19.4442 12.6688 20.5395 12.3476 21.7089 12.3476C25.2046 12.3476 28.0385 15.2182 28.0385 18.7592C28.0385 22.2826 25.2328 25.1422 21.7612 25.1707V25.1709H9.43852Z"/>
</mask>
<path fill-rule="evenodd" clip-rule="evenodd" d="M9.43852 25.1709C9.43098 25.1709 9.42344 25.171 9.4159 25.171C4.21564 25.171 0 20.9356 0 15.7111C0 10.4866 4.21564 6.25125 9.4159 6.25125C13.7612 6.25125 17.419 9.2084 18.5043 13.2288C19.4442 12.6688 20.5395 12.3476 21.7089 12.3476C25.2046 12.3476 28.0385 15.2182 28.0385 18.7592C28.0385 22.2826 25.2328 25.1422 21.7612 25.1707V25.1709H9.43852Z" fill="#B9E6FF"/>
<path d="M9.43852 25.1709L9.43852 24.1709L9.43624 24.1709L9.43852 25.1709ZM18.5043 13.2288L17.5389 13.4895L17.8827 14.7633L19.0162 14.0879L18.5043 13.2288ZM21.7612 25.1707L21.753 24.1707L20.7612 24.1789V25.1707H21.7612ZM21.7612 25.1709V26.1709H22.7612V25.1709H21.7612ZM9.43624 24.1709C9.42938 24.171 9.4226 24.171 9.4159 24.171V26.171C9.42428 26.171 9.43259 26.1709 9.4408 26.1709L9.43624 24.1709ZM9.4159 24.171C4.77231 24.171 1 20.3877 1 15.7111H-1C-1 21.4835 3.65897 26.171 9.4159 26.171V24.171ZM1 15.7111C1 11.0345 4.77231 7.25125 9.4159 7.25125V5.25125C3.65897 5.25125 -1 9.93868 -1 15.7111H1ZM9.4159 7.25125C13.2951 7.25125 16.5676 9.89145 17.5389 13.4895L19.4698 12.9682C18.2704 8.52534 14.2273 5.25125 9.4159 5.25125V7.25125ZM19.0162 14.0879C19.8061 13.6172 20.7252 13.3476 21.7089 13.3476V11.3476C20.3538 11.3476 19.0824 11.7203 17.9924 12.3698L19.0162 14.0879ZM21.7089 13.3476C24.6402 13.3476 27.0385 15.7583 27.0385 18.7592H29.0385C29.0385 14.6781 25.769 11.3476 21.7089 11.3476V13.3476ZM27.0385 18.7592C27.0385 21.7451 24.6641 24.1469 21.753 24.1707L21.7694 26.1707C25.8016 26.1376 29.0385 22.8201 29.0385 18.7592H27.0385ZM22.7612 25.1709V25.1707H20.7612V25.1709H22.7612ZM9.43852 26.1709H21.7612V24.1709H9.43852V26.1709Z" fill="black" mask="url(#path-21-inside-2_1_67)"/>
</svg>
