<svg width="96" height="96" viewBox="0 0 96 96" fill="none" xmlns="http://www.w3.org/2000/svg">
<g clip-path="url(#clip0_149_1646)">
<mask id="path-1-inside-1_149_1646" fill="white">
<path fill-rule="evenodd" clip-rule="evenodd" d="M63.468 65.9951C65.3796 67.1024 66.036 69.5521 64.9341 71.4668C63.8322 73.3815 61.3893 74.0361 59.4776 72.9289C57.566 71.8217 56.9096 69.3719 58.0115 67.4572C59.1134 65.5425 61.5564 64.8879 63.468 65.9951ZM32.468 65.9952C34.3796 67.1024 35.036 69.5522 33.9341 71.4669C32.8322 73.3816 30.3892 74.0361 28.4776 72.9289C26.566 71.8217 25.9096 69.3719 27.0115 67.4572C28.1134 65.5425 30.5564 64.8879 32.468 65.9952ZM23.4085 81.7372C25.3201 82.8444 25.9765 85.2941 24.8746 87.2088C23.7727 89.1235 21.3297 89.7781 19.4181 88.6709C17.5065 87.5637 16.85 85.1139 17.952 83.1992C19.0539 81.2845 21.4968 80.6299 23.4085 81.7372ZM55.8746 87.209C56.9765 85.2943 56.3201 82.8446 54.4084 81.7373C52.4968 80.6301 50.0538 81.2847 48.9519 83.1994C47.85 85.1141 48.5064 87.5639 50.4181 88.6711C52.3297 89.7783 54.7726 89.1237 55.8746 87.209Z"/>
</mask>
<path fill-rule="evenodd" clip-rule="evenodd" d="M63.468 65.9951C65.3796 67.1024 66.036 69.5521 64.9341 71.4668C63.8322 73.3815 61.3893 74.0361 59.4776 72.9289C57.566 71.8217 56.9096 69.3719 58.0115 67.4572C59.1134 65.5425 61.5564 64.8879 63.468 65.9951ZM32.468 65.9952C34.3796 67.1024 35.036 69.5522 33.9341 71.4669C32.8322 73.3816 30.3892 74.0361 28.4776 72.9289C26.566 71.8217 25.9096 69.3719 27.0115 67.4572C28.1134 65.5425 30.5564 64.8879 32.468 65.9952ZM23.4085 81.7372C25.3201 82.8444 25.9765 85.2941 24.8746 87.2088C23.7727 89.1235 21.3297 89.7781 19.4181 88.6709C17.5065 87.5637 16.85 85.1139 17.952 83.1992C19.0539 81.2845 21.4968 80.6299 23.4085 81.7372ZM55.8746 87.209C56.9765 85.2943 56.3201 82.8446 54.4084 81.7373C52.4968 80.6301 50.0538 81.2847 48.9519 83.1994C47.85 85.1141 48.5064 87.5639 50.4181 88.6711C52.3297 89.7783 54.7726 89.1237 55.8746 87.209Z" fill="#148FCC"/>
<path fill-rule="evenodd" clip-rule="evenodd" d="M63.468 65.9951C65.3796 67.1024 66.036 69.5521 64.9341 71.4668C63.8322 73.3815 61.3893 74.0361 59.4776 72.9289C57.566 71.8217 56.9096 69.3719 58.0115 67.4572C59.1134 65.5425 61.5564 64.8879 63.468 65.9951ZM32.468 65.9952C34.3796 67.1024 35.036 69.5522 33.9341 71.4669C32.8322 73.3816 30.3892 74.0361 28.4776 72.9289C26.566 71.8217 25.9096 69.3719 27.0115 67.4572C28.1134 65.5425 30.5564 64.8879 32.468 65.9952ZM23.4085 81.7372C25.3201 82.8444 25.9765 85.2941 24.8746 87.2088C23.7727 89.1235 21.3297 89.7781 19.4181 88.6709C17.5065 87.5637 16.85 85.1139 17.952 83.1992C19.0539 81.2845 21.4968 80.6299 23.4085 81.7372ZM55.8746 87.209C56.9765 85.2943 56.3201 82.8446 54.4084 81.7373C52.4968 80.6301 50.0538 81.2847 48.9519 83.1994C47.85 85.1141 48.5064 87.5639 50.4181 88.6711C52.3297 89.7783 54.7726 89.1237 55.8746 87.209Z" fill="white" fill-opacity="0.5"/>
<path d="M64.9341 71.4668L66.6676 72.4644L66.6676 72.4644L64.9341 71.4668ZM63.468 65.9951L64.4704 64.2645L63.468 65.9951ZM58.0115 67.4572L59.7449 68.4548L59.7449 68.4548L58.0115 67.4572ZM33.9341 71.4669L35.6676 72.4645L35.6676 72.4645L33.9341 71.4669ZM32.468 65.9952L31.4656 67.7258L31.4656 67.7258L32.468 65.9952ZM28.4776 72.9289L29.48 71.1983L29.48 71.1983L28.4776 72.9289ZM27.0115 67.4572L25.278 66.4596L25.278 66.4596L27.0115 67.4572ZM24.8746 87.2088L26.608 88.2064L26.608 88.2064L24.8746 87.2088ZM23.4085 81.7372L24.4109 80.0065L24.4109 80.0065L23.4085 81.7372ZM19.4181 88.6709L20.4205 86.9402L20.4205 86.9402L19.4181 88.6709ZM17.952 83.1992L19.6854 84.1968L19.6854 84.1968L17.952 83.1992ZM54.4084 81.7373L55.4108 80.0067L55.4108 80.0067L54.4084 81.7373ZM55.8746 87.209L54.1411 86.2114L54.1411 86.2114L55.8746 87.209ZM48.9519 83.1994L50.6854 84.197L50.6854 84.197L48.9519 83.1994ZM50.4181 88.6711L51.4205 86.9404L51.4205 86.9404L50.4181 88.6711ZM66.6676 72.4644C68.3194 69.5943 67.336 65.9242 64.4704 64.2645L62.4656 67.7258C63.4233 68.2805 63.7527 69.51 63.2007 70.4692L66.6676 72.4644ZM58.4752 74.6596C61.3445 76.3215 65.0136 75.3384 66.6676 72.4644L63.2007 70.4692C62.6508 71.4247 61.434 71.7508 60.48 71.1982L58.4752 74.6596ZM56.2781 66.4596C54.6263 69.3298 55.6096 72.9998 58.4752 74.6596L60.48 71.1982C59.5223 70.6435 59.1929 69.414 59.7449 68.4548L56.2781 66.4596ZM64.4704 64.2645C61.6011 62.6026 57.932 63.5857 56.2781 66.4596L59.7449 68.4548C60.2948 67.4993 61.5117 67.1733 62.4656 67.7258L64.4704 64.2645ZM35.6676 72.4645C37.3193 69.5943 36.336 65.9243 33.4704 64.2645L31.4656 67.7258C32.4233 68.2805 32.7527 69.51 32.2007 70.4693L35.6676 72.4645ZM27.4752 74.6596C30.3445 76.3215 34.0136 75.3384 35.6676 72.4645L32.2007 70.4693C31.6508 71.4247 30.434 71.7508 29.48 71.1983L27.4752 74.6596ZM25.278 66.4596C23.6263 69.3298 24.6096 72.9998 27.4752 74.6596L29.48 71.1983C28.5223 70.6436 28.1929 69.4141 28.7449 68.4548L25.278 66.4596ZM33.4704 64.2645C30.6011 62.6026 26.932 63.5857 25.278 66.4596L28.7449 68.4548C29.2948 67.4994 30.5116 67.1733 31.4656 67.7258L33.4704 64.2645ZM26.608 88.2064C28.2598 85.3363 27.2764 81.6663 24.4109 80.0065L22.4061 83.4678C23.3638 84.0225 23.6932 85.252 23.1412 86.2112L26.608 88.2064ZM18.4157 90.4016C21.285 92.0635 24.9541 91.0804 26.608 88.2064L23.1412 86.2112C22.5913 87.1667 21.3744 87.4928 20.4205 86.9402L18.4157 90.4016ZM16.2185 82.2016C14.5667 85.0718 15.5501 88.7418 18.4157 90.4016L20.4205 86.9402C19.4628 86.3855 19.1334 85.156 19.6854 84.1968L16.2185 82.2016ZM24.4109 80.0065C21.5415 78.3446 17.8725 79.3277 16.2185 82.2016L19.6854 84.1968C20.2353 83.2413 21.4521 82.9153 22.4061 83.4678L24.4109 80.0065ZM53.406 83.468C54.3637 84.0227 54.6932 85.2522 54.1411 86.2114L57.608 88.2066C59.2598 85.3364 58.2764 81.6664 55.4108 80.0067L53.406 83.468ZM50.6854 84.197C51.2352 83.2415 52.4521 82.9155 53.406 83.468L55.4108 80.0067C52.5415 78.3447 48.8724 79.3279 47.2185 82.2018L50.6854 84.197ZM51.4205 86.9404C50.4628 86.3857 50.1333 85.1562 50.6854 84.197L47.2185 82.2018C45.5667 85.072 46.5501 88.742 49.4156 90.4017L51.4205 86.9404ZM54.1411 86.2114C53.5912 87.1669 52.3744 87.4929 51.4205 86.9404L49.4156 90.4017C52.285 92.0637 55.954 91.0805 57.608 88.2066L54.1411 86.2114Z" fill="black" mask="url(#path-1-inside-1_149_1646)"/>
<path d="M41.0444 79.0606C42.4791 79.8915 44.3137 79.4008 45.1396 77.9657C45.9655 76.5306 45.4719 74.6912 44.0372 73.8603C42.6026 73.0293 40.768 73.5201 39.9421 74.9552C39.1161 76.3903 39.6098 78.2297 41.0444 79.0606Z" fill="#148FCC"/>
<path d="M41.0444 79.0606C42.4791 79.8915 44.3137 79.4008 45.1396 77.9657C45.9655 76.5306 45.4719 74.6912 44.0372 73.8603C42.6026 73.0293 40.768 73.5201 39.9421 74.9552C39.1161 76.3903 39.6098 78.2297 41.0444 79.0606Z" fill="black" fill-opacity="0.2"/>
<path d="M41.0444 79.0606C42.4791 79.8915 44.3137 79.4008 45.1396 77.9657C45.9655 76.5306 45.4719 74.6912 44.0372 73.8603C42.6026 73.0293 40.768 73.5201 39.9421 74.9552C39.1161 76.3903 39.6098 78.2297 41.0444 79.0606Z" stroke="black" stroke-width="2"/>
<mask id="path-4-inside-2_149_1646" fill="white">
<path fill-rule="evenodd" clip-rule="evenodd" d="M74.3284 64H32.2388C14.4338 64 0 49.6731 0 32C0 14.3269 14.4338 0 32.2388 0C47.1165 0 59.6405 10.0032 63.3564 23.6034C66.5746 21.7088 70.3247 20.6222 74.3284 20.6222C86.2973 20.6222 96 30.3327 96 42.3111C96 54.2298 86.3939 63.903 74.5075 63.9993V64L74.3284 64Z"/>
</mask>
<path fill-rule="evenodd" clip-rule="evenodd" d="M74.3284 64H32.2388C14.4338 64 0 49.6731 0 32C0 14.3269 14.4338 0 32.2388 0C47.1165 0 59.6405 10.0032 63.3564 23.6034C66.5746 21.7088 70.3247 20.6222 74.3284 20.6222C86.2973 20.6222 96 30.3327 96 42.3111C96 54.2298 86.3939 63.903 74.5075 63.9993V64L74.3284 64Z" fill="#A2A2C1"/>
<path fill-rule="evenodd" clip-rule="evenodd" d="M74.3284 64H32.2388C14.4338 64 0 49.6731 0 32C0 14.3269 14.4338 0 32.2388 0C47.1165 0 59.6405 10.0032 63.3564 23.6034C66.5746 21.7088 70.3247 20.6222 74.3284 20.6222C86.2973 20.6222 96 30.3327 96 42.3111C96 54.2298 86.3939 63.903 74.5075 63.9993V64L74.3284 64Z" fill="black" fill-opacity="0.2"/>
<path d="M74.3284 64L74.3286 60H74.3284V64ZM63.3564 23.6034L59.4978 24.6576L60.8768 29.7048L65.3856 27.0504L63.3564 23.6034ZM74.5075 63.9993L74.4751 59.9994L70.5075 60.0316V63.9993H74.5075ZM74.5075 64L74.5073 68L78.5075 68.0002V64H74.5075ZM32.2388 68H74.3284V60H32.2388V68ZM32.2388 60C16.6149 60 4 47.436 4 32H-4C-4 51.9102 12.2528 68 32.2388 68V60ZM4 32C4 16.564 16.6149 4 32.2388 4V-4C12.2528 -4 -4 12.0898 -4 32H4ZM32.2388 4C45.2855 4 56.2497 12.7698 59.4978 24.6576L67.2149 22.5491C63.0312 7.23674 48.9476 -4 32.2388 -4V4ZM65.3856 27.0504C68.0058 25.5079 71.0578 24.6222 74.3284 24.6222V16.6222C69.5916 16.6222 65.1433 17.9097 61.3271 20.1563L65.3856 27.0504ZM74.3284 24.6222C84.0852 24.6222 92 32.5388 92 42.3111H100C100 28.1265 88.5095 16.6222 74.3284 16.6222V24.6222ZM92 42.3111C92 52.0345 84.1639 59.9209 74.4751 59.9994L74.5399 67.9992C88.6239 67.8851 100 56.4251 100 42.3111H92ZM78.5075 64V63.9993H70.5075V64H78.5075ZM74.3282 68L74.5073 68L74.5077 60L74.3286 60L74.3282 68Z" fill="black" mask="url(#path-4-inside-2_149_1646)"/>
<mask id="path-6-inside-3_149_1646" fill="white">
<path fill-rule="evenodd" clip-rule="evenodd" d="M70.3934 73.3758H63L67.9289 42.0005H82.7156L75.5961 64.6605H86.5492L66.8336 96.0358L70.3934 73.3758Z"/>
</mask>
<path fill-rule="evenodd" clip-rule="evenodd" d="M70.3934 73.3758H63L67.9289 42.0005H82.7156L75.5961 64.6605H86.5492L66.8336 96.0358L70.3934 73.3758Z" fill="#FFD729"/>
<path d="M63 73.3758L60.0363 72.9102L59.4919 76.3758H63V73.3758ZM70.3934 73.3758L73.357 73.8414L73.9014 70.3758H70.3934V73.3758ZM67.9289 42.0005V39.0005H65.3634L64.9652 41.5349L67.9289 42.0005ZM82.7156 42.0005L85.5777 42.8997L86.8028 39.0005H82.7156V42.0005ZM75.5961 64.6605L72.734 63.7613L71.5089 67.6605H75.5961V64.6605ZM86.5492 64.6605L89.0893 66.2567L91.9775 61.6605H86.5492V64.6605ZM66.8336 96.0358L63.8699 95.5702L69.3737 97.632L66.8336 96.0358ZM63 76.3758H70.3934V70.3758H63V76.3758ZM64.9652 41.5349L60.0363 72.9102L65.9637 73.8414L70.8926 42.4661L64.9652 41.5349ZM82.7156 39.0005H67.9289V45.0005H82.7156V39.0005ZM78.4581 65.5597L85.5777 42.8997L79.8535 41.1013L72.734 63.7613L78.4581 65.5597ZM86.5492 61.6605H75.5961V67.6605H86.5492V61.6605ZM69.3737 97.632L89.0893 66.2567L84.0091 63.0643L64.2935 94.4397L69.3737 97.632ZM67.4297 72.9102L63.8699 95.5702L69.7973 96.5014L73.357 73.8414L67.4297 72.9102Z" fill="black" mask="url(#path-6-inside-3_149_1646)"/>
</g>
<defs>
<clipPath id="clip0_149_1646">
<rect width="96" height="96" fill="white"/>
</clipPath>
</defs>
</svg>
