<svg width="48" height="48" viewBox="0 0 48 48" fill="none" xmlns="http://www.w3.org/2000/svg">
<mask id="path-1-inside-1_82_604" fill="white">
<path fill-rule="evenodd" clip-rule="evenodd" d="M30.8934 40.3494C29.9165 39.7854 29.5818 38.5362 30.1458 37.5593L32.1883 34.0216C32.7523 33.0447 34.0015 32.71 34.9784 33.274C35.9553 33.838 36.29 35.0872 35.726 36.0641L33.6835 39.6018C33.1195 40.5787 31.8703 40.9134 30.8934 40.3494ZM13.0216 43.9237C12.0447 43.3597 11.71 42.1105 12.274 41.1336L16.359 34.0582C16.923 33.0813 18.1722 32.7466 19.1491 33.3106C20.126 33.8746 20.4607 35.1238 19.8967 36.1007L15.8117 43.1761C15.2477 44.153 13.9985 44.4878 13.0216 43.9237Z"/>
</mask>
<path fill-rule="evenodd" clip-rule="evenodd" d="M30.8934 40.3494C29.9165 39.7854 29.5818 38.5362 30.1458 37.5593L32.1883 34.0216C32.7523 33.0447 34.0015 32.71 34.9784 33.274C35.9553 33.838 36.29 35.0872 35.726 36.0641L33.6835 39.6018C33.1195 40.5787 31.8703 40.9134 30.8934 40.3494ZM13.0216 43.9237C12.0447 43.3597 11.71 42.1105 12.274 41.1336L16.359 34.0582C16.923 33.0813 18.1722 32.7466 19.1491 33.3106C20.126 33.8746 20.4607 35.1238 19.8967 36.1007L15.8117 43.1761C15.2477 44.153 13.9985 44.4878 13.0216 43.9237Z" fill="#148FCC"/>
<path fill-rule="evenodd" clip-rule="evenodd" d="M30.8934 40.3494C29.9165 39.7854 29.5818 38.5362 30.1458 37.5593L32.1883 34.0216C32.7523 33.0447 34.0015 32.71 34.9784 33.274C35.9553 33.838 36.29 35.0872 35.726 36.0641L33.6835 39.6018C33.1195 40.5787 31.8703 40.9134 30.8934 40.3494ZM13.0216 43.9237C12.0447 43.3597 11.71 42.1105 12.274 41.1336L16.359 34.0582C16.923 33.0813 18.1722 32.7466 19.1491 33.3106C20.126 33.8746 20.4607 35.1238 19.8967 36.1007L15.8117 43.1761C15.2477 44.153 13.9985 44.4878 13.0216 43.9237Z" fill="black" fill-opacity="0.1"/>
<path d="M30.1458 37.5593L31.4448 38.3093L31.4448 38.3093L30.1458 37.5593ZM30.8934 40.3494L30.1434 41.6484L30.1434 41.6484L30.8934 40.3494ZM32.1883 34.0216L33.4873 34.7716L33.4873 34.7716L32.1883 34.0216ZM34.9784 33.274L35.7284 31.9749L35.7284 31.9749L34.9784 33.274ZM35.726 36.0641L34.427 35.3141L34.427 35.3141L35.726 36.0641ZM33.6835 39.6018L32.3845 38.8518L32.3845 38.8518L33.6835 39.6018ZM12.274 41.1336L10.9749 40.3836L10.9749 40.3836L12.274 41.1336ZM13.0216 43.9237L12.2716 45.2228L12.2716 45.2228L13.0216 43.9237ZM16.359 34.0582L15.0599 33.3082L15.0599 33.3082L16.359 34.0582ZM19.1491 33.3106L19.8991 32.0116L19.8991 32.0116L19.1491 33.3106ZM19.8967 36.1007L18.5976 35.3507L18.5976 35.3507L19.8967 36.1007ZM15.8117 43.1761L17.1107 43.9261L17.1107 43.9261L15.8117 43.1761ZM28.8468 36.8093C27.8685 38.5036 28.4491 40.6702 30.1434 41.6484L31.6434 39.0504C31.3839 38.9006 31.295 38.5688 31.4448 38.3093L28.8468 36.8093ZM30.8893 33.2716L28.8468 36.8093L31.4448 38.3093L33.4873 34.7716L30.8893 33.2716ZM35.7284 31.9749C34.0341 30.9967 31.8675 31.5772 30.8893 33.2716L33.4873 34.7716C33.6371 34.5121 33.9689 34.4232 34.2284 34.573L35.7284 31.9749ZM37.025 36.8141C38.0033 35.1197 37.4228 32.9532 35.7284 31.9749L34.2284 34.573C34.4879 34.7228 34.5768 35.0546 34.427 35.3141L37.025 36.8141ZM34.9826 40.3518L37.025 36.8141L34.427 35.3141L32.3845 38.8518L34.9826 40.3518ZM30.1434 41.6484C31.8378 42.6267 34.0043 42.0461 34.9826 40.3518L32.3845 38.8518C32.2347 39.1113 31.9029 39.2002 31.6434 39.0504L30.1434 41.6484ZM10.9749 40.3836C9.99671 42.078 10.5772 44.2445 12.2716 45.2228L13.7716 42.6247C13.5121 42.4749 13.4232 42.1431 13.573 41.8836L10.9749 40.3836ZM15.0599 33.3082L10.9749 40.3836L13.573 41.8836L17.658 34.8082L15.0599 33.3082ZM19.8991 32.0116C18.2047 31.0333 16.0382 31.6139 15.0599 33.3082L17.658 34.8082C17.8078 34.5488 18.1396 34.4599 18.3991 34.6097L19.8991 32.0116ZM21.1957 36.8507C22.174 35.1564 21.5934 32.9898 19.8991 32.0116L18.3991 34.6097C18.6585 34.7595 18.7474 35.0912 18.5976 35.3507L21.1957 36.8507ZM17.1107 43.9261L21.1957 36.8507L18.5976 35.3507L14.5127 42.4261L17.1107 43.9261ZM12.2716 45.2228C13.9659 46.201 16.1325 45.6205 17.1107 43.9261L14.5127 42.4261C14.3628 42.6856 14.0311 42.7745 13.7716 42.6247L12.2716 45.2228Z" fill="black" mask="url(#path-1-inside-1_82_604)"/>
<mask id="path-3-inside-2_82_604" fill="white">
<path fill-rule="evenodd" clip-rule="evenodd" d="M37.1642 32H16.1194C7.2169 32 0 24.8366 0 16C0 7.16345 7.2169 0 16.1194 0C23.5583 0 29.8202 5.00162 31.6782 11.8017C33.2873 10.8544 35.1623 10.3111 37.1642 10.3111C43.1487 10.3111 48 15.1663 48 21.1556C48 27.1149 43.197 31.9515 37.2537 31.9996V32H37.1642Z"/>
</mask>
<path fill-rule="evenodd" clip-rule="evenodd" d="M37.1642 32H16.1194C7.2169 32 0 24.8366 0 16C0 7.16345 7.2169 0 16.1194 0C23.5583 0 29.8202 5.00162 31.6782 11.8017C33.2873 10.8544 35.1623 10.3111 37.1642 10.3111C43.1487 10.3111 48 15.1663 48 21.1556C48 27.1149 43.197 31.9515 37.2537 31.9996V32H37.1642Z" fill="white"/>
<path d="M31.6782 11.8017L28.7843 12.5924L29.8185 16.3777L33.2001 14.387L31.6782 11.8017ZM37.2537 31.9996L37.2294 28.9997L34.2537 29.0238V31.9996H37.2537ZM37.2537 32V35H40.2537V32H37.2537ZM16.1194 35H37.1642V29H16.1194V35ZM16.1194 29C8.85269 29 3 23.1587 3 16H-3C-3 26.5144 5.58112 35 16.1194 35V29ZM3 16C3 8.84129 8.85269 3 16.1194 3V-3C5.58112 -3 -3 5.4856 -3 16H3ZM16.1194 3C22.185 3 27.2772 7.0765 28.7843 12.5924L34.5721 11.011C32.3633 2.92674 24.9316 -3 16.1194 -3V3ZM33.2001 14.387C34.3607 13.7037 35.7122 13.3111 37.1642 13.3111V7.31111C34.6125 7.31111 32.2138 8.00508 30.1562 9.21641L33.2001 14.387ZM37.1642 13.3111C41.4895 13.3111 45 16.8209 45 21.1556H51C51 13.5117 44.8078 7.31111 37.1642 7.31111V13.3111ZM45 21.1556C45 25.4684 41.5245 28.965 37.2294 28.9997L37.278 34.9995C44.8695 34.9381 51 28.7614 51 21.1556H45ZM40.2537 32V31.9996H34.2537V32H40.2537ZM37.1642 35H37.2537V29H37.1642V35Z" fill="black" mask="url(#path-3-inside-2_82_604)"/>
</svg>
