<svg width="96" height="96" viewBox="0 0 96 96" fill="none" xmlns="http://www.w3.org/2000/svg">
<mask id="path-1-inside-1_78_586" fill="white">
<path fill-rule="evenodd" clip-rule="evenodd" d="M55.0007 80.4392C53.0875 79.3311 52.4306 76.8794 53.5334 74.9631L57.5398 68.0015C58.6426 66.0853 61.0875 65.4302 63.0007 66.5383C64.9139 67.6464 65.5708 70.0981 64.468 72.0144L60.4616 78.976C59.3588 80.8922 56.9139 81.5473 55.0007 80.4392ZM20.0007 87.4617C18.0875 86.3536 17.4306 83.9019 18.5334 81.9856L26.5398 68.0736C27.6426 66.1573 30.0875 65.5022 32.0007 66.6103C33.9139 67.7184 34.5708 70.1702 33.468 72.0864L25.4616 85.9985C24.3588 87.9147 21.9139 88.5698 20.0007 87.4617Z"/>
</mask>
<path fill-rule="evenodd" clip-rule="evenodd" d="M55.0007 80.4392C53.0875 79.3311 52.4306 76.8794 53.5334 74.9631L57.5398 68.0015C58.6426 66.0853 61.0875 65.4302 63.0007 66.5383C64.9139 67.6464 65.5708 70.0981 64.468 72.0144L60.4616 78.976C59.3588 80.8922 56.9139 81.5473 55.0007 80.4392ZM20.0007 87.4617C18.0875 86.3536 17.4306 83.9019 18.5334 81.9856L26.5398 68.0736C27.6426 66.1573 30.0875 65.5022 32.0007 66.6103C33.9139 67.7184 34.5708 70.1702 33.468 72.0864L25.4616 85.9985C24.3588 87.9147 21.9139 88.5698 20.0007 87.4617Z" fill="#148FCC"/>
<path fill-rule="evenodd" clip-rule="evenodd" d="M55.0007 80.4392C53.0875 79.3311 52.4306 76.8794 53.5334 74.9631L57.5398 68.0015C58.6426 66.0853 61.0875 65.4302 63.0007 66.5383C64.9139 67.6464 65.5708 70.0981 64.468 72.0144L60.4616 78.976C59.3588 80.8922 56.9139 81.5473 55.0007 80.4392ZM20.0007 87.4617C18.0875 86.3536 17.4306 83.9019 18.5334 81.9856L26.5398 68.0736C27.6426 66.1573 30.0875 65.5022 32.0007 66.6103C33.9139 67.7184 34.5708 70.1702 33.468 72.0864L25.4616 85.9985C24.3588 87.9147 21.9139 88.5698 20.0007 87.4617Z" fill="black" fill-opacity="0.1"/>
<path d="M53.5334 74.9631L51.7999 73.9655L51.7999 73.9655L53.5334 74.9631ZM55.0007 80.4392L53.9983 82.1699L53.9983 82.1699L55.0007 80.4392ZM57.5398 68.0015L59.2732 68.9991L59.2732 68.9991L57.5398 68.0015ZM63.0007 66.5383L64.0031 64.8076L64.0031 64.8076L63.0007 66.5383ZM64.468 72.0144L62.7346 71.0168L62.7346 71.0168L64.468 72.0144ZM60.4616 78.976L58.7281 77.9784L58.7281 77.9784L60.4616 78.976ZM18.5334 81.9856L16.7999 80.988L16.7999 80.988L18.5334 81.9856ZM20.0007 87.4617L21.0031 85.7311L21.0031 85.7311L20.0007 87.4617ZM26.5398 68.0736L28.2732 69.0712L28.2732 69.0712L26.5398 68.0736ZM32.0007 66.6103L30.9983 68.341L30.9983 68.341L32.0007 66.6103ZM33.468 72.0864L31.7346 71.0888L33.468 72.0864ZM25.4616 85.9985L27.195 86.9961L27.195 86.9961L25.4616 85.9985ZM51.7999 73.9655C50.1473 76.8373 51.1312 80.5092 53.9983 82.1699L56.0031 78.7086C55.0439 78.153 54.7139 76.9215 55.2668 75.9607L51.7999 73.9655ZM55.8064 67.0039L51.7999 73.9655L55.2668 75.9607L59.2732 68.9991L55.8064 67.0039ZM64.0031 64.8076C61.1322 63.1448 57.4612 64.1285 55.8064 67.0039L59.2732 68.9991C59.824 68.0421 61.0428 67.7155 61.9983 68.269L64.0031 64.8076ZM66.2014 73.012C67.8541 70.1403 66.8702 66.4683 64.0031 64.8076L61.9983 68.269C62.9575 68.8246 63.2875 70.056 62.7346 71.0168L66.2014 73.012ZM62.195 79.9736L66.2014 73.012L62.7346 71.0168L58.7281 77.9784L62.195 79.9736ZM53.9983 82.1699C56.8691 83.8327 60.5402 82.8491 62.195 79.9736L58.7281 77.9784C58.1774 78.9354 56.9586 79.262 56.0031 78.7086L53.9983 82.1699ZM16.7999 80.988C15.1473 83.8598 16.1312 87.5317 18.9983 89.1924L21.0031 85.7311C20.0439 85.1755 19.7139 83.944 20.2668 82.9832L16.7999 80.988ZM24.8064 67.076L16.7999 80.988L20.2668 82.9832L28.2732 69.0712L24.8064 67.076ZM33.0031 64.8797C30.1322 63.2169 26.4612 64.2005 24.8064 67.076L28.2732 69.0712C28.824 68.1142 30.0428 67.7876 30.9983 68.341L33.0031 64.8797ZM35.2014 73.084C36.8541 70.2123 35.8702 66.5403 33.0031 64.8797L30.9983 68.341C31.9575 68.8966 32.2875 70.1281 31.7346 71.0888L35.2014 73.084ZM27.195 86.9961L35.2014 73.084L31.7346 71.0888L23.7281 85.0009L27.195 86.9961ZM18.9983 89.1924C21.8691 90.8552 25.5402 89.8716 27.195 86.9961L23.7281 85.0009C23.1774 85.9579 21.9586 86.2845 21.0031 85.7311L18.9983 89.1924Z" fill="black" mask="url(#path-1-inside-1_78_586)"/>
<mask id="path-3-inside-2_78_586" fill="white">
<path fill-rule="evenodd" clip-rule="evenodd" d="M74.3284 64H32.2388C14.4338 64 0 49.6731 0 32C0 14.3269 14.4338 0 32.2388 0C47.1165 0 59.6405 10.0032 63.3564 23.6034C66.5746 21.7088 70.3247 20.6222 74.3284 20.6222C86.2973 20.6222 96 30.3327 96 42.3111C96 54.2298 86.3939 63.903 74.5075 63.9993V64L74.3284 64Z"/>
</mask>
<path fill-rule="evenodd" clip-rule="evenodd" d="M74.3284 64H32.2388C14.4338 64 0 49.6731 0 32C0 14.3269 14.4338 0 32.2388 0C47.1165 0 59.6405 10.0032 63.3564 23.6034C66.5746 21.7088 70.3247 20.6222 74.3284 20.6222C86.2973 20.6222 96 30.3327 96 42.3111C96 54.2298 86.3939 63.903 74.5075 63.9993V64L74.3284 64Z" fill="white"/>
<path d="M74.3284 64L74.3286 60H74.3284V64ZM63.3564 23.6034L59.4978 24.6576L60.8768 29.7048L65.3856 27.0504L63.3564 23.6034ZM74.5075 63.9993L74.4751 59.9994L70.5075 60.0316V63.9993H74.5075ZM74.5075 64L74.5073 68L78.5075 68.0002V64H74.5075ZM32.2388 68H74.3284V60H32.2388V68ZM32.2388 60C16.6149 60 4 47.436 4 32H-4C-4 51.9102 12.2528 68 32.2388 68V60ZM4 32C4 16.564 16.6149 4 32.2388 4V-4C12.2528 -4 -4 12.0898 -4 32H4ZM32.2388 4C45.2855 4 56.2497 12.7698 59.4978 24.6576L67.2149 22.5491C63.0312 7.23674 48.9476 -4 32.2388 -4V4ZM65.3856 27.0504C68.0058 25.5079 71.0578 24.6222 74.3284 24.6222V16.6222C69.5916 16.6222 65.1433 17.9097 61.3271 20.1563L65.3856 27.0504ZM74.3284 24.6222C84.0852 24.6222 92 32.5388 92 42.3111H100C100 28.1265 88.5095 16.6222 74.3284 16.6222V24.6222ZM92 42.3111C92 52.0345 84.1639 59.9209 74.4751 59.9994L74.5399 67.9992C88.6239 67.8851 100 56.4251 100 42.3111H92ZM78.5075 64V63.9993H70.5075V64H78.5075ZM74.3282 68L74.5073 68L74.5077 60L74.3286 60L74.3282 68Z" fill="black" mask="url(#path-3-inside-2_78_586)"/>
</svg>
