<svg width="48" height="48" viewBox="0 0 48 48" fill="none" xmlns="http://www.w3.org/2000/svg">
<g clip-path="url(#clip0_97_779)">
<rect x="-1.0231" y="0.274136" width="2.50293" height="15.5288" rx="1.25146" transform="matrix(-0.865329 -0.501203 -0.498797 0.866719 15.9252 33.4984)" fill="#148FCC"/>
<rect x="-1.0231" y="0.274136" width="2.50293" height="15.5288" rx="1.25146" transform="matrix(-0.865329 -0.501203 -0.498797 0.866719 15.9252 33.4984)" fill="black" fill-opacity="0.1"/>
<rect x="-1.0231" y="0.274136" width="2.50293" height="15.5288" rx="1.25146" transform="matrix(-0.865329 -0.501203 -0.498797 0.866719 15.9252 33.4984)" stroke="black" stroke-width="1.5"/>
<path d="M33.9177 34.0789L29.9142 41.0354C29.5695 41.6344 29.7748 42.4009 30.3729 42.7473C30.971 43.0937 31.7353 42.8889 32.0801 42.2899L36.0835 35.3334C36.4283 34.7344 36.2229 33.9679 35.6248 33.6215C35.0267 33.2751 34.2624 33.4799 33.9177 34.0789Z" fill="#148FCC"/>
<path d="M33.9177 34.0789L29.9142 41.0354C29.5695 41.6344 29.7748 42.4009 30.3729 42.7473C30.971 43.0937 31.7353 42.8889 32.0801 42.2899L36.0835 35.3334C36.4283 34.7344 36.2229 33.9679 35.6248 33.6215C35.0267 33.2751 34.2624 33.4799 33.9177 34.0789Z" fill="black" fill-opacity="0.1"/>
<path d="M33.9177 34.0789L29.9142 41.0354C29.5695 41.6344 29.7748 42.4009 30.3729 42.7473C30.971 43.0937 31.7353 42.8889 32.0801 42.2899L36.0835 35.3334C36.4283 34.7344 36.2229 33.9679 35.6248 33.6215C35.0267 33.2751 34.2624 33.4799 33.9177 34.0789Z" stroke="black" stroke-width="1.5"/>
<rect x="-1.0231" y="0.274136" width="2.50293" height="6.51871" rx="1.25146" transform="matrix(-0.865329 -0.501203 -0.498797 0.866719 24.96 33.4984)" fill="#148FCC"/>
<rect x="-1.0231" y="0.274136" width="2.50293" height="6.51871" rx="1.25146" transform="matrix(-0.865329 -0.501203 -0.498797 0.866719 24.96 33.4984)" fill="black" fill-opacity="0.4"/>
<rect x="-1.0231" y="0.274136" width="2.50293" height="6.51871" rx="1.25146" transform="matrix(-0.865329 -0.501203 -0.498797 0.866719 24.96 33.4984)" stroke="black" stroke-width="1.5"/>
<mask id="path-4-inside-1_97_779" fill="white">
<path fill-rule="evenodd" clip-rule="evenodd" d="M37.1642 32H16.1194C7.2169 32 0 24.8366 0 16C0 7.16345 7.2169 0 16.1194 0C23.5583 0 29.8202 5.00162 31.6782 11.8017C33.2873 10.8544 35.1623 10.3111 37.1642 10.3111C43.1487 10.3111 48 15.1663 48 21.1556C48 27.1149 43.197 31.9515 37.2537 31.9996V32H37.1642Z"/>
</mask>
<path fill-rule="evenodd" clip-rule="evenodd" d="M37.1642 32H16.1194C7.2169 32 0 24.8366 0 16C0 7.16345 7.2169 0 16.1194 0C23.5583 0 29.8202 5.00162 31.6782 11.8017C33.2873 10.8544 35.1623 10.3111 37.1642 10.3111C43.1487 10.3111 48 15.1663 48 21.1556C48 27.1149 43.197 31.9515 37.2537 31.9996V32H37.1642Z" fill="#A2A2C1"/>
<path d="M31.6782 11.8017L28.7843 12.5924L29.8185 16.3777L33.2001 14.387L31.6782 11.8017ZM37.2537 31.9996L37.2294 28.9997L34.2537 29.0238V31.9996H37.2537ZM37.2537 32V35H40.2537V32H37.2537ZM16.1194 35H37.1642V29H16.1194V35ZM16.1194 29C8.85269 29 3 23.1587 3 16H-3C-3 26.5144 5.58112 35 16.1194 35V29ZM3 16C3 8.84129 8.85269 3 16.1194 3V-3C5.58112 -3 -3 5.4856 -3 16H3ZM16.1194 3C22.185 3 27.2772 7.0765 28.7843 12.5924L34.5721 11.011C32.3633 2.92674 24.9316 -3 16.1194 -3V3ZM33.2001 14.387C34.3607 13.7037 35.7122 13.3111 37.1642 13.3111V7.31111C34.6125 7.31111 32.2138 8.00508 30.1562 9.21641L33.2001 14.387ZM37.1642 13.3111C41.4895 13.3111 45 16.8209 45 21.1556H51C51 13.5117 44.8078 7.31111 37.1642 7.31111V13.3111ZM45 21.1556C45 25.4684 41.5245 28.965 37.2294 28.9997L37.278 34.9995C44.8695 34.9381 51 28.7614 51 21.1556H45ZM40.2537 32V31.9996H34.2537V32H40.2537ZM37.1642 35H37.2537V29H37.1642V35Z" fill="black" mask="url(#path-4-inside-1_97_779)"/>
</g>
<defs>
<clipPath id="clip0_97_779">
<rect width="48" height="48" fill="white"/>
</clipPath>
</defs>
</svg>
