<svg width="96" height="96" viewBox="0 0 96 96" fill="none" xmlns="http://www.w3.org/2000/svg">
<g clip-path="url(#clip0_97_769)">
<rect x="-1.36413" y="0.365515" width="6.00643" height="32.06" rx="3.00322" transform="matrix(-0.865329 -0.501203 -0.498797 0.866719 33.5671 67.365)" fill="#148FCC"/>
<rect x="-1.36413" y="0.365515" width="6.00643" height="32.06" rx="3.00322" transform="matrix(-0.865329 -0.501203 -0.498797 0.866719 33.5671 67.365)" fill="black" fill-opacity="0.1"/>
<rect x="-1.36413" y="0.365515" width="6.00643" height="32.06" rx="3.00322" transform="matrix(-0.865329 -0.501203 -0.498797 0.866719 33.5671 67.365)" stroke="black" stroke-width="2"/>
<path d="M67.9405 67.958L59.933 81.8719C59.1057 83.3095 59.5985 85.1488 61.0337 85.9801C62.469 86.8114 64.3032 86.3199 65.1305 84.8824L73.138 70.9685C73.9653 69.5309 73.4725 67.6916 72.0372 66.8603C70.602 66.029 68.7678 66.5204 67.9405 67.958Z" fill="#148FCC"/>
<path d="M67.9405 67.958L59.933 81.8719C59.1057 83.3095 59.5985 85.1488 61.0337 85.9801C62.469 86.8114 64.3032 86.3199 65.1305 84.8824L73.138 70.9685C73.9653 69.5309 73.4725 67.6916 72.0372 66.8603C70.602 66.029 68.7678 66.5204 67.9405 67.958Z" fill="black" fill-opacity="0.1"/>
<path d="M67.9405 67.958L59.933 81.8719C59.1057 83.3095 59.5985 85.1488 61.0337 85.9801C62.469 86.8114 64.3032 86.3199 65.1305 84.8824L73.138 70.9685C73.9653 69.5309 73.4725 67.6916 72.0372 66.8603C70.602 66.029 68.7678 66.5204 67.9405 67.958Z" stroke="black" stroke-width="2"/>
<rect x="-1.36413" y="0.365515" width="6.00643" height="14.0386" rx="3.00322" transform="matrix(-0.865329 -0.501203 -0.498797 0.866719 51.6378 67.365)" fill="#148FCC"/>
<rect x="-1.36413" y="0.365515" width="6.00643" height="14.0386" rx="3.00322" transform="matrix(-0.865329 -0.501203 -0.498797 0.866719 51.6378 67.365)" fill="black" fill-opacity="0.4"/>
<rect x="-1.36413" y="0.365515" width="6.00643" height="14.0386" rx="3.00322" transform="matrix(-0.865329 -0.501203 -0.498797 0.866719 51.6378 67.365)" stroke="black" stroke-width="2"/>
<mask id="path-4-inside-1_97_769" fill="white">
<path fill-rule="evenodd" clip-rule="evenodd" d="M74.3284 64H32.2388C14.4338 64 0 49.6731 0 32C0 14.3269 14.4338 0 32.2388 0C47.1165 0 59.6405 10.0032 63.3564 23.6034C66.5746 21.7088 70.3247 20.6222 74.3284 20.6222C86.2973 20.6222 96 30.3327 96 42.3111C96 54.2298 86.3939 63.903 74.5075 63.9993V64L74.3284 64Z"/>
</mask>
<path fill-rule="evenodd" clip-rule="evenodd" d="M74.3284 64H32.2388C14.4338 64 0 49.6731 0 32C0 14.3269 14.4338 0 32.2388 0C47.1165 0 59.6405 10.0032 63.3564 23.6034C66.5746 21.7088 70.3247 20.6222 74.3284 20.6222C86.2973 20.6222 96 30.3327 96 42.3111C96 54.2298 86.3939 63.903 74.5075 63.9993V64L74.3284 64Z" fill="#A2A2C1"/>
<path d="M74.3284 64L74.3286 60H74.3284V64ZM63.3564 23.6034L59.4978 24.6576L60.8768 29.7048L65.3856 27.0504L63.3564 23.6034ZM74.5075 63.9993L74.4751 59.9994L70.5075 60.0316V63.9993H74.5075ZM74.5075 64L74.5073 68L78.5075 68.0002V64H74.5075ZM32.2388 68H74.3284V60H32.2388V68ZM32.2388 60C16.6149 60 4 47.436 4 32H-4C-4 51.9102 12.2528 68 32.2388 68V60ZM4 32C4 16.564 16.6149 4 32.2388 4V-4C12.2528 -4 -4 12.0898 -4 32H4ZM32.2388 4C45.2855 4 56.2497 12.7698 59.4978 24.6576L67.2149 22.5491C63.0312 7.23674 48.9476 -4 32.2388 -4V4ZM65.3856 27.0504C68.0058 25.5079 71.0578 24.6222 74.3284 24.6222V16.6222C69.5916 16.6222 65.1433 17.9097 61.3271 20.1563L65.3856 27.0504ZM74.3284 24.6222C84.0852 24.6222 92 32.5388 92 42.3111H100C100 28.1265 88.5095 16.6222 74.3284 16.6222V24.6222ZM92 42.3111C92 52.0345 84.1639 59.9209 74.4751 59.9994L74.5399 67.9992C88.6239 67.8851 100 56.4251 100 42.3111H92ZM78.5075 64V63.9993H70.5075V64H78.5075ZM74.3282 68L74.5073 68L74.5077 60L74.3286 60L74.3282 68Z" fill="black" mask="url(#path-4-inside-1_97_769)"/>
</g>
<defs>
<clipPath id="clip0_97_769">
<rect width="96" height="96" fill="white"/>
</clipPath>
</defs>
</svg>
